<?xml version="1.0" encoding="UTF-8"?>
<!DOCTYPE svg PUBLIC "-//W3C//DTD SVG 1.1//EN" "http://www.w3.org/Graphics/SVG/1.1/DTD/svg11.dtd">
<!-- Creator: CorelDRAW 2019 (64-Bit Evaluation Version) -->
<svg xmlns="http://www.w3.org/2000/svg" xml:space="preserve" width="148mm" height="150mm" version="1.1" style="shape-rendering:geometricPrecision; text-rendering:geometricPrecision; image-rendering:optimizeQuality; fill-rule:evenodd; clip-rule:evenodd"
viewBox="0 0 14800 15000"
 xmlns:xlink="http://www.w3.org/1999/xlink"
 xmlns:xodm="http://www.corel.com/coreldraw/odm/2003">
 <defs>
  <style type="text/css">
   <![CDATA[
    .fil0 {fill:#3A8601}
    .fil3 {fill:#7BAE55}
    .fil2 {fill:#99C17B}
    .fil1 {fill:#FEFFFE}
   ]]>
  </style>
 </defs>
 <g id="Layer_x0020_1">
  <metadata id="CorelCorpID_0Corel-Layer"/>
  <g id="_2029151616288">
   <g id="_2029135101856">
    <path class="fil0" d="M7589.92 12116.04c-77.73,-170.88 -32.82,-636.15 -31.31,-845.3l-495.83 3.85 -33.3 870.54c-43.22,122.88 -148.81,220.98 -314.11,212.27 -188.22,-9.92 -240.36,-99.57 -282,-248.2 -85.66,-189.26 -38.11,-596.84 -22.87,-832.24l-471.35 6.33 -79.87 -30.89c-529.5,-90.53 -393.05,-707.06 -393.05,-1420.42 0,-588.51 -20.5,-1214.76 3.51,-1798.62l3674.74 -0.02c30.87,668.47 3.9,1401.69 3.9,2077.74 0,1014.86 123.01,1166.24 -946.11,1155.37 -36.56,226.92 31.99,750.01 -41.89,910.81 -117.05,254.71 -514.83,255.95 -570.46,-61.22zm-568.68 -7835.16l633.88 0c575.69,39.78 1145.18,188.71 1674.66,454.82 1668.39,838.52 2551.3,2401.02 2625.63,3994.01l0 441.72c-52.35,1107.5 -496.67,2198.8 -1341.25,3040.71 -822.7,820.09 -1912.79,1295.6 -3026.17,1372.25l-637.6 0c-575.02,-39.97 -1143.86,-188.94 -1672.86,-454.82 -1617.23,-812.81 -2625.63,-2277.71 -2625.63,-4320.98 0,-1325.49 671.79,-2487.69 1341.25,-3155.46 822.47,-820.39 1913.66,-1296 3028.09,-1372.25zm-2442.32 5613.12c-46.08,-315.06 -3.18,-1007.75 -5.25,-1364.84 -4.33,-746.24 568.12,-509.13 613.69,-241.88 46.54,272.93 4.03,1033.23 5.76,1359.02 4.09,765.65 -577.32,499.8 -614.2,247.7zm4838.76 -31.02c-36.63,-389.24 -2.13,-955.98 -3.66,-1365.46 -2.48,-667.21 574.78,-522.46 618.25,-184.51 43.73,340 3.28,989.83 5.04,1364.55 3.16,677.58 -587.68,524.76 -619.63,185.42zm-2979.52 -3713.27c-49.45,-140.85 -320.4,-526.91 -281.93,-626.03 87.14,21.22 65.46,10.6 121.51,123.59 24.83,50.02 40.39,87.69 72.25,145.51 32.09,58.2 58.93,106.24 88.2,158.33 14.3,25.44 30.1,53.53 47.13,79.59 51.13,78.21 10.51,18.92 43.04,58.59 770.7,-256.06 879.37,-214.39 1619.5,23.15 39.36,-97.47 112.98,-230.13 164.72,-327.11 184.56,-345.89 102.44,-239.62 212.64,-267.97 -31.71,157.78 -227.39,458.67 -306.29,624.22 30.45,35.17 10.64,14.38 54.81,50.42l313.8 247.28c290.92,276.11 609.48,898.15 532.87,1299.91l-3628.32 -3.57c-78.81,-541.56 413.48,-1364.43 946.07,-1585.91z"/>
    <path class="fil1" d="M5859.28 11252.4l572.9 16 1.19 840.8c41.64,148.63 93.78,238.28 282,248.2 165.3,8.71 270.89,-89.39 314.11,-212.27l11.91 -869.78c139.07,-58.82 384.11,-45.56 542.43,-10.54l6.1 851.23c55.63,317.17 453.41,315.93 570.46,61.22 73.88,-160.8 5.33,-683.89 41.89,-910.81 1069.12,10.87 946.11,-140.51 946.11,-1155.37 0,-676.05 26.97,-1409.27 -3.9,-2077.74l-3674.74 0.02c-24.01,583.86 -3.51,1210.11 -3.51,1798.62 0,713.36 -136.45,1329.89 393.05,1420.42z"/>
    <path class="fil1" d="M8381.77 6789.39c18.51,323.13 -262.72,268.19 -318.89,141.58 -87.87,-198.09 137.15,-321.28 318.89,-141.58zm-2107.95 -69.93c221.93,-136.66 370.95,207.32 164.55,295.35 -187.19,79.83 -343.69,-185.06 -164.55,-295.35zm164.34 -569.75c-532.59,221.48 -1024.88,1044.35 -946.07,1585.91l3628.32 3.57c76.61,-401.76 -241.95,-1023.8 -532.87,-1299.91l-313.8 -247.28c-44.17,-36.04 -24.36,-15.25 -54.81,-50.42 78.9,-165.55 274.58,-466.44 306.29,-624.22 -110.2,28.35 -28.08,-77.92 -212.64,267.97 -51.74,96.98 -125.36,229.64 -164.72,327.11 -740.13,-237.54 -848.8,-279.21 -1619.5,-23.15 -32.53,-39.67 8.09,19.62 -43.04,-58.59 -17.03,-26.06 -32.83,-54.15 -47.13,-79.59 -29.27,-52.09 -56.11,-100.13 -88.2,-158.33 -31.86,-57.82 -47.42,-95.49 -72.25,-145.51 -56.05,-112.99 -34.37,-102.37 -121.51,-123.59 -38.47,99.12 232.48,485.18 281.93,626.03z"/>
    <path class="fil1" d="M9417.68 9862.98c31.95,339.34 622.79,492.16 619.63,-185.42 -1.76,-374.72 38.69,-1024.55 -5.04,-1364.55 -43.47,-337.95 -620.73,-482.7 -618.25,184.51 1.53,409.48 -32.97,976.22 3.66,1365.46z"/>
    <path class="fil1" d="M4578.92 9894c36.88,252.1 618.29,517.95 614.2,-247.7 -1.73,-325.79 40.78,-1086.09 -5.76,-1359.02 -45.57,-267.25 -618.02,-504.36 -613.69,241.88 2.07,357.09 -40.83,1049.78 5.25,1364.84z"/>
    <path class="fil0" d="M6273.82 6719.46c-179.14,110.29 -22.64,375.18 164.55,295.35 206.4,-88.03 57.38,-432.01 -164.55,-295.35z"/>
    <path class="fil0" d="M8381.77 6789.39c-181.74,-179.7 -406.76,-56.51 -318.89,141.58 56.17,126.61 337.4,181.55 318.89,-141.58z"/>
    <path class="fil2" d="M7029.48 12145.13l33.3 -870.54 495.83 -3.85c-1.51,209.15 -46.42,674.42 31.31,845.3l-6.1 -851.23c-158.32,-35.02 -403.36,-48.28 -542.43,10.54l-11.91 869.78z"/>
    <path class="fil3" d="M6433.37 12109.2l-1.19 -840.8 -572.9 -16 79.87 30.89 471.35 -6.33c-15.24,235.4 -62.79,642.98 22.87,832.24z"/>
   </g>
  </g>
 </g>
</svg>
