<?xml version="1.0" encoding="UTF-8"?>
<!DOCTYPE svg PUBLIC "-//W3C//DTD SVG 1.1//EN" "http://www.w3.org/Graphics/SVG/1.1/DTD/svg11.dtd">
<!-- Creator: CorelDRAW 2019 (64-Bit Evaluation Version) -->
<svg xmlns="http://www.w3.org/2000/svg" xml:space="preserve" width="420mm" height="297mm" version="1.1" style="shape-rendering:geometricPrecision; text-rendering:geometricPrecision; image-rendering:optimizeQuality; fill-rule:evenodd; clip-rule:evenodd"
viewBox="0 0 42000 29700"
 xmlns:xlink="http://www.w3.org/1999/xlink"
 xmlns:xodm="http://www.corel.com/coreldraw/odm/2003">
 <defs>
  <style type="text/css">
   <![CDATA[
    .str0 {stroke:black;stroke-width:20;stroke-miterlimit:22.9256}
    .fil2 {fill:none}
    .fil0 {fill:#009933}
    .fil1 {fill:#339966}
   ]]>
  </style>
 </defs>
 <g id="Layer_x0020_1">
  <metadata id="CorelCorpID_0Corel-Layer"/>
  <g id="manyOne">
   <path id="lf1" class="fil0" d="M25005.38 21050.76l0 6.35 15.14 0 0 6.35 15.16 0 0 6.35 7.58 0 0 6.36 7.58 0 0 6.35 15.16 0 0 6.36 7.57 0 0 6.35 7.58 0 0 6.36 15.16 0 0 6.35 7.58 0 0 6.34 7.57 0 0 6.35 7.58 0 0 6.35 7.58 0 0 6.36 15.14 0 0 6.35 7.58 0 0 6.36 7.58 0 0 6.35 7.58 0 0 6.35 7.58 0 0 6.36 7.57 0 0 6.35 7.58 0 0 6.35 7.58 0 0 6.34 7.58 0 0 6.37 7.58 0 0 6.34 7.57 0 0 6.36 7.59 0 0 6.35 7.57 0 0 12.7 7.58 0 0 6.36 7.58 0 0 6.35 7.56 0 0 6.36 7.6 0 0 6.35 7.56 0 0 6.35 7.58 0 0 12.71 7.58 0 0 6.34 7.58 0 0 6.35 7.58 0 0 6.36 7.57 0 0 6.35 7.58 0 0 12.71 7.58 0 0 6.36 7.58 0 0 6.35 7.58 0 0 12.7 7.57 0 0 6.35 7.58 0 0 6.36 7.58 0 0 12.71 7.58 0 0 6.34 7.58 0 0 6.35 7.56 0 0 12.71 7.6 0 0 6.35 7.56 0 0 12.71 7.58 0 0 6.35 7.57 0 0 6.36 7.58 0 0 12.7 7.58 0 0 6.34 7.58 0 0 12.71 7.58 0 0 6.35 7.57 0 0 12.71 7.59 0 0 6.36 7.57 0 0 12.7 7.58 0 0 6.35 7.58 0 0 12.71 7.58 0 0 6.36 7.58 0 0 12.69 7.56 0 0 12.71 7.58 0 0 6.35 7.58 0 0 12.71 7.58 0 0 6.35 7.58 0 0 12.71 7.57 0 0 12.71 7.58 0 0 6.35 7.58 0 0 12.69 7.58 0 0 12.71 7.58 0 0 6.36 7.57 0 0 12.7 7.58 0 0 12.71 7.58 0 0 6.35 7.58 0 0 12.71 7.58 0 0 12.71 7.56 0 0 12.69 7.6 0 0 6.35 7.56 0 0 12.71 7.58 0 0 12.71 7.57 0 0 12.71 7.58 0 0 12.7 7.58 0 0 6.34 7.58 0 0 12.71 7.58 0 0 12.71 7.57 0 0 12.71 7.59 0 0 12.7 7.57 0 0 12.71 7.58 0 0 6.35 7.58 0 0 12.71 7.58 0 0 12.71 7.58 0 0 12.69 7.56 0 0 12.71 7.58 0 0 12.71 7.58 0 0 12.7 7.58 0 0 12.71 7.58 0 0 12.69 7.57 0 0 12.71 7.58 0 0 12.71 7.58 0 0 12.7 7.58 0 0 12.71 7.58 0 0 12.71 7.57 0 0 12.71 7.58 0 0 12.69 7.58 0 0 12.71 7.58 0 0 12.71 7.58 0 0 12.7 7.56 0 0 12.71 7.6 0 0 12.69 7.56 0 0 12.71 7.58 0 0 12.71 7.58 0 0 12.7 7.58 0 0 12.71 7.58 0 0 12.71 7.57 0 0 12.71 7.58 0 0 12.69 7.57 0 0 19.06 7.59 0 0 12.71 7.57 0 0 12.71 7.58 0 0 12.7 7.58 0 0 12.71 7.58 0 0 12.69 7.58 0 0 12.71 7.56 0 0 19.06 7.58 0 0 12.71 7.58 0 0 12.71 7.58 0 0 12.7 7.58 0 0 12.71 7.57 0 0 19.05 7.58 0 0 12.71 7.58 0 0 12.7 7.58 0 0 12.71 7.58 0 0 19.06 7.57 0 0 12.71 7.58 0 0 12.69 7.58 0 0 12.7 7.58 0 0 19.07 7.58 0 0 12.71 7.57 0 0 12.69 7.59 0 0 19.06 7.57 0 0 12.71 7.58 0 0 12.71 7.57 0 0 19.05 7.58 0 0 12.71 7.58 0 0 12.71 7.57 0 0 19.05 7.58 0 0 12.7 7.57 0 0 12.71 7.59 0 0 19.06 7.57 0 0 12.69 7.58 0 0 12.71 7.58 0 0 19.07 7.58 0 0 12.7 7.58 0 0 19.06 7.57 0 0 12.71 7.58 0 0 12.71 7.58 0 0 19.04 7.58 0 0 12.71 7.58 0 0 19.06 7.56 0 0 12.71 7.58 0 0 19.05 7.58 0 0 12.71 7.58 0 0 19.05 7.58 0 0 12.71 7.57 0 0 19.06 7.59 0 0 12.71 7.57 0 0 19.04 7.58 0 0 12.71 7.58 0 0 19.07 7.57 0 0 12.7 7.59 0 0 19.05 7.57 0 0 12.71 7.58 0 0 19.06 7.58 0 0 12.7 7.58 0 0 19.06 7.58 0 0 12.71 7.56 0 0 19.05 7.58 0 0 12.71 7.57 0 0 19.06 7.59 0 0 19.04 7.57 0 0 12.71 7.58 0 0 19.07 7.58 0 0 12.7 7.58 0 0 19.06 7.58 0 0 19.06 7.57 0 0 12.71 7.58 0 0 19.04 7.58 0 0 12.71 7.58 0 0 19.06 7.58 0 0 19.06 7.56 0 0 12.7 7.58 0 0 19.06 7.58 0 0 19.06 7.58 0 0 12.71 7.58 0 0 19.06 7.57 0 0 19.04 7.59 0 0 12.71 7.57 0 0 19.07 7.58 0 0 19.05 7.58 0 0 19.05 7.57 0 0 12.71 7.59 0 0 19.06 7.57 0 0 19.06 7.58 0 0 12.71 7.58 0 0 19.06 7.58 0 0 19.05 7.58 0 0 19.06 7.56 0 0 12.7 7.58 0 0 19.06 7.58 0 0 19.05 7.58 0 0 19.06 7.58 0 0 12.71 7.57 0 0 19.06 7.58 0 0 19.06 7.58 0 0 19.05 7.58 0 0 19.06 7.57 0 0 12.71 7.58 0 0 19.05 7.58 0 0 19.07 7.58 0 0 19.04 7.58 0 0 19.06 7.56 0 0 12.71 7.58 0 0 19.06 7.58 0 0 19.05 7.58 0 0 19.06 7.58 0 0 19.06 7.57 0 0 19.06 7.59 0 0 19.05 7.57 0 0 12.71 7.58 0 0 19.06 7.58 0 0 19.06 7.57 0 0 19.06 7.59 0 0 19.05 7.57 0 0 19.06 7.58 0 0 19.06 7.58 0 0 19.06 7.58 0 0 19.05 7.58 0 0 12.7 7.56 0 0 19.07 7.58 0 0 19.06 7.58 0 0 19.04 7.58 0 0 19.07 7.58 0 0 19.05 7.57 0 0 19.06 7.58 0 0 19.07 7.58 0 0 19.04 7.58 0 0 19.06 7.57 0 0 19.07 7.58 0 0 19.05 7.58 0 0 19.05 7.58 0 0 19.07 7.58 0 0 19.05 7.56 0 0 19.07 7.58 0 0 19.06 7.58 0 0 19.04 7.58 0 0 19.07 7.58 0 0 19.05 7.57 0 0 19.05 7.59 0 0 19.07 7.57 0 0 19.05 7.58 0 0 19.06 7.58 0 0 19.07 7.57 0 0 19.04 7.59 0 0 19.06 7.57 0 0 19.07 7.58 0 0 19.05 7.58 0 0 19.07 7.58 0 0 19.04 7.58 0 0 19.06 7.56 0 0 19.07 7.58 0 0 19.04 7.58 0 0 19.06 7.58 0 0 19.07 7.58 0 0 19.05 7.57 0 0 19.05 7.58 0 0 19.08 7.58 0 0 25.4 7.58 0 0 19.06 7.58 0 0 19.06 7.57 0 0 19.05 7.59 0 0 19.06 7.57 0 0 19.06 7.58 0 0 19.06 7.57 0 0 19.05 7.58 0 0 19.05 7.57 0 0 19.07 7.58 0 0 19.06 7.58 0 0 19.04 7.57 0 0 25.42 7.59 0 0 19.06 7.57 0 0 19.06 7.58 0 0 19.05 7.58 0 0 19.06 7.58 0 0 19.06 7.58 0 0 19.06 7.57 0 0 19.06 7.58 0 0 19.05 7.58 0 0 19.06 7.58 0 0 19.06 7.58 0 0 19.06 7.57 0 0 19.05 7.58 0 0 25.41 7.58 0 0 19.06 7.58 0 0 19.05 7.57 0 0 19.06 7.57 0 0 19.06 7.58 0 0 19.06 7.58 0 0 19.07 7.58 0 0 19.04 7.58 0 0 19.06 7.57 0 0 19.07 7.59 0 0 25.39 7.57 0 0 19.07 7.58 0 0 19.06 7.57 0 0 19.05 7.59 0 0 19.07 7.57 0 0 19.06 7.58 0 0 19.05 7.58 0 0 19.06 7.56 0 0 19.05 7.6 0 0 25.41 7.56 0 0 19.06 7.58 0 0 19.06 7.58 0 0 19.06 7.58 0 0 19.06 7.58 0 0 19.05 7.57 0 0 19.06 7.58 0 0 25.41 7.58 0 0 19.05 7.58 0 0 19.06 7.58 0 0 19.06 7.57 0 0 19.06 7.58 0 0 19.05 7.58 0 0 19.06 7.58 0 0 25.42 7.58 0 0 19.05 7.56 0 0 19.07 7.58 0 0 19.05 7.58 0 0 19.05 7.58 0 0 19.07 7.58 0 0 25.41 7.57 0 0 19.05 7.59 0 0 19.06 7.57 0 0 19.06 7.58 0 0 19.06 7.58 0 0 25.4 7.58 0 0 19.06 7.58 0 0 19.06 7.57 0 0 19.06 7.58 0 0 19.05 7.56 0 0 25.42 7.6 0 0 19.05 7.56 0 0 19.07 7.58 0 0 19.04 7.58 0 0 25.42 7.58 0 0 19.06 7.58 0 0 19.06 7.57 0 0 19.05 7.58 0 0 25.41 7.58 0 0 19.06 7.58 0 0 19.05 7.58 0 0 19.06 7.57 0 0 25.42 7.58 0 0 19.05 7.58 0 0 19.05 7.58 0 0 19.07 7.58 0 0 25.41 7.56 0 0 19.06 7.6 0 0 19.06 7.56 0 0 25.4 7.58 0 0 19.06 7.58 0 0 19.06 7.57 0 0 25.42 7.59 0 0 19.04 7.57 0 0 19.06 7.58 0 0 25.42 7.58 0 0 19.05 7.58 0 0 19.06 7.58 0 0 25.41 7.57 0 0 19.06 7.58 0 0 19.05 7.56 0 0 25.41 7.6 0 0 19.06 7.56 0 0 25.42 7.58 0 0 19.05 7.58 0 0 19.06 7.58 0 0 25.41 7.58 0 0 19.05 7.57 0 0 25.41 7.58 0 0 19.06 7.58 0 0 25.42 7.58 0 0 19.05 7.58 0 0 25.41 7.57 0 0 19.06 7.58 0 0 25.4 7.58 0 0 19.06 7.58 0 0 25.42 7.58 0 0 19.06 7.56 0 0 25.4 7.6 0 0 19.06 7.56 0 0 25.41 7.58 0 0 19.06 7.58 0 0 25.41 7.57 0 0 19.05 7.59 0 0 25.42 7.57 0 0 19.06 7.58 0 0 25.4 7.58 0 0 25.42 7.58 0 0 19.06 7.58 0 0 25.4 7.57 0 0 25.41 7.58 0 0 19.07 7.56 0 0 25.39 7.6 0 0 25.42 7.56 0 0 19.06 7.58 0 0 25.41 7.58 0 0 25.42 7.58 0 0 19.05 7.58 0 0 25.41 7.57 0 0 25.4 7.58 0 0 25.42 7.58 0 0 25.41 7.58 0 0 19.06 7.58 0 0 25.4 7.57 0 0 25.42 7.58 0 0 25.41 7.58 0 0 25.4 7.58 0 0 25.41 7.58 0 0 25.42 7.56 0 0 25.4 7.6 0 0 19.06 7.56 0 0 25.42 7.58 0 0 25.41 7.58 0 0 25.4 7.57 0 0 31.77 7.59 0 0 25.41 7.57 0 0 25.4 7.58 0 0 25.42 7.58 0 0 25.41 7.58 0 0 25.42 7.58 0 0 25.4 7.57 0 0 31.77 7.58 0 0 25.4 7.58 0 0 25.41 7.58 0 0 31.77 7.58 0 0 25.4 7.57 0 0 25.41 7.57 0 0 31.77 7.58 0 0 25.41 7.58 0 0 31.76 7.57 0 0 25.42 7.58 0 0 31.75 7.58 0 0 31.77 7.58 0 0 25.41 7.58 0 0 31.76 7.57 0 0 31.76 7.58 0 0 31.76 7.58 0 0 31.77 7.58 0 0 31.75 7.58 0 0 31.77 7.57 0 0 38.12 7.59 0 0 31.76 7.57 0 0 31.77 7.58 0 0 38.1 7.58 0 0 38.12 7.56 0 0 31.77 7.59 0 0 31.76 7.57 0 0 12.71 7.58 0 0 12.7 7.58 0 0 12.71 7.58 0 0 6.35 7.58 0 0 6.35 7.57 0 0 6.36 7.58 0 0 6.34 7.58 0 0 6.37 15.16 0 0 6.34 15.15 0 0 6.35 22.72 0 0 6.35 83.37 0 0 -6.35 22.73 0 0 -6.35 15.16 0 0 -6.34 7.56 0 0 -6.37 15.16 0 0 -6.34 7.58 0 0 -6.36 7.58 0 0 -6.35 7.57 0 0 -12.71 7.58 0 0 -6.35 7.58 0 0 -12.7 7.58 0 0 -19.07 7.58 0 0 -69.87 -7.58 0 0 -38.11 -7.58 0 0 -31.77 -7.58 0 0 -31.77 -7.58 0 0 -31.75 -7.57 0 0 -31.77 -7.58 0 0 -31.77 -7.58 0 0 -31.75 -7.58 0 0 -31.77 -7.58 0 0 -25.4 -7.56 0 0 -31.77 -7.58 0 0 -31.77 -7.58 0 0 -25.4 -7.58 0 0 -31.77 -7.58 0 0 -25.41 -7.57 0 0 -31.76 -7.59 0 0 -25.41 -7.57 0 0 -25.4 -7.58 0 0 -25.41 -7.58 0 0 -31.77 -7.58 0 0 -25.4 -7.58 0 0 -25.42 -7.57 0 0 -25.41 -7.58 0 0 -25.42 -7.58 0 0 -25.39 -7.58 0 0 -25.42 -7.58 0 0 -25.4 -7.56 0 0 -25.42 -7.58 0 0 -25.41 -7.58 0 0 -25.42 -7.58 0 0 -25.4 -7.57 0 0 -25.41 -7.58 0 0 -25.41 -7.58 0 0 -25.41 -7.58 0 0 -19.06 -7.58 0 0 -25.41 -7.57 0 0 -25.42 -7.58 0 0 -25.4 -7.58 0 0 -19.06 -7.58 0 0 -25.41 -7.58 0 0 -25.42 -7.57 0 0 -25.4 -7.59 0 0 -19.06 -7.56 0 0 -25.41 -7.58 0 0 -19.05 -7.58 0 0 -25.42 -7.57 0 0 -25.39 -7.59 0 0 -19.08 -7.57 0 0 -25.4 -7.58 0 0 -19.06 -7.58 0 0 -25.4 -7.58 0 0 -25.42 -7.58 0 0 -19.06 -7.57 0 0 -25.41 -7.58 0 0 -19.05 -7.58 0 0 -25.41 -7.58 0 0 -19.06 -7.58 0 0 -25.42 -7.57 0 0 -19.04 -7.58 0 0 -19.07 -7.58 0 0 -25.41 -7.57 0 0 -19.06 -7.57 0 0 -25.4 -7.58 0 0 -19.06 -7.58 0 0 -25.42 -7.58 0 0 -19.04 -7.58 0 0 -19.07 -7.57 0 0 -25.41 -7.58 0 0 -19.06 -7.58 0 0 -19.06 -7.58 0 0 -25.4 -7.58 0 0 -19.06 -7.57 0 0 -19.06 -7.59 0 0 -25.42 -7.57 0 0 -19.05 -7.58 0 0 -19.05 -7.58 0 0 -25.42 -7.56 0 0 -19.05 -7.6 0 0 -19.06 -7.56 0 0 -19.06 -7.58 0 0 -25.41 -7.58 0 0 -19.05 -7.58 0 0 -19.06 -7.58 0 0 -19.06 -7.57 0 0 -25.42 -7.58 0 0 -19.04 -7.58 0 0 -19.07 -7.58 0 0 -19.06 -7.58 0 0 -25.41 -7.57 0 0 -19.05 -7.58 0 0 -19.06 -7.58 0 0 -19.06 -7.58 0 0 -19.06 -7.58 0 0 -19.05 -7.56 0 0 -25.41 -7.6 0 0 -19.06 -7.56 0 0 -19.06 -7.58 0 0 -19.05 -7.57 0 0 -19.06 -7.58 0 0 -19.06 -7.58 0 0 -25.42 -7.58 0 0 -19.04 -7.58 0 0 -19.07 -7.57 0 0 -19.06 -7.59 0 0 -19.05 -7.57 0 0 -19.07 -7.58 0 0 -19.05 -7.58 0 0 -19.05 -7.56 0 0 -19.07 -7.6 0 0 -25.41 -7.56 0 0 -19.05 -7.58 0 0 -19.06 -7.58 0 0 -19.06 -7.58 0 0 -19.06 -7.58 0 0 -19.05 -7.57 0 0 -19.06 -7.58 0 0 -19.06 -7.58 0 0 -19.06 -7.58 0 0 -19.05 -7.58 0 0 -19.06 -7.57 0 0 -19.06 -7.58 0 0 -19.06 -7.58 0 0 -19.05 -7.58 0 0 -19.06 -7.58 0 0 -19.06 -7.56 0 0 -19.06 -7.6 0 0 -19.06 -7.56 0 0 -19.05 -7.58 0 0 -19.06 -7.57 0 0 -19.06 -7.58 0 0 -19.06 -7.58 0 0 -19.05 -7.58 0 0 -19.06 -7.58 0 0 -19.06 -7.57 0 0 -19.06 -7.59 0 0 -19.05 -7.57 0 0 -19.06 -7.58 0 0 -19.06 -7.58 0 0 -19.06 -7.56 0 0 -19.06 -7.6 0 0 -19.05 -7.56 0 0 -19.06 -7.58 0 0 -19.06 -7.58 0 0 -19.06 -7.58 0 0 -19.05 -7.58 0 0 -19.06 -7.57 0 0 -19.06 -7.58 0 0 -19.06 -7.58 0 0 -19.04 -7.58 0 0 -19.07 -7.58 0 0 -19.06 -7.57 0 0 -19.04 -7.58 0 0 -19.07 -7.58 0 0 -19.06 -7.58 0 0 -19.06 -7.58 0 0 -12.7 -7.56 0 0 -19.05 -7.6 0 0 -19.06 -7.56 0 0 -19.07 -7.58 0 0 -19.05 -7.57 0 0 -19.06 -7.58 0 0 -19.07 -7.58 0 0 -19.04 -7.58 0 0 -19.06 -7.58 0 0 -19.07 -7.57 0 0 -19.04 -7.59 0 0 -12.71 -7.57 0 0 -19.06 -7.58 0 0 -19.06 -7.58 0 0 -19.06 -7.58 0 0 -19.05 -7.58 0 0 -19.06 -7.56 0 0 -19.06 -7.58 0 0 -19.06 -7.58 0 0 -19.05 -7.58 0 0 -12.71 -7.58 0 0 -19.06 -7.57 0 0 -19.05 -7.58 0 0 -19.07 -7.58 0 0 -19.05 -7.58 0 0 -19.05 -7.58 0 0 -19.07 -7.57 0 0 -19.06 -7.58 0 0 -12.69 -7.58 0 0 -19.06 -7.58 0 0 -19.06 -7.58 0 0 -19.06 -7.56 0 0 -19.07 -7.6 0 0 -19.04 -7.56 0 0 -19.06 -7.58 0 0 -12.71 -7.58 0 0 -19.06 -7.57 0 0 -19.05 -7.59 0 0 -19.06 -7.57 0 0 -19.06 -7.58 0 0 -19.06 -7.57 0 0 -12.71 -7.59 0 0 -19.05 -7.57 0 0 -19.06 -7.58 0 0 -19.06 -7.58 0 0 -19.04 -7.58 0 0 -19.08 -7.58 0 0 -12.7 -7.57 0 0 -19.05 -7.57 0 0 -19.06 -7.58 0 0 -19.07 -7.58 0 0 -19.04 -7.58 0 0 -19.06 -7.57 0 0 -12.71 -7.58 0 0 -19.06 -7.58 0 0 -19.05 -7.58 0 0 -19.06 -7.58 0 0 -19.06 -7.57 0 0 -12.71 -7.58 0 0 -19.06 -7.58 0 0 -19.04 -7.58 0 0 -19.07 -7.58 0 0 -19.06 -7.57 0 0 -12.7 -7.59 0 0 -19.05 -7.57 0 0 -19.06 -7.58 0 0 -19.06 -7.58 0 0 -19.06 -7.57 0 0 -12.71 -7.58 0 0 -19.05 -7.57 0 0 -19.06 -7.58 0 0 -19.06 -7.57 0 0 -12.7 -7.59 0 0 -19.07 -7.57 0 0 -19.05 -7.58 0 0 -19.05 -7.58 0 0 -12.71 -7.58 0 0 -19.06 -7.58 0 0 -19.05 -7.57 0 0 -12.71 -7.58 0 0 -19.06 -7.58 0 0 -19.06 -7.58 0 0 -19.06 -7.58 0 0 -12.71 -7.56 0 0 -19.04 -7.58 0 0 -19.06 -7.58 0 0 -12.71 -7.58 0 0 -19.06 -7.58 0 0 -19.05 -7.57 0 0 -12.71 -7.59 0 0 -19.06 -7.57 0 0 -19.06 -7.58 0 0 -12.71 -7.58 0 0 -19.05 -7.57 0 0 -19.05 -7.59 0 0 -12.71 -7.57 0 0 -19.06 -7.58 0 0 -19.05 -7.58 0 0 -12.71 -7.58 0 0 -19.06 -7.58 0 0 -19.06 -7.56 0 0 -12.7 -7.58 0 0 -19.07 -7.58 0 0 -12.69 -7.58 0 0 -19.06 -7.58 0 0 -19.06 -7.57 0 0 -12.71 -7.58 0 0 -19.06 -7.58 0 0 -12.7 -7.58 0 0 -19.05 -7.57 0 0 -19.06 -7.58 0 0 -12.71 -7.58 0 0 -19.05 -7.58 0 0 -12.7 -7.58 0 0 -19.07 -7.56 0 0 -12.71 -7.58 0 0 -19.05 -7.58 0 0 -12.7 -7.58 0 0 -19.06 -7.58 0 0 -19.06 -7.57 0 0 -12.71 -7.59 0 0 -19.06 -7.57 0 0 -12.69 -7.58 0 0 -19.06 -7.58 0 0 -12.71 -7.57 0 0 -19.06 -7.59 0 0 -12.71 -7.57 0 0 -19.06 -7.58 0 0 -12.7 -7.58 0 0 -19.05 -7.58 0 0 -12.71 -7.58 0 0 -19.06 -7.56 0 0 -12.71 -7.58 0 0 -19.05 -7.58 0 0 -12.7 -7.58 0 0 -19.07 -7.58 0 0 -12.7 -7.57 0 0 -12.71 -7.58 0 0 -19.05 -7.58 0 0 -12.7 -7.58 0 0 -19.06 -7.57 0 0 -12.71 -7.58 0 0 -19.06 -7.58 0 0 -12.69 -7.58 0 0 -19.07 -7.58 0 0 -12.71 -7.56 0 0 -12.7 -7.58 0 0 -19.06 -7.58 0 0 -12.71 -7.58 0 0 -19.05 -7.58 0 0 -12.7 -7.57 0 0 -12.71 -7.59 0 0 -19.06 -7.57 0 0 -12.71 -7.58 0 0 -19.05 -7.58 0 0 -12.7 -7.57 0 0 -12.71 -7.59 0 0 -19.06 -7.57 0 0 -12.71 -7.58 0 0 -12.71 -7.58 0 0 -19.04 -7.58 0 0 -12.71 -7.58 0 0 -12.71 -7.56 0 0 -19.06 -7.58 0 0 -12.69 -7.58 0 0 -12.71 -7.58 0 0 -19.06 -7.58 0 0 -12.71 -7.57 0 0 -12.7 -7.58 0 0 -12.71 -7.58 0 0 -19.05 -7.58 0 0 -12.71 -7.58 0 0 -12.7 -7.57 0 0 -19.06 -7.59 0 0 -12.71 -7.57 0 0 -12.69 -7.58 0 0 -12.71 -7.56 0 0 -19.07 -7.58 0 0 -12.7 -7.58 0 0 -12.7 -7.58 0 0 -12.71 -7.58 0 0 -19.07 -7.57 0 0 -12.69 -7.59 0 0 -12.7 -7.57 0 0 -12.71 -7.58 0 0 -12.71 -7.58 0 0 -19.06 -7.57 0 0 -12.69 -7.59 0 0 -12.71 -7.57 0 0 -12.71 -7.58 0 0 -12.7 -7.58 0 0 -12.71 -7.58 0 0 -19.06 -7.58 0 0 -12.71 -7.56 0 0 -12.69 -7.58 0 0 -12.71 -7.58 0 0 -12.71 -7.58 0 0 -12.71 -7.58 0 0 -12.7 -7.57 0 0 -19.05 -7.58 0 0 -12.71 -7.58 0 0 -12.71 -7.58 0 0 -12.7 -7.58 0 0 -12.71 -7.57 0 0 -12.71 -7.59 0 0 -12.69 -7.57 0 0 -12.71 -7.58 0 0 -12.7 -7.57 0 0 -12.71 -7.58 0 0 -12.71 -7.58 0 0 -12.7 -7.57 0 0 -12.71 -7.58 0 0 -19.05 -7.57 0 0 -12.71 -7.59 0 0 -12.7 -7.57 0 0 -12.71 -7.58 0 0 -12.71 -7.58 0 0 -12.71 -7.58 0 0 -12.69 -7.58 0 0 -12.71 -7.57 0 0 -12.71 -7.58 0 0 -6.35 -7.58 0 0 -12.71 -7.58 0 0 -12.7 -7.58 0 0 -12.71 -7.57 0 0 -12.71 -7.58 0 0 -12.69 -7.58 0 0 -12.71 -7.58 0 0 -12.7 -7.58 0 0 -12.71 -7.56 0 0 -12.71 -7.58 0 0 -12.69 -7.58 0 0 -12.71 -7.58 0 0 -12.71 -7.58 0 0 -6.35 -7.57 0 0 -12.71 -7.59 0 0 -12.7 -7.57 0 0 -12.71 -7.58 0 0 -12.71 -7.57 0 0 -12.7 -7.58 0 0 -6.35 -7.58 0 0 -12.7 -7.58 0 0 -12.71 -7.58 0 0 -12.71 -7.56 0 0 -12.69 -7.6 0 0 -12.71 -7.56 0 0 -6.35 -7.58 0 0 -12.71 -7.58 0 0 -12.71 -7.58 0 0 -12.7 -7.58 0 0 -6.36 -7.57 0 0 -12.7 -7.58 0 0 -12.7 -7.58 0 0 -6.37 -7.58 0 0 -12.69 -7.58 0 0 -12.71 -7.57 0 0 -12.71 -7.58 0 0 -6.35 -7.58 0 0 -12.71 -7.58 0 0 -12.7 -7.58 0 0 -6.34 -7.56 0 0 -12.71 -7.58 0 0 -12.71 -7.58 0 0 -6.35 -7.58 0 0 -12.71 -7.58 0 0 -6.35 -7.57 0 0 -12.71 -7.59 0 0 -12.71 -7.57 0 0 -6.35 -7.58 0 0 -12.69 -7.58 0 0 -6.36 -7.58 0 0 -12.7 -7.58 0 0 -6.36 -7.57 0 0 -12.71 -7.58 0 0 -6.35 -7.56 0 0 -12.7 -7.6 0 0 -6.36 -7.56 0 0 -12.69 -7.58 0 0 -6.36 -7.58 0 0 -12.71 -7.58 0 0 -6.35 -7.58 0 0 -12.7 -7.57 0 0 -6.36 -7.58 0 0 -6.35 -7.58 0 0 -12.71 -7.58 0 0 -6.35 -7.58 0 0 -12.7 -7.57 0 0 -6.35 -7.58 0 0 -6.35 -7.58 0 0 -12.71 -7.58 0 0 -6.36 -7.58 0 0 -6.35 -7.56 0 0 -12.7 -7.58 0 0 -6.36 -7.58 0 0 -6.35 -7.58 0 0 -12.71 -7.58 0 0 -6.34 -7.57 0 0 -6.36 -7.59 0 0 -6.35 -7.57 0 0 -12.7 -7.58 0 0 -6.35 -7.58 0 0 -6.36 -7.58 0 0 -6.35 -7.58 0 0 -6.36 -7.57 0 0 -12.71 -7.58 0 0 -6.35 -7.56 0 0 -6.34 -7.6 0 0 -6.35 -7.56 0 0 -6.36 -7.58 0 0 -6.35 -7.58 0 0 -6.35 -7.58 0 0 -6.36 -7.58 0 0 -6.35 -7.57 0 0 -6.36 -7.58 0 0 -6.35 -7.58 0 0 -6.35 -7.58 0 0 -6.35 -7.58 0 0 -6.36 -7.57 0 0 -6.34 -7.58 0 0 -6.37 -7.58 0 0 -6.34 -7.58 0 0 -6.35 -7.58 0 0 -6.35 -7.56 0 0 -6.36 -7.6 0 0 -6.35 -15.14 0 0 -6.35 -7.58 0 0 -6.36 -7.57 0 0 -6.35 -7.59 0 0 -6.36 -15.15 0 0 -6.35 -7.58 0 0 -6.35 -15.16 0 0 -6.34 -7.57 0 0 -6.35 -15.16 0 0 -6.36 -7.58 0 0 -6.35 -15.14 0 0 -6.36 -15.16 0 0 -6.35 -15.15 0 0 -6.36 -22.74 0 0 -6.35 -15.15 0 0 -6.35 -30.32 0 0 -6.35 -30.3 0z"/>
   <path id="lf2" class="fil0" d="M27642.93 20547.91l-2.05 6.11 14.59 3.43 -2.03 6.12 14.59 3.44 -2.03 6.11 7.28 1.71 -2.04 6.12 7.3 1.71 -2.04 6.12 14.6 3.43 -2.05 6.12 7.3 1.71 -2.04 6.11 7.3 1.72 -2.04 6.12 14.6 3.44 -2.05 6.1 7.3 1.72 -2.04 6.12 7.29 1.71 -2.03 6.12 7.28 1.72 -2.03 6.1 7.3 1.72 -2.04 6.12 14.59 3.42 -2.03 6.12 7.28 1.72 -2.04 6.12 7.31 1.71 -2.04 6.12 7.3 1.72 -2.05 6.12 7.29 1.71 -2.03 6.11 7.29 1.71 -2.05 6.12 7.31 1.71 -2.05 6.12 7.31 1.72 -2.04 6.11 7.29 1.71 -2.03 6.13 7.28 1.72 -2.03 6.1 7.29 1.72 -2.04 6.12 7.31 1.71 -2.04 6.12 7.28 1.72 -4.07 12.22 7.3 1.72 -2.05 6.13 7.29 1.7 -2.03 6.12 7.29 1.71 -2.05 6.12 7.32 1.72 -2.05 6.12 7.3 1.71 -2.04 6.11 7.29 1.71 -4.08 12.24 7.3 1.72 -2.04 6.12 7.3 1.71 -2.04 6.12 7.3 1.71 -2.05 6.12 7.3 1.72 -2.04 6.1 7.3 1.72 -4.09 12.24 7.3 1.71 -2.03 6.12 7.29 1.72 -2.05 6.12 7.3 1.71 -4.07 12.23 7.29 1.71 -2.05 6.12 7.3 1.71 -2.04 6.12 7.3 1.72 -4.08 12.24 7.3 1.71 -2.04 6.11 7.29 1.71 -2.03 6.12 7.28 1.72 -4.07 12.24 7.3 1.71 -2.05 6.12 7.31 1.7 -4.09 12.24 7.3 1.72 -2.05 6.12 7.3 1.71 -2.04 6.12 7.3 1.71 -4.09 12.23 7.3 1.73 -2.03 6.1 7.29 1.72 -4.08 12.24 7.29 1.71 -2.03 6.11 7.29 1.71 -4.08 12.24 7.3 1.72 -2.04 6.12 7.3 1.71 -4.09 12.24 7.3 1.71 -2.04 6.11 7.3 1.71 -4.09 12.24 7.31 1.72 -2.04 6.12 7.29 1.71 -4.08 12.23 7.3 1.71 -4.09 12.24 7.3 1.72 -2.04 6.12 7.3 1.71 -4.09 12.24 7.3 1.71 -2.03 6.11 7.29 1.72 -4.08 12.23 7.29 1.72 -4.07 12.23 7.28 1.71 -2.03 6.12 7.3 1.71 -4.07 12.24 7.28 1.72 -4.07 12.22 7.29 1.72 -2.05 6.12 7.3 1.71 -4.07 12.24 7.29 1.72 -4.08 12.24 7.3 1.71 -2.04 6.11 7.3 1.71 -4.09 12.24 7.3 1.71 -4.09 12.24 7.3 1.72 -4.07 12.22 7.3 1.72 -2.05 6.12 7.3 1.71 -4.09 12.24 7.31 1.72 -4.09 12.22 7.3 1.72 -4.09 12.24 7.3 1.71 -4.09 12.23 7.31 1.72 -2.04 6.11 7.3 1.72 -4.09 12.23 7.3 1.72 -4.09 12.23 7.31 1.71 -4.09 12.24 7.31 1.71 -4.09 12.24 7.3 1.72 -4.09 12.22 7.3 1.72 -2.04 6.12 7.3 1.71 -4.09 12.24 7.32 1.72 -4.09 12.22 7.3 1.72 -4.09 12.24 7.3 1.71 -4.09 12.24 7.3 1.71 -4.09 12.23 7.31 1.71 -4.09 12.24 7.31 1.72 -4.09 12.23 7.3 1.71 -4.07 12.24 7.28 1.71 -4.07 12.23 7.29 1.71 -4.08 12.24 7.3 1.72 -4.09 12.24 7.3 1.71 -4.07 12.24 7.29 1.7 -4.08 12.24 7.29 1.72 -4.08 12.24 7.29 1.71 -4.07 12.23 7.3 1.72 -4.08 12.23 7.29 1.71 -4.08 12.24 7.29 1.72 -4.08 12.22 7.31 1.72 -4.09 12.24 7.3 1.71 -4.08 12.23 7.29 1.71 -4.08 12.24 7.3 1.72 -4.08 12.24 7.3 1.71 -4.09 12.23 7.3 1.71 -4.08 12.24 7.3 1.71 -4.08 12.24 7.3 1.72 -4.09 12.22 7.3 1.72 -4.09 12.24 7.3 1.71 -6.12 18.35 7.3 1.71 -4.09 12.24 7.3 1.72 -4.07 12.24 7.29 1.7 -4.08 12.24 7.29 1.71 -4.08 12.24 7.3 1.72 -4.07 12.22 7.29 1.72 -4.08 12.24 7.29 1.71 -6.12 18.35 7.3 1.71 -4.09 12.24 7.3 1.71 -4.09 12.24 7.32 1.72 -4.09 12.22 7.3 1.72 -4.09 12.24 7.3 1.7 -6.12 18.36 7.29 1.71 -4.08 12.24 7.3 1.72 -4.07 12.24 7.29 1.71 -4.08 12.23 7.29 1.71 -6.12 18.36 7.3 1.71 -4.09 12.23 7.3 1.72 -4.09 12.23 7.3 1.72 -4.07 12.23 7.3 1.71 -6.13 18.36 7.3 1.71 -4.08 12.23 7.29 1.71 -4.08 12.24 7.3 1.72 -6.12 18.34 7.29 1.72 -4.07 12.24 7.28 1.71 -4.07 12.24 7.3 1.72 -6.13 18.34 7.31 1.72 -4.09 12.24 7.3 1.71 -4.09 12.23 7.3 1.71 -6.12 18.35 7.29 1.71 -4.07 12.24 7.28 1.72 -4.07 12.23 7.3 1.72 -6.12 18.35 7.3 1.71 -4.09 12.24 7.3 1.71 -4.09 12.23 7.3 1.71 -6.12 18.36 7.31 1.72 -4.09 12.24 7.3 1.71 -6.12 18.35 7.29 1.71 -4.08 12.24 7.29 1.72 -4.08 12.22 7.3 1.72 -6.13 18.36 7.31 1.71 -4.08 12.23 7.3 1.71 -6.12 18.36 7.28 1.71 -4.07 12.23 7.29 1.71 -6.12 18.36 7.3 1.72 -4.08 12.24 7.29 1.71 -6.12 18.35 7.3 1.71 -4.09 12.24 7.3 1.72 -6.12 18.34 7.3 1.72 -4.07 12.24 7.29 1.7 -6.12 18.36 7.3 1.71 -4.09 12.23 7.3 1.71 -6.13 18.36 7.3 1.72 -4.08 12.24 7.3 1.71 -6.12 18.35 7.29 1.71 -4.08 12.24 7.29 1.71 -6.12 18.35 7.3 1.71 -4.09 12.24 7.32 1.72 -6.13 18.34 7.3 1.72 -4.08 12.24 7.29 1.7 -6.12 18.36 7.29 1.71 -4.08 12.24 7.3 1.72 -6.13 18.34 7.31 1.72 -6.12 18.34 7.29 1.72 -4.08 12.24 7.29 1.71 -6.12 18.36 7.29 1.71 -4.08 12.23 7.31 1.72 -6.12 18.36 7.3 1.71 -6.12 18.35 7.28 1.71 -4.07 12.24 7.29 1.71 -6.12 18.35 7.3 1.71 -4.08 12.24 7.29 1.72 -6.12 18.34 7.3 1.72 -6.12 18.36 7.29 1.71 -4.08 12.23 7.29 1.71 -6.12 18.35 7.3 1.73 -6.12 18.34 7.3 1.72 -4.09 12.24 7.3 1.71 -6.12 18.35 7.29 1.71 -6.12 18.35 7.3 1.71 -4.07 12.24 7.3 1.72 -6.13 18.35 7.3 1.72 -6.12 18.35 7.28 1.71 -6.12 18.35 7.31 1.71 -4.09 12.24 7.3 1.71 -6.12 18.36 7.3 1.72 -6.12 18.34 7.29 1.72 -4.08 12.24 7.29 1.71 -6.12 18.35 7.3 1.71 -6.12 18.36 7.3 1.72 -6.12 18.34 7.29 1.72 -4.08 12.24 7.29 1.71 -6.12 18.35 7.3 1.71 -6.12 18.35 7.3 1.71 -6.12 18.36 7.29 1.71 -4.08 12.24 7.29 1.71 -6.12 18.36 7.3 1.71 -6.12 18.35 7.3 1.71 -6.12 18.36 7.29 1.71 -6.12 18.35 7.3 1.71 -4.09 12.24 7.31 1.72 -6.12 18.34 7.3 1.72 -6.14 18.36 7.3 1.71 -6.12 18.35 7.3 1.71 -6.13 18.35 7.3 1.71 -4.09 12.24 7.31 1.72 -6.12 18.36 7.3 1.71 -6.12 18.35 7.28 1.71 -6.12 18.35 7.3 1.71 -6.11 18.36 7.28 1.72 -6.12 18.34 7.3 1.72 -6.12 18.36 7.3 1.71 -4.08 12.23 7.3 1.71 -6.12 18.36 7.28 1.71 -6.11 18.35 7.3 1.71 -6.14 18.36 7.32 1.72 -6.14 18.34 7.3 1.72 -6.12 18.34 7.29 1.72 -6.12 18.36 7.3 1.71 -6.12 18.35 7.3 1.71 -6.12 18.36 7.29 1.7 -4.07 12.24 7.28 1.72 -6.12 18.36 7.31 1.71 -6.12 18.35 7.3 1.71 -6.12 18.35 7.28 1.71 -6.12 18.36 7.3 1.72 -6.13 18.34 7.3 1.72 -6.12 18.36 7.29 1.71 -6.12 18.35 7.3 1.71 -6.12 18.36 7.3 1.71 -6.12 18.35 7.29 1.71 -6.12 18.36 7.3 1.72 -6.12 18.34 7.3 1.72 -6.12 18.35 7.29 1.71 -6.12 18.36 7.29 1.71 -6.12 18.35 7.3 1.71 -6.12 18.36 7.29 1.72 -6.12 18.34 7.3 1.72 -6.12 18.34 7.3 1.72 -6.12 18.36 7.29 1.71 -6.12 18.35 7.3 1.71 -6.13 18.36 7.31 1.72 -6.13 18.34 7.3 1.72 -6.12 18.36 7.28 1.71 -6.11 18.35 7.3 1.71 -6.12 18.36 7.28 1.71 -6.12 18.35 7.3 1.71 -6.12 18.35 7.31 1.72 -6.14 18.35 7.3 1.72 -6.12 18.35 7.29 1.71 -6.12 18.36 7.3 1.71 -6.12 18.35 7.3 1.71 -6.12 18.35 7.29 1.71 -6.12 18.36 7.3 1.72 -6.13 18.34 7.31 1.72 -6.12 18.36 7.29 1.71 -6.12 18.35 7.29 1.71 -6.12 18.36 7.3 1.72 -6.12 18.34 7.29 1.72 -6.12 18.36 7.3 1.71 -8.17 24.47 7.31 1.71 -6.12 18.35 7.28 1.71 -6.12 18.35 7.3 1.71 -6.12 18.36 7.3 1.72 -6.11 18.35 7.28 1.71 -6.12 18.36 7.3 1.71 -6.13 18.35 7.3 1.71 -6.12 18.36 7.29 1.71 -6.12 18.35 7.31 1.71 -6.13 18.36 7.3 1.72 -6.12 18.34 7.29 1.72 -6.12 18.34 7.3 1.72 -8.16 24.47 7.3 1.72 -6.12 18.35 7.29 1.71 -6.12 18.36 7.3 1.72 -6.12 18.34 7.28 1.72 -6.12 18.36 7.3 1.71 -6.11 18.35 7.3 1.71 -6.12 18.35 7.28 1.71 -6.12 18.36 7.29 1.72 -6.12 18.34 7.3 1.72 -6.12 18.34 7.3 1.72 -6.12 18.36 7.29 1.71 -6.12 18.35 7.3 1.71 -6.13 18.36 7.3 1.71 -8.16 24.47 7.3 1.71 -6.12 18.36 7.3 1.72 -6.12 18.34 7.29 1.72 -6.12 18.35 7.3 1.71 -6.14 18.36 7.3 1.71 -6.12 18.35 7.31 1.71 -6.12 18.36 7.28 1.72 -6.12 18.34 7.3 1.72 -6.12 18.34 7.29 1.72 -6.12 18.36 7.3 1.71 -8.16 24.47 7.3 1.71 -6.12 18.36 7.29 1.72 -6.12 18.34 7.3 1.72 -6.12 18.34 7.3 1.72 -6.12 18.36 7.29 1.71 -6.12 18.35 7.3 1.71 -6.13 18.36 7.3 1.71 -6.12 18.35 7.28 1.72 -6.12 18.34 7.31 1.73 -8.16 24.47 7.29 1.71 -6.12 18.35 7.3 1.71 -6.13 18.36 7.3 1.71 -6.12 18.35 7.3 1.71 -6.12 18.35 7.29 1.71 -6.12 18.36 7.3 1.72 -6.12 18.34 7.29 1.72 -8.17 24.48 7.31 1.71 -6.12 18.35 7.3 1.71 -6.12 18.36 7.28 1.72 -6.12 18.34 7.3 1.72 -6.11 18.34 7.28 1.72 -6.12 18.36 7.3 1.71 -6.12 18.35 7.3 1.71 -8.16 24.48 7.29 1.7 -6.12 18.36 7.3 1.72 -6.13 18.34 7.3 1.72 -6.12 18.36 7.3 1.71 -6.12 18.35 7.29 1.71 -6.12 18.36 7.3 1.71 -8.17 24.47 7.29 1.71 -6.12 18.35 7.31 1.71 -6.13 18.36 7.3 1.72 -6.12 18.34 7.29 1.72 -6.12 18.36 7.3 1.71 -8.16 24.47 7.3 1.71 -6.12 18.35 7.29 1.71 -6.12 18.35 7.3 1.71 -6.12 18.36 7.29 1.72 -6.12 18.34 7.3 1.72 -8.17 24.48 7.3 1.71 -6.12 18.35 7.29 1.71 -6.12 18.36 7.3 1.72 -6.12 18.34 7.29 1.72 -8.16 24.46 7.3 1.72 -6.12 18.36 7.3 1.71 -6.12 18.35 7.28 1.71 -6.11 18.36 7.3 1.71 -8.17 24.47 7.29 1.71 -6.12 18.35 7.3 1.72 -6.12 18.34 7.3 1.72 -6.12 18.36 7.29 1.71 -8.16 24.47 7.3 1.71 -6.12 18.36 7.3 1.71 -6.12 18.35 7.28 1.71 -6.11 18.36 7.3 1.72 -8.17 24.46 7.29 1.72 -6.12 18.34 7.3 1.72 -6.12 18.36 7.3 1.71 -8.16 24.47 7.29 1.71 -6.12 18.35 7.3 1.71 -6.12 18.36 7.28 1.72 -8.16 24.46 7.31 1.72 -6.13 18.36 7.3 1.71 -6.12 18.35 7.29 1.71 -8.16 24.47 7.3 1.71 -6.12 18.35 7.3 1.71 -6.12 18.36 7.29 1.72 -8.16 24.46 7.29 1.72 -6.12 18.36 7.3 1.71 -6.13 18.35 7.3 1.71 -8.16 24.47 7.3 1.71 -6.12 18.36 7.3 1.7 -8.17 24.48 7.29 1.71 -6.12 18.36 7.3 1.72 -6.12 18.34 7.3 1.72 -8.16 24.47 7.29 1.71 -6.12 18.35 7.3 1.71 -8.17 24.48 7.3 1.71 -6.13 18.35 7.3 1.71 -8.16 24.47 7.3 1.71 -6.12 18.36 7.3 1.72 -8.16 24.46 7.28 1.72 -6.12 18.36 7.31 1.71 -8.17 24.46 7.3 1.72 -6.12 18.35 7.29 1.71 -8.16 24.48 7.3 1.72 -6.12 18.34 7.3 1.72 -8.17 24.46 7.3 1.72 -6.12 18.36 7.29 1.7 -8.16 24.48 7.3 1.71 -6.12 18.35 7.29 1.71 -8.17 24.47 7.3 1.71 -6.12 18.36 7.3 1.72 -8.16 24.46 7.3 1.72 -6.13 18.36 7.3 1.71 -8.17 24.47 7.31 1.7 -8.17 24.48 7.3 1.71 -6.12 18.36 7.29 1.71 -8.15 24.46 7.29 1.71 -8.17 24.48 7.3 1.72 -6.12 18.35 7.29 1.72 -8.16 24.45 7.31 1.72 -8.16 24.48 7.28 1.71 -6.12 18.36 7.31 1.7 -8.17 24.47 7.29 1.71 -8.16 24.48 7.31 1.71 -6.13 18.36 7.3 1.7 -8.17 24.47 7.3 1.72 -8.16 24.47 7.29 1.72 -8.17 24.46 7.32 1.72 -8.17 24.47 7.29 1.71 -6.12 18.36 7.3 1.7 -8.16 24.48 7.29 1.71 -8.17 24.47 7.3 1.71 -8.16 24.47 7.3 1.73 -8.15 24.45 7.29 1.71 -8.17 24.48 7.3 1.72 -8.16 24.46 7.29 1.72 -8.16 24.46 7.31 1.72 -6.12 18.36 7.28 1.71 -8.16 24.47 7.3 1.71 -8.16 24.47 7.28 1.71 -8.15 24.48 7.29 1.72 -10.2 30.57 7.31 1.73 -8.17 24.46 7.29 1.72 -8.15 24.46 7.29 1.72 -8.17 24.46 7.3 1.72 -8.16 24.46 7.3 1.72 -8.16 24.48 7.3 1.71 -8.17 24.47 7.29 1.71 -10.2 30.59 7.29 1.71 -8.16 24.47 7.31 1.71 -8.16 24.48 7.29 1.72 -10.2 30.58 7.29 1.72 -8.17 24.46 7.3 1.72 -8.16 24.46 7.3 1.72 -10.21 30.58 7.3 1.72 -8.16 24.48 7.3 1.71 -10.21 30.57 7.3 1.72 -8.16 24.48 7.3 1.71 -10.21 30.59 7.3 1.71 -10.19 30.59 7.28 1.71 -8.16 24.47 7.3 1.71 -10.21 30.59 7.3 1.71 -10.2 30.59 7.3 1.71 -10.21 30.59 7.3 1.71 -10.2 30.59 7.29 1.71 -10.19 30.59 7.28 1.71 -10.19 30.59 7.29 1.71 -12.24 36.71 7.3 1.71 -10.2 30.59 7.29 1.71 -10.21 30.59 7.3 1.71 -12.24 36.71 7.29 1.71 -12.24 36.71 7.29 1.71 -10.2 30.59 7.3 1.72 -10.2 30.58 7.3 1.72 -4.09 12.24 7.3 1.71 -4.08 12.23 7.29 1.71 -4.07 12.24 7.3 1.71 -2.05 6.12 7.3 1.72 -2.04 6.1 7.3 1.72 -2.05 6.12 7.29 1.71 -2.03 6.12 7.3 1.72 -2.04 6.12 14.59 3.42 -2.04 6.12 14.59 3.43 -2.04 6.12 21.89 5.14 -2.03 6.11 80.26 18.86 2.05 -6.11 21.87 5.14 2.05 -6.13 14.6 3.43 2.04 -6.11 7.29 1.71 2.05 -6.12 14.58 3.43 2.05 -6.12 7.3 1.72 2.04 -6.12 7.29 1.71 2.05 -6.12 7.3 1.71 4.07 -12.22 7.3 1.71 2.03 -6.12 7.32 1.72 4.07 -12.23 7.29 1.71 6.13 -18.36 7.29 1.72 22.45 -67.29 -7.29 -1.72 12.24 -36.7 -7.3 -1.72 10.21 -30.58 -7.3 -1.72 10.19 -30.59 -7.29 -1.71 10.21 -30.59 -7.3 -1.71 10.21 -30.59 -7.3 -1.71 10.21 -30.59 -7.32 -1.71 10.21 -30.59 -7.3 -1.71 10.21 -30.59 -7.3 -1.71 8.16 -24.48 -7.28 -1.7 10.19 -30.59 -7.29 -1.71 10.21 -30.6 -7.31 -1.71 8.16 -24.47 -7.29 -1.71 10.2 -30.59 -7.29 -1.72 8.17 -24.47 -7.3 -1.71 10.2 -30.58 -7.31 -1.72 8.16 -24.48 -7.28 -1.71 8.16 -24.47 -7.3 -1.71 8.16 -24.47 -7.3 -1.71 10.21 -30.59 -7.3 -1.71 8.16 -24.47 -7.3 -1.71 8.17 -24.48 -7.3 -1.71 8.16 -24.47 -7.29 -1.71 8.17 -24.47 -7.3 -1.71 8.16 -24.47 -7.3 -1.72 8.16 -24.46 -7.3 -1.72 8.17 -24.48 -7.3 -1.71 8.16 -24.47 -7.29 -1.71 8.17 -24.47 -7.32 -1.71 8.17 -24.48 -7.29 -1.71 8.16 -24.47 -7.3 -1.71 8.17 -24.47 -7.3 -1.71 8.16 -24.47 -7.29 -1.71 8.17 -24.48 -7.32 -1.72 6.14 -18.34 -7.31 -1.72 8.17 -24.47 -7.3 -1.71 8.16 -24.47 -7.29 -1.71 8.17 -24.48 -7.32 -1.71 6.14 -18.35 -7.3 -1.71 8.16 -24.47 -7.3 -1.71 8.16 -24.48 -7.28 -1.72 8.15 -24.46 -7.3 -1.72 6.13 -18.34 -7.3 -1.72 8.16 -24.48 -7.3 -1.71 6.12 -18.35 -7.29 -1.71 8.17 -24.47 -7.3 -1.71 8.16 -24.47 -7.3 -1.71 6.12 -18.36 -7.3 -1.72 8.16 -24.46 -7.28 -1.72 6.12 -18.34 -7.3 -1.72 8.16 -24.48 -7.3 -1.71 8.16 -24.47 -7.3 -1.71 6.13 -18.35 -7.3 -1.71 8.17 -24.48 -7.3 -1.72 6.12 -18.34 -7.29 -1.72 8.16 -24.46 -7.3 -1.72 6.12 -18.36 -7.3 -1.71 8.17 -24.47 -7.29 -1.71 6.12 -18.35 -7.3 -1.71 6.12 -18.36 -7.3 -1.71 8.16 -24.47 -7.3 -1.72 6.13 -18.34 -7.3 -1.72 8.17 -24.47 -7.31 -1.72 6.12 -18.35 -7.28 -1.71 8.16 -24.47 -7.3 -1.71 6.12 -18.36 -7.3 -1.71 6.12 -18.35 -7.29 -1.71 8.17 -24.47 -7.31 -1.71 6.12 -18.36 -7.3 -1.72 6.12 -18.34 -7.28 -1.72 8.16 -24.48 -7.3 -1.71 6.12 -18.35 -7.29 -1.71 6.12 -18.36 -7.3 -1.72 8.16 -24.46 -7.3 -1.72 6.12 -18.34 -7.28 -1.72 6.12 -18.34 -7.31 -1.72 8.17 -24.48 -7.3 -1.71 6.13 -18.35 -7.31 -1.71 6.13 -18.36 -7.3 -1.72 6.12 -18.34 -7.29 -1.72 8.17 -24.46 -7.31 -1.72 6.12 -18.34 -7.3 -1.73 6.12 -18.35 -7.28 -1.71 6.12 -18.36 -7.31 -1.71 8.17 -24.47 -7.3 -1.71 6.13 -18.35 -7.3 -1.72 6.12 -18.35 -7.3 -1.72 6.12 -18.35 -7.29 -1.71 8.17 -24.48 -7.31 -1.7 6.12 -18.36 -7.28 -1.71 6.12 -18.35 -7.32 -1.71 6.14 -18.36 -7.3 -1.72 6.11 -18.34 -7.28 -1.72 6.12 -18.34 -7.3 -1.72 8.16 -24.48 -7.3 -1.71 6.12 -18.35 -7.29 -1.71 6.12 -18.36 -7.3 -1.72 6.12 -18.34 -7.29 -1.72 6.12 -18.36 -7.3 -1.71 6.13 -18.35 -7.31 -1.71 8.16 -24.47 -7.28 -1.71 6.12 -18.35 -7.3 -1.71 6.12 -18.36 -7.29 -1.72 6.12 -18.34 -7.3 -1.72 6.12 -18.36 -7.3 -1.71 6.13 -18.35 -7.3 -1.71 6.12 -18.36 -7.29 -1.71 6.12 -18.35 -7.3 -1.71 6.12 -18.36 -7.3 -1.72 8.16 -24.46 -7.29 -1.72 6.12 -18.34 -7.3 -1.72 6.12 -18.35 -7.28 -1.71 6.12 -18.36 -7.3 -1.71 6.12 -18.36 -7.31 -1.72 6.12 -18.34 -7.28 -1.72 6.12 -18.36 -7.29 -1.7 6.12 -18.36 -7.32 -1.71 6.12 -18.35 -7.28 -1.71 6.12 -18.36 -7.29 -1.72 6.12 -18.34 -7.3 -1.72 6.12 -18.34 -7.29 -1.72 6.12 -18.36 -7.3 -1.71 6.12 -18.35 -7.3 -1.71 6.13 -18.36 -7.3 -1.71 6.12 -18.35 -7.29 -1.71 6.12 -18.35 -7.31 -1.73 6.13 -18.34 -7.3 -1.72 6.12 -18.36 -7.29 -1.7 6.12 -18.36 -7.3 -1.71 6.13 -18.35 -7.3 -1.71 6.12 -18.36 -7.3 -1.72 6.12 -18.34 -7.3 -1.72 6.13 -18.36 -7.3 -1.71 6.12 -18.35 -7.28 -1.71 6.12 -18.35 -7.31 -1.71 6.12 -18.36 -7.3 -1.72 6.12 -18.34 -7.28 -1.72 6.12 -18.36 -7.29 -1.71 6.12 -18.35 -7.3 -1.71 6.12 -18.35 -7.3 -1.72 6.12 -18.35 -7.29 -1.71 6.12 -18.35 -7.3 -1.72 6.12 -18.36 -7.29 -1.71 6.12 -18.35 -7.3 -1.72 6.12 -18.35 -7.3 -1.71 6.12 -18.35 -7.29 -1.71 6.12 -18.36 -7.29 -1.72 6.12 -18.34 -7.3 -1.72 6.12 -18.34 -7.3 -1.72 6.12 -18.36 -7.29 -1.71 6.12 -18.35 -7.3 -1.71 6.12 -18.35 -7.29 -1.71 6.12 -18.36 -7.3 -1.72 6.12 -18.36 -7.3 -1.7 6.13 -18.36 -7.3 -1.71 4.08 -12.23 -7.29 -1.71 6.12 -18.36 -7.3 -1.72 6.12 -18.34 -7.29 -1.72 6.12 -18.36 -7.3 -1.71 6.12 -18.35 -7.29 -1.71 6.12 -18.36 -7.3 -1.71 6.14 -18.35 -7.32 -1.71 6.12 -18.36 -7.29 -1.72 6.12 -18.34 -7.3 -1.72 6.14 -18.36 -7.31 -1.71 6.12 -18.35 -7.3 -1.71 4.09 -12.24 -7.3 -1.72 6.12 -18.34 -7.3 -1.72 6.13 -18.36 -7.3 -1.71 6.12 -18.35 -7.3 -1.71 6.12 -18.35 -7.29 -1.71 6.12 -18.36 -7.3 -1.71 6.12 -18.35 -7.28 -1.72 6.11 -18.34 -7.3 -1.72 6.14 -18.36 -7.32 -1.71 4.09 -12.24 -7.3 -1.71 6.13 -18.35 -7.3 -1.71 6.12 -18.35 -7.3 -1.71 6.13 -18.36 -7.3 -1.72 6.12 -18.34 -7.3 -1.72 6.12 -18.35 -7.28 -1.71 6.12 -18.36 -7.31 -1.71 6.12 -18.35 -7.28 -1.71 4.07 -12.24 -7.3 -1.72 6.12 -18.34 -7.29 -1.72 6.12 -18.36 -7.3 -1.71 6.12 -18.35 -7.29 -1.71 6.12 -18.36 -7.3 -1.72 6.12 -18.34 -7.28 -1.72 6.12 -18.36 -7.3 -1.71 4.08 -12.23 -7.3 -1.71 6.12 -18.35 -7.29 -1.71 6.12 -18.36 -7.3 -1.71 6.12 -18.36 -7.3 -1.72 6.12 -18.34 -7.29 -1.72 6.12 -18.36 -7.3 -1.7 4.09 -12.24 -7.3 -1.71 6.12 -18.36 -7.3 -1.7 6.12 -18.36 -7.29 -1.72 6.12 -18.34 -7.3 -1.72 6.13 -18.36 -7.31 -1.71 6.13 -18.36 -7.3 -1.71 4.08 -12.23 -7.29 -1.72 6.12 -18.34 -7.3 -1.72 6.13 -18.36 -7.3 -1.71 6.12 -18.35 -7.3 -1.71 6.12 -18.36 -7.29 -1.71 6.12 -18.35 -7.3 -1.71 4.09 -12.23 -7.3 -1.72 6.12 -18.35 -7.3 -1.72 6.12 -18.36 -7.29 -1.71 6.12 -18.35 -7.3 -1.71 6.12 -18.36 -7.29 -1.72 4.08 -12.22 -7.29 -1.72 6.12 -18.34 -7.3 -1.72 6.12 -18.36 -7.3 -1.71 6.13 -18.35 -7.3 -1.71 6.12 -18.36 -7.3 -1.72 4.09 -12.22 -7.3 -1.72 6.12 -18.36 -7.3 -1.71 6.13 -18.35 -7.3 -1.71 6.12 -18.36 -7.29 -1.71 6.12 -18.35 -7.31 -1.71 4.09 -12.24 -7.31 -1.72 6.14 -18.34 -7.3 -1.72 6.12 -18.36 -7.29 -1.7 6.12 -18.36 -7.3 -1.71 4.09 -12.23 -7.32 -1.71 6.14 -18.36 -7.31 -1.72 6.12 -18.34 -7.28 -1.72 6.12 -18.36 -7.3 -1.71 4.08 -12.23 -7.31 -1.71 6.12 -18.36 -7.29 -1.72 6.12 -18.34 -7.29 -1.72 4.08 -12.24 -7.29 -1.71 6.12 -18.35 -7.3 -1.71 6.12 -18.35 -7.3 -1.72 6.12 -18.35 -7.29 -1.71 4.08 -12.24 -7.29 -1.72 6.12 -18.35 -7.3 -1.71 6.12 -18.35 -7.3 -1.71 4.07 -12.24 -7.28 -1.71 6.12 -18.36 -7.29 -1.72 6.12 -18.34 -7.3 -1.72 4.09 -12.24 -7.32 -1.71 6.12 -18.35 -7.29 -1.71 6.12 -18.36 -7.28 -1.72 4.07 -12.22 -7.29 -1.72 6.12 -18.36 -7.3 -1.71 6.12 -18.35 -7.3 -1.71 4.08 -12.24 -7.29 -1.71 6.12 -18.35 -7.29 -1.71 6.12 -18.36 -7.3 -1.72 4.09 -12.22 -7.31 -1.72 6.12 -18.36 -7.29 -1.7 6.12 -18.36 -7.29 -1.71 4.08 -12.23 -7.3 -1.71 6.13 -18.36 -7.3 -1.72 4.09 -12.24 -7.32 -1.71 6.12 -18.35 -7.29 -1.71 6.12 -18.35 -7.3 -1.71 4.09 -12.24 -7.3 -1.72 6.13 -18.36 -7.31 -1.71 4.09 -12.23 -7.3 -1.71 6.12 -18.36 -7.29 -1.71 6.12 -18.35 -7.3 -1.71 4.09 -12.23 -7.3 -1.72 6.13 -18.35 -7.31 -1.72 4.09 -12.23 -7.31 -1.71 6.12 -18.36 -7.28 -1.71 4.07 -12.24 -7.29 -1.72 6.12 -18.34 -7.3 -1.72 4.08 -12.24 -7.3 -1.71 6.13 -18.35 -7.3 -1.71 6.12 -18.36 -7.29 -1.72 4.08 -12.22 -7.3 -1.73 6.12 -18.35 -7.3 -1.71 4.08 -12.23 -7.3 -1.71 6.12 -18.36 -7.28 -1.71 4.07 -12.23 -7.29 -1.71 6.12 -18.35 -7.3 -1.73 4.08 -12.22 -7.29 -1.72 6.12 -18.36 -7.3 -1.71 4.09 -12.24 -7.3 -1.72 6.12 -18.34 -7.3 -1.72 4.09 -12.24 -7.31 -1.71 6.12 -18.35 -7.28 -1.71 4.07 -12.23 -7.3 -1.71 6.13 -18.36 -7.3 -1.72 4.08 -12.22 -7.3 -1.72 6.12 -18.36 -7.29 -1.71 4.08 -12.24 -7.29 -1.71 4.07 -12.23 -7.28 -1.71 6.12 -18.36 -7.3 -1.72 4.07 -12.22 -7.3 -1.72 6.13 -18.36 -7.3 -1.71 4.08 -12.23 -7.29 -1.71 6.12 -18.35 -7.3 -1.73 4.07 -12.22 -7.28 -1.72 6.12 -18.36 -7.3 -1.71 4.08 -12.24 -7.3 -1.71 4.09 -12.23 -7.3 -1.72 6.12 -18.34 -7.3 -1.73 4.09 -12.23 -7.3 -1.71 6.12 -18.35 -7.29 -1.71 4.08 -12.24 -7.3 -1.71 4.08 -12.24 -7.3 -1.72 6.12 -18.34 -7.3 -1.72 4.09 -12.24 -7.3 -1.71 6.12 -18.35 -7.29 -1.71 4.08 -12.23 -7.29 -1.71 4.08 -12.24 -7.3 -1.72 6.11 -18.36 -7.28 -1.71 4.07 -12.24 -7.3 -1.71 4.09 -12.23 -7.3 -1.71 6.12 -18.35 -7.3 -1.73 4.09 -12.23 -7.3 -1.71 4.08 -12.24 -7.3 -1.71 6.12 -18.35 -7.28 -1.71 4.07 -12.24 -7.3 -1.72 4.09 -12.22 -7.3 -1.72 6.12 -18.36 -7.3 -1.71 4.09 -12.23 -7.3 -1.71 4.08 -12.24 -7.3 -1.72 4.08 -12.24 -7.3 -1.71 6.12 -18.35 -7.29 -1.71 4.08 -12.24 -7.29 -1.71 4.07 -12.23 -7.28 -1.71 6.12 -18.35 -7.32 -1.73 4.09 -12.23 -7.3 -1.71 4.09 -12.24 -7.3 -1.71 4.09 -12.23 -7.3 -1.71 6.12 -18.36 -7.29 -1.72 4.07 -12.22 -7.3 -1.72 4.08 -12.24 -7.29 -1.71 4.08 -12.24 -7.29 -1.72 6.12 -18.34 -7.3 -1.72 4.09 -12.24 -7.3 -1.71 4.07 -12.23 -7.3 -1.71 4.09 -12.24 -7.3 -1.71 4.09 -12.24 -7.3 -1.72 6.12 -18.34 -7.29 -1.72 4.07 -12.23 -7.3 -1.72 4.08 -12.23 -7.29 -1.71 4.08 -12.24 -7.29 -1.72 4.07 -12.22 -7.28 -1.72 4.07 -12.24 -7.3 -1.71 6.12 -18.35 -7.3 -1.71 4.09 -12.24 -7.3 -1.72 4.09 -12.23 -7.3 -1.72 4.08 -12.23 -7.31 -1.71 4.09 -12.24 -7.3 -1.71 4.09 -12.24 -7.3 -1.72 4.08 -12.22 -7.3 -1.72 6.12 -18.36 -7.28 -1.71 4.07 -12.23 -7.3 -1.71 4.08 -12.24 -7.29 -1.72 4.07 -12.24 -7.28 -1.71 4.07 -12.23 -7.29 -1.71 4.08 -12.24 -7.3 -1.71 4.08 -12.24 -7.29 -1.72 4.07 -12.22 -7.28 -1.72 4.07 -12.23 -7.3 -1.71 4.09 -12.24 -7.3 -1.71 4.09 -12.24 -7.3 -1.72 4.07 -12.24 -7.3 -1.7 4.09 -12.24 -7.3 -1.71 6.12 -18.35 -7.29 -1.71 4.08 -12.24 -7.3 -1.72 4.08 -12.24 -7.3 -1.71 4.08 -12.23 -7.29 -1.71 4.08 -12.24 -7.29 -1.71 4.07 -12.24 -7.3 -1.72 4.08 -12.22 -7.29 -1.72 4.08 -12.24 -7.29 -1.71 4.07 -12.24 -7.28 -1.72 2.03 -6.1 -7.29 -1.72 4.08 -12.24 -7.3 -1.71 4.08 -12.24 -7.3 -1.71 4.08 -12.23 -7.29 -1.71 4.08 -12.24 -7.29 -1.72 4.07 -12.24 -7.3 -1.71 4.08 -12.23 -7.29 -1.71 4.08 -12.23 -7.29 -1.71 4.07 -12.24 -7.3 -1.72 4.09 -12.24 -7.3 -1.71 4.09 -12.23 -7.3 -1.71 4.08 -12.24 -7.29 -1.72 4.07 -12.24 -7.3 -1.71 2.05 -6.11 -7.29 -1.71 4.07 -12.24 -7.3 -1.71 4.08 -12.24 -7.29 -1.72 4.08 -12.22 -7.29 -1.72 4.08 -12.24 -7.31 -1.71 4.09 -12.24 -7.3 -1.72 2.05 -6.1 -7.3 -1.72 4.07 -12.24 -7.29 -1.71 4.08 -12.24 -7.29 -1.7 4.08 -12.24 -7.3 -1.72 4.08 -12.23 -7.3 -1.72 4.08 -12.24 -7.29 -1.71 2.03 -6.11 -7.28 -1.71 4.07 -12.24 -7.29 -1.72 4.08 -12.22 -7.3 -1.72 4.07 -12.24 -7.28 -1.71 2.04 -6.12 -7.3 -1.72 4.08 -12.22 -7.29 -1.72 4.07 -12.24 -7.28 -1.71 2.03 -6.12 -7.3 -1.71 4.08 -12.24 -7.3 -1.72 4.09 -12.22 -7.3 -1.72 4.08 -12.24 -7.29 -1.71 2.03 -6.12 -7.3 -1.72 4.09 -12.22 -7.3 -1.72 4.09 -12.24 -7.3 -1.71 2.04 -6.11 -7.3 -1.71 4.09 -12.24 -7.3 -1.72 4.09 -12.23 -7.32 -1.72 2.05 -6.11 -7.3 -1.71 4.08 -12.24 -7.3 -1.71 2.05 -6.12 -7.29 -1.72 4.08 -12.24 -7.31 -1.71 4.08 -12.24 -7.29 -1.71 2.03 -6.11 -7.28 -1.72 4.07 -12.24 -7.29 -1.71 2.04 -6.11 -7.31 -1.71 4.08 -12.24 -7.29 -1.71 2.05 -6.12 -7.3 -1.72 4.08 -12.24 -7.3 -1.71 2.05 -6.11 -7.3 -1.71 4.09 -12.24 -7.32 -1.72 2.05 -6.12 -7.29 -1.71 4.07 -12.23 -7.3 -1.71 2.05 -6.12 -7.29 -1.71 4.08 -12.24 -7.3 -1.72 2.03 -6.12 -7.29 -1.71 4.07 -12.23 -7.28 -1.71 2.04 -6.12 -7.3 -1.72 2.04 -6.12 -7.3 -1.71 4.09 -12.23 -7.31 -1.72 2.04 -6.11 -7.3 -1.72 4.09 -12.24 -7.3 -1.71 2.04 -6.12 -7.28 -1.71 2.03 -6.11 -7.3 -1.71 4.07 -12.24 -7.29 -1.72 2.05 -6.12 -7.3 -1.71 2.04 -6.12 -7.3 -1.72 4.09 -12.22 -7.3 -1.72 2.04 -6.12 -7.3 -1.71 2.03 -6.12 -7.28 -1.71 4.07 -12.24 -7.29 -1.72 2.04 -6.1 -7.29 -1.72 2.04 -6.12 -7.31 -1.71 2.04 -6.12 -7.3 -1.72 4.09 -12.24 -7.3 -1.71 2.04 -6.11 -7.3 -1.71 2.05 -6.12 -7.3 -1.72 2.04 -6.11 -7.3 -1.72 2.05 -6.12 -7.31 -1.71 4.09 -12.24 -7.3 -1.7 2.05 -6.12 -7.3 -1.72 2.04 -6.12 -7.3 -1.71 2.04 -6.12 -7.3 -1.72 2.05 -6.11 -7.3 -1.72 2.04 -6.11 -7.3 -1.71 2.04 -6.12 -7.3 -1.71 2.05 -6.12 -7.3 -1.72 2.04 -6.12 -7.3 -1.71 2.05 -6.12 -7.31 -1.72 2.05 -6.1 -7.3 -1.72 2.04 -6.12 -7.3 -1.71 2.05 -6.12 -7.3 -1.71 2.04 -6.12 -7.3 -1.72 2.04 -6.12 -7.3 -1.71 2.05 -6.12 -7.3 -1.72 2.04 -6.1 -7.3 -1.72 2.04 -6.12 -7.3 -1.71 2.05 -6.12 -7.3 -1.71 2.04 -6.11 -7.3 -1.73 2.05 -6.12 -14.59 -3.43 2.03 -6.1 -7.29 -1.72 2.03 -6.12 -7.29 -1.71 2.05 -6.12 -7.32 -1.72 2.05 -6.11 -14.59 -3.43 2.04 -6.11 -7.3 -1.71 2.05 -6.12 -14.6 -3.43 2.04 -6.12 -7.3 -1.72 2.04 -6.12 -14.58 -3.42 2.03 -6.12 -7.3 -1.72 2.04 -6.1 -14.59 -3.43 2.05 -6.12 -14.6 -3.43 2.03 -6.12 -14.59 -3.43 2.04 -6.12 -21.89 -5.14 2.04 -6.12 -14.59 -3.42 2.04 -6.13 -29.19 -6.85 2.05 -6.11 -29.19 -6.86z"/>
   <path id="lf3" class="fil0" d="M30344.38 20660.25l-3.92 5.42 12.93 6.61 -3.92 5.43 12.95 6.6 -3.92 5.44 6.47 3.3 -3.93 5.43 6.47 3.29 -3.92 5.43 12.95 6.61 -3.94 5.43 6.48 3.3 -3.92 5.42 6.47 3.3 -3.93 5.44 12.96 6.6 -3.94 5.44 6.48 3.28 -3.94 5.44 6.48 3.3 -3.93 5.43 6.48 3.3 -3.94 5.43 6.49 3.3 -3.93 5.43 12.95 6.6 -3.93 5.42 6.48 3.31 -3.94 5.43 6.48 3.3 -3.93 5.44 6.48 3.3 -3.94 5.43 6.48 3.3 -3.92 5.42 6.47 3.3 -3.94 5.44 6.48 3.3 -3.92 5.42 6.47 3.3 -3.92 5.44 6.47 3.3 -3.93 5.43 6.47 3.29 -3.92 5.43 6.46 3.31 -3.92 5.43 6.47 3.3 -3.92 5.42 6.48 3.3 -7.86 10.86 6.47 3.3 -3.93 5.43 6.47 3.31 -3.93 5.43 6.47 3.3 -3.92 5.42 6.47 3.32 -3.92 5.42 6.48 3.3 -3.94 5.42 6.47 3.3 -7.85 10.87 6.47 3.29 -3.94 5.43 6.49 3.32 -3.92 5.42 6.46 3.3 -3.92 5.43 6.47 3.3 -3.93 5.43 6.47 3.3 -7.86 10.85 6.49 3.32 -3.93 5.42 6.47 3.3 -3.93 5.43 6.47 3.3 -7.86 10.86 6.48 3.3 -3.93 5.42 6.48 3.3 -3.94 5.44 6.49 3.3 -7.87 10.87 6.47 3.3 -3.92 5.42 6.48 3.3 -3.94 5.43 6.48 3.31 -7.86 10.85 6.48 3.3 -3.93 5.44 6.47 3.3 -7.86 10.85 6.48 3.3 -3.94 5.43 6.48 3.3 -3.92 5.43 6.47 3.3 -7.86 10.86 6.48 3.3 -3.93 5.43 6.48 3.3 -7.87 10.86 6.47 3.3 -3.92 5.42 6.47 3.3 -7.85 10.87 6.47 3.3 -3.92 5.44 6.47 3.3 -7.87 10.85 6.48 3.31 -3.93 5.42 6.48 3.3 -7.86 10.85 6.47 3.32 -3.92 5.43 6.48 3.29 -7.86 10.86 6.47 3.3 -7.86 10.85 6.48 3.3 -3.94 5.44 6.48 3.3 -7.86 10.87 6.47 3.3 -3.92 5.42 6.48 3.3 -7.86 10.86 6.47 3.3 -7.87 10.87 6.48 3.28 -3.93 5.44 6.48 3.3 -7.86 10.86 6.47 3.3 -7.86 10.86 6.48 3.31 -3.94 5.42 6.48 3.3 -7.86 10.87 6.47 3.3 -7.85 10.85 6.48 3.3 -3.93 5.43 6.47 3.3 -7.86 10.87 6.48 3.3 -7.86 10.85 6.48 3.3 -7.86 10.86 6.47 3.3 -3.92 5.43 6.47 3.31 -7.86 10.85 6.47 3.3 -7.86 10.86 6.47 3.3 -7.86 10.85 6.48 3.31 -7.86 10.86 6.49 3.31 -3.94 5.42 6.48 3.3 -7.86 10.85 6.47 3.3 -7.86 10.87 6.48 3.3 -7.86 10.86 6.47 3.3 -7.85 10.86 6.47 3.3 -7.86 10.87 6.48 3.3 -3.94 5.42 6.48 3.3 -7.86 10.86 6.49 3.3 -7.86 10.87 6.46 3.3 -7.86 10.85 6.47 3.3 -7.85 10.86 6.47 3.3 -7.86 10.86 6.48 3.3 -7.86 10.86 6.47 3.31 -7.84 10.85 6.47 3.29 -7.87 10.87 6.47 3.3 -7.85 10.86 6.47 3.3 -7.86 10.85 6.49 3.3 -7.87 10.87 6.47 3.3 -7.86 10.86 6.48 3.3 -7.86 10.85 6.48 3.31 -7.86 10.85 6.47 3.3 -7.86 10.87 6.48 3.3 -7.86 10.86 6.47 3.3 -7.86 10.85 6.48 3.31 -7.86 10.85 6.48 3.3 -7.86 10.86 6.47 3.3 -7.86 10.87 6.48 3.3 -7.86 10.85 6.47 3.31 -7.86 10.85 6.48 3.3 -7.86 10.86 6.48 3.31 -7.86 10.86 6.47 3.3 -7.86 10.85 6.48 3.31 -7.86 10.85 6.47 3.3 -7.86 10.87 6.47 3.29 -11.78 16.29 6.47 3.3 -7.86 10.87 6.48 3.3 -7.86 10.85 6.47 3.31 -7.86 10.85 6.48 3.3 -7.86 10.86 6.47 3.31 -7.84 10.84 6.46 3.31 -7.86 10.86 6.48 3.29 -11.8 16.31 6.48 3.3 -7.86 10.85 6.47 3.3 -7.86 10.86 6.49 3.3 -7.86 10.86 6.48 3.3 -7.86 10.85 6.47 3.3 -11.79 16.29 6.47 3.3 -7.87 10.87 6.49 3.3 -7.86 10.86 6.48 3.3 -7.86 10.86 6.47 3.3 -11.79 16.29 6.47 3.3 -7.86 10.85 6.48 3.31 -7.86 10.85 6.47 3.31 -7.84 10.85 6.46 3.3 -11.78 16.3 6.47 3.3 -7.87 10.86 6.48 3.3 -7.86 10.85 6.49 3.31 -11.8 16.29 6.48 3.3 -7.86 10.85 6.47 3.3 -7.86 10.86 6.48 3.3 -11.8 16.29 6.49 3.3 -7.86 10.87 6.48 3.29 -7.88 10.87 6.48 3.3 -11.78 16.27 6.47 3.31 -7.86 10.86 6.48 3.29 -7.86 10.87 6.47 3.3 -11.78 16.29 6.48 3.3 -7.87 10.86 6.47 3.3 -7.86 10.86 6.48 3.3 -11.8 16.29 6.49 3.3 -7.86 10.87 6.48 3.3 -11.8 16.27 6.48 3.3 -7.86 10.87 6.47 3.3 -7.86 10.86 6.48 3.3 -11.8 16.28 6.49 3.31 -7.86 10.86 6.46 3.3 -11.78 16.29 6.48 3.29 -7.86 10.87 6.47 3.3 -11.79 16.29 6.47 3.3 -7.86 10.85 6.48 3.3 -11.78 16.29 6.47 3.31 -7.87 10.85 6.48 3.3 -11.79 16.29 6.48 3.3 -7.86 10.86 6.47 3.3 -11.78 16.29 6.48 3.3 -7.86 10.86 6.46 3.3 -11.78 16.29 6.47 3.3 -7.87 10.87 6.49 3.3 -11.8 16.27 6.48 3.31 -7.86 10.86 6.48 3.31 -11.79 16.27 6.48 3.3 -7.87 10.86 6.48 3.31 -11.78 16.28 6.46 3.3 -7.85 10.87 6.47 3.3 -11.79 16.29 6.47 3.3 -7.86 10.86 6.48 3.3 -11.79 16.29 6.48 3.3 -11.78 16.28 6.47 3.3 -7.87 10.87 6.48 3.3 -11.8 16.29 6.48 3.3 -7.85 10.85 6.47 3.3 -11.79 16.29 6.47 3.31 -11.78 16.29 6.48 3.28 -7.86 10.87 6.47 3.3 -11.79 16.28 6.49 3.31 -7.88 10.86 6.48 3.3 -11.8 16.29 6.48 3.3 -11.78 16.29 6.47 3.3 -7.86 10.86 6.48 3.3 -11.8 16.28 6.49 3.31 -11.79 16.29 6.47 3.3 -7.86 10.86 6.48 3.3 -11.8 16.29 6.48 3.3 -11.8 16.28 6.49 3.31 -7.86 10.86 6.48 3.3 -11.8 16.29 6.48 3.3 -11.8 16.29 6.48 3.29 -11.79 16.29 6.48 3.3 -7.86 10.85 6.48 3.32 -11.8 16.29 6.48 3.3 -11.79 16.27 6.48 3.31 -7.87 10.86 6.47 3.31 -11.78 16.27 6.47 3.3 -11.78 16.31 6.46 3.3 -11.78 16.27 6.48 3.31 -7.86 10.86 6.47 3.29 -11.79 16.29 6.47 3.3 -11.78 16.29 6.48 3.3 -11.8 16.29 6.48 3.3 -7.86 10.86 6.47 3.3 -11.78 16.29 6.46 3.3 -11.78 16.29 6.48 3.3 -11.79 16.29 6.48 3.3 -11.8 16.29 6.48 3.31 -7.86 10.85 6.47 3.3 -11.79 16.28 6.49 3.31 -11.8 16.29 6.48 3.3 -11.8 16.29 6.48 3.29 -11.78 16.29 6.47 3.3 -7.86 10.86 6.48 3.3 -11.8 16.29 6.48 3.31 -11.79 16.28 6.48 3.3 -11.8 16.29 6.48 3.3 -11.8 16.29 6.48 3.3 -11.78 16.29 6.47 3.3 -11.79 16.29 6.47 3.31 -7.86 10.85 6.48 3.3 -11.8 16.29 6.48 3.3 -11.78 16.29 6.47 3.29 -11.79 16.3 6.47 3.3 -11.78 16.29 6.47 3.31 -11.79 16.27 6.47 3.3 -11.79 16.29 6.47 3.3 -11.78 16.29 6.48 3.31 -11.79 16.29 6.48 3.3 -7.86 10.85 6.48 3.3 -11.8 16.29 6.48 3.3 -11.8 16.29 6.49 3.31 -11.8 16.29 6.48 3.3 -11.8 16.29 6.48 3.3 -11.78 16.27 6.47 3.31 -11.79 16.29 6.47 3.3 -11.79 16.29 6.49 3.3 -11.8 16.29 6.48 3.3 -11.79 16.29 6.48 3.3 -11.8 16.29 6.48 3.3 -11.8 16.28 6.49 3.31 -11.79 16.28 6.47 3.3 -11.79 16.29 6.47 3.3 -11.78 16.29 6.47 3.3 -11.79 16.29 6.47 3.3 -11.79 16.29 6.49 3.3 -11.8 16.29 6.48 3.3 -11.8 16.29 6.48 3.3 -11.79 16.28 6.48 3.3 -11.8 16.29 6.49 3.3 -11.79 16.31 6.47 3.28 -11.79 16.29 6.47 3.31 -11.78 16.29 6.46 3.3 -11.78 16.29 6.48 3.3 -11.8 16.27 6.49 3.32 -11.8 16.28 6.48 3.3 -11.8 16.3 6.48 3.29 -11.78 16.29 6.46 3.3 -11.78 16.29 6.47 3.3 -11.78 16.29 6.47 3.3 -11.79 16.29 6.47 3.3 -11.79 16.29 6.47 3.3 -11.78 16.29 6.48 3.3 -11.78 16.28 6.47 3.3 -11.79 16.3 6.47 3.29 -11.79 16.29 6.47 3.3 -11.79 16.29 6.47 3.3 -11.78 16.29 6.47 3.31 -15.71 21.72 6.47 3.3 -11.79 16.28 6.47 3.3 -11.78 16.29 6.47 3.3 -11.79 16.29 6.47 3.3 -11.78 16.29 6.48 3.3 -11.8 16.29 6.48 3.29 -11.8 16.3 6.48 3.3 -11.79 16.28 6.48 3.3 -11.8 16.29 6.49 3.3 -11.79 16.29 6.47 3.3 -11.79 16.29 6.47 3.3 -11.78 16.29 6.47 3.29 -15.73 21.73 6.49 3.3 -11.79 16.3 6.47 3.29 -11.79 16.29 6.47 3.3 -11.78 16.29 6.47 3.3 -11.79 16.29 6.47 3.3 -11.78 16.29 6.48 3.3 -11.8 16.28 6.48 3.3 -11.8 16.29 6.48 3.3 -11.78 16.29 6.47 3.3 -11.79 16.29 6.48 3.3 -11.79 16.29 6.47 3.3 -11.79 16.29 6.47 3.31 -11.79 16.28 6.47 3.31 -15.71 21.71 6.48 3.3 -11.79 16.29 6.47 3.3 -11.79 16.29 6.47 3.3 -11.78 16.29 6.48 3.29 -11.8 16.3 6.48 3.3 -11.8 16.28 6.49 3.3 -11.8 16.3 6.48 3.3 -11.8 16.28 6.48 3.3 -11.78 16.29 6.47 3.3 -11.79 16.29 6.47 3.3 -15.7 21.72 6.47 3.3 -11.79 16.29 6.47 3.3 -11.79 16.29 6.47 3.3 -11.79 16.29 6.48 3.3 -11.79 16.29 6.48 3.3 -11.79 16.29 6.47 3.3 -11.79 16.29 6.48 3.3 -11.8 16.28 6.48 3.3 -11.8 16.29 6.49 3.3 -15.72 21.73 6.48 3.3 -11.8 16.27 6.48 3.3 -11.8 16.31 6.48 3.3 -11.78 16.28 6.47 3.3 -11.78 16.29 6.47 3.3 -11.79 16.29 6.47 3.3 -11.79 16.29 6.47 3.3 -15.71 21.71 6.47 3.3 -11.79 16.29 6.48 3.3 -11.79 16.29 6.47 3.3 -11.79 16.29 6.47 3.3 -11.78 16.29 6.48 3.31 -11.8 16.29 6.48 3.3 -11.79 16.29 6.48 3.3 -15.72 21.71 6.46 3.3 -11.78 16.29 6.48 3.3 -11.8 16.29 6.48 3.3 -11.8 16.29 6.49 3.3 -11.8 16.28 6.48 3.3 -11.78 16.3 6.46 3.29 -15.72 21.73 6.48 3.3 -11.79 16.29 6.48 3.3 -11.78 16.29 6.47 3.3 -11.79 16.29 6.47 3.3 -11.79 16.28 6.47 3.3 -15.72 21.72 6.48 3.3 -11.78 16.29 6.47 3.3 -11.79 16.28 6.47 3.3 -11.79 16.3 6.47 3.29 -11.78 16.29 6.47 3.3 -15.73 21.73 6.49 3.3 -11.79 16.29 6.47 3.29 -11.79 16.3 6.47 3.3 -11.78 16.28 6.47 3.3 -15.71 21.72 6.47 3.3 -11.78 16.29 6.47 3.3 -11.79 16.29 6.47 3.31 -11.79 16.27 6.47 3.3 -15.71 21.73 6.47 3.3 -11.79 16.29 6.48 3.3 -11.79 16.28 6.47 3.3 -11.79 16.3 6.47 3.3 -15.71 21.71 6.47 3.3 -11.79 16.29 6.48 3.31 -11.79 16.28 6.47 3.31 -11.79 16.29 6.47 3.3 -15.71 21.71 6.47 3.3 -11.78 16.29 6.47 3.3 -11.78 16.29 6.48 3.3 -15.73 21.71 6.47 3.3 -11.78 16.29 6.47 3.3 -11.79 16.29 6.47 3.31 -15.73 21.72 6.49 3.3 -11.79 16.28 6.47 3.3 -11.78 16.29 6.47 3.3 -15.72 21.72 6.47 3.3 -11.79 16.28 6.48 3.3 -11.78 16.31 6.47 3.3 -15.73 21.71 6.48 3.3 -11.79 16.29 6.48 3.3 -11.8 16.28 6.48 3.3 -15.72 21.72 6.48 3.3 -11.79 16.29 6.48 3.3 -15.72 21.72 6.46 3.3 -11.78 16.29 6.48 3.3 -11.8 16.29 6.49 3.3 -15.73 21.72 6.47 3.3 -11.78 16.29 6.48 3.29 -15.73 21.73 6.47 3.3 -11.78 16.29 6.47 3.3 -15.73 21.71 6.49 3.3 -11.79 16.3 6.47 3.29 -15.72 21.73 6.48 3.28 -11.8 16.31 6.48 3.3 -15.72 21.71 6.49 3.3 -11.8 16.29 6.48 3.3 -15.72 21.72 6.47 3.31 -11.79 16.27 6.47 3.3 -15.71 21.73 6.47 3.3 -11.78 16.29 6.47 3.3 -15.73 21.71 6.48 3.3 -11.78 16.29 6.47 3.3 -15.73 21.71 6.47 3.31 -11.78 16.29 6.48 3.3 -15.72 21.72 6.47 3.3 -11.79 16.29 6.47 3.3 -15.71 21.71 6.47 3.3 -15.72 21.72 6.49 3.31 -11.79 16.29 6.47 3.3 -15.72 21.71 6.48 3.3 -15.73 21.71 6.47 3.31 -11.79 16.29 6.47 3.3 -15.72 21.71 6.49 3.31 -15.72 21.71 6.48 3.3 -11.8 16.29 6.48 3.31 -15.72 21.71 6.48 3.3 -15.74 21.72 6.49 3.3 -11.79 16.29 6.47 3.3 -15.72 21.71 6.48 3.31 -15.72 21.72 6.48 3.3 -15.72 21.71 6.47 3.32 -15.72 21.71 6.48 3.3 -11.8 16.29 6.48 3.3 -15.72 21.71 6.48 3.3 -15.72 21.73 6.47 3.3 -15.73 21.71 6.49 3.31 -15.72 21.71 6.48 3.3 -15.72 21.72 6.47 3.3 -15.73 21.72 6.48 3.3 -15.72 21.71 6.47 3.3 -11.78 16.29 6.48 3.31 -15.72 21.72 6.47 3.3 -15.73 21.71 6.48 3.3 -15.72 21.73 6.48 3.3 -19.66 27.14 6.49 3.3 -15.72 21.72 6.46 3.3 -15.7 21.71 6.46 3.3 -15.72 21.72 6.48 3.3 -15.72 21.72 6.47 3.31 -15.71 21.71 6.47 3.3 -15.72 21.73 6.48 3.3 -19.66 27.14 6.48 3.3 -15.72 21.71 6.48 3.31 -15.72 21.72 6.47 3.3 -19.65 27.15 6.47 3.3 -15.72 21.71 6.48 3.3 -15.72 21.71 6.48 3.3 -19.66 27.16 6.49 3.3 -15.73 21.73 6.47 3.3 -19.64 27.14 6.48 3.3 -15.73 21.71 6.47 3.31 -19.64 27.14 6.48 3.3 -19.66 27.15 6.48 3.3 -15.72 21.72 6.47 3.3 -19.65 27.15 6.47 3.3 -19.64 27.15 6.48 3.3 -19.66 27.14 6.48 3.3 -19.66 27.15 6.48 3.3 -19.64 27.15 6.47 3.3 -19.65 27.14 6.47 3.3 -23.57 32.58 6.47 3.3 -19.64 27.15 6.46 3.3 -19.65 27.16 6.47 3.29 -23.57 32.58 6.47 3.3 -23.58 32.58 6.48 3.3 -19.66 27.14 6.49 3.3 -19.65 27.15 6.47 3.3 -7.87 10.86 6.48 3.3 -7.85 10.85 6.48 3.31 -7.88 10.85 6.49 3.31 -3.93 5.44 6.47 3.29 -3.92 5.43 6.47 3.3 -3.93 5.44 6.47 3.3 -3.92 5.42 6.47 3.3 -3.93 5.43 12.95 6.61 -3.92 5.42 12.95 6.6 -3.94 5.43 19.43 9.91 -3.93 5.43 71.24 36.31 3.94 -5.43 19.41 9.9 3.94 -5.43 12.96 6.6 3.92 -5.42 6.48 3.3 3.94 -5.43 12.95 6.6 3.92 -5.43 6.49 3.3 3.92 -5.44 6.48 3.3 3.93 -5.42 6.48 3.3 7.86 -10.85 6.47 3.3 3.93 -5.44 6.48 3.31 7.86 -10.86 6.48 3.3 11.79 -16.29 6.48 3.3 43.23 -59.72 -6.47 -3.3 23.57 -32.58 -6.47 -3.29 19.65 -27.16 -6.49 -3.3 19.66 -27.15 -6.48 -3.3 19.66 -27.14 -6.48 -3.3 19.66 -27.15 -6.48 -3.3 19.64 -27.15 -6.47 -3.31 19.65 -27.15 -6.47 -3.3 19.64 -27.14 -6.48 -3.29 15.73 -21.72 -6.47 -3.31 19.64 -27.14 -6.47 -3.3 19.65 -27.15 -6.48 -3.31 15.72 -21.71 -6.47 -3.3 19.65 -27.15 -6.47 -3.3 15.72 -21.72 -6.48 -3.31 19.65 -27.14 -6.48 -3.3 15.73 -21.71 -6.48 -3.3 15.72 -21.72 -6.47 -3.3 15.71 -21.72 -6.47 -3.3 19.65 -27.15 -6.48 -3.3 15.71 -21.72 -6.47 -3.3 15.73 -21.71 -6.48 -3.31 15.72 -21.72 -6.47 -3.3 15.72 -21.71 -6.48 -3.3 15.72 -21.71 -6.48 -3.31 15.72 -21.72 -6.47 -3.3 15.72 -21.71 -6.48 -3.3 15.73 -21.73 -6.47 -3.3 15.71 -21.71 -6.48 -3.31 15.73 -21.71 -6.48 -3.31 15.72 -21.71 -6.47 -3.3 15.71 -21.72 -6.47 -3.3 15.72 -21.71 -6.48 -3.31 15.73 -21.72 -6.48 -3.3 11.79 -16.29 -6.48 -3.3 15.72 -21.71 -6.47 -3.3 15.72 -21.73 -6.48 -3.3 15.73 -21.71 -6.49 -3.31 11.8 -16.28 -6.48 -3.3 15.72 -21.73 -6.47 -3.3 15.72 -21.71 -6.48 -3.3 15.72 -21.71 -6.48 -3.32 11.79 -16.28 -6.47 -3.31 15.72 -21.71 -6.47 -3.3 11.78 -16.29 -6.48 -3.3 15.74 -21.71 -6.48 -3.3 15.72 -21.71 -6.49 -3.32 11.8 -16.29 -6.48 -3.3 15.72 -21.71 -6.48 -3.3 11.8 -16.29 -6.48 -3.3 15.72 -21.71 -6.47 -3.32 15.71 -21.71 -6.47 -3.3 11.79 -16.29 -6.47 -3.3 15.72 -21.71 -6.48 -3.3 11.79 -16.29 -6.48 -3.3 15.73 -21.73 -6.49 -3.3 11.8 -16.27 -6.48 -3.31 15.72 -21.72 -6.47 -3.3 11.79 -16.29 -6.47 -3.29 11.79 -16.3 -6.49 -3.3 15.72 -21.71 -6.47 -3.31 11.79 -16.29 -6.47 -3.3 15.71 -21.72 -6.47 -3.3 11.79 -16.28 -6.47 -3.3 15.72 -21.72 -6.48 -3.3 11.78 -16.29 -6.47 -3.31 11.79 -16.29 -6.47 -3.3 15.72 -21.71 -6.48 -3.3 11.8 -16.29 -6.49 -3.3 11.8 -16.29 -6.48 -3.3 15.72 -21.71 -6.48 -3.3 11.8 -16.29 -6.48 -3.3 11.8 -16.29 -6.49 -3.31 15.72 -21.72 -6.46 -3.3 11.78 -16.28 -6.48 -3.3 11.8 -16.29 -6.48 -3.3 15.72 -21.72 -6.47 -3.3 11.79 -16.28 -6.49 -3.3 11.8 -16.31 -6.48 -3.3 11.79 -16.27 -6.48 -3.3 15.73 -21.73 -6.47 -3.3 11.78 -16.28 -6.48 -3.31 11.8 -16.29 -6.48 -3.3 11.79 -16.28 -6.48 -3.3 15.73 -21.72 -6.47 -3.3 11.78 -16.29 -6.48 -3.29 11.8 -16.31 -6.48 -3.3 11.79 -16.29 -6.48 -3.3 15.72 -21.71 -6.48 -3.3 11.8 -16.29 -6.48 -3.3 11.8 -16.28 -6.49 -3.31 11.8 -16.29 -6.48 -3.3 11.78 -16.28 -6.46 -3.3 11.78 -16.29 -6.47 -3.3 15.72 -21.71 -6.48 -3.32 11.8 -16.29 -6.48 -3.3 11.78 -16.29 -6.47 -3.29 11.79 -16.29 -6.47 -3.3 11.79 -16.29 -6.47 -3.3 11.78 -16.29 -6.47 -3.3 15.71 -21.72 -6.47 -3.3 11.79 -16.28 -6.47 -3.3 11.79 -16.29 -6.47 -3.3 11.78 -16.29 -6.47 -3.3 11.78 -16.29 -6.48 -3.31 11.8 -16.28 -6.48 -3.31 11.8 -16.29 -6.48 -3.3 11.78 -16.27 -6.47 -3.31 11.79 -16.28 -6.47 -3.32 15.72 -21.71 -6.48 -3.3 11.79 -16.29 -6.47 -3.3 11.79 -16.28 -6.48 -3.3 11.79 -16.3 -6.48 -3.3 11.79 -16.28 -6.47 -3.3 11.79 -16.29 -6.47 -3.3 11.79 -16.29 -6.47 -3.3 11.78 -16.29 -6.48 -3.3 11.79 -16.29 -6.48 -3.31 11.8 -16.29 -6.48 -3.3 11.8 -16.27 -6.48 -3.31 11.78 -16.28 -6.47 -3.31 11.79 -16.29 -6.47 -3.3 11.78 -16.29 -6.47 -3.3 11.79 -16.29 -6.48 -3.3 11.8 -16.29 -6.48 -3.3 11.79 -16.28 -6.48 -3.31 11.78 -16.29 -6.46 -3.3 11.78 -16.29 -6.47 -3.29 11.79 -16.29 -6.47 -3.3 11.79 -16.29 -6.47 -3.3 11.78 -16.29 -6.47 -3.3 11.78 -16.29 -6.48 -3.3 11.8 -16.29 -6.48 -3.3 11.8 -16.29 -6.48 -3.29 11.79 -16.29 -6.48 -3.3 11.8 -16.31 -6.48 -3.28 11.78 -16.29 -6.47 -3.31 11.79 -16.29 -6.47 -3.3 11.79 -16.29 -6.47 -3.3 11.78 -16.27 -6.48 -3.32 11.8 -16.29 -6.48 -3.3 11.79 -16.29 -6.48 -3.29 11.8 -16.29 -6.48 -3.3 11.8 -16.29 -6.49 -3.3 11.79 -16.29 -6.47 -3.3 11.78 -16.29 -6.47 -3.3 11.79 -16.29 -6.47 -3.3 11.79 -16.29 -6.49 -3.3 11.8 -16.28 -6.48 -3.3 11.8 -16.3 -6.48 -3.29 11.79 -16.29 -6.48 -3.3 11.79 -16.29 -6.47 -3.3 11.79 -16.29 -6.48 -3.3 11.79 -16.29 -6.47 -3.31 11.79 -16.29 -6.47 -3.3 7.84 -10.85 -6.46 -3.3 11.78 -16.29 -6.47 -3.3 11.78 -16.29 -6.47 -3.31 11.79 -16.29 -6.48 -3.3 11.8 -16.27 -6.48 -3.3 11.79 -16.29 -6.47 -3.31 11.79 -16.29 -6.48 -3.3 11.78 -16.29 -6.47 -3.3 11.79 -16.29 -6.47 -3.3 11.79 -16.29 -6.47 -3.3 11.79 -16.28 -6.48 -3.31 7.86 -10.86 -6.48 -3.3 11.8 -16.29 -6.48 -3.29 11.8 -16.3 -6.48 -3.3 11.78 -16.28 -6.47 -3.3 11.78 -16.29 -6.48 -3.3 11.8 -16.29 -6.48 -3.3 11.8 -16.29 -6.48 -3.3 11.79 -16.29 -6.48 -3.29 11.8 -16.3 -6.48 -3.3 7.86 -10.86 -6.47 -3.3 11.78 -16.29 -6.48 -3.3 11.8 -16.28 -6.48 -3.3 11.8 -16.3 -6.49 -3.3 11.79 -16.28 -6.47 -3.3 11.78 -16.29 -6.47 -3.3 11.79 -16.29 -6.47 -3.3 11.79 -16.29 -6.47 -3.3 7.86 -10.86 -6.48 -3.3 11.78 -16.29 -6.47 -3.3 11.79 -16.29 -6.47 -3.3 11.79 -16.29 -6.47 -3.3 11.79 -16.29 -6.49 -3.3 11.8 -16.29 -6.48 -3.3 11.79 -16.28 -6.48 -3.3 7.86 -10.86 -6.47 -3.3 11.79 -16.29 -6.47 -3.3 11.79 -16.29 -6.49 -3.3 11.8 -16.29 -6.48 -3.3 11.8 -16.29 -6.48 -3.3 11.78 -16.29 -6.47 -3.3 7.87 -10.86 -6.49 -3.3 11.79 -16.29 -6.47 -3.3 11.79 -16.29 -6.48 -3.3 11.8 -16.29 -6.48 -3.3 11.8 -16.28 -6.49 -3.31 11.79 -16.29 -6.47 -3.3 7.86 -10.86 -6.48 -3.3 11.8 -16.29 -6.48 -3.3 11.78 -16.28 -6.47 -3.3 11.79 -16.29 -6.47 -3.31 11.78 -16.28 -6.47 -3.3 11.79 -16.29 -6.47 -3.3 7.85 -10.86 -6.47 -3.3 11.79 -16.29 -6.48 -3.3 11.79 -16.29 -6.47 -3.3 11.78 -16.29 -6.48 -3.3 11.8 -16.29 -6.48 -3.3 7.88 -10.86 -6.48 -3.3 11.78 -16.29 -6.47 -3.3 11.78 -16.29 -6.48 -3.29 11.8 -16.3 -6.48 -3.3 11.8 -16.28 -6.48 -3.3 7.86 -10.87 -6.48 -3.3 11.79 -16.28 -6.47 -3.3 11.79 -16.3 -6.47 -3.29 11.78 -16.29 -6.48 -3.3 11.8 -16.29 -6.49 -3.3 7.86 -10.86 -6.46 -3.3 11.78 -16.29 -6.48 -3.3 11.8 -16.29 -6.48 -3.3 11.8 -16.29 -6.48 -3.3 7.86 -10.86 -6.49 -3.3 11.8 -16.29 -6.48 -3.3 11.8 -16.29 -6.48 -3.3 11.79 -16.29 -6.48 -3.29 7.86 -10.87 -6.47 -3.3 11.78 -16.29 -6.48 -3.3 11.8 -16.29 -6.48 -3.3 7.87 -10.86 -6.47 -3.3 11.78 -16.29 -6.47 -3.3 11.79 -16.27 -6.49 -3.31 11.8 -16.3 -6.48 -3.3 7.86 -10.85 -6.47 -3.31 11.79 -16.27 -6.47 -3.3 11.78 -16.29 -6.48 -3.31 7.86 -10.86 -6.47 -3.3 11.79 -16.29 -6.47 -3.31 11.78 -16.27 -6.46 -3.3 7.86 -10.87 -6.49 -3.3 11.79 -16.28 -6.47 -3.3 11.79 -16.3 -6.47 -3.29 7.86 -10.87 -6.48 -3.3 11.79 -16.28 -6.48 -3.3 11.8 -16.29 -6.49 -3.3 7.87 -10.87 -6.48 -3.29 11.79 -16.3 -6.47 -3.3 11.79 -16.28 -6.48 -3.3 7.86 -10.86 -6.47 -3.31 11.78 -16.28 -6.48 -3.3 11.8 -16.3 -6.48 -3.29 7.86 -10.85 -6.47 -3.3 11.79 -16.29 -6.47 -3.31 7.86 -10.86 -6.48 -3.31 11.78 -16.27 -6.47 -3.3 11.79 -16.29 -6.47 -3.3 7.86 -10.86 -6.48 -3.3 11.8 -16.29 -6.49 -3.31 7.86 -10.86 -6.48 -3.3 11.8 -16.29 -6.48 -3.29 11.8 -16.29 -6.48 -3.3 7.86 -10.86 -6.47 -3.3 11.79 -16.29 -6.49 -3.31 7.86 -10.86 -6.47 -3.29 11.79 -16.3 -6.47 -3.3 7.86 -10.85 -6.48 -3.31 11.8 -16.27 -6.49 -3.32 7.86 -10.85 -6.48 -3.3 11.8 -16.29 -6.48 -3.3 11.8 -16.29 -6.48 -3.31 7.86 -10.85 -6.49 -3.3 11.8 -16.29 -6.48 -3.3 7.86 -10.86 -6.47 -3.3 11.79 -16.29 -6.47 -3.3 7.86 -10.86 -6.48 -3.3 11.78 -16.27 -6.47 -3.32 7.86 -10.85 -6.48 -3.31 11.8 -16.28 -6.48 -3.31 7.86 -10.85 -6.47 -3.3 11.79 -16.29 -6.49 -3.3 7.86 -10.86 -6.47 -3.3 11.79 -16.29 -6.47 -3.3 7.86 -10.86 -6.48 -3.3 11.8 -16.29 -6.48 -3.3 7.86 -10.85 -6.49 -3.31 11.8 -16.3 -6.48 -3.29 7.86 -10.87 -6.47 -3.3 7.87 -10.85 -6.48 -3.3 11.78 -16.29 -6.47 -3.3 7.86 -10.86 -6.48 -3.3 11.79 -16.29 -6.48 -3.3 7.86 -10.86 -6.46 -3.3 11.78 -16.29 -6.49 -3.3 7.87 -10.85 -6.47 -3.31 11.79 -16.29 -6.47 -3.3 7.86 -10.85 -6.48 -3.3 7.86 -10.87 -6.47 -3.3 11.79 -16.28 -6.49 -3.3 7.86 -10.87 -6.47 -3.3 11.79 -16.28 -6.47 -3.3 7.86 -10.87 -6.48 -3.3 7.86 -10.85 -6.47 -3.31 11.78 -16.29 -6.48 -3.3 7.86 -10.85 -6.47 -3.3 11.79 -16.29 -6.47 -3.3 7.86 -10.86 -6.48 -3.3 7.86 -10.86 -6.48 -3.3 11.8 -16.29 -6.48 -3.3 7.86 -10.87 -6.47 -3.3 7.86 -10.85 -6.48 -3.3 11.78 -16.28 -6.47 -3.32 7.86 -10.85 -6.48 -3.3 7.86 -10.86 -6.47 -3.3 11.79 -16.29 -6.47 -3.3 7.86 -10.86 -6.48 -3.3 7.86 -10.85 -6.48 -3.3 11.79 -16.29 -6.48 -3.3 7.86 -10.86 -6.47 -3.3 7.87 -10.87 -6.48 -3.3 7.86 -10.86 -6.49 -3.3 11.8 -16.29 -6.48 -3.3 7.86 -10.85 -6.47 -3.31 7.86 -10.85 -6.48 -3.3 11.8 -16.29 -6.49 -3.3 7.86 -10.86 -6.48 -3.3 7.86 -10.87 -6.46 -3.29 7.86 -10.86 -6.48 -3.31 11.8 -16.29 -6.48 -3.3 7.85 -10.85 -6.48 -3.3 7.86 -10.86 -6.47 -3.3 7.86 -10.86 -6.48 -3.3 11.8 -16.29 -6.48 -3.3 7.86 -10.87 -6.47 -3.3 7.86 -10.85 -6.48 -3.3 7.86 -10.86 -6.48 -3.3 7.86 -10.86 -6.47 -3.3 11.79 -16.29 -6.47 -3.3 7.86 -10.85 -6.49 -3.31 7.86 -10.85 -6.48 -3.3 7.87 -10.87 -6.47 -3.3 7.86 -10.86 -6.48 -3.3 7.86 -10.85 -6.49 -3.31 11.8 -16.28 -6.48 -3.31 7.86 -10.85 -6.47 -3.3 7.86 -10.86 -6.48 -3.3 7.86 -10.87 -6.47 -3.3 7.86 -10.85 -6.48 -3.31 7.86 -10.85 -6.48 -3.3 7.86 -10.87 -6.47 -3.29 11.79 -16.29 -6.47 -3.3 7.86 -10.86 -6.48 -3.31 7.86 -10.86 -6.47 -3.3 7.86 -10.85 -6.48 -3.3 7.86 -10.86 -6.48 -3.3 7.86 -10.87 -6.47 -3.3 7.86 -10.86 -6.48 -3.3 7.86 -10.85 -6.47 -3.3 7.85 -10.86 -6.47 -3.3 7.86 -10.86 -6.48 -3.3 7.86 -10.85 -6.47 -3.32 7.86 -10.85 -6.48 -3.3 7.86 -10.86 -6.47 -3.3 11.79 -16.29 -6.47 -3.3 7.85 -10.86 -6.48 -3.3 7.86 -10.87 -6.47 -3.28 7.86 -10.87 -6.47 -3.3 7.86 -10.86 -6.48 -3.3 7.86 -10.86 -6.49 -3.3 7.87 -10.87 -6.47 -3.3 7.86 -10.85 -6.48 -3.3 7.86 -10.86 -6.47 -3.3 3.92 -5.42 -6.46 -3.3 7.86 -10.87 -6.49 -3.3 7.86 -10.86 -6.48 -3.3 7.86 -10.85 -6.47 -3.31 7.87 -10.86 -6.48 -3.3 7.86 -10.86 -6.49 -3.3 7.86 -10.86 -6.47 -3.3 7.86 -10.85 -6.48 -3.31 7.86 -10.85 -6.47 -3.3 7.87 -10.86 -6.48 -3.3 7.86 -10.87 -6.49 -3.3 7.86 -10.85 -6.47 -3.3 7.87 -10.86 -6.48 -3.3 3.93 -5.44 -6.48 -3.3 7.86 -10.85 -6.47 -3.3 7.86 -10.86 -6.48 -3.3 7.86 -10.87 -6.48 -3.3 7.86 -10.86 -6.47 -3.3 7.86 -10.85 -6.48 -3.3 3.94 -5.42 -6.49 -3.32 7.86 -10.85 -6.48 -3.31 7.88 -10.85 -6.48 -3.3 7.86 -10.86 -6.48 -3.3 7.86 -10.87 -6.48 -3.3 7.87 -10.85 -6.48 -3.31 3.93 -5.42 -6.48 -3.3 7.86 -10.87 -6.48 -3.3 7.86 -10.85 -6.47 -3.3 7.86 -10.86 -6.48 -3.3 3.94 -5.44 -6.48 -3.3 7.86 -10.85 -6.47 -3.3 7.86 -10.86 -6.48 -3.3 3.94 -5.43 -6.49 -3.3 7.86 -10.86 -6.48 -3.3 7.86 -10.87 -6.47 -3.3 7.87 -10.86 -6.48 -3.3 3.93 -5.42 -6.49 -3.3 7.87 -10.87 -6.47 -3.3 7.85 -10.86 -6.47 -3.3 3.92 -5.42 -6.47 -3.3 7.86 -10.87 -6.48 -3.29 7.87 -10.86 -6.48 -3.31 3.92 -5.42 -6.48 -3.3 7.87 -10.87 -6.47 -3.28 3.92 -5.44 -6.47 -3.3 7.87 -10.87 -6.49 -3.3 7.86 -10.86 -6.47 -3.3 3.93 -5.42 -6.47 -3.3 7.86 -10.87 -6.48 -3.3 3.92 -5.42 -6.47 -3.3 7.86 -10.86 -6.48 -3.3 3.94 -5.43 -6.48 -3.3 7.86 -10.87 -6.47 -3.29 3.92 -5.43 -6.48 -3.31 7.88 -10.85 -6.49 -3.3 3.93 -5.44 -6.47 -3.3 7.86 -10.85 -6.48 -3.3 3.93 -5.44 -6.48 -3.3 7.87 -10.85 -6.48 -3.31 3.92 -5.43 -6.48 -3.29 7.87 -10.87 -6.47 -3.3 3.92 -5.43 -6.47 -3.29 3.93 -5.43 -6.47 -3.31 7.86 -10.85 -6.49 -3.3 3.94 -5.44 -6.48 -3.3 7.86 -10.85 -6.48 -3.3 3.94 -5.44 -6.48 -3.3 3.93 -5.42 -6.48 -3.3 7.86 -10.87 -6.47 -3.29 3.93 -5.43 -6.47 -3.3 3.92 -5.44 -6.47 -3.3 7.85 -10.86 -6.47 -3.3 3.94 -5.42 -6.49 -3.3 3.93 -5.43 -6.47 -3.3 7.86 -10.87 -6.48 -3.29 3.94 -5.44 -6.48 -3.3 3.93 -5.43 -6.48 -3.3 3.92 -5.42 -6.47 -3.3 7.86 -10.87 -6.48 -3.29 3.94 -5.44 -6.48 -3.3 3.94 -5.43 -6.49 -3.3 3.92 -5.42 -6.46 -3.3 3.92 -5.44 -6.47 -3.3 7.86 -10.86 -6.46 -3.3 3.92 -5.43 -6.48 -3.3 3.94 -5.42 -6.49 -3.32 3.94 -5.42 -6.48 -3.3 3.93 -5.43 -6.48 -3.31 3.94 -5.42 -6.48 -3.3 3.92 -5.43 -6.47 -3.3 3.92 -5.44 -6.46 -3.3 3.92 -5.42 -6.47 -3.3 3.93 -5.44 -6.47 -3.3 3.92 -5.42 -6.47 -3.3 3.93 -5.43 -6.49 -3.3 3.94 -5.44 -6.47 -3.29 3.93 -5.43 -6.47 -3.3 3.92 -5.44 -6.48 -3.3 3.94 -5.42 -6.49 -3.31 3.94 -5.42 -6.48 -3.31 3.93 -5.42 -6.48 -3.3 3.94 -5.43 -6.48 -3.3 3.92 -5.44 -6.47 -3.3 3.94 -5.43 -12.96 -6.6 3.93 -5.43 -6.48 -3.3 3.94 -5.43 -6.48 -3.3 3.93 -5.42 -6.48 -3.31 3.94 -5.43 -12.95 -6.6 3.92 -5.42 -6.48 -3.3 3.93 -5.44 -12.95 -6.6 3.93 -5.43 -6.47 -3.31 3.92 -5.42 -12.95 -6.6 3.94 -5.43 -6.49 -3.31 3.93 -5.42 -12.95 -6.6 3.94 -5.43 -12.96 -6.61 3.93 -5.43 -12.95 -6.6 3.93 -5.42 -19.43 -9.91 3.92 -5.43 -12.94 -6.6 3.93 -5.44 -25.9 -13.2 3.92 -5.42 -25.9 -13.21z"/>
  </g>
  <g id="bigOne">
   <ellipse class="fil1" cx="16964.8" cy="21368.58" rx="1242.95" ry="2434.09"/>
   <path class="fil2 str0" d="M16672.86 29635.27c126.2,-3114.82 427.71,-6426.01 258.35,-9603.06m-155.17 1717.8c-538.69,43.3 -133.86,-455.51 -1054.19,-381.43m1037.28 1554.1c-242.02,-272.08 -498.24,-612.66 -955.36,-683.2m1161.03 -870.9c245.07,-199.6 713.57,-725.27 988.73,-826.82l170.99 -50.75"/>
  </g>
 </g>
</svg>
