<svg width="210" height="297" viewBox="0 0 210 297" fill="none" xmlns="http://www.w3.org/2000/svg">
<g id="butterfly 1">
<g id="Layer x0020 1">
<g id="theButterfly">
<g id="frontBack">
<path id="shape2" fill-rule="evenodd" clip-rule="evenodd" d="M117.181 188.208C119.374 167.45 95.7871 149.128 121.933 127.242C135.185 116.15 127.968 115.944 153.618 113.397C154.884 113.271 166.244 115.642 166.989 116.216C173.629 121.324 174.873 122.544 187.099 130.974C186.929 131.301 190.842 143.604 189.834 147.03C187.5 154.954 191.975 154.352 181.691 161.44C170.76 168.975 118.188 207.401 115 190.174C114.886 189.558 119.333 187.295 117.181 188.208V188.208Z" fill="#DAEAF7" stroke="#373435" stroke-width="0.0467" stroke-miterlimit="22.9256"/>
<path id="shape1" fill-rule="evenodd" clip-rule="evenodd" d="M172.7 149.131C192.36 137.346 172.02 134.619 170.601 135.466C168.729 138.948 152.897 148.231 152.173 150.379C150.915 154.119 151.781 158.127 151.771 158.158C150.965 160.553 157.852 156.076 158.633 155.537C165.237 150.985 170.316 150.559 172.7 149.131V149.131ZM171.804 152.938C168.73 151.31 144.821 166.929 141.811 173.247C140.644 175.698 133.9 187.958 130.752 185.508C129.924 188.968 127.431 186.127 130.37 189.822C131.181 190.842 147.991 181.583 149.484 180.554C155.251 176.578 171.253 168.14 173.801 165.044C176.272 162.04 188.094 154.872 182.469 150.433C180.044 148.52 174.007 151.552 171.804 152.938V152.938ZM156.878 143.759C158.935 140.891 173.362 131.285 171.092 128.498C167.072 123.566 164.54 125.532 159.783 126.389C154.884 127.271 148.833 140.171 148.582 143.756C148.554 144.147 147.738 144.894 147.731 145.576C147.662 151.674 155.541 145.622 156.878 143.759V143.759ZM147.621 160.731C149.668 157.836 147.635 149.287 144.815 146.352C143.616 145.103 145.221 135.034 148.659 132.412C155.604 127.115 154.798 114.018 140.852 125.422C140.375 125.812 140.222 126.819 140.058 126.912C134.749 129.909 144.684 141.962 129.833 153.372C126.001 156.315 129.423 163.704 128.319 168.414C126.882 174.547 128.354 175.006 125.508 181.3C124.791 182.888 122.266 186.411 123.247 187.536C123.99 187.101 124.694 188.594 131.459 183.931C139.495 178.392 142.334 168.211 147.621 160.731V160.731ZM129.974 150.566C132.45 145.579 136.248 135.05 132.631 130.9C129.981 127.859 117.431 135.768 119.948 140.189C120.994 142.027 126.469 153.129 126.593 153.258C126.715 153.387 129.967 150.581 129.974 150.566V150.566ZM125.791 158.078C125.6 153.91 119.184 141.756 115.637 141.277L115.124 141.537C109.261 141.156 113.83 154.6 113.195 156.257C111.756 160.015 117.573 186.107 121.205 185.807C128.298 185.219 125.923 160.965 125.791 158.078V158.078ZM181.691 161.44C170.76 168.975 118.188 207.401 115 190.174C114.886 189.558 119.333 187.295 117.181 188.208C119.374 167.45 95.7871 149.128 121.933 127.242C135.185 116.15 127.968 115.944 153.618 113.397C154.884 113.271 166.244 115.642 166.989 116.216C173.629 121.324 174.873 122.544 187.099 130.974C186.929 131.301 190.842 143.604 189.834 147.03C187.5 154.954 191.975 154.352 181.691 161.44V161.44Z" fill="#3E2D44"/>
<path id="shape50" fill-rule="evenodd" clip-rule="evenodd" d="M151.771 158.158C151.781 158.127 150.915 154.119 152.173 150.379C152.897 148.231 168.729 138.948 170.601 135.466C172.02 134.619 192.36 137.346 172.7 149.131C170.316 150.559 165.237 150.985 158.633 155.537C157.852 156.076 150.965 160.553 151.771 158.158V158.158Z" fill="#FFF212" stroke="#373435" stroke-width="0.2" stroke-miterlimit="22.9256"/>
<path id="shape49" fill-rule="evenodd" clip-rule="evenodd" d="M156.878 143.759C155.541 145.622 147.662 151.674 147.731 145.576C147.738 144.894 148.554 144.147 148.582 143.756C148.833 140.171 154.884 127.271 159.783 126.389C164.54 125.532 167.072 123.566 171.092 128.498C173.362 131.285 158.935 140.891 156.878 143.759V143.759Z" fill="#FFF212" stroke="#373435" stroke-width="0.2" stroke-miterlimit="22.9256"/>
<path id="shape48" fill-rule="evenodd" clip-rule="evenodd" d="M132.631 130.9C136.248 135.05 132.45 145.579 129.974 150.566C129.967 150.581 126.715 153.387 126.593 153.258C126.469 153.129 120.994 142.027 119.948 140.189C117.431 135.768 129.981 127.859 132.631 130.9V130.9Z" fill="#FFF212" stroke="#373435" stroke-width="0.2" stroke-miterlimit="22.9256"/>
</g>
<g id="backFront">
<path id="shape8" fill-rule="evenodd" clip-rule="evenodd" d="M105.958 190.528C105.551 184.797 101.453 182.709 99.4964 174.005C97.208 163.826 93.9461 153.602 94.2914 143.174C94.3638 140.98 91.8214 134.297 92.3476 126.744C94.6657 93.477 88.9105 114.856 104.391 82.7415C109.531 72.0772 129.551 77.6051 135.805 88.4203C138.588 93.2338 140.095 96.9704 144.627 100.331C151.163 105.178 165.982 122.51 162.393 131.457C148.96 164.945 148.839 179.218 129.977 186.273C127.793 187.09 115.138 188.691 113.102 193.205C112.634 194.24 108.111 196.074 105.958 190.528V190.528Z" fill="#CDE2F3" stroke="#373435" stroke-width="0.0467" stroke-miterlimit="22.9256"/>
<path id="shape7" fill-rule="evenodd" clip-rule="evenodd" d="M115.221 186.707C115.22 186.709 115.219 186.71 115.219 186.713C115.219 186.714 115.22 186.712 115.221 186.707ZM118.782 159.397C115.689 163.709 115.293 186.284 115.221 186.707C115.746 185.444 118.684 182.492 119.035 181.864C126.545 168.396 137.409 156.309 149.983 146.572C154.132 143.359 161.78 126.236 152.097 125.33C145.636 124.725 136.353 134.047 134.334 136.786C130.472 136.388 120.082 157.585 118.782 159.397ZM106.793 186.338C107.454 186.342 108.096 186.432 108.968 186.544C115.088 187.331 114.36 149.603 114.958 142.519C115.442 136.792 109.73 130.333 106.853 132.053C99.5459 136.42 98.4677 143.996 97.6913 151.086C95.856 167.845 105.709 181.324 106.793 186.338V186.338ZM118.739 149.563C122.231 149.89 130.579 138.622 132.481 135.498C138.468 125.658 143.039 128.785 144.237 117.84C144.667 113.92 130.278 121.518 129.843 121.971C123 129.115 113.71 138.8 118.583 149.238C118.611 149.423 118.656 149.555 118.739 149.563V149.563ZM94.2914 143.174C94.3638 140.981 91.8214 134.297 92.3476 126.744C94.6657 93.477 88.9105 114.856 104.391 82.7415C109.531 72.0772 129.551 77.6051 135.805 88.4203C138.588 93.2338 140.095 96.9704 144.627 100.331C151.163 105.178 165.982 122.51 162.393 131.457C148.96 164.945 148.839 179.218 129.977 186.273C127.793 187.09 115.138 188.691 113.102 193.205C112.634 194.241 108.111 196.074 105.958 190.528C105.85 189.007 105.482 187.742 104.962 186.543C103.526 183.222 100.933 180.399 99.4964 174.005C97.208 163.826 93.9461 153.602 94.2914 143.174V143.174Z" fill="#3E2D44" stroke="#373435" stroke-width="0.0529" stroke-miterlimit="22.9256"/>
<path id="shape6" fill-rule="evenodd" clip-rule="evenodd" d="M126.528 114.133C117.648 121.627 118.224 143.713 106.478 120.388C97.8897 103.334 126.208 107.521 126.528 114.133V114.133Z" fill="#ED3237" stroke="#373435" stroke-width="0.0467" stroke-miterlimit="22.9256"/>
</g>
<g id="theBody">
<path id="anthena2" fill-rule="evenodd" clip-rule="evenodd" d="M94.7957 195.215C92.1741 195.486 81.4568 192.552 75.1059 192.791C73.7732 192.842 60.4401 191.446 63.4377 194.11C64.7696 195.294 67.8736 193.85 70.9828 193.707C81.4034 193.225 87.1402 194.156 93.8273 195.576C93.8605 195.582 96.1652 195.073 94.7957 195.215V195.215Z" fill="#282829"/>
<path id="weidthing" d="M96.095 198.401C88.1335 199.31 81.6299 201.582 84.0944 209.366C84.3358 210.129 89.2273 210.227 86.4687 207.738C86.2776 207.565 86.4825 207.518 86.1716 207.229" stroke="#373435" stroke-width="0.0467" stroke-miterlimit="22.9256"/>
<path id="body" d="M107.713 224.779C107.728 224.876 107.743 224.949 107.76 225C108.04 223.374 108.287 220.268 107.25 217.074C106.673 215.295 105.571 214.028 104.656 212.975C104.517 212.814 104.382 212.66 104.254 212.508C103.769 211.935 103.381 211.418 103.228 210.9C103.075 210.382 103.157 209.864 103.609 209.29C104.173 208.574 104.704 208.037 105.194 207.575C105.359 207.42 105.519 207.274 105.674 207.132C105.98 206.851 106.268 206.588 106.532 206.312C107.329 205.483 107.926 204.542 108.25 202.662L108.229 202.659L108.256 202.658C109.383 202.595 110.266 202.783 110.87 202.994C111.171 203.098 111.403 203.208 111.56 203.293C111.639 203.335 111.699 203.373 111.74 203.4C111.76 203.414 111.776 203.425 111.786 203.433C111.792 203.438 111.796 203.441 111.799 203.444L111.803 203.447C111.804 203.448 111.805 203.449 111.805 203.451L111.809 203.449L111.805 203.455C111.595 203.709 111.394 203.959 111.195 204.205C110.481 205.089 109.804 205.928 108.914 206.77C107.778 207.845 106.295 208.925 103.946 210.111C105.973 212.784 108.762 215.749 111.249 218.113C112.494 219.294 113.662 220.325 114.623 221.093C115.103 221.476 115.53 221.794 115.889 222.032C116.249 222.27 116.538 222.428 116.742 222.493C116.748 222.494 116.752 222.496 116.756 222.496C116.759 222.497 116.761 222.496 116.763 222.496C116.764 222.496 116.765 222.494 116.765 222.494C116.765 222.494 116.766 222.493 116.766 222.492C116.766 222.491 116.766 222.49 116.766 222.49C116.765 222.485 116.762 222.477 116.756 222.467C116.75 222.456 116.741 222.443 116.73 222.429C116.684 222.37 116.596 222.277 116.472 222.153C116.223 221.905 115.828 221.536 115.331 221.08C114.967 220.745 114.547 220.363 114.09 219.947C113.303 219.231 112.407 218.414 111.491 217.564C110.042 216.222 108.543 214.8 107.351 213.565C106.755 212.948 106.236 212.377 105.837 211.888C105.439 211.397 105.162 210.988 105.05 210.692L105.039 210.695L105.052 210.687C106.132 210.018 107.497 208.746 108.706 207.619C108.911 207.428 109.111 207.241 109.305 207.062C109.974 206.443 110.564 205.918 110.988 205.635C111.094 205.565 111.19 205.509 111.274 205.471C111.358 205.433 111.431 205.411 111.491 205.411C111.552 205.411 111.6 205.431 111.632 205.473C111.664 205.516 111.681 205.58 111.681 205.669C111.703 208.157 111.451 210.169 111.274 211.59C111.262 211.682 111.251 211.77 111.24 211.858C111.152 212.573 111.091 213.118 111.109 213.475C111.118 213.655 111.147 213.786 111.202 213.867C111.229 213.909 111.262 213.937 111.303 213.953C111.343 213.969 111.391 213.973 111.448 213.966C113.65 213.639 115.408 213.763 116.889 214.152C118.37 214.541 119.575 215.193 120.673 215.923C121.221 216.287 121.742 216.671 122.258 217.049L122.26 217.051C122.776 217.43 123.287 217.806 123.813 218.154C124.859 218.846 125.967 219.429 127.303 219.719C124.112 217.181 121.672 215.552 119.372 214.571C117.068 213.587 114.903 213.253 112.263 213.305C112.155 213.307 112.064 213.285 111.99 213.245C111.915 213.205 111.857 213.144 111.813 213.066C111.726 212.911 111.696 212.688 111.708 212.418C111.732 211.88 111.924 211.155 112.168 210.414C112.402 209.706 112.683 208.984 112.912 208.399L112.943 208.32C113.059 208.021 113.16 207.761 113.231 207.562C113.266 207.462 113.294 207.379 113.312 207.312C113.33 207.246 113.339 207.198 113.336 207.171C113.293 206.641 113.269 205.027 113.272 203.545C113.273 202.803 113.282 202.094 113.297 201.57C113.304 201.308 113.314 201.091 113.325 200.941C113.332 200.865 113.338 200.806 113.344 200.765C113.348 200.744 113.351 200.729 113.355 200.717C113.357 200.713 113.359 200.708 113.361 200.705C113.363 200.702 113.366 200.698 113.371 200.697L113.369 200.685L113.377 200.7C113.414 200.772 113.514 200.878 113.662 201.008C113.81 201.138 114.006 201.292 114.234 201.46C114.691 201.797 115.277 202.195 115.869 202.582C116.461 202.968 117.06 203.343 117.543 203.635C118.026 203.928 118.391 204.138 118.518 204.194C121.099 205.332 123.361 207.825 125.119 210.087C125.731 210.873 126.282 211.631 126.764 212.296C126.975 212.587 127.173 212.86 127.357 213.109C127.66 213.518 127.925 213.862 128.15 214.12C128.263 214.248 128.365 214.353 128.457 214.434C128.549 214.515 128.631 214.569 128.701 214.596C130.752 215.382 131.776 215.804 132.134 215.952C131.988 215.882 131.741 215.763 131.431 215.603C130.755 215.254 129.779 214.713 128.908 214.078C128.036 213.443 127.268 212.713 127.006 211.988C125.94 209.037 124.124 207.263 122.511 206.021C122.108 205.711 121.717 205.435 121.354 205.18C121.283 205.13 121.212 205.081 121.143 205.033C120.86 204.837 120.597 204.654 120.362 204.478C119.776 204.044 119.359 203.66 119.231 203.249C118.888 202.146 118.784 201.308 118.887 200.674C118.99 200.04 119.3 199.611 119.788 199.324C120.276 199.038 120.939 198.895 121.747 198.832C122.556 198.77 123.509 198.789 124.576 198.826C128.205 198.955 132.8 199.812 137.805 200.747C138.604 200.896 139.413 201.047 140.231 201.197C146.17 202.289 152.544 203.345 158.488 203.346C158.627 203.346 158.74 203.317 158.833 203.267C158.927 203.216 159.001 203.144 159.063 203.056C159.187 202.881 159.259 202.645 159.328 202.405C159.332 202.391 159.336 202.377 159.34 202.364C159.405 202.137 159.47 201.909 159.577 201.729C159.69 201.538 159.851 201.399 160.107 201.368C159.78 199.334 158.04 197.892 155.496 196.874C152.951 195.854 149.601 195.258 146.061 194.917C140.527 194.383 134.529 194.469 130.408 194.53C129.258 194.547 128.253 194.561 127.447 194.56C124.232 194.553 122.096 194.46 120.277 194.087C118.457 193.713 116.954 193.06 115.005 191.934C108.764 188.329 103.5 190.094 101.125 192.135C100.778 192.434 100.644 192.767 100.59 193.095C100.563 193.26 100.556 193.422 100.552 193.577C100.551 193.61 100.551 193.644 100.551 193.677C100.549 193.796 100.547 193.911 100.537 194.017C100.513 194.289 100.436 194.515 100.175 194.647C99.9141 194.778 99.4702 194.816 98.7123 194.72C97.6857 194.59 96.8296 194.483 96.1268 194.415C95.3344 194.337 94.7367 194.309 94.3078 194.352C93.8794 194.395 93.6211 194.509 93.5043 194.715C93.3876 194.921 93.4122 195.221 93.5546 195.637C93.6972 196.053 93.9573 196.585 94.3087 197.254C95.4999 199.522 96.4993 200.861 97.3274 201.591C98.1555 202.321 98.8113 202.441 99.316 202.273C99.8212 202.103 100.178 201.645 100.405 201.213C100.518 200.996 100.599 200.787 100.65 200.624C100.676 200.542 100.694 200.473 100.705 200.419C100.71 200.393 100.714 200.371 100.716 200.352C100.718 200.335 100.718 200.322 100.716 200.316C100.648 199.983 100.615 199.748 100.621 199.596C100.624 199.52 100.636 199.464 100.658 199.427C100.68 199.388 100.713 199.368 100.755 199.366C100.797 199.363 100.848 199.378 100.907 199.406C100.966 199.434 101.035 199.477 101.113 199.532C101.268 199.64 101.461 199.797 101.691 199.985L101.712 200.003C102.636 200.756 104.15 201.992 106.262 202.652C106.693 202.786 106.947 202.963 107.013 203.235C107.079 203.506 106.959 203.872 106.65 204.385C106.12 205.262 105.033 206.575 103.364 208.591C103.082 208.931 102.783 209.292 102.468 209.674C101.796 210.487 102.032 211.524 102.761 212.799C103.29 213.726 104.079 214.778 104.966 215.961C105.3 216.405 105.647 216.868 105.999 217.35H105.999L106 217.351C106.829 219.875 107.23 221.689 107.444 222.924C107.551 223.541 107.612 224.015 107.655 224.358L107.656 224.363C107.678 224.533 107.695 224.672 107.713 224.779V224.779Z" fill="#3E2D44" stroke="#977155" stroke-width="0.0026" stroke-miterlimit="22.9256"/>
<path id="eye" d="M97.7142 199.135C96.6703 199.253 95.6488 198.25 95.4318 196.892C95.2153 195.535 95.8852 194.338 96.9286 194.219C97.972 194.1 98.994 195.103 99.211 196.461C99.4275 197.818 98.7576 199.015 97.7142 199.135Z" fill="black" stroke="#373435" stroke-width="0.0681" stroke-miterlimit="22.9256"/>
<path id="anthena" fill-rule="evenodd" clip-rule="evenodd" d="M96.5282 194.314C94.0077 193.647 85.6759 187.236 79.773 185.24C78.5346 184.822 67.0691 178.901 68.5001 182.374C69.1358 183.917 74.4074 184.215 78.7021 185.587C81.0821 186.347 89.9736 190.618 96.1272 194.41C96.1552 194.426 97.8445 194.662 96.5282 194.314Z" fill="#282829"/>
</g>
<g id="frontFront">
<path id="shape5" fill-rule="evenodd" clip-rule="evenodd" d="M101.97 193.99C100.061 188.63 95.4796 187.483 91.2655 179.618C86.3357 170.417 80.4361 161.373 78.0333 151.399C77.5273 149.301 73.2672 143.473 71.7987 136.193C65.3282 104.127 65.2882 125.605 72.0744 91.9471C74.3278 80.7703 95.4835 81.9346 104.482 90.9296C108.488 94.933 110.953 98.174 116.296 100.441C124.003 103.71 143.146 117.146 141.968 126.374C137.558 160.919 141.193 174.498 124.487 185.047C122.552 186.268 110.52 190.372 109.704 195.073C109.517 196.153 105.547 198.817 101.97 193.99V193.99Z" fill="#CDE2F3" stroke="#373435" stroke-width="0.0467" stroke-miterlimit="22.9256"/>
<path id="shape4" fill-rule="evenodd" clip-rule="evenodd" d="M110.08 188.471C110.08 188.473 110.079 188.475 110.079 188.477C110.08 188.478 110.081 188.476 110.08 188.471ZM106.4 161.809C104.491 166.534 110.04 188.054 110.08 188.471C110.265 187.164 112.38 183.762 112.559 183.093C116.408 168.771 123.919 155.074 133.731 143.261C136.969 139.364 139.991 121.542 130.224 122.658C123.707 123.402 117.024 134.148 115.757 137.162C111.852 137.572 107.203 159.823 106.4 161.809V161.809ZM101.69 189.841C102.342 189.709 102.996 189.663 103.885 189.592C110.114 189.091 99.4732 153.41 98.1982 146.56C97.1673 141.022 89.847 136.054 87.4682 138.274C81.427 143.913 82.358 151.327 83.46 158.219C86.0622 174.509 99.3035 185.3 101.69 189.841V189.841ZM103.771 152.478C107.294 152.076 112.545 139.671 113.595 136.316C116.898 125.75 122.219 127.787 120.519 117.148C119.911 113.337 107.749 123.49 107.441 124.009C102.585 132.189 95.9908 143.283 103.532 152.202C103.609 152.371 103.688 152.488 103.771 152.478V152.478ZM78.0333 151.399C77.5273 149.301 73.2672 143.473 71.7987 136.193C65.3282 104.127 65.2882 125.605 72.0744 91.9471C74.3278 80.7703 95.4835 81.9346 104.482 90.9296C108.488 94.933 110.953 98.174 116.296 100.441C124.003 103.71 143.146 117.146 141.968 126.374C137.558 160.919 141.193 174.498 124.487 185.047C122.552 186.268 110.52 190.372 109.704 195.073C109.517 196.153 105.547 198.817 101.97 193.99C101.463 192.567 100.769 191.442 99.9422 190.408C97.6551 187.548 94.3608 185.395 91.2655 179.618C86.3357 170.417 80.4361 161.373 78.0333 151.399V151.399Z" fill="#3E2D44" stroke="#180F12" stroke-width="0.0529" stroke-miterlimit="22.9256"/>
<path id="shape3" fill-rule="evenodd" clip-rule="evenodd" d="M102.117 117.242C95.3491 126.17 101.726 147.028 84.0306 127.273C71.0943 112.83 100.063 111.027 102.117 117.242Z" fill="#ED3237" stroke="#373435" stroke-width="0.0467" stroke-miterlimit="22.9256"/>
</g>
<g id="backBack">
<path id="shape10" fill-rule="evenodd" clip-rule="evenodd" d="M107.516 190.678C112.013 170.268 90.3212 147.267 119.026 130.404C133.575 121.857 126.342 120.24 152.414 122.695C153.701 122.816 164.86 127.416 165.546 128.137C171.658 134.561 172.775 136.03 184.136 146.881C183.93 147.176 186.506 160.292 185.113 163.534C181.892 171.033 186.458 171.302 175.335 176.409C163.512 181.837 106.41 210.142 105.107 192.226C105.06 191.585 109.781 190.182 107.516 190.678V190.678Z" fill="#CDE2F3" stroke="#373435" stroke-width="0.0467" stroke-miterlimit="22.9256"/>
<path id="shape9" fill-rule="evenodd" clip-rule="evenodd" d="M167.654 162.295C188.723 154.305 168.572 147.594 167.052 148.167C164.785 151.297 147.842 157.523 146.878 159.539C145.199 163.047 145.627 167.24 145.614 167.27C144.538 169.516 151.958 166.367 152.803 165.978C159.946 162.699 165.1 163.264 167.654 162.295V162.295ZM166.333 165.943C163.422 163.708 137.658 174.716 133.934 180.471C132.49 182.703 124.355 193.693 121.46 190.619C120.246 193.93 118.052 190.592 120.599 194.875C121.302 196.057 139.227 190.046 140.841 189.304C147.079 186.44 164.1 181.095 167.004 178.485C169.82 175.952 182.499 171.066 177.333 165.511C175.106 163.116 168.701 164.982 166.333 165.943V165.943ZM152.338 153.812C154.724 151.334 170.291 144.51 168.315 141.269C164.819 135.532 162.055 137.011 157.178 136.942C152.154 136.87 144.645 148.638 143.997 152.188C143.926 152.575 143.024 153.165 142.94 153.848C142.198 159.956 150.789 155.421 152.338 153.812V153.812ZM141.157 169.041C143.535 166.534 142.434 157.556 139.924 154.058C138.856 152.571 141.581 142.775 145.328 140.815C152.895 136.854 153.531 123.549 138.25 132.273C137.727 132.571 137.462 133.552 137.287 133.613C131.618 135.585 140.277 149.626 124.084 158.178C119.907 160.384 122.531 168.471 120.901 172.982C118.779 178.86 120.208 179.608 116.652 185.371C115.755 186.824 112.828 189.867 113.689 191.189C114.485 190.897 115.028 192.533 122.344 189.174C131.037 185.183 135.015 175.517 141.157 169.041ZM124.536 155.389C127.577 150.866 132.557 141.038 129.379 136.166C127.05 132.595 113.559 138.083 115.601 143.013C116.45 145.063 120.729 157.277 120.839 157.431C120.948 157.585 124.527 155.402 124.536 155.389V155.389ZM119.501 162.113C119.769 157.891 114.66 144.436 111.147 143.264L110.601 143.424C104.749 141.896 107.858 156.285 107.037 157.825C105.175 161.316 108.142 188.646 111.827 189.053C119.024 189.85 119.315 165.038 119.501 162.113V162.113ZM175.335 176.409C163.512 181.837 106.41 210.142 105.107 192.226C105.06 191.585 109.781 190.182 107.516 190.678C112.013 170.268 90.3212 147.267 119.026 130.404C133.575 121.857 126.342 120.24 152.414 122.695C153.701 122.816 164.86 127.416 165.546 128.137C171.658 134.561 172.775 136.03 184.136 146.881C183.93 147.176 186.506 160.292 185.113 163.534C181.892 171.033 186.458 171.302 175.335 176.409V176.409Z" fill="#3E2D44"/>
<path id="shape47" fill-rule="evenodd" clip-rule="evenodd" d="M174.964 151.268C178.36 153.889 179.247 157.899 167.654 162.295C165.1 163.264 159.946 162.699 152.803 165.978C152.404 166.162 150.543 166.959 148.801 167.514C147.856 167.816 146.945 168.046 146.322 168.069C145.658 168.093 145.321 167.882 145.614 167.27C145.622 167.252 145.466 165.687 145.723 163.674C145.888 162.384 146.222 160.909 146.878 159.539C147.029 159.222 147.575 158.801 148.397 158.305C149.218 157.809 150.314 157.238 151.566 156.619C152.145 156.333 152.758 156.037 153.392 155.734C158.751 153.171 165.662 150.087 167.052 148.167C167.517 147.992 169.721 148.497 171.957 149.511C173.012 149.99 174.074 150.581 174.964 151.268Z" fill="#E3E430" stroke="#373435" stroke-width="0.2" stroke-miterlimit="22.9256"/>
<path id="shape46" fill-rule="evenodd" clip-rule="evenodd" d="M168.315 141.269C169.94 143.935 159.695 149.026 154.681 152.127C153.599 152.796 152.762 153.372 152.338 153.812C152.151 154.006 151.86 154.244 151.495 154.501C150.714 155.05 149.593 155.685 148.417 156.17C145.605 157.331 142.481 157.634 142.94 153.848C143.024 153.165 143.926 152.575 143.997 152.188C144.045 151.927 144.129 151.622 144.247 151.281C144.571 150.343 145.147 149.129 145.898 147.806C146.646 146.486 147.568 145.058 148.587 143.684C150.718 140.811 153.275 138.176 155.562 137.272C156.12 137.052 156.662 136.934 157.178 136.942C158.314 136.958 159.335 136.89 160.277 136.849C161.743 136.785 163.019 136.785 164.239 137.267C165.101 137.607 165.936 138.188 166.79 139.154C167.289 139.718 167.794 140.413 168.315 141.269V141.269Z" fill="#E3E430" stroke="#373435" stroke-width="0.2" stroke-miterlimit="22.9256"/>
<path id="shape45" fill-rule="evenodd" clip-rule="evenodd" d="M130.399 139.971C130.454 143.947 128.316 148.923 126.246 152.601C125.814 153.368 125.385 154.079 124.98 154.712C124.828 154.949 124.68 155.175 124.536 155.389C124.527 155.402 120.948 157.585 120.839 157.431C120.82 157.405 120.683 157.036 120.463 156.43C119.382 153.444 116.306 144.717 115.601 143.013C115.375 142.467 115.339 141.915 115.457 141.368C115.724 140.136 116.776 138.934 118.197 137.915C118.859 137.439 119.602 137.003 120.382 136.622C123.888 134.909 128.161 134.298 129.379 136.166C129.861 136.904 130.155 137.756 130.297 138.687C130.36 139.1 130.393 139.529 130.399 139.971V139.971Z" fill="#E3E430" stroke="#373435" stroke-width="0.2" stroke-miterlimit="22.9256"/>
</g>
</g>
</g>
</g>
</svg>
