<?xml version="1.0" encoding="UTF-8"?>
<!DOCTYPE svg PUBLIC "-//W3C//DTD SVG 1.1//EN" "http://www.w3.org/Graphics/SVG/1.1/DTD/svg11.dtd">
<!-- Creator: CorelDRAW 2019 (64-Bit Evaluation Version) -->
<svg xmlns="http://www.w3.org/2000/svg" xml:space="preserve" width="200mm" height="30mm" version="1.1" style="shape-rendering:geometricPrecision; text-rendering:geometricPrecision; image-rendering:optimizeQuality; fill-rule:evenodd; clip-rule:evenodd"
viewBox="0 0 20000 3000"
 xmlns:xlink="http://www.w3.org/1999/xlink"
 xmlns:xodm="http://www.corel.com/coreldraw/odm/2003">
 <defs>
  <style type="text/css">
   <![CDATA[
    .str0 {stroke:#373435;stroke-width:20;stroke-miterlimit:22.9256}
    .fil0 {fill:#3E2D44}
    .fil1 {fill:yellow;fill-rule:nonzero}
   ]]>
  </style>
 </defs>
 <g id="Layer_x0020_1">
  <metadata id="CorelCorpID_0Corel-Layer"/>
  <path id="printing1" fill="#000" d="M792.75 217.7l18174.32 0 -2097.02 2563.04 -16077.3 0 0 -2563.04z"/>
  <path id="dataText1" class="fil1" d="M1713.92 858.12l504.16 0c113.77,0 200.46,8.6 260.05,26.13 79.99,23.58 148.83,65.65 205.87,126.2 57.36,60.23 100.71,134.17 130.66,221.81 29.64,87.32 44.62,195.35 44.62,323.46 0,112.82 -14.02,209.7 -42.07,291.28 -34.1,99.75 -82.86,180.37 -146.27,241.88 -47.81,46.85 -112.5,83.18 -193.77,109.31 -60.86,19.44 -142.13,29 -244.11,29l-519.14 0 0 -1369.07zm277.26 231.36l0 906.34 205.55 0c76.8,0 132.26,-4.46 166.36,-13.06 44.93,-11.16 81.9,-30.28 111.22,-57.05 29.63,-26.77 53.54,-70.74 72.02,-131.93 18.8,-61.19 28.04,-145 28.04,-250.81 0,-105.8 -9.24,-186.75 -28.04,-243.47 -18.48,-56.73 -44.62,-100.71 -78.08,-132.58 -33.46,-31.54 -75.85,-53.22 -127.47,-64.37 -38.24,-8.6 -113.77,-13.07 -225.95,-13.07l-123.65 0zm1296.73 451.26l-237.1 -42.06c26.77,-96.88 72.97,-168.59 138.3,-215.12 65.34,-46.52 162.53,-69.79 291.28,-69.79 116.96,0 204.28,13.71 261.64,41.43 57.05,27.73 97.52,62.78 120.78,105.49 23.27,42.7 35.06,120.78 35.06,234.87l-3.82 305.93c0,87 4.14,151.38 12.42,192.81 8.29,41.43 23.91,85.72 46.85,132.89l-260.05 0c-6.69,-17.21 -15.29,-42.7 -25.17,-76.48 -4.14,-15.62 -7.33,-25.82 -9.24,-30.6 -44.62,43.98 -92.42,76.8 -143.41,98.79 -50.99,21.99 -105.17,33.15 -162.85,33.15 -101.66,0 -181.97,-27.73 -240.61,-83.18 -58.64,-55.13 -87.95,-125.24 -87.95,-210.01 0,-55.77 13.38,-105.81 40.15,-149.78 26.77,-43.66 64.06,-77.45 112.5,-100.71 48.12,-23.26 117.59,-43.66 208.42,-61.19 122.37,-22.94 207.46,-44.61 254.63,-64.37l0 -26.45c0,-50.99 -12.43,-87.32 -37.29,-109.31 -25.18,-21.67 -72.34,-32.51 -141.5,-32.51 -46.84,0 -83.17,9.25 -109.31,28.05 -26.45,18.48 -47.48,51.31 -63.73,98.15zm351.83 212.25c-33.47,11.15 -86.69,24.54 -159.67,40.15 -72.66,15.62 -120.46,30.91 -142.77,45.57 -34.1,24.54 -51.3,55.14 -51.3,92.42 0,36.97 13.7,68.52 41.11,95.29 27.4,26.77 62.14,40.15 104.52,40.15 47.17,0 92.42,-15.61 135.45,-46.53 31.55,-23.9 52.58,-52.58 62.46,-87 6.69,-22.3 10.2,-65.01 10.2,-127.79l0 -52.26zm969.75 -518.19l0 208.42 -179.74 0 0 401.87c0,81.58 1.6,129.06 5.1,142.45 3.51,13.38 11.16,24.54 23.59,33.46 12.11,8.61 26.76,13.07 44.29,13.07 24.54,0 59.6,-8.29 105.81,-25.18l21.99 203.96c-60.87,26.13 -129.71,39.2 -206.83,39.2 -47.17,0 -89.55,-7.97 -127.48,-23.9 -37.92,-15.94 -65.64,-36.65 -83.17,-61.83 -17.85,-25.49 -29.96,-59.59 -36.97,-102.93 -5.42,-30.6 -8.29,-92.42 -8.29,-185.8l0 -434.37 -120.46 0 0 -208.42 120.46 0 0 -196.94 261.96 -154.88 0 351.82 179.74 0zm378.6 305.94l-237.1 -42.06c26.77,-96.88 72.97,-168.59 138.3,-215.12 65.34,-46.52 162.53,-69.79 291.28,-69.79 116.96,0 204.28,13.71 261.64,41.43 57.05,27.73 97.52,62.78 120.78,105.49 23.27,42.7 35.06,120.78 35.06,234.87l-3.82 305.93c0,87 4.14,151.38 12.42,192.81 8.29,41.43 23.91,85.72 46.85,132.89l-260.05 0c-6.69,-17.21 -15.29,-42.7 -25.17,-76.48 -4.14,-15.62 -7.33,-25.82 -9.24,-30.6 -44.62,43.98 -92.42,76.8 -143.41,98.79 -50.99,21.99 -105.17,33.15 -162.85,33.15 -101.66,0 -181.97,-27.73 -240.61,-83.18 -58.64,-55.13 -87.95,-125.24 -87.95,-210.01 0,-55.77 13.38,-105.81 40.15,-149.78 26.77,-43.66 64.06,-77.45 112.5,-100.71 48.12,-23.26 117.59,-43.66 208.42,-61.19 122.37,-22.94 207.46,-44.61 254.63,-64.37l0 -26.45c0,-50.99 -12.43,-87.32 -37.29,-109.31 -25.18,-21.67 -72.34,-32.51 -141.5,-32.51 -46.84,0 -83.17,9.25 -109.31,28.05 -26.45,18.48 -47.48,51.31 -63.73,98.15zm351.83 212.25c-33.47,11.15 -86.69,24.54 -159.67,40.15 -72.66,15.62 -120.46,30.91 -142.77,45.57 -34.1,24.54 -51.3,55.14 -51.3,92.42 0,36.97 13.7,68.52 41.11,95.29 27.4,26.77 62.14,40.15 104.52,40.15 47.17,0 92.42,-15.61 135.45,-46.53 31.55,-23.9 52.58,-52.58 62.46,-87 6.69,-22.3 10.2,-65.01 10.2,-127.79l0 -52.26zm505.11 474.2l0 -1369.07 261.96 0 0 493.96c80.94,-92.1 176.55,-138.31 287.45,-138.31 120.78,0 220.53,43.66 299.57,131.3 79.03,87.64 118.55,213.52 118.55,377.64 0,169.54 -40.16,300.2 -120.78,391.98 -80.63,91.47 -178.79,137.36 -293.83,137.36 -56.73,0 -112.5,-14.66 -167.63,-43.66 -55.13,-29.32 -102.62,-71.39 -142.45,-126.84l0 145.64 -242.84 0zm258.13 -515.31c0,102.93 16.26,179.42 48.76,228.49 45.57,70.11 105.81,105.17 181.33,105.17 58.01,0 107.4,-24.86 148.51,-74.57 40.79,-49.72 61.19,-128.11 61.19,-234.87 0,-113.77 -20.72,-195.68 -61.83,-246.03 -41.11,-50.35 -93.69,-75.53 -158.06,-75.53 -63.1,0 -115.37,24.54 -157.11,73.62 -41.75,49.08 -62.79,123.65 -62.79,223.72zm1116.36 -171.14l-237.1 -42.06c26.77,-96.88 72.97,-168.59 138.3,-215.12 65.34,-46.52 162.53,-69.79 291.28,-69.79 116.96,0 204.28,13.71 261.64,41.43 57.05,27.73 97.52,62.78 120.78,105.49 23.27,42.7 35.06,120.78 35.06,234.87l-3.82 305.93c0,87 4.14,151.38 12.42,192.81 8.29,41.43 23.91,85.72 46.85,132.89l-260.05 0c-6.69,-17.21 -15.29,-42.7 -25.17,-76.48 -4.14,-15.62 -7.33,-25.82 -9.24,-30.6 -44.62,43.98 -92.42,76.8 -143.41,98.79 -50.99,21.99 -105.17,33.15 -162.85,33.15 -101.66,0 -181.97,-27.73 -240.61,-83.18 -58.64,-55.13 -87.95,-125.24 -87.95,-210.01 0,-55.77 13.38,-105.81 40.15,-149.78 26.77,-43.66 64.06,-77.45 112.5,-100.71 48.12,-23.26 117.59,-43.66 208.42,-61.19 122.37,-22.94 207.46,-44.61 254.63,-64.37l0 -26.45c0,-50.99 -12.43,-87.32 -37.29,-109.31 -25.18,-21.67 -72.34,-32.51 -141.5,-32.51 -46.84,0 -83.17,9.25 -109.31,28.05 -26.45,18.48 -47.48,51.31 -63.73,98.15zm351.83 212.25c-33.47,11.15 -86.69,24.54 -159.67,40.15 -72.66,15.62 -120.46,30.91 -142.77,45.57 -34.1,24.54 -51.3,55.14 -51.3,92.42 0,36.97 13.7,68.52 41.11,95.29 27.4,26.77 62.14,40.15 104.52,40.15 47.17,0 92.42,-15.61 135.45,-46.53 31.55,-23.9 52.58,-52.58 62.46,-87 6.69,-22.3 10.2,-65.01 10.2,-127.79l0 -52.26zm422.89 195.03l263.87 -40.15c11.15,50.67 33.78,89.23 68.2,115.36 34.1,26.45 82.22,39.52 143.73,39.52 67.88,0 118.86,-12.43 153.28,-37.29 22.95,-17.53 34.42,-41.11 34.42,-70.43 0,-19.76 -6.37,-36.33 -18.8,-49.39 -13.07,-12.43 -42.39,-24.22 -87.64,-34.74 -211.93,-46.85 -346.09,-89.55 -402.82,-128.11 -78.71,-53.86 -117.91,-128.43 -117.91,-223.72 0,-86.36 34.1,-158.7 101.98,-217.34 67.88,-58.64 173.04,-87.96 315.5,-87.96 135.76,0 236.78,22.31 302.75,66.61 65.96,44.61 111.54,110.26 136.39,197.26l-246.66 45.89c-10.51,-38.88 -30.91,-68.83 -60.55,-89.55 -29.64,-20.71 -72.02,-30.91 -127.15,-30.91 -69.48,0 -119.19,9.56 -149.47,29 -20.07,13.7 -29.95,31.55 -29.95,53.22 0,18.8 8.6,34.74 26.13,47.8 23.9,17.53 105.8,42.07 246.02,73.94 140.22,31.87 238.06,70.75 293.51,116.96 55.13,46.52 82.54,111.85 82.54,195.35 0,90.83 -37.92,169.22 -114.09,234.55 -75.84,65.33 -188.34,98.16 -337.48,98.16 -135.13,0 -242.21,-27.41 -321.24,-81.9 -78.71,-54.5 -130.34,-128.43 -154.56,-222.13zm1730.77 -34.42l261.96 43.98c-33.46,95.93 -86.68,168.91 -159.02,219.26 -72.66,50.03 -163.49,75.21 -272.16,75.21 -172.41,0 -300.2,-56.41 -382.74,-169.22 -65.33,-90.51 -98.15,-204.6 -98.15,-342.59 0,-164.44 43.02,-293.51 128.75,-386.57 85.72,-93.37 194.39,-139.9 325.69,-139.9 147.23,0 263.55,48.76 348.96,146.28 85.09,97.52 125.88,246.98 122.06,448.39l-655.85 0c1.91,77.76 22.94,138.31 63.41,181.65 40.16,43.34 90.51,65.01 150.42,65.01 41.11,0 75.53,-11.15 103.26,-33.46 28.04,-22.31 49.07,-58.32 63.41,-108.04zm15.3 -265.78c-1.91,-76.17 -21.35,-134.17 -58.64,-173.68 -37.28,-39.84 -82.54,-59.6 -136.07,-59.6 -57.05,0 -104.21,21.04 -141.5,62.78 -37.29,41.75 -55.45,98.8 -54.81,170.5l391.02 0zm1007.68 -789.7l504.16 0c113.77,0 200.46,8.6 260.05,26.13 79.99,23.58 148.83,65.65 205.87,126.2 57.36,60.23 100.71,134.17 130.66,221.81 29.64,87.32 44.62,195.35 44.62,323.46 0,112.82 -14.02,209.7 -42.07,291.28 -34.1,99.75 -82.86,180.37 -146.27,241.88 -47.81,46.85 -112.5,83.18 -193.77,109.31 -60.86,19.44 -142.13,29 -244.11,29l-519.14 0 0 -1369.07zm277.26 231.36l0 906.34 205.55 0c76.8,0 132.26,-4.46 166.36,-13.06 44.93,-11.16 81.9,-30.28 111.22,-57.05 29.63,-26.77 53.54,-70.74 72.02,-131.93 18.8,-61.19 28.04,-145 28.04,-250.81 0,-105.8 -9.24,-186.75 -28.04,-243.47 -18.48,-56.73 -44.62,-100.71 -78.08,-132.58 -33.46,-31.54 -75.85,-53.22 -127.47,-64.37 -38.24,-8.6 -113.77,-13.07 -225.95,-13.07l-123.65 0zm1675.32 824.12l261.96 43.98c-33.46,95.93 -86.68,168.91 -159.02,219.26 -72.66,50.03 -163.49,75.21 -272.16,75.21 -172.41,0 -300.2,-56.41 -382.74,-169.22 -65.33,-90.51 -98.15,-204.6 -98.15,-342.59 0,-164.44 43.02,-293.51 128.75,-386.57 85.72,-93.37 194.39,-139.9 325.69,-139.9 147.23,0 263.55,48.76 348.96,146.28 85.09,97.52 125.88,246.98 122.06,448.39l-655.85 0c1.91,77.76 22.94,138.31 63.41,181.65 40.16,43.34 90.51,65.01 150.42,65.01 41.11,0 75.53,-11.15 103.26,-33.46 28.04,-22.31 49.07,-58.32 63.41,-108.04zm15.3 -265.78c-1.91,-76.17 -21.35,-134.17 -58.64,-173.68 -37.28,-39.84 -82.54,-59.6 -136.07,-59.6 -57.05,0 -104.21,21.04 -141.5,62.78 -37.29,41.75 -55.45,98.8 -54.81,170.5l391.02 0zm380.83 300.2l263.87 -40.15c11.15,50.67 33.78,89.23 68.2,115.36 34.1,26.45 82.22,39.52 143.73,39.52 67.88,0 118.86,-12.43 153.28,-37.29 22.95,-17.53 34.42,-41.11 34.42,-70.43 0,-19.76 -6.37,-36.33 -18.8,-49.39 -13.07,-12.43 -42.39,-24.22 -87.64,-34.74 -211.93,-46.85 -346.09,-89.55 -402.82,-128.11 -78.71,-53.86 -117.91,-128.43 -117.91,-223.72 0,-86.36 34.1,-158.7 101.98,-217.34 67.88,-58.64 173.04,-87.96 315.5,-87.96 135.76,0 236.78,22.31 302.75,66.61 65.96,44.61 111.54,110.26 136.39,197.26l-246.66 45.89c-10.51,-38.88 -30.91,-68.83 -60.55,-89.55 -29.64,-20.71 -72.02,-30.91 -127.15,-30.91 -69.48,0 -119.19,9.56 -149.47,29 -20.07,13.7 -29.95,31.55 -29.95,53.22 0,18.8 8.6,34.74 26.13,47.8 23.9,17.53 105.8,42.07 246.02,73.94 140.22,31.87 238.06,70.75 293.51,116.96 55.13,46.52 82.54,111.85 82.54,195.35 0,90.83 -37.92,169.22 -114.09,234.55 -75.84,65.33 -188.34,98.16 -337.48,98.16 -135.13,0 -242.21,-27.41 -321.24,-81.9 -78.71,-54.5 -130.34,-128.43 -154.56,-222.13zm1157.14 -847.06l0 -242.84 261.96 0 0 242.84 -261.96 0zm0 1126.23l0 -992.39 261.96 0 0 992.39 -261.96 0zm506.39 63.1l300.21 36.33c5.09,35.37 16.57,59.59 34.41,72.98 25.18,18.8 64.38,28.36 117.92,28.36 68.51,0 119.82,-10.2 154.24,-30.91 22.95,-13.7 40.47,-35.69 52.27,-66.29 7.96,-21.67 12.11,-62.14 12.11,-120.46l1.27 -145c-79.03,108.03 -178.46,161.89 -298.29,161.89 -133.21,0 -239.01,-56.41 -316.77,-168.9 -61.19,-88.92 -91.78,-199.82 -91.78,-332.07 0,-166.36 40.15,-293.19 120.14,-380.83 79.99,-87.64 179.74,-131.62 298.93,-131.62 122.69,0 224.03,53.86 303.7,161.57l0 -140.54 244.75 0 0 889.77c0,116.96 -9.56,204.6 -29,262.28 -19.12,58 -46.21,103.26 -81.26,136.4 -34.74,32.82 -81.27,58.96 -139.58,77.44 -58.32,18.8 -131.94,28.04 -220.85,28.04 -168.27,0 -287.46,-29 -357.89,-86.68 -70.43,-58 -105.48,-130.98 -105.48,-219.89 0,-8.61 0.32,-19.44 0.95,-31.87zm235.19 -579.37c0,105.17 20.4,181.97 60.87,230.73 40.79,48.76 91.15,73.3 150.74,73.3 63.74,0 117.91,-25.18 161.89,-75.21 44.3,-50.04 66.29,-123.97 66.29,-222.13 0,-102.61 -21.03,-178.78 -63.42,-228.49 -42.07,-49.72 -95.6,-74.58 -160.3,-74.58 -62.78,0 -114.41,24.54 -155.2,73.3 -40.47,48.76 -60.87,123.01 -60.87,223.08zm1860.17 516.27l-261.96 0 0 -505.75c0,-107.08 -5.74,-176.24 -16.89,-207.47 -11.47,-31.55 -29.64,-55.77 -55.13,-73.29 -25.5,-17.53 -56.09,-26.14 -91.79,-26.14 -45.89,0 -87,12.43 -123.33,37.29 -36.65,24.86 -61.5,58 -74.89,98.79 -13.7,41.11 -20.39,116.96 -20.39,227.86l0 448.71 -261.96 0 0 -992.39 242.84 0 0 145.64c87,-111.22 196.31,-166.67 328.56,-166.67 58,0 111.22,10.52 159.34,31.23 48.44,21.04 84.77,47.49 109.31,79.67 24.86,32.51 42.07,69.16 51.63,110.27 9.88,41.11 14.66,99.75 14.66,176.23l0 616.02z"/>
 </g>
</svg>
