<?xml version="1.0" encoding="UTF-8"?>
<!DOCTYPE svg PUBLIC "-//W3C//DTD SVG 1.1//EN" "http://www.w3.org/Graphics/SVG/1.1/DTD/svg11.dtd">
<!-- Creator: CorelDRAW 2019 (64-Bit Evaluation Version) -->
<svg xmlns="http://www.w3.org/2000/svg" xml:space="preserve" width="297mm" height="210mm" version="1.1" style="shape-rendering:geometricPrecision; text-rendering:geometricPrecision; image-rendering:optimizeQuality; fill-rule:evenodd; clip-rule:evenodd"
viewBox="0 0 29700 21000"
 xmlns:xlink="http://www.w3.org/1999/xlink"
 xmlns:xodm="http://www.corel.com/coreldraw/odm/2003">
 <defs>
  <style type="text/css">
   <![CDATA[
    .str1 {stroke:white;stroke-width:20;stroke-miterlimit:22.9256;stroke-opacity:0.211765}
    .str0 {stroke:black;stroke-width:20;stroke-miterlimit:22.9256}
    .fil0 {fill:none}
    .fil58 {fill:none}
    .fil2 {fill:black}
    .fil48 {fill:#002F86}
    .fil45 {fill:#003087}
    .fil46 {fill:#009CDE}
    .fil47 {fill:#012169}
    .fil30 {fill:#01AAEB}
    .fil32 {fill:#0280B1}
    .fil26 {fill:#029C54}
    .fil40 {fill:#084272}
    .fil19 {fill:#129E5A}
    .fil23 {fill:#137B49}
    .fil16 {fill:#14A05C}
    .fil17 {fill:#159F5D}
    .fil18 {fill:#17A05E}
    .fil13 {fill:#19A15F}
    .fil29 {fill:#19A15F}
    .fil43 {fill:#1A252D}
    .fil20 {fill:#1AA260}
    .fil54 {fill:#217246}
    .fil41 {fill:#27649E}
    .fil39 {fill:#2B669F}
    .fil7 {fill:#2C394B}
    .fil34 {fill:#39B449}
    .fil36 {fill:#39B549}
    .fil35 {fill:#39B54A}
    .fil27 {fill:#3BAC75}
    .fil4 {fill:#3E2D44}
    .fil24 {fill:#43B47D}
    .fil21 {fill:#6AC499}
    .fil1 {fill:gray}
    .fil25 {fill:#82C7A6}
    .fil22 {fill:#85C9A9}
    .fil55 {fill:#87AC96}
    .fil28 {fill:#87CAAA}
    .fil15 {fill:#8CD0B0}
    .fil38 {fill:#9D4D43}
    .fil56 {fill:#A9C3B3}
    .fil42 {fill:#AEBECD}
    .fil33 {fill:#D8E2D1}
    .fil37 {fill:#EC1C24}
    .fil5 {fill:#ED3237}
    .fil14 {fill:#F0F0F0}
    .fil10 {fill:#F4830F}
    .fil44 {fill:#F9FCFD}
    .fil11 {fill:#FDA411}
    .fil9 {fill:#FEA513}
    .fil8 {fill:#FECB2F}
    .fil12 {fill:#FFD34D}
    .fil6 {fill:#FFF212}
    .fil31 {fill:white}
    .fil57 {fill:white}
    .fil49 {fill:#009CDE;fill-rule:nonzero}
    .fil53 {fill:#009CDE;fill-rule:nonzero;fill-opacity:0.109804}
    .fil52 {fill:#009CDE;fill-rule:nonzero;fill-opacity:0.490196}
    .fil51 {fill:#009CDE;fill-rule:nonzero;fill-opacity:0.639216}
    .fil50 {fill:#009CDE;fill-rule:nonzero;fill-opacity:0.850980}
    .fil3 {fill:url(#id0)}
   ]]>
  </style>
  <linearGradient id="id0" gradientUnits="userSpaceOnUse" x1="15694.23" y1="5592.33" x2="15744.25" y2="19614.98">
   <stop offset="0" style="stop-opacity:1; stop-color:#99CCCC"/>
   <stop offset="1" style="stop-opacity:1; stop-color:#FEFEFE"/>
  </linearGradient>
 </defs>
 <g id="Layer_x0020_1">
  <metadata id="CorelCorpID_0Corel-Layer"/>
  <rect class="fil0" x="-226.39" y="372.28" width="30113.61" height="20263.36" rx="938.11" ry="938.11"/>
  <g id="thescreen35">
   <rect class="fil1 str0" x="14465.91" y="14686.38" width="883.63" height="1627.74"/>
   <path class="fil1 str0" d="M10582.58 8780.01l8696.79 0c282.49,0 511.57,229.08 511.57,511.57l0 5348.3c0,282.48 -229.08,511.56 -511.57,511.56l-8696.79 0.01c-282.48,-0.01 -511.56,-229.09 -511.56,-511.58l-0.01 -5348.29c0.01,-282.49 229.09,-511.57 511.58,-511.57z"/>
   <path class="fil2" d="M10826.85 8958.96l8208.26 0c266.62,0 482.84,216.22 482.84,482.84l0 5047.85c0,266.61 -216.22,482.83 -482.84,482.83l-8208.26 0.01c-266.61,-0.01 -482.83,-216.23 -482.83,-482.85l-0.01 -5047.84c0.01,-266.62 216.23,-482.84 482.85,-482.84z"/>
   <path class="fil3" d="M10826.85 8958.96l8208.26 0c266.62,0 482.84,216.22 482.84,482.84l0 5047.85c0,266.61 -216.22,482.83 -482.84,482.83l-8208.26 0.01c-266.61,-0.01 -482.83,-216.23 -482.83,-482.85l-0.01 -5047.84c0.01,-266.62 216.23,-482.84 482.85,-482.84z"/>
   <rect class="fil1 str0" x="10707.53" y="16306.3" width="8557.26" height="511.57"/>
  </g>
  <g id="theLogo12">
   <path class="fil4" d="M13385.27 12918.39l-57.11 49.53 445.05 653.04 62.19 -42.1 -450.13 -660.47z"/>
   <path class="fil4" d="M16610.65 12117.08l37.63 -0.62c78.3,-1.04 181.33,-2.44 181.23,-14.4l-0.67 -78.41c-0.01,-2.03 -15.78,-0.27 -37.76,-4.95 -17.96,-3.83 -38.68,-6.4 -59.57,-7.1 -20.91,-0.7 -42.06,0.42 -60.91,3.94 -29.56,5.5 -52.58,16.37 -54.15,34.61l-5.8 66.93z"/>
   <path class="fil4" d="M16898.91 11873.86l0 0.11c18.86,18.89 30.41,42.19 28.17,69.38l-9.88 120.18c-7.24,87.97 -64.35,134.39 -149.78,159.88 -71.78,21.41 -163.8,27.25 -262.11,31.77l-4.17 48.17c-2.77,32.08 22.75,45.84 55.06,48.64 16.99,1.46 35.57,0.3 53.76,-2.74 18.4,-3.07 75.09,8.41 90.83,2.19 40.8,-15.05 43.27,-31.16 8.82,-65.38 23.35,-19.63 43.83,-24.98 77.96,-33.86 22.19,-5.76 51.12,-13.3 92.74,-28.71l37.27 -13.79 -0.82 39.82c-1.9,90.96 -17.83,153.16 -50.89,195.39 -34.44,43.98 -69.49,82.37 -154.84,82.53l-276.93 2.88c-102.6,-0.22 -228.59,-65.11 -213.13,-169.84l56.55 -383.28c14.77,-100.2 80.4,-145.88 179.82,-146.13l342.12 -0.9c49.07,0.29 77.69,21.92 99.45,43.69z"/>
   <path class="fil4" d="M16117.65 12314.19c3.57,173.23 -86.69,216.17 -136.61,215.64l-162.68 -1.72c-20.36,-3.29 -48.69,-19.45 -68.07,-69.22 -25.12,37.06 -74.72,69.69 -108.36,71.1l-87.56 -0.55c-140.45,0.3 -185.22,-117.45 -181.43,-221.47l48.65 -460.33 249.58 -158.5 -74.97 620.98c0.89,9.49 2.76,15.67 5.32,19.21 0.95,1.34 2.41,1.99 4.07,2.13 4.69,0.35 10.71,-1.26 17.12,-4.12 16.45,-7.27 32.73,-21.1 41.84,-33.66l162.37 -254.56 1.92 89.29c0.75,111.04 49.85,188.89 114.86,170.12l-55.57 -465.34 254.02 -0.77 -24.5 481.77z"/>
   <path class="fil4" d="M17463.21 11830.75l-20.45 767.56c-6.41,149.95 -81.15,226.35 -190.82,240.91l-113.2 7.72c-115.23,13.03 -301.97,-55.36 -304.49,-320.65l262.84 0.04c2.95,156.62 71.02,79.89 65.74,7.61l0.84 -702.67 299.54 -0.52z"/>
   <path class="fil4" d="M17188.96 11463.34l275.17 -13.48 0 268.54 -308.31 15.12 0 -268.55 33.14 -1.63z"/>
   <path class="fil4" d="M17835.77 12232.04l-14.87 3.27c-18.4,3.94 -41.81,8.52 -70.19,13.68 -25.22,4.64 -46.57,9.35 -63.96,14.07 -15.4,4.19 -26.23,8.04 -32.38,11.49 -8.54,5.33 -14.82,11.03 -18.76,17.08 -3.33,5.01 -4.99,10.72 -4.99,17.02 0,14.66 6.78,27.5 20.3,38.76 7.3,6.08 15.75,10.71 25.3,13.83 9.95,3.25 21.32,4.9 34.06,4.9 14.92,0 29.34,-2.04 43.23,-6.1 13.98,-4.09 27.84,-10.31 41.49,-18.62 9.29,-5.99 16.93,-12.48 22.82,-19.43 5.47,-6.47 9.47,-13.38 11.96,-20.76l0.1 -0.32c1.76,-5.01 3.2,-13.09 4.22,-24.15 1.07,-11.33 1.63,-26.24 1.67,-44.72z"/>
   <path class="fil4" d="M17605.8 12100.34l22.55 -140.5c0,0 2.95,-112.19 167.9,-128.59l250.55 -1.56c147.01,12.54 197.17,142.01 197.17,269.11l-14.16 257.75 81.14 159.31 -622.4 5.27c-75.81,1.25 -142.16,-61.06 -125.25,-155.96l18.45 -103.55c23.34,-131.06 306.57,-153.9 418.4,-190.58 -0.79,-33.9 -11.01,-47 -45.15,-53.67l-98.82 -0.79c-36.81,8.05 -38.84,12.23 -47.98,34.71l-202.4 49.05z"/>
   <path class="fil4" d="M18410.99 12009.93c-53.95,-89.6 -49.69,-101.26 -128.21,-176.15l302.61 1.82 19.56 106.17c52.75,-44.49 83.27,-101.04 242.11,-112.37l122.73 -0.91 -101.1 200.51c-194.94,71.2 -216.12,49.65 -211.55,186.01l10.68 319.05 -240.79 0.26 -16.04 -524.39z"/>
   <path class="fil4" d="M14821.75 11116.46l510.63 -1.53 6.85 2.77c112.73,46.1 247,149.96 230.51,349.21l-14.4 173.91c-1.26,123.23 -136.5,196.88 -253.02,197.42l-290.42 -0.37c-67.24,0.32 -116.61,29.04 -116.17,117.74l3.64 730.25 -332.37 -229.3 -3.39 -602.21c-0.42,-75.88 26,-143.45 70.42,-197.69 46.22,-56.45 112,-98.37 187.05,-119.93l458.75 -9.78c38.69,-24.11 35.21,-66.3 -1.44,-88.5l-785.37 3.06 328.73 -325.05z"/>
   <path class="fil4" d="M11839.34 12301.47l91.75 152.32c1237.72,1028.22 643.69,936.59 1873.59,41.87l102.86 -194.19c86.23,96.74 86.23,255.03 0,351.77l-877.33 984.26c-86.22,96.73 -227.32,96.73 -313.54,0l-877.33 -984.26c-86.23,-96.74 -86.23,-255.03 0,-351.77z"/>
   <path class="fil4" d="M12872.21 11446.14c429.19,0 774.34,434.13 774.34,831.83 0,397.68 -777.11,836.59 -777.11,836.59 0,0 -777.11,-438.91 -777.11,-836.59 0,-397.7 350.69,-831.83 779.88,-831.83z"/>
   <path class="fil4" d="M12364.75 11554.3l-382.14 -560.71 -14.13 -3.18 -48.62 -57.55 -255.37 -126.07 -37.46 -405.51 362.56 185.47 13.16 265.18 50.17 81.51 -6.69 20.18 375.39 550.8 -56.87 49.88z"/>
   <path class="fil5" d="M12990.44 11642.22c161.15,88.52 320.52,229.91 391.82,405.48 -0.32,-12.33 -1.17,-24.29 -2.69,-35.74 -44.6,-338.42 -239.62,-449.56 -276.01,-482.86 340.25,186.92 672.76,609.43 184.85,1092.1 -15.97,15.79 -27.5,24.96 -35.44,28.57 -23.2,27.96 -48.96,56.15 -77.68,84.55 -161.53,159.8 125.44,-349.22 91.17,-609.23 -44.61,-338.43 -239.64,-449.57 -276.02,-482.87z"/>
   <path class="fil6" d="M13016.68 12035.97c104.16,57.22 207.19,148.62 253.29,262.12 -0.21,-7.98 -0.77,-15.71 -1.74,-23.1 -28.83,-218.79 -154.91,-290.63 -178.43,-312.15 219.96,120.82 434.91,393.96 119.49,705.99 -10.31,10.21 -17.76,16.13 -22.91,18.47 -14.99,18.07 -31.65,36.29 -50.22,54.66 -104.42,103.3 81.1,-225.77 58.95,-393.85 -28.84,-218.78 -154.92,-290.62 -178.43,-312.14z"/>
   <path class="fil5" d="M12759.54 11721.38c-161.14,88.52 -320.51,229.92 -391.83,405.48 0.33,-12.33 1.19,-24.29 2.69,-35.73 44.62,-338.43 239.64,-449.57 276.02,-482.87 -340.26,186.92 -672.76,609.43 -184.85,1092.1 15.98,15.8 27.5,24.96 35.45,28.57 23.19,27.96 48.96,56.15 77.68,84.55 161.52,159.8 -125.45,-349.22 -91.17,-609.24 44.61,-338.42 239.63,-449.55 276.01,-482.86z"/>
   <path class="fil6" d="M12717.93 12087.97c-104.17,57.21 -207.2,148.62 -253.31,262.12 0.22,-7.98 0.77,-15.71 1.75,-23.1 28.84,-218.79 154.91,-290.63 178.43,-312.15 -219.95,120.82 -434.91,393.96 -119.5,705.99 10.33,10.21 17.78,16.14 22.91,18.47 15,18.07 31.66,36.3 50.22,54.66 104.42,103.3 -81.09,-225.76 -58.93,-393.84 28.84,-218.79 154.9,-290.63 178.43,-312.15z"/>
   <path class="fil4" d="M13680.65 10978.95c113.89,-38.93 169.92,-45.72 192.12,-45.68 -12.27,-4.07 -32.05,-15.39 -50.19,-43.59 -41.16,-64.03 -215.17,-34.94 -130.54,-65.23 297.6,-106.49 -10.41,-54.1 40.6,-101.94 223.99,-210.07 175.84,-99.06 -22.02,-178.14 221.71,-186.63 -48.53,-45.86 -149.71,-153.19 224.94,-402.8 -214.57,-154.39 -101.33,-332.12 103.62,-162.62 -251.42,59.16 -254.46,-22.04 -4.32,-114.59 175.76,-143.23 70.77,-159.18 -172.36,-26.2 -442.06,317.6 -523.86,431.74 -105.51,147.22 -166.73,88.49 -202.41,272.39 -37.69,194.23 -117.64,187.05 -116.73,283.78 0.6,63.66 -32.51,22.32 -24.67,77.22 84.72,49.07 -17.75,47.57 48.51,60.43 67.55,13.11 -78.23,231.96 233.96,84.33l19.18 -15.34c-4,61.78 51.84,189.28 90.27,310.91 24.96,-2.98 50.25,-4.53 75.83,-4.53 215.63,0 410.04,109.6 550.13,269.08 26.49,-35.55 32.11,-79.86 6.88,-132.92 -61.21,-6.95 -196.73,-185.1 -217.69,-220.44 -94.66,-159.54 -290.88,-235.46 -134.56,-197.83 121.5,29.25 576.73,-34.51 607.19,-46.2 283.98,-109.03 -162.46,-18.44 -7.27,-71.51z"/>
  </g>
  <g id="_2749643401552">
   <ellipse class="fil7 str0" transform="matrix(2.64845E-14 -1 1 2.64845E-14 26766.2 17272.9)" rx="2087.31" ry="1876.23"/>
   <g>
    <path class="fil8" d="M27123.68 16472.02l-256.07 258.66c-19.98,33.74 -98.13,103.4 -130.81,136.51 -46.09,46.69 -86.4,87.2 -132.79,133.65 -45.8,45.85 -238.5,229.71 -257.92,266.49 -1.73,26.6 0.99,11.06 -12.19,27.94 -1.68,2.15 -13.76,13.73 -16.59,16.59l-33.79 30.22c-24.57,21.18 -45.6,44.9 -69.1,68.54 -47.65,47.88 -89.69,89.15 -136.76,137.66 -46.56,48 -89.21,90.5 -136.51,138.04 -38.62,38.81 -98.18,107.32 -140.05,136.34l-1.13 -18.27c-16.8,-1.37 -8.23,9.63 -12.98,-4.14l-1.68 27.71 757.44 421.88c292.72,166.33 244.54,155.38 538.61,-5.02l627.48 -349.45c37.47,-21.69 87.88,-52.78 126.35,-67.75 0.25,-73.54 -206.69,-1301.69 -240.13,-1509.47 -7.4,-45.92 -16.13,-170.42 -55.47,-192.64 -77.25,-9.84 -90.5,28.65 -128.34,67.78 -43.7,45.17 -248.61,267.42 -287.57,278.73z"/>
    <path class="fil9" d="M25796.23 17782.88c10.34,1.24 -3.42,10.65 6.99,-8.21l600.94 -1142.53c36.02,-67.54 67.53,-127.81 102.96,-195.64l75.21 -143.26c12.7,-24.79 10.53,-34.39 39.38,-30.69l-1.81 -17.02c-23.95,-13.02 -15.02,-5.61 -31.59,-35.38l-307.01 -572.92c-19.82,-39.66 -59.39,-137.04 -128.47,-80.81 -31.55,25.68 -37.18,136.78 -45.25,188.92l-190.91 1222.28c-21.09,136.67 -42.23,269.34 -63.16,404.91 -12.29,79.69 -64.75,352.66 -57.28,410.35z"/>
    <path class="fil10" d="M25796.23 17782.88l-9.24 17.37c4.75,13.77 -3.82,2.77 12.98,4.14 47.16,-63.38 323.34,-317.78 406.9,-401.35 34.73,-34.73 104.69,-113.34 139.22,-135.71 19.42,-36.78 212.12,-220.64 257.92,-266.49 46.39,-46.45 86.7,-86.96 132.79,-133.65 32.68,-33.11 110.83,-102.77 130.81,-136.51 -9.29,-26.18 -48.81,-89.79 -65.43,-120.27 -22.22,-40.73 -39.42,-75.06 -61.6,-116.14 -26.18,-48.45 -111,-196.7 -118.87,-231.72 -28.85,-3.7 -26.68,5.9 -39.38,30.69l-75.21 143.26c-35.43,67.83 -66.94,128.1 -102.96,195.64l-600.94 1142.53c-10.41,18.86 3.35,9.45 -6.99,8.21z"/>
    <path class="fil11" d="M26619.9 16245.53l1.81 17.02c7.87,35.02 92.69,183.27 118.87,231.72 22.18,41.08 39.38,75.41 61.6,116.14 16.62,30.48 56.14,94.09 65.43,120.27l256.07 -258.66c-15.43,-51.3 -81.98,-165.55 -110.22,-219.07 -39.03,-73.95 -77.17,-147.13 -117.6,-221.04 -19.89,-36.36 -33.7,-86.23 -78.72,-90.51 -56.79,-5.41 -67.46,42.4 -86.09,80.63 -22.05,45.23 -107.27,188.27 -111.15,223.5z"/>
    <path class="fil12" d="M25799.97 17804.39l1.13 18.27c41.87,-29.02 101.43,-97.53 140.05,-136.34 47.3,-47.54 89.95,-90.04 136.51,-138.04 47.07,-48.51 89.11,-89.78 136.76,-137.66 23.5,-23.64 44.53,-47.36 69.1,-68.54l33.79 -30.22c2.83,-2.86 14.91,-14.44 16.59,-16.59 13.18,-16.88 10.46,-1.34 12.19,-27.94 -34.53,22.37 -104.49,100.98 -139.22,135.71 -83.56,83.57 -359.74,337.97 -406.9,401.35z"/>
   </g>
  </g>
  <g id="_2749643461936">
   <ellipse class="fil7" cx="25426.9" cy="14861.26" rx="187.62" ry="257.98"/>
   <ellipse class="fil7" cx="24926.9" cy="14361.26" rx="187.62" ry="257.98"/>
   <ellipse class="fil7" cx="24426.9" cy="13861.26" rx="187.62" ry="257.98"/>
   <ellipse class="fil7" cx="23926.9" cy="13361.26" rx="187.62" ry="257.98"/>
   <ellipse class="fil7" cx="23426.9" cy="12861.26" rx="187.62" ry="257.98"/>
   <ellipse class="fil7" cx="22909.1" cy="12471.09" rx="187.62" ry="257.98"/>
   <ellipse class="fil7" cx="22251.47" cy="12126.32" rx="187.62" ry="257.98"/>
   <ellipse class="fil7" cx="21788.25" cy="11831.75" rx="187.62" ry="257.98"/>
   <ellipse class="fil7" cx="21241.37" cy="11816.56" rx="187.62" ry="257.98"/>
   <ellipse class="fil7" cx="20637.57" cy="11910.84" rx="187.62" ry="257.98"/>
   <ellipse class="fil7" cx="20032.72" cy="12000" rx="187.62" ry="257.98"/>
  </g>
  <g id="_2749643453680">
   <path class="fil13" d="M27763.95 4898.75l1.89 1167.7c0.01,310.97 24.35,256.35 -125.09,255.59 -260.55,-1.32 -521.45,-0.03 -782.04,-0.03 -240.9,0 -540.37,-15.71 -773.67,1.48 -21.26,-37.53 -15.16,-48.88 -14.57,-96.42 3.36,-269.29 -16.24,-1244.87 6.15,-1338.98 56.71,-17.33 1070.88,-5.68 1274.86,-5.71 71.41,-0.01 142.83,0 214.24,0 57.74,0 189.28,-12.27 198.23,16.37zm-2362.12 1884.83l0 -1092.06 0 -2221.07c2.32,-140.18 5.75,-231.82 10.71,-245.88 30.41,-28.88 72.54,-141.45 175.44,-150.97 189.69,-31.5 1657.69,15.08 1842.84,-15.32 -7.59,177.01 -1.46,365.99 -1.46,544.33 0,67.35 -7.82,201.42 7.68,257.12 23.64,84.9 73.69,110.81 121.06,160.35 -34.77,24.65 84.3,63.54 189.85,64.36 55.34,0.43 116.46,0.26 193.42,4.07l462.95 7.61c31.52,-3.03 17.57,12.78 39.82,-25.19 0,825.86 0,1651.72 0,2477.57 0,100.74 4.42,211.43 0.23,310.89 -2.78,65.78 -13.57,80.5 -42.6,118.09 -124.84,161.65 -359.84,106.64 -664.65,106.64 -621.32,0 -1242.63,0 -1863.95,0 -151.6,0 -391.58,34.59 -454.28,-167.03 -7.7,-24.72 -13.2,-71.72 -17.06,-133.51z"/>
   <path class="fil14" d="M27009.66 5890.87l589.8 1.01 -3.31 260.69 -587.57 -1.72 1.08 -259.98zm-760.13 2.77l591.89 -0.84 -4.06 258.12 -588.88 -3.14 1.05 -254.14zm764.55 -421.66l582.25 -0.02 0.01 252.26 -586.68 -1.59 4.42 -250.65zm-181.33 250.97l-575.62 4.56 -15.35 -25.28 2.97 -228.17c53.87,-16.94 546.54,-17.29 596.74,-0.15 7.57,46.96 24.34,224.88 -8.74,249.04zm182.16 -668.26l581.94 0.25 -3.51 248.51 -583.03 -1.49 4.6 -247.27zm-177.38 4.85c18.28,42.43 12.09,184.83 3.75,240.68 -43.01,21.45 -548.2,21.62 -596.49,0 -28.71,-284.6 6.94,-250.96 67.19,-250.76 64.13,0.21 491.46,-10.39 525.55,10.08zm-752.49 1263.95c233.3,-17.19 532.77,-1.48 773.67,-1.48 260.59,0 521.49,-1.29 782.04,0.03 149.44,0.76 125.1,55.38 125.09,-255.59l-1.89 -1167.7 -1673.81 -4.48c-20.88,71.28 -6.67,594.22 -6.67,711.55 0,235.75 -6.92,483.4 1.57,717.67z"/>
   <path class="fil15" d="M27427.21 3047.3l3.61 10.98c-7.59,177.01 -1.46,365.99 -1.46,544.33 0,67.35 -7.82,201.42 7.68,257.12 23.64,84.9 73.69,110.81 121.06,160.35 84.48,16.94 77.97,29.42 189.65,29.04 78.6,-0.26 157.15,-0.38 235.75,-0.38 153.12,0 307.71,-2.12 460.64,0.28 -14.78,-46.41 -80.29,-90.62 -114.57,-128.31 -3.12,-3.43 -14.43,-16.17 -15.18,-16.96l-884.65 -879.6 -2.53 23.15z"/>
   <path class="fil16" d="M26248.48 6147.78l588.88 3.14 4.06 -258.12 -591.89 0.84 -1.05 254.14z"/>
   <path class="fil17" d="M27009.66 5722.63l586.68 1.59 -0.01 -252.26 -582.25 0.02 -4.42 250.65z"/>
   <path class="fil18" d="M27010.31 5301.96l583.03 1.49 3.51 -248.51 -581.94 -0.25 -4.6 247.27z"/>
   <path class="fil18" d="M26257.13 5727.51l575.62 -4.56 2.28 -245.72 -575.54 2.32c-15.16,59.6 -11.01,184.44 -2.36,247.96z"/>
   <path class="fil19" d="M27015.38 6143.44c119.12,-23.72 434.32,-3.8 574.87,-5.81l4.1 -238.68 -579.64 -2.06 0.67 246.55z"/>
   <path class="fil20" d="M26269.53 5284.87l554.94 -1.94 1.51 -212.76 -558.94 -1.41 2.49 216.11z"/>
   <path class="fil21" d="M25412.54 3224.57c30.41,-28.88 72.54,-141.45 175.44,-150.97 6.98,-8.54 -15,-23.68 80.92,-24.36l825.59 0.42c296.41,0 642.37,16.32 932.72,-2.36l2.53 -23.15 -1652.98 0c-141.49,-0.04 -328.89,-2.72 -364.22,200.42z"/>
   <path class="fil22" d="M26085.04 6323.49c-8.49,-234.27 -1.57,-481.92 -1.57,-717.67 0,-117.33 -14.21,-640.27 6.67,-711.55l1673.81 4.48c-8.95,-28.64 -140.49,-16.37 -198.23,-16.37 -71.41,0 -142.83,-0.01 -214.24,0 -203.98,0.03 -1218.15,-11.62 -1274.86,5.71 -22.39,94.11 -2.79,1069.69 -6.15,1338.98 -0.59,47.54 -6.69,58.89 14.57,96.42z"/>
   <path class="fil23" d="M28444.14 4070.93l0 -21.91c-152.93,-2.4 -307.52,-0.28 -460.64,-0.28 -78.6,0 -157.15,0.12 -235.75,0.38 -111.68,0.38 -105.17,-12.1 -189.65,-29.04 -34.77,24.65 84.3,63.54 189.85,64.36 55.34,0.43 116.46,0.26 193.42,4.07l462.95 7.61c31.52,-3.03 17.57,12.78 39.82,-25.19z"/>
   <path class="fil24" d="M25587.98 3073.6c189.69,-31.5 1657.69,15.08 1842.84,-15.32l-3.61 -10.98c-290.35,18.68 -636.31,2.36 -932.72,2.36l-825.59 -0.42c-95.92,0.68 -73.94,15.82 -80.92,24.36z"/>
   <path class="fil25" d="M26837.53 5059.54l-3.58 236.26 -578.77 0.15 -1.21 -236.69 583.56 0.28zm0 0c-34.09,-20.47 -461.42,-9.87 -525.55,-10.08 -60.25,-0.2 -95.9,-33.84 -67.19,250.76 48.29,21.62 553.48,21.45 596.49,0 8.34,-55.85 14.53,-198.25 -3.75,-240.68z"/>
   <path class="fil26" d="M26267.04 5068.76l558.94 1.41 -1.51 212.76 -554.94 1.94 -2.49 -216.11zm570.49 -9.22l-583.56 -0.28 1.21 236.69 578.77 -0.15 3.58 -236.26z"/>
   <path class="fil27" d="M27014.71 5896.89l579.64 2.06 -4.1 238.68c-140.55,2.01 -455.75,-17.91 -574.87,5.81l-0.67 -246.55zm-6.13 253.96l587.57 1.72 3.31 -260.69 -589.8 -1.01 -1.08 259.98z"/>
   <path class="fil28" d="M26257.13 5727.51c-8.65,-63.52 -12.8,-188.36 2.36,-247.96l575.54 -2.32 -2.28 245.72c33.08,-24.16 16.31,-202.08 8.74,-249.04 -50.2,-17.14 -542.87,-16.79 -596.74,0.15l-2.97 228.17 15.35 25.28z"/>
  </g>
  <path class="fil29" d="M18936.3 10226.04l338.97 0 137.28 188.62 0 552.21 -476.25 0 0 -740.83z"/>
  <path class="fil29" d="M19674.43 10096.45l338.97 0 137.28 188.62 0 552.21 -476.25 0 0 -740.83z"/>
  <path class="fil29" d="M20412.55 9596.45l338.97 0 137.28 188.62 0 552.21 -476.25 0 0 -740.83z"/>
  <path class="fil29" d="M21442.23 8868.52l338.97 0 137.28 188.62 0 552.21 -476.25 0 0 -740.83z"/>
  <path class="fil29" d="M23080.55 7405.21l338.97 0 137.28 188.62 0 552.21 -476.25 0 0 -740.83z"/>
  <path class="fil29" d="M22374.38 8148.79l338.97 0 137.28 188.62 0 552.21 -476.25 0 0 -740.83z"/>
  <path class="fil29" d="M23987 6555.09l338.97 0 137.28 188.62 0 552.21 -476.25 0 0 -740.83z"/>
  <path class="fil29" d="M24758.14 5953.34l338.97 0 137.28 188.62 0 552.21 -476.25 0 0 -740.83z"/>
  <g id="_2749643447344">
   <path class="fil30" d="M15005.49 8164.59l143.56 0.05 -0.12 15.95 0 349.79 163.86 0 0 111.15 -307.3 0 0 -476.94zm-313.84 486.35c-134.6,0 -238.36,-104.87 -234.97,-244.85 6.19,-256.08 286.64,-312.18 415.73,-180.79 54.46,55.42 64.43,118.55 64.43,197.2 0,93.29 -64.96,150 -68.65,165.07 22.32,20.03 41.08,38.19 62.94,59.7l60.88 59.25c-25.32,0.32 -168.19,3.25 -180.2,-2.25 -10.2,-4.67 -37.24,-35.68 -46.09,-45.3 -13.33,-14.5 -9.13,-14.66 -28.62,-11.89l-45.45 3.86zm-616.25 -342.86c0,-92.8 84.17,-150.38 178.19,-150.38 93.87,0 107.43,14.65 147.22,16.35l-1.73 122.61c-28.68,-21.2 -140.35,-51.02 -164.49,-14.12 -48.72,74.47 217.62,60.02 190.57,236.84 -10.48,68.55 -61.31,108.87 -127.71,123.41 -57.52,12.6 -172.22,9.23 -215.51,-19.22l0 -127.53c9.9,2.44 38.2,22.92 57.64,30.42 23.82,9.19 105.65,33.75 121.96,-1.17 38.2,-81.77 -186.14,-51.69 -186.14,-217.21zm1218.1 -889.08c6.88,9.54 10.45,14.84 14.23,31.09 1.6,6.91 2.62,14.09 2.09,21.23 -0.96,12.96 0.53,9.08 -5.2,14.82 3.72,40.56 -52.86,70.74 -87.33,83.12 -17.02,10.34 -73.16,24.18 -96.1,30.92 -30.89,9.09 -72.27,14.86 -99.36,24.65 -23.22,2.48 -49.89,9.32 -74.69,13.41 -168.83,27.86 -320.53,29.52 -489.9,5.07 -23.69,-3.42 -50.77,-9.58 -72.89,-11.94l-49.03 -9.81 -48.23 -13.07c-22.57,-1.44 -77.48,-19.14 -98.88,-26.15 -28.75,-11.56 -63.61,-20.84 -80.14,-36.49 -13.19,-3.76 -23.39,-15.56 -31.95,-28.2 -20.41,-30.13 -20.69,-81.86 10.81,-111.82 29.61,-28.16 110.66,-57.2 154.77,-71.24 207.55,-66.09 505.59,-68.9 721.86,-37.72 71.16,10.26 299.81,61.88 329.94,122.13zm-1301.42 -141.39l-79.79 48.56c-14.57,9.94 -24.43,18.02 -36.56,28.67 -11.3,9.91 -24.15,26.4 -30.78,31.35 -5.05,10.58 -10.78,16.14 -16.59,25.83 -3.77,6.3 -8.66,17.14 -13.53,23.22 -9.23,33.64 -17.25,51.75 -19.47,91.43 -2.05,36.83 0.55,71.61 0.55,107.97l0 45.77 0 49.04 0 49.03 0 45.77 0 55.57c6.48,26.43 3.16,178.28 3.33,219.04l-1.61 650.24c-1.27,8.27 0.35,4.53 -3.35,8.73l1.63 4.66 0 42.5 0 52.3 0 49.04 0 49.04c0,69.12 -3.36,114 -0.89,160.17 4.99,35.15 5.45,52.9 17.24,85.71 4.38,7.21 7.75,17.87 12.24,26.52 5.32,10.26 9.29,14.72 13.22,25.07 6.38,4.85 9.3,12.2 14.6,18.71 5.51,6.78 10.07,10.97 15.94,16.87 9.55,9.6 25.06,27.69 35.42,32.8 10.28,2.98 31.13,19.21 42.48,26.33 152.54,95.57 392.2,141.81 568.89,158.54 42.84,4.06 34.34,-45.32 34.34,-59.3 0.03,-171.49 88.08,-342.09 247.53,-409.42 75.17,-31.74 128.4,-40.71 212.75,-44.28 38.62,-1.63 54.48,-15.82 75.02,-49.93 76.73,-127.38 197.89,-218.78 342.51,-259.68 69.82,-19.76 133.67,-13.5 146.83,-51.93 8.96,-26.17 1.94,-852.24 1.94,-852.25 0.01,-38.84 -2.37,-88.46 3.09,-182.65 1.83,-31.59 2.74,-72.25 -6.2,-107.87 -4.66,-18.62 -9.41,-32.09 -16.83,-48.71 -9.13,-20.47 -14.82,-23.72 -21.77,-37.15l-2.07 -5.01c-4.07,-9.34 -6.56,-7.7 -15.28,-16.44 -48.12,-48.27 -60.1,-50.26 -121.94,-87.06 -142.3,-84.65 -406.43,-138.73 -575.88,-146.86 -218.83,-10.5 -446.84,5.51 -652.51,63.45 -90.19,25.4 -115.86,46.67 -174.5,66.61z"/>
   <path class="fil30" d="M15465.05 8793.56c-6.57,7.47 -14.43,7.74 -25.06,11.19 -9.16,2.98 -18.91,6.85 -26.33,9.85 -18.79,7.6 -33.31,15.73 -49.37,23.08 -19.32,12.83 -34.78,20.77 -51.46,32.77 -10.38,7.48 -14.65,10.53 -23.73,18.69 -7.29,6.54 -12.36,12.39 -22.08,17.19 -7.11,11.99 -20.62,21.35 -29.3,32.56 -9.04,11.69 -17.86,20.68 -27.45,34.74 -14.64,21.47 -36.6,53.57 -44.59,79.81 -20.33,38.41 -31.96,75.85 -94.81,75.19 -34.82,-5.55 -42.19,-17.27 -81.82,-16.74 -48.42,0.65 -113.23,19.27 -153.98,42.51 -22.89,13.05 -38.17,25.66 -58.21,39.62 -7.24,11.12 -16.81,19.07 -26.84,28.98 -11,10.87 -15.78,19.94 -25.68,29.86 -18.67,33.46 -29.98,51.12 -43.39,91.55 -2.67,11.57 -5.56,21.26 -7.51,34.04 -0.76,5.01 -0.87,12.76 -1.81,18.2 -2.8,16.2 0.07,6.79 -4.49,11.74l1.63 40.62c8.94,63.15 14.61,92.7 41.84,141.46 18.41,32.97 57.08,79.52 82.86,97.04 15.02,4.56 35.47,27.54 89.79,46.77 46.55,16.48 66.52,14.89 121.37,19.44 45.12,3.75 176.97,1.81 229.7,1.81l817.29 -1.02c71.01,0.19 142.08,3.32 193.48,-56.39 20.06,-23.3 34.62,-57.3 37.07,-97.58 2.98,-49.01 -22.6,-81.88 -24.04,-97.55l-10.37 -11.49c-33.81,-35.11 -38.88,-37.7 -94.81,-55.57l-52.18 0.39c-31.4,-3.25 -40.82,-14.16 -34.1,-47.04 4.71,-23.04 11.41,-51.49 12.95,-67.43 11.36,-117.75 -9.02,-214.77 -70.35,-314.61 -9.01,-14.67 -29.36,-36.66 -33.34,-48.26 -4.78,-9.62 -45.66,-48.63 -57.81,-59.7 -12.07,-10.99 -58.16,-40.7 -64.54,-50.15l-24.15 -11.28c-7.86,-4.25 -14.76,-8.01 -23.83,-12.52 -14.78,-7.35 -33.87,-12.68 -47.4,-20.34 -10.42,-3.44 -16.75,-5.38 -28.2,-8.47 -3.72,-1.01 -13.16,-3.38 -15.57,-4.17 -12.08,-3.93 -4.46,1.41 -11.23,-5.33 -13.12,1.2 -41.86,-4.98 -58.85,-7.01 -17.9,-2.14 -42.35,-1.58 -63.54,-1.35 -50.08,0.52 -101.36,16.22 -115.76,14.9z"/>
   <path class="fil31" d="M14609.92 8396.35c0,-150.86 174.88,-164.47 174.88,6.54 0,59.15 -24.48,124.22 -80.07,124.22l-16.35 0c-56.67,0 -78.46,-70.48 -78.46,-130.76zm81.73 254.59l45.45 -3.86c19.49,-2.77 15.29,-2.61 28.62,11.89 8.85,9.62 35.89,40.63 46.09,45.3 12.01,5.5 154.88,2.57 180.2,2.25l-60.88 -59.25c-21.86,-21.51 -40.62,-39.67 -62.94,-59.7 3.69,-15.07 68.65,-71.78 68.65,-165.07 0,-78.65 -9.97,-141.78 -64.43,-197.2 -129.09,-131.39 -409.54,-75.29 -415.73,180.79 -3.39,139.98 100.37,244.85 234.97,244.85z"/>
   <path class="fil32" d="M13903.68 9321.22c9.74,15.12 23.65,23.36 38.55,36.38 13.07,6.58 32.19,21.16 48.53,30.41 19.11,10.8 36.73,16.85 50.52,27.94 4.83,1.34 93.43,39.31 94.64,40.27l55.92 18.76c26.1,3.45 63.08,18.03 91.19,23.8 38,8.84 239.29,45.7 277.84,41.44 25.92,-2.86 24.11,-28.92 24.16,-55.42 0.01,-3.34 -0.29,-10.11 -0.02,-13.02 1.7,-17.68 -1.13,-6.16 3.66,-11.74l-1.51 -24.11c0.71,-7.26 1.44,-14.83 2.23,-20.47 0.35,-2.52 0.77,-6.21 1.44,-8.54 2.18,-7.61 0.6,-5.07 4.37,-8.99 -1.96,-15.13 4.35,-38.06 8.92,-50.28 3.74,-23.36 24.46,-84.77 40.18,-96.71 2.12,-18.35 42.99,-69.52 54.69,-82.24 11.58,-12.58 22.16,-23.33 35.2,-33.65 12.81,-10.13 25.33,-23.64 40.54,-27.62 10.42,-17.39 72.86,-42.88 96.73,-50.66 22.97,-6.98 47.03,-14.18 72.58,-18.95 24.21,-4.51 51.9,-5.69 74.54,-9.67 73.84,-4.64 67.67,-0.18 110.14,-63.75 34.76,-52.06 39.81,-52.89 76.8,-96.5l44.88 -40.48c44.74,-35.54 111.33,-78.7 166.98,-93.62 14.13,-5.45 26.78,-12.61 43.75,-12.18 6.3,-6.8 -3.58,-0.98 10.88,-6.11 3.76,-1.33 6.71,-1.72 10.44,-2.61 8.39,-2 17.12,-3.89 26.47,-5.25 44.56,-8.89 69.41,-3.76 98.83,-33.44 3.1,-11.34 0.04,-8.12 7.24,-15.46 -3.73,-24.8 -1.34,-216.31 -1.44,-259.13l-1.65 -506.72c0.03,-85.91 1.74,-170.48 1.77,-251.72 0.27,-62.43 6.24,-88.58 -14,-146.47 -11.73,-33.56 -42.8,-82.34 -67.48,-96.8l2.07 5.01c6.95,13.43 12.64,16.68 21.77,37.15 7.42,16.62 12.17,30.09 16.83,48.71 8.94,35.62 8.03,76.28 6.2,107.87 -5.46,94.19 -3.08,143.81 -3.09,182.65 0,0.01 7.02,826.08 -1.94,852.25 -13.16,38.43 -77.01,32.17 -146.83,51.93 -144.62,40.9 -265.78,132.3 -342.51,259.68 -20.54,34.11 -36.4,48.3 -75.02,49.93 -84.35,3.57 -137.58,12.54 -212.75,44.28 -159.45,67.33 -247.5,237.93 -247.53,409.42 0,13.98 8.5,63.36 -34.34,59.3 -176.69,-16.73 -416.35,-62.97 -568.89,-158.54 -11.35,-7.12 -32.2,-23.35 -42.48,-26.33z"/>
   <path class="fil31" d="M14075.4 8308.08c0,165.52 224.34,135.44 186.14,217.21 -16.31,34.92 -98.14,10.36 -121.96,1.17 -19.44,-7.5 -47.74,-27.98 -57.64,-30.42l0 127.53c43.29,28.45 157.99,31.82 215.51,19.22 66.4,-14.54 117.23,-54.86 127.71,-123.41 27.05,-176.82 -239.29,-162.37 -190.57,-236.84 24.14,-36.9 135.81,-7.08 164.49,14.12l1.73 -122.61c-39.79,-1.7 -53.35,-16.35 -147.22,-16.35 -94.02,0 -178.19,57.58 -178.19,150.38z"/>
   <path class="fil31" d="M15005.49 8641.53l307.3 0 0 -111.15 -163.86 0 0 -349.79 0.12 -15.95 -143.56 -0.05 0 476.94z"/>
   <path class="fil32" d="M14793.47 9687.51c24.11,33.68 95.58,75.45 148.67,89.34 66.74,17.46 147.99,11.41 223.54,12.14 156.7,1.49 313.97,-0.34 470.75,-0.34 156.88,0 313.95,1.43 470.76,0.01 62.08,-0.56 133.22,-1.1 175.8,-59.03 15.98,-21.74 32.25,-48.87 33.2,-84.35 1.4,-52.13 -3.36,-60.26 -19.27,-98.99 -13.33,-17.15 -20.46,-33.56 -38.79,-43.3 1.44,15.67 27.02,48.54 24.04,97.55 -2.45,40.28 -17.01,74.28 -37.07,97.58 -51.4,59.71 -122.47,56.58 -193.48,56.39l-817.29 1.02c-52.73,0 -184.58,1.94 -229.7,-1.81 -54.85,-4.55 -74.82,-2.96 -121.37,-19.44 -54.32,-19.23 -74.77,-42.21 -89.79,-46.77z"/>
   <path class="fil30" d="M14609.92 8396.35c0,60.28 21.79,130.76 78.46,130.76l16.35 0c55.59,0 80.07,-65.07 80.07,-124.22 0,-171.01 -174.88,-157.4 -174.88,-6.54z"/>
  </g>
  <g id="_2749643440688">
   <g>
    <path class="fil33" d="M4251.09 3678.81c0.28,123.8 18.01,279.04 -45.82,357.87 -78.94,97.5 -202.42,71.09 -332.63,71.09 -67.29,0 -134.59,-0.15 -201.88,0.01 -257.02,0.59 -233.39,-178.09 -233.39,-373.06l-109.08 -21.98 -17.08 0.45c0,140.18 -8.94,1134.59 6.91,1220.35 11.45,61.91 58.28,113.97 106.81,139.21 63.87,33.21 378.41,19.1 472.94,19.1 82,0 164.03,-0.19 246.02,0.01 69.51,0.17 129.72,-4.88 179.52,-66.51 45.95,-56.89 54.12,-93.21 53.89,-192.13l-0.01 -1230.6c-12.17,4.56 -119.31,68.05 -126.2,76.19z"/>
    <path class="fil34" d="M1860.32 4139.31l264.94 0 0 -687.59 277.57 574.04 195.55 0 277.56 -574.04c0,40.01 6.31,52.66 6.31,94.62l0 592.97 258.64 0 0 -1122.86 -302.8 0c-29.02,0 -70.89,116.88 -90.41,155.61l-164.03 328.01c-19.56,38.92 -59.44,146.51 -86.2,166.12 -7.72,-33.1 -306.29,-610.59 -315.41,-649.74l-321.72 0 0 1122.86z"/>
    <path class="fil35" d="M5588.47 4139.31l902.07 0 0 -233.4 -605.59 0 0 -208.17 529.89 0 0 -239.72 -529.89 0 0 -201.86 586.67 0 0 -239.71 -883.15 0 0 1122.86z"/>
    <path class="fil34" d="M8193.76 3325.55l151.39 391.11 -302.79 0 151.4 -391.11zm-618.2 813.76l302.79 0 56.65 -151.52c6.72,-17.8 10.25,-44.03 31.67,-44.03l454.19 0c20.09,0 21.36,20.38 28.95,40.43l59.36 155.12 315.41 0 -445.21 -1062.45c-34.89,-83.83 5.51,-60.41 -311.77,-60.41 -24.2,0 -60.52,107.9 -70.29,131.57 -19.04,46.14 -39.47,92.51 -60.44,141.43 -28.99,67.65 -358.65,817.79 -361.31,849.86z"/>
    <path class="fil35" d="M6654.56 3306.63c0,90.26 -1.14,176.02 80.38,247.64 65.49,57.54 93.87,62.21 167.47,91.16 78.7,30.96 230.51,61.91 283.49,95.01 86.42,53.98 87.13,171.77 -96.08,171.77 -191.88,0 -371.24,-157.02 -397.42,-164.01 -12.61,23.84 -107.24,208.6 -107.24,220.79 0,18 7.61,15.47 19.42,24.74 8.92,6.99 15.84,11.44 25.92,18.24 365.85,246.6 919.82,181.97 919.82,-207 0,-264.64 -237.04,-305.96 -428.21,-366.62 -87.71,-27.82 -158.45,-49.96 -158.45,-131.72 0,-131.57 281.09,-34.9 357.78,-4.52 23.9,9.46 34.41,14.46 56.48,25.52 18.47,9.26 42.52,25.1 58.85,29.46 21.23,-40.12 106.51,-206.7 107.24,-239.71 -86.55,-23.11 -140.02,-119.85 -479.42,-119.85 -194.46,0 -410.03,120.77 -410.03,309.1z"/>
    <path class="fil36" d="M4957.65 3596.81c-80.27,0 -126.17,11.69 -126.17,-18.93l0 -321.72c115.26,0 365.88,-35.61 365.88,138.78 0,66.26 4.62,131.33 -71.82,174.21 -40.32,22.62 -107.12,27.66 -167.89,27.66zm-422.65 -561.43l0 1103.93 296.48 0 0 -309.1 214.48 0c256,0 435.27,-148.76 435.27,-403.72 0,-297.53 -190.87,-410.04 -473.12,-410.04l-454.19 0c-14.53,0 -18.92,4.39 -18.92,18.93z"/>
    <path class="fil33" d="M3311.21 3679.01c39.52,-6.05 103.67,-33.6 123.7,-56.97 37.67,-249.06 -121.02,-606.45 254.78,-605.6 105.77,0.24 338.43,-12.93 418.77,10.21 49.89,14.36 96.9,56.06 117.74,96.74 32.91,64.22 21.05,106.35 25.79,195.85 16.77,17.96 97.71,54.21 125.3,61.54 0,-80.44 6.66,-726.99 -3.25,-771.1 -9.95,-44.26 -42.24,-68.02 -86.28,-71.11 -120.7,-8.49 -93.4,147.78 -93.4,219.24 -98.03,-8.15 -617.64,-11.85 -673.34,-4.66 -250.94,32.33 -209.81,217.61 -209.81,471.47 0,151.46 0,302.92 0,454.39z"/>
    <path class="fil37" d="M3733.71 3577.88c-17.93,32.76 -121.84,82.14 -171.31,99.8 -32.97,11.78 -68.13,21.04 -105.42,26.77 -43.31,6.67 -89.06,1.51 -128.69,8.29l109.08 21.98c147.14,43.97 464.16,43.27 637.21,0.94 81.85,-20.02 152.18,-51.16 176.51,-56.85 6.89,-8.14 114.03,-71.63 126.2,-76.19l74.14 -70.46c19.88,-19.7 57.29,-59.22 64.65,-86.75 -24.37,-5.68 -47.66,-21.5 -70.28,-30.66 -25.86,-10.47 -46.15,-18.89 -68.51,-33.97 -27.59,-7.33 -108.53,-43.58 -125.3,-61.54 -39.76,-8.69 -168.81,-88.62 -221.65,-100.93 -16.36,70.22 -208.14,313.38 -296.63,359.57z"/>
    <path class="fil38" d="M3434.91 3622.04c-20.03,23.37 -84.18,50.92 -123.7,56.97 -29.66,0.29 -21.59,6.16 -50.47,6.17 -28.5,0.01 -21.13,-5.71 -50.46,-6.37l8.01 4.6c1.72,0.77 13.13,5.29 13.5,5.42l79.42 24.36 17.08 -0.45c39.63,-6.78 85.38,-1.62 128.69,-8.29 37.29,-5.73 72.45,-14.99 105.42,-26.77 49.47,-17.66 153.38,-67.04 171.31,-99.8 -63.79,-15.03 -110.84,-104.11 -132.33,-119.86 -10.49,7.69 -29.02,32.82 -37.79,44.22 -24.9,32.35 -96.72,102.71 -128.68,119.8z"/>
   </g>
   <path class="fil37" d="M4620.31 5052.21c-8.96,16.38 -60.92,41.07 -85.65,49.9 -16.49,5.89 -34.07,10.52 -52.71,13.39 -21.66,3.33 -44.53,0.75 -64.35,4.14l54.54 10.99c73.57,21.98 232.08,21.63 318.6,0.47 40.93,-10.01 76.09,-25.58 88.26,-28.42 3.44,-4.08 57.02,-35.82 63.1,-38.1l37.07 -35.23c9.94,-9.85 28.65,-29.61 32.32,-43.38 -12.18,-2.83 -23.83,-10.75 -35.14,-15.32 -12.93,-5.24 -23.07,-9.45 -34.25,-16.99 -13.79,-3.67 -54.26,-21.79 -62.65,-30.77 -19.88,-4.35 -84.41,-44.31 -110.82,-50.46 -8.18,35.11 -104.07,156.69 -148.32,179.78z"/>
   <path class="fil37" d="M5304.68 5681.86c-8.96,16.38 -60.92,41.07 -85.65,49.9 -16.49,5.89 -34.07,10.52 -52.71,13.39 -21.66,3.33 -44.53,0.75 -64.35,4.14l54.54 10.99c73.57,21.98 232.08,21.63 318.6,0.47 40.93,-10.01 76.09,-25.58 88.26,-28.42 3.44,-4.08 57.02,-35.82 63.1,-38.1l37.07 -35.23c9.94,-9.85 28.65,-29.61 32.32,-43.38 -12.18,-2.83 -23.83,-10.75 -35.14,-15.32 -12.93,-5.24 -23.07,-9.45 -34.25,-16.99 -13.79,-3.67 -54.26,-21.79 -62.65,-30.77 -19.88,-4.35 -84.41,-44.31 -110.82,-50.46 -8.18,35.11 -104.07,156.69 -148.32,179.78z"/>
   <path class="fil37" d="M6039.59 6177.09c-8.96,16.38 -60.92,41.07 -85.65,49.9 -16.49,5.89 -34.07,10.52 -52.71,13.39 -21.66,3.33 -44.53,0.75 -64.35,4.14l54.54 10.99c73.57,21.98 232.08,21.63 318.6,0.47 40.93,-10.01 76.09,-25.58 88.26,-28.42 3.44,-4.08 57.02,-35.82 63.1,-38.1l37.07 -35.23c9.94,-9.85 28.65,-29.61 32.32,-43.38 -12.18,-2.83 -23.83,-10.75 -35.14,-15.32 -12.93,-5.24 -23.07,-9.45 -34.25,-16.99 -13.79,-3.67 -54.26,-21.79 -62.65,-30.77 -19.88,-4.35 -84.41,-44.31 -110.82,-50.46 -8.18,35.11 -104.07,156.69 -148.32,179.78z"/>
   <path class="fil37" d="M6833.16 6661.02c-8.96,16.38 -60.92,41.07 -85.65,49.9 -16.49,5.89 -34.07,10.52 -52.71,13.39 -21.66,3.33 -44.53,0.75 -64.35,4.14l54.54 10.99c73.57,21.98 232.08,21.63 318.6,0.47 40.93,-10.01 76.09,-25.58 88.26,-28.42 3.44,-4.08 57.02,-35.82 63.1,-38.1l37.07 -35.23c9.94,-9.85 28.65,-29.61 32.32,-43.38 -12.18,-2.83 -23.83,-10.75 -35.14,-15.32 -12.93,-5.24 -23.07,-9.45 -34.25,-16.99 -13.79,-3.67 -54.26,-21.79 -62.65,-30.77 -19.88,-4.35 -84.41,-44.31 -110.82,-50.46 -8.18,35.11 -104.07,156.69 -148.32,179.78z"/>
   <path class="fil37" d="M7503.94 7174.09c-8.96,16.38 -60.92,41.07 -85.65,49.9 -16.49,5.89 -34.07,10.52 -52.71,13.39 -21.66,3.33 -44.53,0.75 -64.35,4.14l54.54 10.99c73.57,21.98 232.08,21.63 318.6,0.47 40.93,-10.01 76.09,-25.58 88.26,-28.42 3.44,-4.08 57.02,-35.82 63.1,-38.1l37.07 -35.23c9.94,-9.85 28.65,-29.61 32.32,-43.38 -12.18,-2.83 -23.83,-10.75 -35.14,-15.32 -12.93,-5.24 -23.07,-9.45 -34.25,-16.99 -13.79,-3.67 -54.26,-21.79 -62.65,-30.77 -19.88,-4.35 -84.41,-44.31 -110.82,-50.46 -8.18,35.11 -104.07,156.69 -148.32,179.78z"/>
   <path class="fil37" d="M8368.63 7566.29c-8.96,16.38 -60.92,41.07 -85.65,49.9 -16.49,5.89 -34.07,10.52 -52.71,13.39 -21.66,3.33 -44.53,0.75 -64.35,4.14l54.54 10.99c73.57,21.98 232.08,21.63 318.6,0.47 40.93,-10.01 76.09,-25.58 88.26,-28.42 3.44,-4.08 57.02,-35.82 63.1,-38.1l37.07 -35.23c9.94,-9.85 28.65,-29.61 32.32,-43.38 -12.18,-2.83 -23.83,-10.75 -35.14,-15.32 -12.93,-5.24 -23.07,-9.45 -34.25,-16.99 -13.79,-3.67 -54.26,-21.79 -62.65,-30.77 -19.88,-4.35 -84.41,-44.31 -110.82,-50.46 -8.18,35.11 -104.07,156.69 -148.32,179.78z"/>
   <path class="fil37" d="M9030.59 8015.31c-8.96,16.38 -60.92,41.07 -85.65,49.9 -16.49,5.89 -34.07,10.52 -52.71,13.39 -21.66,3.33 -44.53,0.75 -64.35,4.14l54.54 10.99c73.57,21.98 232.08,21.63 318.6,0.47 40.93,-10.01 76.09,-25.58 88.26,-28.42 3.44,-4.08 57.02,-35.82 63.1,-38.1l37.07 -35.23c9.94,-9.85 28.65,-29.61 32.32,-43.38 -12.18,-2.83 -23.83,-10.75 -35.14,-15.32 -12.93,-5.24 -23.07,-9.45 -34.25,-16.99 -13.79,-3.67 -54.26,-21.79 -62.65,-30.77 -19.88,-4.35 -84.41,-44.31 -110.82,-50.46 -8.18,35.11 -104.07,156.69 -148.32,179.78z"/>
  </g>
  <g id="_2749643431888">
   <path class="fil31" d="M18977.24 14006.95c75.44,-17.01 1391.77,-20.92 1441.75,8.64l-0.09 38.37c-48.66,31.21 -1101.28,12.42 -1321.74,14.62 -81.87,0.81 -127.98,19.09 -119.92,-61.63zm1375.21 -101.73l-1313.16 0c-63.04,0 -65.71,-5.2 -62.53,-62.9 178.55,-16.66 1122.98,-5.83 1375.69,-5.83 30.73,0 48.84,5.02 67.33,14.68 4.11,64.67 1.78,54.05 -67.33,54.05zm5.81 -162.69l-1318.97 0c-63.04,0 -65.71,-5.2 -62.53,-62.88 170.57,-16.57 1129.06,-6.07 1375.69,-6.07 34.2,0 46.35,3.45 67.33,14.9 4.09,64.27 1.67,54.05 -61.52,54.05zm-5.81 -163.69c-437.72,0 -875.44,0 -1313.16,0 -60.89,0 -65.13,-6.33 -62.99,-63.01 195.34,-16.93 1110.62,-5.46 1376.15,-5.46l67.33 15.45c3.47,63.27 -0.26,53.02 -67.33,53.02zm-1371.82 -216.92c58.58,-35.49 609.42,-15.12 721.05,-15.12 122.16,0 656.67,-20.85 719.82,15.13l0.96 39.65c-49.45,30.65 -1092.79,12.2 -1313.61,13.87 -74.45,0.56 -134.75,21.09 -128.22,-53.53zm0 -162.7c59.3,-37.01 396.37,-15.44 488.63,-15.44 96,0 418.77,-19.5 473.71,16.98 2.74,60.41 -10.21,53.12 -77.71,52.7l-674.9 -0.8c-166.06,0.01 -216.47,23.57 -209.73,-53.44zm-5.74 -139.45c15.37,-55.23 52.25,-40.35 110.6,-39.37l651.05 0.47c179.72,-0.02 203.28,-23.58 208.37,52.38 -49.45,32.09 -604.42,15.64 -742.93,15.64 -117.83,0 -193.94,20.03 -227.09,-29.12zm-119.76 -218.47l-3.35 1321.58 1674.98 0 13.11 0 -0.05 -918.48 -447.91 1.31 4.82 -452.83c-307.81,-13.04 -784.91,-1.34 -1127.71,-2.31 -72.94,-0.21 -86.98,-6.49 -113.89,50.73z"/>
   <path class="fil39" d="M19345.18 14770.29l-93.23 14.39c10.09,-151.87 45.63,94.01 45.73,-238.52 0,-7.27 0.95,-38.27 2.46,-43.88 8.82,-32.78 -4.13,-28.51 67.27,-28.51 -0.7,51.7 -0.53,103.26 -0.25,154.95 0.39,74.2 -20.46,116.76 -21.98,141.57zm325.91 -164.94c-14.68,-172.05 192.69,-174.88 210.47,-42.16 22.53,168.1 -198.59,181.29 -210.47,42.16zm353.24 -75.74c-21.71,39.48 -11.58,118.38 -14.21,164.17l-64.91 2.99 -2.24 -222.29c81.59,0 39.39,24.25 84.29,12.06 30.28,-8.21 42.17,-34.73 84.82,-1.73 41.93,32.44 32.24,149.13 27.06,208.45l-63.22 1.88c-9.35,-114.32 23.28,-182.31 -51.59,-165.53zm-527.77 6.02c28.65,30.98 75.93,36.12 112.78,54.35 27.29,144.08 -159.3,146.43 -184.21,35.8 110.59,-6.41 39.12,57.49 125.13,19.62 -23.77,-81.61 -13.11,2.64 -115.39,-71.14 -16.27,-137.58 156.35,-134.73 179.01,-38.63 -58.18,22.32 -109.09,-49.76 -117.32,0zm-166.63 -109.64c-53.87,0.1 -27.78,-11.54 -34.04,-29.81 27.96,-21.26 -56.7,-19.2 67.05,-19.63 7.89,57.92 6.4,49.36 -33.01,49.44zm-615.38 472.3l1962.63 0.13 -0.08 -635.19 -1963.2 -0.64 0.65 635.7z"/>
   <path class="fil40" d="M18713.9 14262.59l1963.2 0.64 0.08 635.19 -1962.63 -0.13 -0.65 -635.7zm-82.08 727.93l139.24 -0.18 76.32 2.25 1696.98 0 76.31 -2.25 139.24 0.18c23.92,-68.37 6.92,-379.75 6.92,-478.13 0,-75.79 5,-169.86 -0.16,-243.4 -6.11,-87.03 -52.39,-104.17 -142.09,-96.11l-81.84 -2.74 -1693.75 0 -81.84 2.74c-90.27,-8.11 -136.67,6.97 -142.62,96 -4.95,74.05 -0.07,167.33 -0.07,243.51 0,96.44 -16.62,412.3 7.36,478.13z"/>
   <path class="fil31" d="M20544.36 14992.59l-1696.98 0c-2.13,102.46 -18.75,137.51 29.21,206.67l1628.47 -4.49c58.04,-64.67 41.42,-99.72 39.3,-202.18z"/>
   <path class="fil41" d="M18767.15 14172.88l81.84 -2.74c-19.66,-79.27 -4.83,-1004.8 -6.79,-1250.06 -0.32,-39.83 -7.17,-56.2 12.93,-78.78 26.91,-57.22 40.95,-50.94 113.89,-50.73 342.8,0.97 819.9,-10.73 1127.71,2.31l-12.75 -73.16c-307.43,-10.62 -708.32,-0.76 -1033.07,-0.99 -119.15,-0.09 -228.83,-16.56 -265.78,86.63 -41.86,116.92 18.8,1191.61 -17.98,1367.52z"/>
   <path class="fil41" d="M18773.69 15085.77c-4.85,229.6 156.2,186.01 358.56,186.01l1115.61 0c204.33,0 375.11,47.28 370.18,-186.01l2.63 -95.43 -76.31 2.25c2.12,102.46 18.74,137.51 -39.3,202.18l-1628.47 4.49c-47.96,-69.16 -31.34,-104.21 -29.21,-206.67l-76.32 -2.25 2.63 95.43z"/>
   <path class="fil40" d="M20096.73 12792.88l-4.82 452.83 447.91 -1.31 9.48 1.99 64.32 -1.32c-33.76,-61.71 -197.93,-208.58 -258.54,-269.28 -53.55,-53.63 -215.61,-233.19 -271.1,-256.07l12.75 73.16z"/>
   <path class="fil39" d="M18980.63 13361.92c-6.53,74.62 53.77,54.09 128.22,53.53 220.82,-1.67 1264.16,16.78 1313.61,-13.87l-0.96 -39.65c-63.15,-35.98 -597.66,-15.13 -719.82,-15.13 -111.63,0 -662.47,-20.37 -721.05,15.12z"/>
   <path class="fil41" d="M20418.9 14053.96l0.09 -38.37c-49.98,-29.56 -1366.31,-25.65 -1441.75,-8.64 -8.06,80.72 38.05,62.44 119.92,61.63 220.46,-2.2 1273.08,16.59 1321.74,-14.62z"/>
   <path class="fil41" d="M18976.76 13679.65c-3.18,57.68 -0.51,62.88 62.53,62.88l1318.97 0c63.19,0 65.61,10.22 61.52,-54.05 -20.98,-11.45 -33.13,-14.9 -67.33,-14.9 -246.63,0 -1205.12,-10.5 -1375.69,6.07z"/>
   <path class="fil41" d="M18976.76 13842.32c-3.18,57.7 -0.51,62.9 62.53,62.9l1313.16 0c69.11,0 71.44,10.62 67.33,-54.05 -18.49,-9.66 -36.6,-14.68 -67.33,-14.68 -252.71,0 -1197.14,-10.83 -1375.69,5.83z"/>
   <path class="fil41" d="M18976.3 13515.83c-2.14,56.68 2.1,63.01 62.99,63.01 437.72,0 875.44,0 1313.16,0 67.07,0 70.8,10.25 67.33,-53.02l-67.33 -15.45c-265.53,0 -1180.81,-11.47 -1376.15,5.46z"/>
   <path class="fil39" d="M18980.63 13199.22c-6.74,77.01 43.67,53.45 209.73,53.44l674.9 0.8c67.5,0.42 80.45,7.71 77.71,-52.7 -54.94,-36.48 -377.71,-16.98 -473.71,-16.98 -92.26,0 -429.33,-21.57 -488.63,15.44z"/>
   <path class="fil41" d="M18974.89 13059.77c33.15,49.15 109.26,29.12 227.09,29.12 138.51,0 693.48,16.45 742.93,-15.64 -5.09,-75.96 -28.65,-52.4 -208.37,-52.38l-651.05 -0.47c-58.35,-0.98 -95.23,-15.86 -110.6,39.37z"/>
   <path class="fil41" d="M20542.74 14170.14l81.84 2.74 -10.96 -927.81 -64.32 1.32c0,168.82 22.07,808.3 -6.56,923.75z"/>
   <path class="fil42" d="M18848.99 14170.14l1693.75 0c28.63,-115.45 6.56,-754.93 6.56,-923.75l-9.48 -1.99 0.05 918.48 -13.11 0 -1674.98 0 3.35 -1321.58c-20.1,22.58 -13.25,38.95 -12.93,78.78 1.96,245.26 -12.87,1170.79 6.79,1250.06z"/>
   <path class="fil31" d="M19756.47 14529.87c75.09,-19.7 75.98,80.75 26.55,116.7 -35.16,-10.99 -41.79,-5.16 -44.75,-53.63 -2.18,-35.67 6.41,-45.5 18.2,-63.07zm-85.38 75.48c11.88,139.13 233,125.94 210.47,-42.16 -17.78,-132.72 -225.15,-129.89 -210.47,42.16z"/>
   <path class="fil31" d="M20024.33 14529.61c74.87,-16.78 42.24,51.21 51.59,165.53l63.22 -1.88c5.18,-59.32 14.87,-176.01 -27.06,-208.45 -42.65,-33 -54.54,-6.48 -84.82,1.73 -44.9,12.19 -2.7,-12.06 -84.29,-12.06l2.24 222.29 64.91 -2.99c2.63,-45.79 -7.5,-124.69 14.21,-164.17z"/>
   <path class="fil31" d="M19496.56 14535.63c8.23,-49.76 59.14,22.32 117.32,0 -22.66,-96.1 -195.28,-98.95 -179.01,38.63 102.28,73.78 91.62,-10.47 115.39,71.14 -86.01,37.87 -14.54,-26.03 -125.13,-19.62 24.91,110.63 211.5,108.28 184.21,-35.8 -36.85,-18.23 -84.13,-23.37 -112.78,-54.35z"/>
   <path class="fil31" d="M19345.18 14770.29c1.52,-24.81 22.37,-67.37 21.98,-141.57 -0.28,-51.69 -0.45,-103.25 0.25,-154.95 -71.4,0 -58.45,-4.27 -67.27,28.51 -1.51,5.61 -2.46,36.61 -2.46,43.88 -0.1,332.53 -35.64,86.65 -45.73,238.52l93.23 -14.39z"/>
   <path class="fil39" d="M19756.47 14529.87c-11.79,17.57 -20.38,27.4 -18.2,63.07 2.96,48.47 9.59,42.64 44.75,53.63 49.43,-35.95 48.54,-136.4 -26.55,-116.7z"/>
   <path class="fil43" d="M18773.69 15085.77l-2.63 -95.43 -139.24 0.18 141.87 95.25z"/>
   <path class="fil43" d="M20618.04 15085.77l141.87 -95.25 -139.24 -0.18 -2.63 95.43z"/>
   <path class="fil44" d="M19295.89 14396.18c6.26,18.27 -19.83,29.91 34.04,29.81 39.41,-0.08 40.9,8.48 33.01,-49.44 -123.75,0.43 -39.09,-1.63 -67.05,19.63z"/>
  </g>
  <g id="_2749643426864">
   <path class="fil45" d="M4540.85 14657.23c7.31,-10.66 13.31,-66.6 15.57,-80.5 15.48,-94.94 85.37,-565.38 95.13,-582.05 -6.96,-12.73 26.66,-194.09 28.58,-206.32 9.29,-58.95 74.84,-494.42 83.68,-518.07 9.7,-25.93 34.77,-48.5 68.43,-52.48 28.87,-3.41 441.99,-1.03 482.49,-1.03 132.9,0 270.03,4.05 390.46,61.44 16.22,7.74 10.17,2.94 12.1,15.9 3.98,-3.99 2.37,-0.22 4,-9.56 13.51,-52.46 12.67,-138.78 3.41,-195.32 -3.18,-19.47 -8.73,-41.89 -14.96,-58.47 -85.65,-228.08 -309.28,-294.13 -570.13,-294.13l-2.99 0 -675.12 0c-23.09,0.41 -37.64,0.96 -40.43,1.67 -72.68,18.46 -72.13,85.24 -80.33,134.32l-167.47 1061.12c-6.74,40.3 -13.96,83.36 -19.51,124.53l-39.4 248.7c-13.89,82.58 -25.35,167.05 -39.14,248.94 -5.29,31.42 -16.5,82.71 32.51,99.45 16.07,5.49 396.69,1.74 433.12,1.86z"/>
   <path class="fil46" d="M5717.29 13294.12c2.6,32.15 -31.83,149.29 -43.51,179.96 -60.35,158.39 -142.7,278.94 -296.63,364.45 -183.22,101.76 -359.24,98.46 -562.34,98.46 -56.61,0 -138.63,-12.29 -163.26,57.69 -9.76,16.67 -79.65,487.11 -95.13,582.05 -2.26,13.9 -8.26,69.84 -15.57,80.5l-28.47 186.42c-0.77,33.53 21.21,53.57 53.76,53.75l322.11 -0.13c44.4,0 60.88,0.08 84.14,-23.18 21.9,-21.91 25.71,-43.99 30.84,-79.32 18.3,-126.03 39.64,-247.46 58.93,-373.18 7.85,-51.1 11.58,-123.39 91.47,-123.18 185.52,0.48 365.23,-18.1 511.7,-135.08 84.85,-67.75 138.45,-150.43 179.58,-252.55 45.38,-112.67 86.36,-316.18 30.26,-455.15 -5.69,-14.08 -9.13,-24.79 -16.52,-37.14 -35.17,-58.83 -73.2,-100.97 -137.36,-133.93 -1.63,9.34 -0.02,5.57 -4,9.56z"/>
   <path class="fil47" d="M4651.55 13994.68c24.63,-69.98 106.65,-57.69 163.26,-57.69 203.1,0 379.12,3.3 562.34,-98.46 153.93,-85.51 236.28,-206.06 296.63,-364.45 11.68,-30.67 46.11,-147.81 43.51,-179.96 -1.93,-12.96 4.12,-8.16 -12.1,-15.9 -120.43,-57.39 -257.56,-61.44 -390.46,-61.44 -40.5,0 -453.62,-2.38 -482.49,1.03 -33.66,3.98 -58.73,26.55 -68.43,52.48 -8.84,23.65 -74.39,459.12 -83.68,518.07 -1.92,12.23 -35.54,193.59 -28.58,206.32z"/>
   <path class="fil46" d="M5393.81 15470.62l-76.26 0 24.19 -156.58c5.06,-32.12 7.64,-32.66 40.77,-32.66 67.77,0 127.1,5.22 127.1,73.44 0,32.45 -12.61,70 -29.15,86.65 -20.29,20.42 -56.09,29.15 -86.65,29.15zm-316.33 367.16c0,11.06 10.51,19.77 22.59,19.77 175.34,0 152.87,14.06 165.43,-60.51l25 -155.77c19.2,-56.55 167.76,14.71 293.72,-67.8 59.4,-38.9 90.89,-92.71 109.58,-164.38 17.77,-68.17 22.18,-160.36 -32.31,-214.63 -11.72,-11.66 -38.57,-29.39 -54.58,-35.8 -47.75,-19.07 -94.32,-24.14 -159.44,-24.14l-217.48 0c-44.54,0 -46.31,26.14 -50.84,53.66 -5.05,30.77 -10.18,60.99 -14.59,92.73 -8.41,60.65 -19.83,122.9 -29.4,185.25l-57.68 371.62z"/>
   <path class="fil48" d="M3467.6 15470.62l25.23 -152.71c4.99,-38.85 12.4,-36.53 42.55,-36.53 30.14,0 60.13,1.73 83.78,9.43 42.06,13.68 40.49,43.98 40.49,75.3 0,44.62 -23,79.78 -53.96,92.91 -37.6,15.95 -85.87,11.6 -138.09,11.6zm-237.25 364.33c0,14.76 9.7,22.6 16.95,22.6l132.74 0c37.49,0 36.49,-58.23 40.75,-83.52 6.4,-38 11.16,-71.69 17.34,-109.75 8.3,-51.08 21.12,-46.8 77.48,-46.8 45.05,0 82.53,1.47 120.76,-6.33 107.02,-21.85 168.59,-78.26 200.87,-174.78 19.79,-59.17 34.1,-155.18 -1.87,-212.09 -48.67,-76.98 -135.24,-89.76 -235.03,-89.76l-217.47 0c-42.78,0 -47.45,22.98 -51.67,52.84l-94.79 600c-2.81,16.82 -6.06,28.8 -6.06,47.59z"/>
   <path class="fil46" d="M5938.91 15736.1c-53.44,0 -101.68,-32.86 -101.68,-87.55 0,-63.98 22.3,-108.41 76.22,-135.61 62.28,-31.41 166.68,-17.41 166.68,87.59 0,75.01 -62.37,135.57 -141.22,135.57zm-273.96 -81.9c0,113.38 67.34,214.65 189.23,214.65 53.71,0 70.45,0.4 122.28,-21.76 35.23,-15.05 43.99,-29.72 64.12,-43.2 0,63.48 -28.71,53.66 135.57,53.66 36.51,0 38.24,-64.1 42.52,-95.87 6.84,-50.75 56.34,-337.86 56.34,-367.32 0,-10.28 -13.77,-19.77 -25.42,-19.77l-112.98 0c-29.58,0 -33.89,21.85 -33.89,50.84 -14.29,-9.58 -31.24,-62.14 -155.34,-62.14 -155.24,0 -282.43,138.25 -282.43,290.91z"/>
   <path class="fil48" d="M4091.78 15736.1c-45.28,0 -76.89,-16.88 -94.22,-52.65 -15.72,-32.44 -10.71,-66.12 0.6,-97.45 6.11,-16.92 15.88,-31.13 26.63,-43.98 40.44,-48.34 137.93,-61.26 182.19,-14.31 59.56,63.16 11.91,208.39 -115.2,208.39zm-273.96 -96.03c0,64.79 6.77,124.45 52.91,170.22 18.64,18.48 27.86,27.51 53.41,39.8 72.55,34.84 172.98,20.76 237.16,-21.86 13.01,-8.64 19.51,-15.88 32.16,-24.34 -5.11,61.38 -28.07,53.66 129.91,53.66 25.29,0 33.9,-15.56 37.99,-38.27 18.88,-105.11 34.65,-225.52 52.81,-334.13 21.97,-131.38 33.94,-110.56 -130.34,-110.56 -28.8,0 -25.68,27.75 -31.06,50.84 -16.74,-19.27 -20.92,-33.67 -60.33,-47.01 -49.12,-16.63 -99.62,-20.04 -152.63,-7.79 -88.48,20.44 -152.74,77.17 -192.84,157.39 -12.74,25.48 -29.15,75.46 -29.15,112.05z"/>
   <path class="fil48" d="M4487.19 15397.18c0,18.62 115.98,346.44 128.86,385.17 8.68,26.12 11.92,22.95 0.38,37.67 -28.59,36.46 -76.6,109.04 -107.84,152.13 -8.04,11.09 -19.51,22.31 -16.34,35.74 1.71,7.22 6.51,16.3 14.71,16.3l138.39 0c18.88,0 35.21,-29.54 49.17,-49.68l26.56 -38.41c5.02,-7.39 8.2,-12.74 13.5,-20.39l82.26 -118.26c10.23,-13.61 17.61,-25.88 27.85,-39.94l190.43 -275.59c7.45,-10.48 53.65,-74.23 53.65,-81.91 0,-17.34 -13.44,-25.42 -31.06,-25.42l-107.33 0c-35.65,0 -41.1,17.88 -64.96,53.66 -16.4,24.61 -32.25,46.96 -49.14,72.31 -16.64,24.95 -31.49,45.8 -48.02,70.61 -8.59,12.88 -15.34,22.97 -23.72,35.58l-25.98 36.16c-3.06,-13.14 -6.36,-22.04 -10.11,-35.09 -9.36,-32.59 -58.18,-206.2 -68.82,-219.27 -6.85,-8.43 -19.28,-13.96 -34.05,-13.96l-112.97 0c-13.66,0 -25.42,8.02 -25.42,22.59z"/>
   <path class="fil46" d="M6291.95 15837.78c0,8 8.97,19.77 16.95,19.77l115.8 0c35.96,0 35.46,-46.62 39.54,-70.61 32.28,-189.74 59.13,-387.93 91.18,-578.18 14.48,-85.99 17.72,-74.24 -125.07,-74.24 -16.46,0 -27.76,5.28 -32.07,18.77l-21.61 136.56c-27.7,164.71 -50.75,334.46 -78.68,500.31 -2.52,14.99 -6.04,31.61 -6.04,47.62z"/>
  </g>
  <path class="fil49" d="M9633.2 14221.7c-73.83,-9.7 -144.63,-40.38 -200.71,-94.45 -49.83,-48.03 -87.79,-114.04 -105.59,-199.57 -21.21,-101.93 0.67,-202.87 53.18,-283.63 52.52,-80.81 135.68,-141.34 237.02,-162.43l14.37 69.08c-82.33,17.14 -149.87,66.25 -192.45,131.76 -42.62,65.56 -60.34,147.7 -43.04,230.84 14.74,70.8 45.38,124.7 85.36,163.24 44.71,43.09 101.53,67.6 161,75.42l-9.14 69.74z"/>
  <path class="fil50" d="M9337.38 14455.67c-116.33,-15.29 -227.9,-63.63 -316.27,-148.83 -78.52,-75.69 -138.33,-179.71 -166.37,-314.48 -33.42,-160.62 1.05,-319.68 83.79,-446.94 82.75,-127.33 213.8,-222.71 373.48,-255.94l22.66 108.85c-129.75,27 -236.16,104.38 -303.26,207.63 -67.16,103.3 -95.08,232.74 -67.82,363.74 23.22,111.56 71.5,196.5 134.5,257.22 70.45,67.91 159.99,106.53 253.7,118.85l-14.41 109.9z"/>
  <path class="fil51" d="M9031.6 14690.33c-158.84,-20.87 -311.18,-86.88 -431.84,-203.21 -107.21,-103.35 -188.87,-245.38 -227.16,-429.39 -45.64,-219.3 1.43,-436.48 114.4,-610.24 113,-173.85 291.92,-304.09 509.96,-349.46l30.92 148.63c-177.15,36.86 -322.44,142.52 -414.06,283.49 -91.7,141.04 -129.82,317.77 -92.6,496.65 31.7,152.31 97.63,268.3 183.65,351.2 96.19,92.73 218.45,145.45 346.4,162.28l-19.67 150.05z"/>
  <path class="fil52" d="M8636.02 14931.25c-201.34,-26.47 -394.44,-110.14 -547.39,-257.6 -135.91,-131.01 -239.42,-311.04 -287.96,-544.3 -57.84,-277.98 1.81,-553.28 145.02,-773.54 143.24,-220.38 370.04,-385.47 646.42,-442.98l39.21 188.4c-224.56,46.73 -408.74,180.66 -524.88,359.35 -116.23,178.8 -164.55,402.82 -117.37,629.57 40.18,193.07 123.76,340.09 232.79,445.18 121.93,117.54 276.91,184.38 439.1,205.7l-24.94 190.22z"/>
  <path class="fil53" d="M8273.84 15383.21c-286.35,-37.64 -560.99,-156.64 -778.52,-366.36 -193.28,-186.32 -340.5,-442.37 -409.54,-774.12 -82.26,-395.35 2.58,-786.89 206.25,-1100.15 203.72,-313.42 526.29,-548.21 919.36,-630.01l55.76 267.95c-319.37,66.46 -581.31,256.94 -746.49,511.08 -165.31,254.28 -234.03,572.89 -166.93,895.38 57.14,274.59 176.01,483.69 331.08,633.15 173.41,167.16 393.82,262.22 624.5,292.55l-35.47 270.53z"/>
  <g id="_2749643424016">
   <g>
    <path class="fil54" d="M11286.62 15853.76l-247.25 -16.76c-18.39,-65.61 -132.85,-343.95 -165.17,-403.39l-158.08 380.47 -207.09 -8.75c5.25,-52.19 235.52,-457.15 243.52,-499.56 8,-42.42 -197.14,-432.36 -226.44,-516.3l211.68 -12.6c25.99,36.89 59.91,137.36 78.9,188.13l81.09 196.66c15.89,-98.98 116.57,-315.84 159.4,-405.11l219.46 -13.73c-32.25,105.53 -260.33,497.63 -258.26,558 2.03,58.96 227.73,444.63 268.24,552.94zm1434.08 -1500.58c26.43,17.53 11.89,405.15 11.89,459.81l-2.96 1431.18c-59.72,18.89 -696.39,7.85 -858.4,8.26 -20.18,0.05 -41.72,0.92 -61.61,0.66 -8.4,-0.12 -28.32,-0.17 -35.82,-1.35 -37.94,-5.97 -20.52,-6.22 -27.37,-9.5l3.74 -192.96 195.64 0.46 -2.59 -196.03 -195.38 0.05 0.76 -131.63 190.42 0 6.75 -195.57 -192.63 0.02 -5.32 -130.32 196.53 -0.01 1.07 -196.58 -195.5 0.22 -1.46 -129.51 197.35 0.37 -1.21 -197.22 -196 0.2 1.09 -129.91 196.3 0.22 -2.18 -196.64 -195.97 0.01 1.04 -195.09 971.82 0.86zm-2604.37 -107.8l0 2171.11 1599.43 285.46 31.89 0 1.38 -325.81c95.56,0.01 969.63,14.59 1037.42,-13.64 54.17,-22.56 41.6,-36.94 71.91,-84.88l0 -1955.41c-58.11,-102.29 -66.94,-102.05 -207.13,-101.17l-901.1 0.25 -2.48 -261.37 -31.89 0 -1599.43 285.46z"/>
    <path class="fil54" d="M12074.05 15071.55l53.1 -1 353.42 0.16 52.65 0.7 -0.74 -199.18 -458.22 1.2 -0.21 198.12z"/>
    <path class="fil54" d="M12075.09 15397.21l455.27 -0.89 2.76 -197.35 -459.52 0.72 1.49 197.52z"/>
    <path class="fil54" d="M12073.52 14744.68l459.7 -0.61 -1.83 -197.5 -453.41 0.78 -4.46 197.33z"/>
    <path class="fil54" d="M12076.31 15722.51l450.19 -0.3 7.13 -196.85 -459.59 1.17 2.27 195.98z"/>
    <path class="fil54" d="M12532.42 16047.36l3.58 -193.54 -456.74 2.24 0.29 190.58 452.87 0.72z"/>
   </g>
   <path class="fil55" d="M11746.43 16242.24c6.85,3.28 -10.57,3.53 27.37,9.5 7.5,1.18 27.42,1.23 35.82,1.35 19.89,0.26 41.43,-0.61 61.61,-0.66 162.01,-0.41 798.68,10.63 858.4,-8.26l2.96 -1431.18c0,-54.66 14.54,-442.28 -11.89,-459.81l1.44 1889.1 -975.71 -0.04z"/>
   <path class="fil56" d="M12532.42 16047.36l-452.87 -0.72 -0.29 -190.58 456.74 -2.24 -457.6 -4.44 -6.55 197.81c59.71,19.05 414.04,17.51 460.57,0.17z"/>
   <path class="fil57" d="M12532.42 16047.37c-46.53,17.33 -400.86,18.88 -460.57,-0.18l6.55 -197.81 457.6 4.45 -3.58 193.54zm189.73 194.91l-1.45 -1889.1 -971.82 -0.86 -1.05 195.09 195.98 -0.01 2.18 196.64 -196.3 -0.22 -1.1 129.91 196.01 -0.2 1.21 197.22 -197.35 -0.37 1.46 129.51 195.5 -0.22 -1.07 196.58 -196.53 0.01 5.32 130.32 192.63 -0.02 -6.75 195.57 -190.43 0 -0.76 131.62 195.39 -0.04 2.59 196.03 -195.64 -0.47 -3.74 192.97 975.72 0.04zm-195.65 -520.07l-450.19 0.3 -2.27 -195.98 459.6 -1.16 -7.14 196.84zm3.85 -325.89l-455.26 0.89 -1.48 -197.53 459.5 -0.71 -2.76 197.35zm-49.78 -325.61l-353.42 -0.16 -53.1 1 0.22 -198.12 458.22 -1.2 0.73 199.18 -52.65 -0.7zm52.65 -326.64l-459.7 0.6 4.46 -197.32 453.41 -0.78 1.83 197.5z"/>
   <path class="fil57" d="M10716.12 15814.08l158.08 -380.47c32.32,59.44 146.78,337.78 165.17,403.4l247.25 16.74c-40.51,-108.31 -266.21,-493.97 -268.24,-552.93 -2.07,-60.37 226.01,-452.47 258.26,-558l-219.46 13.73c-42.83,89.27 -143.51,306.13 -159.4,405.11l-81.09 -196.66c-18.99,-50.77 -52.9,-151.25 -78.9,-188.13l-211.69 12.6c29.31,83.94 234.46,473.87 226.45,516.3 -8,42.41 -238.26,447.37 -243.51,499.56l207.08 8.75z"/>
  </g>
  <path class="fil58 str1" d="M805.18 2217.74l0 2794 7069.67 4826 0 7747 16467.67 0"/>
 </g>
</svg>
