<svg width="100" height="100" viewBox="0 0 100 100" fill="none" xmlns="http://www.w3.org/2000/svg">
<g id="discount 1">
<g id="Layer x0020 1">
<path id="dsback" fill-rule="evenodd" clip-rule="evenodd" d="M20.914 48.5141C22.0488 48.521 22.9633 49.4194 22.9566 50.5208C22.9498 51.6221 22.0245 52.5094 20.8897 52.5025C19.755 52.4956 18.8405 51.5971 18.8472 50.4957C18.8539 49.3943 19.7793 48.5072 20.914 48.5141ZM94.8788 32.0315L40.5531 31.7004C39.2493 31.6925 39.2444 33.3207 38.1682 34.0565L16.5446 48.8402L16.5241 52.1986L37.9503 69.8128C38.9572 70.6406 39.0028 72.1898 40.3063 72.1978L94.632 72.5289C95.9357 72.5368 97.0089 71.4765 97.0169 70.1728L97.2348 34.4165C97.2427 33.1127 96.1825 32.0395 94.8788 32.0315Z" fill="#CCFF66" stroke="#FFFF00" stroke-width="0.2" stroke-miterlimit="22.9256"/>
<path id="Vector" d="M14.2069 50.4092C12.0281 49.8737 9.5121 44.8424 13.9975 46.4257C15.1118 51.9803 13.5941 50.7266 13.5753 53.8136M0.549849 51.2063C6.53804 51.2428 14.6497 50.1067 20.9044 50.1448L0.549849 51.2063Z" stroke="white" stroke-width="1.4111" stroke-miterlimit="22.9256"/>
<path id="Vector_2" d="M53.8675 42.4747C53.0729 42.4698 52.4376 42.3151 51.9614 42.0105C51.4854 41.7059 51.2492 41.2429 51.253 40.6216C51.255 40.293 51.3132 40.0425 51.4279 39.8699C51.5424 39.6974 51.7103 39.6117 51.9313 39.613C52.0926 39.614 52.2237 39.6567 52.3248 39.7409C52.4259 39.8251 52.476 39.9331 52.4752 40.0645C52.4745 40.1839 52.4649 40.2884 52.4464 40.378C52.4463 40.4019 52.4415 40.4437 52.4321 40.5033C52.4229 40.563 52.418 40.6257 52.4176 40.6914C52.416 40.9603 52.5506 41.1612 52.8216 41.2943C53.0927 41.4274 53.4731 41.4955 53.963 41.4984C54.4708 41.5015 54.8686 41.4129 55.1566 41.2324C55.4445 41.0519 55.5894 40.7973 55.5914 40.4688C55.5927 40.2657 55.5279 40.0906 55.3974 39.9434C55.2669 39.7962 55.1034 39.6728 54.9068 39.573C54.7103 39.4732 54.4332 39.3505 54.0756 39.2049C53.6167 39.0229 53.2428 38.8503 52.954 38.6872C52.6653 38.5242 52.4187 38.3032 52.2142 38.0241C52.0098 37.7451 51.909 37.3994 51.9115 36.9872C51.9141 36.5571 52.0314 36.1754 52.2635 35.8422C52.4955 35.5091 52.8287 35.2512 53.2629 35.0687C53.6971 34.8861 54.2071 34.7966 54.7924 34.8002C55.2286 34.8028 55.6284 34.8695 55.9921 35.0002C56.3558 35.1308 56.6459 35.3283 56.8623 35.5924C57.0787 35.8566 57.1858 36.1799 57.1835 36.5623C57.1812 36.9387 57.1227 37.222 57.0081 37.4125C56.8933 37.603 56.7255 37.6976 56.5044 37.6963C56.3491 37.6953 56.2194 37.6467 56.1155 37.5505C56.0115 37.4543 55.96 37.3404 55.9608 37.209C55.9615 37.0955 55.971 36.991 55.9895 36.8955C56.0086 36.7164 56.0182 36.603 56.0185 36.5552C56.02 36.3043 55.8988 36.1123 55.6546 35.9794C55.4105 35.8465 55.1062 35.7789 54.7417 35.7767C54.2279 35.7736 53.8345 35.8653 53.5616 36.0518C53.2887 36.2383 53.151 36.5018 53.149 36.8424C53.1476 37.0694 53.2166 37.264 53.356 37.4262C53.4954 37.5883 53.6694 37.7238 53.8778 37.8326C54.0863 37.9414 54.3782 38.0716 54.7537 38.2233C55.2066 38.4113 55.57 38.5808 55.8439 38.7318C56.1178 38.8828 56.351 39.0874 56.5437 39.3454C56.7363 39.6035 56.8314 39.9207 56.8291 40.2971C56.8248 41.0021 56.5542 41.5426 56.0172 41.9187C55.4802 42.2948 54.7636 42.4801 53.8675 42.4747V42.4747ZM62.3754 40.4564C62.4531 40.4569 62.5141 40.493 62.5585 40.565C62.6028 40.637 62.6246 40.7357 62.6239 40.8612C62.6224 41.1001 62.5646 41.285 62.4502 41.4158C62.1914 41.7308 61.9135 41.989 61.6165 42.1903C61.3196 42.3916 60.9829 42.4911 60.6065 42.4888C60.2899 42.4869 60.0337 42.3719 59.8379 42.1437C59.496 42.3626 59.1399 42.4739 58.7694 42.4777C58.6848 43.6303 58.5026 44.5925 58.2231 45.3645C57.9436 46.1365 57.538 46.5208 57.0063 46.5176C56.6837 46.5156 56.4454 46.3977 56.2915 46.1637C56.1375 45.9298 56.0619 45.6067 56.0644 45.1945C56.068 44.609 56.2065 43.9273 56.4801 43.1493C56.7537 42.3713 57.1742 41.515 57.7415 40.5805C57.7468 39.7083 57.7445 39.1018 57.7347 38.7612C57.7297 38.5879 57.7993 38.451 57.9433 38.3502C58.0873 38.2496 58.2668 38.1999 58.4819 38.2012C58.6073 38.202 58.6982 38.2279 58.7547 38.279C58.8112 38.3301 58.8419 38.4304 58.847 38.5799C58.8461 38.7292 58.8484 38.8397 58.854 38.9114C59.0465 38.6737 59.2358 38.503 59.4216 38.3996C59.6074 38.2962 59.8049 38.2451 60.014 38.2464C60.3486 38.2484 60.6211 38.3845 60.8316 38.6546C61.042 38.9247 61.1459 39.2779 61.1432 39.714C61.1413 40.0307 61.0886 40.338 60.9853 40.6361C60.8819 40.9342 60.7398 41.2051 60.5591 41.449C60.6843 41.4856 60.7888 41.5041 60.8724 41.5047C61.0696 41.5059 61.2582 41.4354 61.4383 41.2931C61.6184 41.1508 61.8498 40.9132 62.1327 40.5803C62.2049 40.4972 62.2858 40.4558 62.3754 40.4564V40.4564ZM58.8195 41.6176C59.0349 41.5712 59.2343 41.4544 59.4176 41.2673C59.601 41.0802 59.7473 40.8481 59.8565 40.5709C59.9657 40.2938 60.0212 40.0029 60.0231 39.6982C60.0242 39.519 59.9892 39.3828 59.9181 39.2898C59.8469 39.1968 59.7516 39.1499 59.6321 39.1492C59.417 39.1478 59.1559 39.3734 58.8484 39.8255C58.8408 40.0883 58.8354 40.4736 58.8324 40.9814C58.8307 41.2563 58.8264 41.4683 58.8195 41.6176V41.6176ZM57.0833 45.6398C57.2446 45.6408 57.3812 45.2906 57.493 44.5893C57.6048 43.888 57.6788 43.0147 57.7151 41.9694C57.4546 42.5652 57.248 43.1345 57.0953 43.6773C56.9426 44.2201 56.8652 44.6766 56.8629 45.047C56.8618 45.2382 56.8833 45.3847 56.9275 45.4865C56.9716 45.5884 57.0235 45.6395 57.0833 45.6398V45.6398ZM65.8972 40.4779C65.9748 40.4783 66.0359 40.5145 66.0803 40.5865C66.1247 40.6584 66.1465 40.7572 66.1457 40.8827C66.1442 41.1216 66.0863 41.3064 65.972 41.4372C65.7494 41.7047 65.4357 41.9507 65.0311 42.1753C64.6264 42.3998 64.194 42.5107 63.734 42.5079C63.1067 42.5041 62.6209 42.3308 62.2765 41.9882C61.9321 41.6456 61.7616 41.1786 61.7652 40.5871C61.7677 40.1749 61.8568 39.7915 62.0321 39.4372C62.2076 39.0827 62.4497 38.8019 62.7587 38.5947C63.0676 38.3875 63.4163 38.285 63.8046 38.2874C64.1511 38.2895 64.4282 38.3943 64.6361 38.6016C64.8439 38.809 64.9468 39.0889 64.9446 39.4414C64.9421 39.8536 64.7921 40.2067 64.4946 40.5007C64.1971 40.7946 63.6953 41.026 62.9893 41.1949C63.1369 41.4707 63.4199 41.6099 63.8381 41.6124C64.1069 41.6141 64.4137 41.5218 64.7584 41.3357C65.103 41.1496 65.4017 40.9049 65.6545 40.6018C65.7267 40.5186 65.8077 40.4773 65.8972 40.4779ZM63.6469 39.1647C63.4258 39.1634 63.2383 39.2906 63.0845 39.5466C62.9305 39.8026 62.8525 40.1128 62.8503 40.4772L62.8502 40.4951C63.2032 40.4136 63.4817 40.2898 63.6859 40.1238C63.89 39.9578 63.9928 39.7642 63.9941 39.5432C63.9948 39.4296 63.964 39.3384 63.9017 39.2693C63.8394 39.2002 63.7544 39.1654 63.6469 39.1647ZM67.1215 42.5286C66.536 42.525 66.0815 42.3564 65.7579 42.0228C65.4344 41.6894 65.2742 41.2507 65.2775 40.7071C65.2805 40.2232 65.3787 39.7996 65.572 39.4364C65.7654 39.073 66.015 38.7937 66.3209 38.5985C66.6268 38.4032 66.9471 38.3065 67.2816 38.3086C67.6102 38.3106 67.865 38.4092 68.046 38.6045C68.227 38.7998 68.3167 39.0498 68.3148 39.3545C68.3133 39.6054 68.2567 39.8171 68.1452 39.9896C68.0335 40.1623 67.8882 40.248 67.7089 40.2469C67.5954 40.2462 67.5045 40.2187 67.4361 40.1646C67.3677 40.1104 67.3339 40.0355 67.3345 39.9399C67.3347 39.8981 67.3409 39.8503 67.3532 39.7967C67.3655 39.743 67.3747 39.7041 67.3808 39.6804C67.4112 39.5909 67.4267 39.5074 67.4272 39.4297C67.4276 39.3521 67.4085 39.2921 67.37 39.2501C67.3314 39.2081 67.2762 39.1868 67.2045 39.1864C67.0671 39.1856 66.9384 39.246 66.8181 39.3677C66.6979 39.4895 66.6013 39.6546 66.5283 39.8633C66.4553 40.072 66.4181 40.3018 66.4166 40.5527C66.4124 41.2457 66.712 41.594 67.3154 41.5977C67.5602 41.5992 67.8251 41.5187 68.1099 41.3562C68.3947 41.1936 68.6755 40.9488 68.9523 40.6219C69.0245 40.5387 69.1054 40.4974 69.195 40.498C69.2727 40.4984 69.3337 40.5346 69.3781 40.6066C69.4225 40.6785 69.4443 40.7773 69.4435 40.9028C69.4421 41.1298 69.3842 41.3146 69.2698 41.4573C68.9869 41.8021 68.6492 42.0674 68.2568 42.2532C67.8643 42.439 67.4859 42.5308 67.1215 42.5286V42.5286ZM69.9109 37.7332C69.66 37.7316 69.4721 37.6722 69.3473 37.5549C69.2226 37.4377 69.1608 37.2745 69.1621 37.0654C69.1634 36.8563 69.2466 36.6821 69.4118 36.5427C69.577 36.4033 69.782 36.3344 70.0269 36.3358C70.248 36.3372 70.4268 36.3921 70.5636 36.5004C70.7003 36.6088 70.7682 36.7616 70.767 36.9587C70.7655 37.1977 70.6867 37.3869 70.5305 37.5263C70.3743 37.6658 70.1677 37.7347 69.9109 37.7332V37.7332ZM69.8098 42.5449C69.4215 42.5426 69.1401 42.4035 68.9656 42.1276C68.7909 41.8517 68.7051 41.4867 68.7078 41.0327C68.7095 40.7638 68.7459 40.419 68.8171 39.9982C68.8885 39.5775 68.979 39.1852 69.0887 38.8215C69.1437 38.6306 69.2162 38.4996 69.3062 38.4285C69.3962 38.3573 69.5399 38.3223 69.7369 38.3235C70.0416 38.3254 70.1934 38.4279 70.1922 38.631C70.1913 38.7804 70.1324 39.1265 70.0156 39.6695C69.8682 40.3258 69.7937 40.7704 69.7923 41.0034C69.7912 41.1827 69.8143 41.3202 69.8615 41.4161C69.9087 41.5119 69.9891 41.5602 70.1026 41.5609C70.2101 41.5616 70.345 41.4878 70.5073 41.3394C70.6695 41.191 70.8859 40.9564 71.1568 40.6353C71.229 40.5522 71.3098 40.5108 71.3994 40.5114C71.4771 40.5119 71.5381 40.548 71.5826 40.62C71.6269 40.692 71.6488 40.7907 71.648 40.9162C71.6465 41.1551 71.5886 41.34 71.4743 41.4708C70.8784 42.19 70.3236 42.5481 69.8098 42.5449V42.5449ZM72.0143 42.5584C71.6439 42.5561 71.349 42.4199 71.1296 42.1497C70.9102 41.8795 70.8018 41.5264 70.8045 41.0903C70.8074 40.6123 70.9207 40.1605 71.1443 39.7346C71.368 39.3089 71.6643 38.9671 72.0332 38.7094C72.4023 38.4519 72.7929 38.3242 73.2051 38.3268C73.3365 38.3276 73.4245 38.3535 73.469 38.4046C73.5135 38.4556 73.5503 38.547 73.5794 38.6785C73.705 38.6554 73.8365 38.6443 73.9739 38.6451C74.2666 38.6469 74.4123 38.7523 74.411 38.9614C74.4103 39.0869 74.3637 39.3853 74.2712 39.8568C74.1296 40.5429 74.058 41.0205 74.0564 41.2893C74.0558 41.3789 74.0778 41.4507 74.1222 41.5048C74.1667 41.5589 74.2248 41.586 74.2965 41.5865C74.4099 41.5872 74.5479 41.5149 74.7101 41.3695C74.8723 41.2241 75.0917 40.9879 75.3686 40.661C75.4407 40.5778 75.5217 40.5365 75.6113 40.5371C75.689 40.5375 75.7499 40.5737 75.7943 40.6457C75.8387 40.7176 75.8605 40.8164 75.8597 40.9419C75.8583 41.1808 75.8004 41.3656 75.6861 41.4964C75.4393 41.7996 75.1778 42.0549 74.9017 42.2624C74.6257 42.4698 74.3591 42.5727 74.1022 42.5711C73.9052 42.5699 73.7249 42.5016 73.5614 42.3662C73.3979 42.2308 73.275 42.0462 73.1928 41.8127C72.8791 42.3127 72.4863 42.5613 72.0143 42.5584V42.5584ZM72.3424 41.6553C72.4739 41.6561 72.5998 41.5791 72.7202 41.4246C72.8406 41.27 72.9285 41.0643 72.9839 40.8079L73.3255 39.1609C73.0746 39.1654 72.8424 39.2581 72.6293 39.439C72.4161 39.6199 72.2458 39.8593 72.1185 40.1573C71.9913 40.4552 71.9266 40.7715 71.9245 41.106C71.9234 41.2912 71.96 41.4289 72.0341 41.519C72.1082 41.609 72.211 41.6545 72.3424 41.6553V41.6553ZM78.5327 40.5549C78.6103 40.5553 78.6714 40.5915 78.7158 40.6635C78.7601 40.7355 78.7819 40.8342 78.7812 40.9597C78.7797 41.1986 78.7218 41.3834 78.6075 41.5142C78.3486 41.8293 78.0678 42.0875 77.7648 42.2887C77.4619 42.49 77.1193 42.5895 76.7369 42.5872C76.2112 42.584 75.8229 42.3426 75.5718 41.8631C75.3208 41.3836 75.1977 40.7645 75.2023 40.0059C75.2067 39.277 75.3059 38.4472 75.4998 37.5163C75.6937 36.5855 75.9763 35.7866 76.3478 35.1197C76.7193 34.4529 77.1589 34.121 77.6667 34.1241C77.9535 34.1258 78.1782 34.2601 78.3408 34.527C78.5035 34.7938 78.5834 35.1752 78.5804 35.6711C78.576 36.3819 78.3738 37.2052 77.9738 38.1407C77.5738 39.0763 77.0335 40.002 76.3528 40.918C76.3931 41.1631 76.4607 41.3384 76.5557 41.4434C76.6506 41.5486 76.7758 41.6016 76.9311 41.6025C77.1761 41.604 77.3915 41.5351 77.5776 41.3959C77.7636 41.2567 78.0011 41.0176 78.29 40.6788C78.3622 40.5956 78.443 40.5543 78.5327 40.5549V40.5549ZM77.4642 35.01C77.3268 35.0092 77.17 35.2562 76.9937 35.751C76.8173 36.2458 76.6613 36.8602 76.5254 37.5943C76.3894 38.3283 76.3135 39.0328 76.2974 39.7078C76.7259 39.0114 77.0677 38.313 77.3228 37.6125C77.5781 36.9121 77.7074 36.2722 77.7109 35.6927C77.7137 35.2386 77.6315 35.0111 77.4642 35.01V35.01Z" fill="#FF0000"/>
<path id="Vector_3" d="M42.0079 57.4359L44.6207 57.4518L44.6091 59.3611L39.9687 59.3328L40.0391 47.7679L42.0667 47.7803L42.0079 57.4359ZM46.9628 50.3742L48.662 50.3845C49.2901 50.3883 49.7389 50.5638 50.0081 50.9109C50.2773 51.2581 50.4098 51.759 50.4058 52.4136L50.3756 57.3778C50.3716 58.0324 50.2329 58.5316 49.9595 58.8755C49.6861 59.2193 49.2353 59.3893 48.6071 59.3854L46.9079 59.3751C46.2797 59.3713 45.831 59.1958 45.5618 58.8487C45.2926 58.5015 45.16 58.0006 45.164 57.346L45.1942 52.3818C45.1982 51.7272 45.337 51.228 45.6104 50.8841C45.8838 50.5403 46.3346 50.3703 46.9628 50.3742ZM48.4211 57.1113L48.4482 52.6562C48.4501 52.3531 48.3224 52.2009 48.0654 52.1993L47.5371 52.1961C47.2801 52.1945 47.1507 52.3452 47.1488 52.6483L47.1217 57.1033C47.1198 57.4064 47.2474 57.5587 47.5044 57.5603L48.0327 57.5635C48.2897 57.5651 48.4192 57.4144 48.4211 57.1113ZM56.481 53.6689L54.5391 53.6571L54.5444 52.7843C54.5463 52.4812 54.4187 52.3289 54.1617 52.3274L53.7904 52.3251C53.5334 52.3235 53.404 52.4742 53.4022 52.7773L53.3761 57.0506C53.3743 57.3536 53.5018 57.5059 53.7588 57.5075L54.1301 57.5098C54.3871 57.5113 54.5166 57.3605 54.5184 57.0575L54.5237 56.1846L56.4656 56.1965L56.4582 57.4148C56.45 58.7604 55.8414 59.4295 54.6325 59.4222L53.1761 59.4133C51.9672 59.4059 51.3668 58.7294 51.375 57.3839L51.4053 52.4197C51.4135 51.0741 52.0221 50.405 53.231 50.4124L54.6873 50.4212C55.8962 50.4286 56.4966 51.1051 56.4884 52.4506L56.481 53.6689ZM63.0116 50.472L61.4286 54.8447L62.9567 59.4729L60.8722 59.4602L59.4152 54.8324L60.9412 50.4593L63.0116 50.472V50.472ZM57.3881 59.439L57.4623 47.274L59.4469 47.2861L59.3728 59.451L57.3881 59.439ZM63.3985 54.9295L63.4094 53.1474L67.2645 53.1709L67.2537 54.953L63.3985 54.9295ZM71.3551 47.3586L73.3399 47.3707L73.2657 59.5357L71.3095 59.5238L71.3157 58.5055C71.1784 59.1836 70.7908 59.5206 70.153 59.5167L69.8103 59.5147C68.6966 59.5079 68.1438 58.8317 68.152 57.4861L68.1824 52.5037C68.1905 51.1702 68.7515 50.5069 69.8652 50.5137L70.2079 50.5158C70.817 50.5195 71.1912 50.8188 71.3304 51.4137L71.3551 47.3586ZM70.5358 57.6097L70.8643 57.6118C71.1498 57.6135 71.2938 57.4204 71.2962 57.0325L71.3207 53.0138C71.323 52.626 71.1814 52.4311 70.8959 52.4293L70.5674 52.4273C70.4247 52.4265 70.3245 52.4592 70.267 52.5255C70.2095 52.5919 70.1802 52.7099 70.1792 52.8796L70.1531 57.1528C70.1513 57.4558 70.2788 57.6082 70.5358 57.6097V57.6097ZM76.2047 50.5524L77.9039 50.5627C78.5321 50.5665 78.9808 50.742 79.25 51.0891C79.5192 51.4363 79.6518 51.9372 79.6478 52.5918L79.6175 57.556C79.6135 58.2106 79.4749 58.7098 79.2015 59.0537C78.9281 59.3975 78.4772 59.5675 77.8491 59.5637L76.1499 59.5533C75.5217 59.5495 75.073 59.374 74.8038 59.0269C74.5346 58.6797 74.4019 58.1788 74.4059 57.5242L74.4362 52.56C74.4402 51.9054 74.5789 51.4062 74.8523 51.0623C75.1257 50.7185 75.5766 50.5485 76.2047 50.5524ZM77.663 57.2895L77.6902 52.8345C77.692 52.5314 77.5643 52.3791 77.3073 52.3775L76.7791 52.3743C76.5221 52.3727 76.3926 52.5234 76.3908 52.8265L76.3636 57.2816C76.3618 57.5847 76.4894 57.7369 76.7464 57.7385L77.2747 57.7417C77.5316 57.7433 77.6612 57.5926 77.663 57.2895ZM87.2276 50.6195L89.0695 50.6308L87.5868 59.623L85.4451 59.6099L84.6241 53.7313L83.7173 59.5994L81.59 59.5865L80.2598 50.5771L82.116 50.5884L82.7623 56.9932L83.7152 50.5981L85.6142 50.6097L86.4178 56.9791L87.2276 50.6195V50.6195ZM92.8389 50.6537L93.1959 50.6559C94.3096 50.6627 94.8624 51.3389 94.8542 52.6845L94.8116 59.667L92.8127 59.6548L92.8531 53.0178C92.855 52.7147 92.7274 52.5624 92.4704 52.5608L92.1277 52.5587C91.8516 52.5571 91.7124 52.7502 91.7101 53.1381L91.6704 59.6479L89.6856 59.6358L89.7405 50.6349L91.6968 50.6468L91.6905 51.6651C91.8279 50.987 92.2108 50.6499 92.8389 50.6537Z" fill="#3E2D44"/>
<path id="Vector_4" d="M47.0606 66.9744L47.7888 66.9788C48.15 66.981 48.4092 67.0602 48.5663 67.2164C48.7234 67.3726 48.801 67.6031 48.7992 67.9079L48.7914 69.1778C48.7877 69.7874 48.4443 70.0986 47.7612 70.1114L47.757 70.7972L46.6141 70.7902L46.6182 70.1044C45.9524 70.0778 45.6212 69.7625 45.6249 69.1585L45.6291 68.4643L46.8399 68.4716L46.8366 69.005C46.8358 69.1461 46.9115 69.2172 47.0639 69.2181L47.3517 69.2199C47.5041 69.2208 47.5808 69.1507 47.5816 69.0096L47.5876 68.036C47.588 67.9626 47.5714 67.9103 47.5377 67.879C47.5041 67.8478 47.4449 67.8319 47.3602 67.8314L46.6152 67.8269C45.9491 67.8228 45.6181 67.5047 45.6219 66.8725L45.6294 65.6448C45.6331 65.0409 45.9737 64.7325 46.651 64.7197L46.6553 64.0254L47.7983 64.0324L47.794 64.7267C48.4656 64.7477 48.7995 65.0602 48.7958 65.6641L48.7916 66.3669L47.5809 66.3595L47.5841 65.826C47.585 65.6849 47.5092 65.614 47.3568 65.613L47.0689 65.6113C46.9165 65.6104 46.8399 65.6804 46.839 65.8215L46.8333 66.7698C46.8328 66.8432 46.8495 66.8955 46.8831 66.9268C46.9168 66.958 46.976 66.9738 47.0606 66.9744V66.9744ZM50.8028 66.9972L51.531 67.0016C51.8922 67.0038 52.1514 67.083 52.3085 67.2392C52.4657 67.3954 52.5432 67.6259 52.5414 67.9307L52.5336 69.2006C52.5299 69.8102 52.1865 70.1214 51.5034 70.1342L51.4993 70.82L50.3563 70.813L50.3605 70.1272C49.6946 70.1006 49.3634 69.7853 49.3671 69.1813L49.3713 68.4871L50.5821 68.4944L50.5789 69.0278C50.578 69.1689 50.6538 69.24 50.8062 69.2409L51.094 69.2427C51.2464 69.2436 51.323 69.1735 51.3239 69.0324L51.3298 68.0588C51.3302 67.9854 51.3137 67.9331 51.2799 67.9018C51.2463 67.8706 51.1871 67.8547 51.1024 67.8542L50.3574 67.8497C49.6914 67.8456 49.3603 67.5275 49.3641 66.8953L49.3716 65.6676C49.3753 65.0637 49.7159 64.7553 50.3933 64.7425L50.3975 64.0482L51.5405 64.0552L51.5363 64.7495C52.2078 64.7705 52.5417 65.083 52.5381 65.6869L52.5338 66.3897L51.3231 66.3823L51.3264 65.8488C51.3272 65.7077 51.2514 65.6368 51.099 65.6358L50.8112 65.6341C50.6588 65.6332 50.5821 65.7032 50.5813 65.8443L50.5755 66.7926C50.575 66.866 50.5917 66.9183 50.6253 66.9496C50.659 66.9808 50.7182 66.9966 50.8028 66.9972V66.9972Z" fill="#FF0000"/>
<path id="Vector_5" d="M54.7959 64.7694L57.0395 64.783C57.7564 64.7874 58.1129 65.1 58.1091 65.7209L58.0877 69.2345C58.0838 69.861 57.7235 70.1721 57.0066 70.1677L54.7631 70.1541L54.7959 64.7694V64.7694ZM56.8776 69.1255L56.8977 65.8236C56.8986 65.6825 56.8228 65.6114 56.6704 65.6105L56.0015 65.6064L55.9788 69.3318L56.6477 69.3358C56.8001 69.3368 56.8767 69.2666 56.8776 69.1255ZM58.7882 65.4287L58.7937 64.5143L60.0214 64.5218L60.0158 65.4362L58.7882 65.4287ZM59.9615 70.1857L58.7846 70.1786L58.8102 65.9876L59.987 65.9948L59.9615 70.1857ZM62.3298 69.1927L62.3327 68.7185C62.3331 68.6451 62.3165 68.5928 62.2828 68.5616C62.2491 68.5303 62.19 68.5144 62.1053 68.5139L61.6227 68.5109C60.9171 68.5066 60.5663 68.1941 60.5701 67.5732L60.574 66.9382C60.5778 66.3117 60.9381 66.0006 61.6549 66.005L62.3746 66.0094C63.0915 66.0137 63.448 66.3292 63.4441 66.9557L63.4419 67.3282L62.3073 67.3213L62.3092 67.0165C62.3096 66.9431 62.293 66.8908 62.2593 66.8596C62.2257 66.8283 62.1665 66.8124 62.0818 66.8119L61.9548 66.8111C61.8702 66.8106 61.8108 66.8257 61.7767 66.8566C61.7427 66.8874 61.7254 66.9395 61.725 67.0129L61.7219 67.5209C61.7214 67.5943 61.7381 67.6466 61.7717 67.6779C61.8054 67.7091 61.8646 67.725 61.9492 67.7255L62.4318 67.7284C63.1374 67.7327 63.4883 68.0425 63.4846 68.6578L63.4809 69.2674C63.477 69.8939 63.1167 70.205 62.3998 70.2006L61.6464 70.196C60.9352 70.1917 60.5815 69.8762 60.5853 69.2497L60.5875 68.8856L61.7389 68.8926L61.7371 69.189C61.7362 69.3301 61.8092 69.4011 61.956 69.402L62.0999 69.4029C62.2523 69.4038 62.3289 69.3337 62.3298 69.1927V69.1927ZM67.0219 67.5448L65.8705 67.5378L65.873 67.1314C65.8739 66.9902 65.7981 66.9192 65.6457 66.9183L65.4255 66.917C65.2731 66.916 65.1965 66.9861 65.1956 67.1273L65.1835 69.1168C65.1826 69.2579 65.2584 69.329 65.4108 69.3299L65.631 69.3313C65.7834 69.3322 65.86 69.2621 65.8609 69.121L65.8634 68.7146L67.0147 68.7216L67.0113 69.2889C67.0075 69.9154 66.6472 70.2265 65.9304 70.2221L65.0668 70.2169C64.3499 70.2125 63.9934 69.897 63.9972 69.2705L64.0113 66.9592C64.0152 66.3327 64.3755 66.0216 65.0923 66.0259L65.9559 66.0312C66.6727 66.0356 67.0292 66.351 67.0254 66.9775L67.0219 67.5448V67.5448ZM68.589 66.0472L69.5965 66.0534C69.9689 66.0557 70.2352 66.1377 70.3951 66.2996C70.555 66.4614 70.634 66.6947 70.6321 66.9995L70.618 69.3109C70.6162 69.6157 70.5343 69.848 70.3725 70.0079C70.2106 70.1678 69.9434 70.2466 69.5709 70.2443L68.5634 70.2382C68.1908 70.2359 67.9246 70.1539 67.7648 69.992C67.6049 69.8301 67.5259 69.5968 67.5278 69.292L67.5419 66.9807C67.5437 66.6759 67.6255 66.4436 67.7874 66.2837C67.9492 66.1237 68.2164 66.045 68.589 66.0472ZM69.4589 69.1853L69.4715 67.1109C69.4724 66.9698 69.3966 66.8989 69.2442 66.898L68.9309 66.896C68.7785 66.8951 68.7019 66.9651 68.701 67.1062L68.6884 69.1806C68.6875 69.3217 68.7633 69.3927 68.9157 69.3936L69.229 69.3955C69.3814 69.3964 69.458 69.3264 69.4589 69.1853ZM73.1355 66.075L74.3124 66.0821L74.2868 70.273L73.1268 70.266L73.1297 69.7919C73.0488 70.1075 72.8193 70.2641 72.4411 70.2618L72.2379 70.2606C71.5775 70.2565 71.2492 69.9412 71.253 69.3147L71.2728 66.0636L72.4582 66.0708L72.4394 69.1611C72.4385 69.3022 72.5143 69.3732 72.6667 69.3742L72.8614 69.3753C73.0307 69.3764 73.1159 69.2866 73.117 69.106L73.1355 66.075V66.075ZM76.8608 66.0977L77.0724 66.0989C77.7328 66.103 78.0611 66.4183 78.0573 67.0448L78.0375 70.2959L76.8522 70.2887L76.871 67.1984C76.8719 67.0572 76.7961 66.9863 76.6437 66.9853L76.4405 66.9841C76.2768 66.9831 76.1945 67.0729 76.1934 67.2535L76.1749 70.2845L74.998 70.2774L75.0236 66.0865L76.1834 66.0935L76.1805 66.5676C76.2616 66.252 76.4882 66.0954 76.8608 66.0977V66.0977ZM80.5891 67.0094L80.0388 67.006L80.0255 69.1989C80.0247 69.3343 80.1004 69.4026 80.2528 69.4035L80.5745 69.4054L80.569 70.3113L79.9086 70.3073C79.1974 70.303 78.8437 69.9875 78.8476 69.361L78.862 66.9989L78.4217 66.9962L78.4271 66.1072L78.8674 66.1099L78.8721 65.3309L80.049 65.3381L80.0443 66.1171L80.5946 66.1204L80.5891 67.0094V67.0094Z" fill="black"/>
<path id="Vector_6" d="M83.9069 67.1989L84.6351 67.2034C84.9963 67.2056 85.2555 67.2847 85.4126 67.441C85.5697 67.5971 85.6473 67.8276 85.6455 68.1324L85.6377 69.4024C85.634 70.012 85.2906 70.3232 84.6075 70.3359L84.6034 71.0217L83.4604 71.0148L83.4646 70.329C82.7987 70.3023 82.4675 69.9871 82.4712 69.3831L82.4754 68.6888L83.6862 68.6962L83.683 69.2296C83.6821 69.3707 83.7579 69.4417 83.9103 69.4427L84.1981 69.4444C84.3505 69.4454 84.4271 69.3752 84.428 69.2341L84.4339 68.2605C84.4343 68.1871 84.4178 68.1348 84.384 68.1035C84.3504 68.0723 84.2912 68.0565 84.2065 68.056L83.4615 68.0514C82.7955 68.0474 82.4644 67.7292 82.4682 67.097L82.4757 65.8694C82.4794 65.2655 82.82 64.957 83.4974 64.9443L83.5016 64.25L84.6446 64.257L84.6404 64.9512C85.3119 64.9722 85.6458 65.2848 85.6422 65.8887L85.6379 66.5914L84.4272 66.5841L84.4305 66.0506C84.4313 65.9095 84.3555 65.8385 84.2031 65.8376L83.9152 65.8358C83.7629 65.8349 83.6862 65.9049 83.6854 66.046L83.6796 66.9943C83.6791 67.0677 83.6958 67.12 83.7294 67.1513C83.7631 67.1825 83.8223 67.1984 83.9069 67.1989V67.1989ZM87.6492 67.2217L88.3774 67.2262C88.7386 67.2284 88.9978 67.3075 89.1548 67.4638C89.312 67.62 89.3896 67.8504 89.3877 68.1552L89.38 69.4252C89.3763 70.0348 89.0329 70.346 88.3498 70.3587L88.3456 71.0445L87.2026 71.0376L87.2068 70.3518C86.5409 70.3251 86.2098 70.0099 86.2134 69.4059L86.2177 68.7116L87.4284 68.719L87.4252 69.2524C87.4243 69.3935 87.5001 69.4645 87.6525 69.4655L87.9403 69.4672C88.0927 69.4682 88.1693 69.398 88.1702 69.2569L88.1761 68.2833C88.1766 68.21 88.16 68.1576 88.1263 68.1263C88.0927 68.0951 88.0335 68.0793 87.9488 68.0788L87.2038 68.0742C86.5377 68.0702 86.2066 67.752 86.2105 67.1198L86.218 65.8922C86.2216 65.2883 86.5622 64.9798 87.2396 64.9671L87.2438 64.2728L88.3868 64.2798L88.3826 64.974C89.0542 64.995 89.3881 65.3076 89.3844 65.9115L89.3801 66.6143L88.1694 66.6069L88.1727 66.0734C88.1735 65.9323 88.0978 65.8613 87.9454 65.8604L87.6575 65.8586C87.5051 65.8577 87.4285 65.9277 87.4276 66.0688L87.4218 67.0171C87.4214 67.0905 87.438 67.1428 87.4717 67.1741C87.5054 67.2053 87.5646 67.2212 87.6492 67.2217V67.2217Z" fill="#FF0000"/>
</g>
</g>
</svg>
