<?xml version="1.0" encoding="UTF-8"?>
<!DOCTYPE svg PUBLIC "-//W3C//DTD SVG 1.1//EN" "http://www.w3.org/Graphics/SVG/1.1/DTD/svg11.dtd">
<!-- Creator: CorelDRAW 2019 (64-Bit Evaluation Version) -->
<svg xmlns="http://www.w3.org/2000/svg" xml:space="preserve" width="210mm" height="210mm" version="1.1" style="shape-rendering:geometricPrecision; text-rendering:geometricPrecision; image-rendering:optimizeQuality; fill-rule:evenodd; clip-rule:evenodd"
viewBox="0 0 21000 21000"
 xmlns:xlink="http://www.w3.org/1999/xlink"
 xmlns:xodm="http://www.corel.com/coreldraw/odm/2003">
 <defs>
  <style type="text/css">
   <![CDATA[
    .fil0 {fill:#1877F1}
    .fil1 {fill:white}
   ]]>
  </style>
 </defs>
 <g id="Layer_x0020_1">
  <metadata id="CorelCorpID_0Corel-Layer"/>
  <g id="_3128694843424">
   <path class="fil0" d="M9084.07 19410.87l-0.01 -6296.47 -2292.29 -0.16 0 -2603.01 2292.3 -4.16c0,-638.74 -29.27,-2168.3 49.69,-2711.49 226.95,-1561.22 1227.4,-2565.18 2797.2,-2752.2 571.31,-68.06 1364.52,-11.5 1954.72,56.93 205.07,23.77 419.86,65.55 620.2,83.83l2.58 2223.5c-948.43,0 -1881.41,-127.78 -2343.56,502.64 -239.71,327.01 -263.23,671.08 -263.23,1159.84 0,479.01 0,958.02 0,1437.02l2498.92 0 -396.74 2607.22 -2102.16 0.04 -0.02 6296.47c255.94,0 848.07,-165.63 1101.98,-236.41 1052.66,-293.46 2002.85,-803.61 2879.07,-1431.94 57.46,-41.2 94.67,-75.14 150.86,-116.81 55.24,-40.98 96.95,-77.26 149.11,-118.57l850.84 -783.39c226.47,-225.33 417.97,-485.24 620.56,-731.91 246.41,-300.01 449.03,-638.56 649.8,-970.34 569.47,-941.05 955.79,-2128.74 1112.92,-3198.08 61.19,-416.43 87.23,-730.58 92.52,-1049.71l0 -264.31c-3.28,-219.37 -14.01,-453.89 -27.92,-735.13 -31.3,-632.85 -172.65,-1235.64 -335.29,-1820.2 -150.43,-540.67 -367.38,-1048.75 -613.57,-1541.93 -318.85,-638.73 -731.01,-1225.63 -1188.45,-1770.08l-388.26 -428.85c-87.96,-87.9 -184.17,-199.41 -278.24,-271.2 -100.35,-76.58 -179.34,-175.32 -279.67,-255.69 -102.03,-81.73 -190.4,-158.5 -293.51,-241.84 -103,-83.25 -198.26,-151.39 -304.31,-231.04 -285.07,-214.12 -590.05,-403.84 -902.11,-577.15 -509.97,-283.22 -1038.57,-517.23 -1592.78,-703.6 -567.61,-190.89 -1178.39,-329.07 -1782.61,-386.98 -657.05,-62.97 -1400.38,-82.55 -2046.71,-1.31 -488.7,61.43 -908.03,135.87 -1361.04,259.1 -135.36,36.82 -276.77,87.07 -411.46,123.89 -74.02,20.24 -135.31,44.44 -199.27,68.41 -69.06,25.89 -134.76,45.16 -197.23,70.45 -321.41,130.13 -627.51,261.65 -937.21,415.26l-514.5 288.52c-119.41,72.08 -220.72,137.93 -338.22,211.22 -328.35,204.78 -617.23,462.9 -921.13,699.02 -145.45,113 -557.68,512.25 -686.32,666.15 -81.23,97.17 -177.11,179.65 -255.44,279.9 -235.88,301.88 -500.35,591.54 -697.75,922.41l-205.88 329.46c-243.41,404.74 -450.39,818.17 -628.14,1259.69 -25.18,62.54 -46.69,121.5 -74.28,193.39 -184.52,480.81 -317.1,975.39 -417.97,1483.95 -29.48,148.67 -49.88,299.83 -73.34,462 -72.14,498.53 -77.62,1009.45 -80.31,1522.45l0 37.94c1.33,93.14 14.85,139.45 14.09,233.04 -0.64,77.56 7.67,169.4 16.23,251.44 64.06,613.51 168.57,1228.77 351.73,1803.77 106.73,335.08 212.16,674.08 364.62,987.85l352.04 718.67c266.88,515.47 623.48,1012.57 996.07,1455.27 243.94,289.83 497.82,572.62 782.63,823.43l288.81 260.63c29.6,26.35 41.1,32.59 69.85,56.94 31.83,26.97 41.5,41.58 74.39,66.5 389,294.65 689.32,522.13 1112.46,775.36 685.01,409.96 1483.4,747.23 2283.15,957.14l653.91 149.11c81.56,14.66 164.55,34.11 247.68,34.11z"/>
   <path class="fil1" d="M9084.07 19410.87c41.93,26.64 -27.58,1.69 65.73,18.78l260.78 35.08c278.16,30.42 548.89,50.11 821.27,58.85l655.79 0c237.81,-8.43 609.03,-53.67 847.53,-81.99 34.22,-4.07 56.14,-4.57 88.8,-9.82 0.35,-0.06 33.64,-6.25 35.55,-6.71 3.78,-0.93 7.68,-1.89 11.21,-2.88l30.94 -11.31 0.02 -6296.47 2102.16 -0.04 396.74 -2607.22 -2498.92 0c0,-479 0,-958.01 0,-1437.02 0,-488.76 23.52,-832.83 263.23,-1159.84 462.15,-630.42 1395.13,-502.64 2343.56,-502.64l-2.58 -2223.5c-200.34,-18.28 -415.13,-60.06 -620.2,-83.83 -590.2,-68.43 -1383.41,-124.99 -1954.72,-56.93 -1569.8,187.02 -2570.25,1190.98 -2797.2,2752.2 -78.96,543.19 -49.69,2072.75 -49.69,2711.49l-2292.3 4.16 0 2603.01 2292.29 0.16 0.01 6296.47z"/>
  </g>
 </g>
</svg>
