<?xml version="1.0" encoding="UTF-8"?>
<!DOCTYPE svg PUBLIC "-//W3C//DTD SVG 1.1//EN" "http://www.w3.org/Graphics/SVG/1.1/DTD/svg11.dtd">
<!-- Creator: CorelDRAW 2019 (64-Bit Evaluation Version) -->
<svg xmlns="http://www.w3.org/2000/svg" xml:space="preserve" width="210mm" height="210mm" version="1.1" style="shape-rendering:geometricPrecision; text-rendering:geometricPrecision; image-rendering:optimizeQuality; fill-rule:evenodd; clip-rule:evenodd"
viewBox="0 0 21000 21000"
 xmlns:xlink="http://www.w3.org/1999/xlink"
 xmlns:xodm="http://www.corel.com/coreldraw/odm/2003">
 <defs>
  <style type="text/css">
   <![CDATA[
    .fil0 {fill:black}
   ]]>
  </style>
 </defs>
 <g id="Layer_x0020_1">
  <metadata id="CorelCorpID_0Corel-Layer"/>
  <g id="_3092551328096">
   <path class="fil0" d="M11093.5 17968.03l-2879.95 -15.4c-296.08,0 -547.64,-14.48 -832.18,-14.87 -89.07,-0.12 -104.93,-14.08 -183.78,-16.43 -70.97,-2.13 -145.4,1.99 -216.73,1.11l-783.56 -63.48c-775.47,-87.6 -1524.37,-359.07 -2076.53,-911.24 -675.5,-675.5 -897.34,-1381.86 -1002.63,-2385.55 -14.91,-142.1 -6.3,-249.59 -18.49,-397.34l-21.09 -410.13c-24.32,-160.7 -39.7,-2409.82 -39.7,-2516.84l24.3 -3533.29c20.34,-134.34 -7.33,-283.9 13,-418.23 21.34,-140.99 24.03,-649.32 41.98,-820.47 76.86,-732.62 229.81,-1357.57 610.68,-1930.45 333.46,-501.58 864.96,-906.57 1437.65,-1118.9 328.79,-121.89 670.65,-206.76 1030.83,-247.44l783.56 -63.48c71.33,-0.88 145.76,3.24 216.73,1.11 80.26,-2.4 104.99,-16.65 199.35,-16.26 280.79,1.15 537.29,-15.04 832.01,-15.04l2833.75 -15.4c580.74,0 1126.85,15.4 1694.09,15.4 294.46,0 551.54,16.74 831.75,15.3 369.1,-1.9 1207.55,64.06 1572.39,137.11 413.88,82.87 894.35,248.37 1236.82,472.67 369.27,241.85 723.83,599.19 949.41,975.7 257.03,428.99 408.74,951.77 477.43,1447.67 15.27,110.29 42.54,271.42 45.43,385.8l43.81 803.23c28.07,250.03 33.05,2338.11 33.05,2538.9l-30.73 3834.88c-3.98,73.83 -16.24,106.11 -15.67,199.93 1.44,241.19 -22.77,365.18 -30.63,616.22 -21.91,700.63 -315.55,1684.68 -781.44,2206.32 -40.81,45.69 -54.84,70.77 -100.1,115.51 -39.82,39.37 -68.27,68.01 -107.94,107.68 -623.9,623.9 -1511.71,914.37 -2444.75,958.82 -71.5,3.41 -95.07,16.36 -184.68,15.54l-416.7 14.53c-87.4,1.07 -106.53,16.41 -199.07,16.54 -827.52,1.15 -1690.6,30.27 -2541.67,30.27zm-9702.53 -8085.45l14.87 3357.92c0.14,99.09 16.75,137.75 16.13,245.68 -1.34,234.48 16.16,322.84 15.1,508.53 -0.62,108.05 15.03,153.8 16.11,245.7 3.89,331.12 40.24,690.13 87.27,975.39 102.34,620.78 258.93,1129.89 487.01,1622.91l184.55 339.08c142.93,239.86 369.52,556.56 561.18,747.89 54.12,54.03 84.57,81.57 133.26,143.96 61.52,78.83 484.87,429.91 561.24,486.02 188.55,138.48 445.7,296.7 659.32,403.34 121,60.39 236.49,105.5 366.11,157.51 604.8,242.65 1068.37,322.46 1707.17,402.75l1505.83 80.45c338.28,28 723.13,-30.77 1035.26,12l3489.54 1.96c295.71,-33.2 1153.41,14.14 1546.54,-39.74 83.55,-11.46 173.07,-3.57 258.13,-3.68l736.28 -49.17c153.04,-15.67 320.35,-37.49 475.51,-63.52 612.02,-102.67 1124.64,-263.18 1606.04,-503.87 354.38,-177.19 803.99,-469.96 1081.88,-750.83l145.95 -131.26c25.89,-30.64 24.49,-37.07 54.1,-69.11l192.58 -207.84c240.91,-270.17 463.84,-638.78 625.14,-961.15 256.18,-511.98 521.61,-1439.23 549.19,-2084.36 16.78,-392.74 63.18,-841.14 61.67,-1247.4 -0.42,-111.88 14.9,-167.52 16.06,-261.16l14.78 -3342.59c0,-710.82 -17.94,-1371.79 -15.04,-2079.48 0.43,-105.02 -16.55,-140.67 -16.12,-245.69l-39.34 -1007.93c-30.44,-203.29 -32.39,-452.39 -74.6,-726.23 -130.55,-846.97 -387.47,-1600.12 -871.24,-2285.93 -88.1,-124.9 -239.61,-325.69 -350.5,-434.95 -109.16,-107.55 -105.62,-141.6 -267.94,-271.09l-276.92 -246.72c-506.52,-401.74 -921.06,-608.87 -1551.42,-820.3 -644.35,-216.12 -1369.95,-284.68 -2050.3,-321.43 -84.69,-4.57 -177.29,4.73 -261.97,0.16l-512.36 -26.67c-302.54,-41.47 -732.63,32.53 -1034.15,-13.11 -135.56,-20.52 -2392.14,-6.5 -2534.64,-6.5 -272.23,0 -800.68,-29.84 -1040.76,6.5 -300.41,45.47 -733.91,-29.7 -1031.85,15.4 -191.31,28.95 -639.94,13.19 -758.9,26.55 -215.28,24.17 -450.51,12.93 -732.77,52.67 -509.22,71.69 -821.14,99.16 -1319.86,266.43 -342.55,114.89 -775.65,287.07 -1082.24,488.65 -262.15,172.34 -360.76,237.31 -605.24,442.01l-332.5 329.74c-22.81,27.28 -43.21,44.83 -68.61,70 -189.17,187.46 -417.32,513.13 -559.2,749.87 -486.12,811.14 -741.43,1932.87 -753.12,2927.69l-29.16 494.46c-8.29,73.8 -2.49,182.48 -2.05,259.77 0.62,107.93 -15.99,146.59 -16.13,245.68 -0.99,712.7 -14.87,1380.09 -14.87,2095.04z"/>
   <path class="fil0" d="M7474.3 10683.43c0,-616.03 26.61,-892.37 286.03,-1469.67 125.32,-278.88 246.81,-429.4 415.69,-646.97 124.34,-160.19 393.23,-398.49 560.97,-517.08 147.45,-104.24 278.55,-177.25 446.8,-261.65 976.58,-489.83 2319.06,-362.97 3153.71,326.9 36.01,29.77 64.45,52.59 102.6,82.21 75.09,58.28 123.98,114.32 189.64,179.98 144.74,144.74 205.97,208.29 327.39,381.05 300.73,427.92 554.31,1033.97 554.31,1586.41 0,572.7 -28.03,952.17 -287.47,1468.23 -86.08,171.22 -152.16,298.18 -260.43,448.01 -30.32,41.96 -39.6,59.06 -71.61,97.8 -204.41,247.29 -377.24,432.69 -643.24,619.63 -430.81,302.77 -1045.52,554.31 -1586.41,554.31 -570.63,0 -953.92,-28.91 -1468.23,-287.47 -168.33,-84.63 -300.9,-153.71 -448.11,-260.33l-198.34 -155.87c-606.74,-509.82 -1073.3,-1352.05 -1073.3,-2145.49zm-1647.89 -385.02c0,863.03 46.26,1267.11 367.41,2050.53 201.83,492.36 444.34,825.33 769.96,1232.15 103.63,129.47 231.91,243.67 352.86,355.58 196.84,182.12 308.87,282.4 555.01,446.04 1745.82,1160.67 3917.81,1067.05 5560.79,-236.08 182.42,-144.69 440.06,-386.65 582.68,-556.98 90.13,-107.64 168.57,-209.38 250.97,-318.87 155.47,-206.57 312.19,-465.92 431.44,-708.22 248.24,-504.39 461.8,-1266.16 461.8,-1832.93 0,-577.79 6.77,-847.29 -150.78,-1420.1 -43.13,-156.82 -80.07,-287.37 -137.32,-432.52 -56.29,-142.7 -103.74,-266.09 -168.6,-401.24 -193.67,-403.62 -406.43,-686.2 -680.67,-1028.82 -43.26,-54.05 -89.77,-85 -134.4,-142.81 -98.47,-127.53 -167.35,-163.71 -287.27,-282.56 -295.35,-292.72 -827.24,-600.98 -1218.29,-783.82 -1147.28,-536.45 -2620.58,-521.1 -3767.78,-4.92 -495.7,223.05 -894.49,483.96 -1282.18,843.13 -142.85,132.34 -219.84,193.32 -361.42,362.42 -90.13,107.64 -168.57,209.38 -250.97,318.87 -197.27,262.12 -386.18,586.18 -517.12,899.76 -205.64,492.46 -376.12,1079.84 -376.12,1641.39z"/>
   <path class="fil0" d="M14250.68 5662.75c0,779.26 803.56,1312.57 1529.39,1005.77 339.43,-143.47 657.53,-538.18 657.53,-928.76 0,-222.84 -4.12,-353.27 -103.49,-558.76 -24.46,-50.6 -62.55,-106.72 -93.37,-153.04 -45.69,-68.67 -185.43,-210.53 -252.49,-255.73 -47.99,-32.35 -109.16,-73.73 -162.36,-99.45 -700.7,-338.84 -1575.21,153.31 -1575.21,989.97z"/>
  </g>
 </g>
</svg>
