<?xml version="1.0" encoding="UTF-8"?>
<!DOCTYPE svg PUBLIC "-//W3C//DTD SVG 1.1//EN" "http://www.w3.org/Graphics/SVG/1.1/DTD/svg11.dtd">
<!-- Creator: CorelDRAW 2019 (64-Bit Evaluation Version) -->
<svg xmlns="http://www.w3.org/2000/svg" xml:space="preserve" width="148mm" height="150mm" version="1.1" style="shape-rendering:geometricPrecision; text-rendering:geometricPrecision; image-rendering:optimizeQuality; fill-rule:evenodd; clip-rule:evenodd"
viewBox="0 0 14800 15000"
 xmlns:xlink="http://www.w3.org/1999/xlink"
 xmlns:xodm="http://www.corel.com/coreldraw/odm/2003">
 <defs>
  <style type="text/css">
   <![CDATA[
    .fil0 {fill:#000}
   ]]>
  </style>
 </defs>
 <g id="Layer_x0020_1">
  <metadata id="CorelCorpID_0Corel-Layer"/>
  <g id="_2029211940064">
   <g id="_2029137914768">
    <path class="fil0" d="M1360.15 9341.97c0,1204.87 353.68,2211.78 1102.67,3061.71 858.79,974.54 1484.94,184.77 2192.17,186.07 912.78,1.67 1206.54,931.16 2342.58,-469.47 195.21,-240.68 611.19,-875.84 640.21,-1224.45 -1129.1,-93.96 -1428.58,-2403.13 -186.46,-2734.8 -47.46,-177.77 -59.09,-174.98 -201.82,-295.42 -1212.72,-1023.45 -2008.17,-201.81 -2595.15,-201.81 -611.6,0 -1708.27,-862.68 -2735.07,310.5 -290.27,331.66 -559.13,752.59 -559.13,1367.67z"/>
    <path class="fil0" d="M10372.59 8533.96c975.8,0 1194.79,2051.1 0,2051.1 -973.34,0 -973.34,-2051.1 0,-2051.1zm-1243.09 1056.63c0,1760.39 1816.82,1665.83 2266.74,961.5 153.41,-240.18 274.84,-679.17 275.71,-1023.9 3.89,-1581.67 -1671.59,-1766.67 -2207.24,-969.79 -139.38,207.36 -335.21,723.37 -335.21,1032.19z"/>
    <path class="fil0" d="M11802.15 8969.04c0,1110.7 1429.56,456.69 1429.56,1305.24 0,335.25 -396.17,310.78 -621.55,310.78 -380.84,0 -407.75,-277.46 -808.01,-310.78l0 559.39c434.58,36.17 161.47,186.48 994.46,186.48 975.02,0 1379.33,-1312.59 320.42,-1625.66 -275.13,-81.35 -817.65,-131.5 -817.65,-487.61 0,-290.8 318.62,-372.92 559.39,-372.92 594.87,0 808.01,845.95 808.01,-248.62 -535.97,-124.88 -1085.55,-360.17 -1566.6,49.42 -108.6,92.48 -298.03,470.4 -298.03,634.28z"/>
    <path class="fil0" d="M4343.58 7290.86c0,523.13 1553.86,-225.17 1553.86,-1305.24l0 -310.78c-770.61,17.16 -1553.86,822.77 -1553.86,1616.02z"/>
    <path class="fil0" d="M8383.63 9279.81l0 1491.73c0,235.27 144.99,186.45 497.23,186.45l0 -2113.25 -435.07 0c-16.17,194.4 -62.16,220.8 -62.16,435.07z"/>
    <path class="fil0" d="M8383.63 8596.11l497.23 0 0 -435.08 -435.07 0c-42.6,182.86 -62.16,189.7 -62.16,435.08z"/>
   </g>
  </g>
 </g>
</svg>
