<?xml version="1.0" encoding="UTF-8"?>
<!DOCTYPE svg PUBLIC "-//W3C//DTD SVG 1.1//EN" "http://www.w3.org/Graphics/SVG/1.1/DTD/svg11.dtd">
<!-- Creator: CorelDRAW 2019 (64-Bit Evaluation Version) -->
<svg xmlns="http://www.w3.org/2000/svg" xml:space="preserve" width="210mm" height="210mm" version="1.1" style="shape-rendering:geometricPrecision; text-rendering:geometricPrecision; image-rendering:optimizeQuality; fill-rule:evenodd; clip-rule:evenodd"
viewBox="0 0 21000 21000"
 xmlns:xlink="http://www.w3.org/1999/xlink"
 xmlns:xodm="http://www.corel.com/coreldraw/odm/2003">
 <defs>
  <style type="text/css">
   <![CDATA[
    .fil0 {fill:#006699}
    .fil2 {fill:#7B7B7B}
    .fil1 {fill:whitesmoke}
   ]]>
  </style>
 </defs>
 <g id="Layer_x0020_1">
  <metadata id="CorelCorpID_0Corel-Layer"/>
  <g id="_3092547460576">
   <path class="fil0" d="M4156.54 10752.85l2607.24 2.19 -2.39 8543.19 -2611.17 -0.59 6.32 -8544.79zm6729.61 789.47c92.75,-21.06 190.99,-219.87 252.5,-292.53 241.29,-284.97 549.51,-530.78 882.96,-718.18 447.68,-251.6 1032.39,-462.43 1641.9,-518.9 1146.73,-106.2 2411.18,312.73 3012.97,1249.16 617.42,960.75 530.34,2470.41 530.34,3757.58 0,293.84 24.59,4093.26 -9.85,4281.13l-2590.3 -1.14c-38.29,-161.26 -13.11,-4221.51 -13.11,-4498.34 0,-1488.13 13.49,-2870.13 -1699.16,-2795.82 -1643.8,71.32 -1687.58,1264.34 -1687.36,2795.82 0.11,752.06 0,1504.12 0,2256.17 0,731.4 26.61,1513.78 -3.15,2239.94l-2584.66 -4 7.02 -8953.48 2250.3 6.74 9.6 1195.85zm-6720.34 -4535.97l2578.78 3.98c24.98,27.78 31.33,4.9 33.87,123.31l-9.5 2099.8c-107.36,36.99 -2494.26,40.25 -2623.32,2.95 -32.12,-213.79 -7.29,-1554.67 -8.85,-1980.07 -0.15,-42.34 -4.53,-108.3 -2.14,-147.14l20.09 -85.44c1.12,-10.45 7.34,-11.62 11.07,-17.39zm-3365.52 12137.26c81.28,644.39 553.57,1135.84 1145.81,1271.12 303.11,69.23 830.83,38.81 1171.79,38.81l6064.95 0c313.69,0 9360.11,28.59 9694.78,-10.62 653.96,-76.58 1143.52,-555.19 1279.86,-1146.17 69.74,-302.35 39.2,-831.5 39.2,-1172.05l0 -6064.94c0,-317.18 28.9,-9358.28 -10.96,-9696.65 -76.34,-648.09 -555.47,-1143.66 -1146.03,-1278.47 -303.04,-69.18 -830.93,-38.73 -1171.84,-38.73l-6064.95 0c-318.26,0 -9359.31,-28.98 -9698.95,10.99 -644.58,75.85 -1142.31,557.69 -1275.91,1144.52 -70.65,310.27 -38.98,834 -38.98,1173.34l0 6064.94c0,307.95 -30.35,9374.26 11.23,9703.91z"/>
   <path class="fil1" d="M10886.15 11542.32l-9.6 -1195.85 -2250.3 -6.74 -7.02 8953.48 2584.66 4c29.76,-726.16 3.15,-1508.54 3.15,-2239.94 0,-752.05 0.11,-1504.11 0,-2256.17 -0.22,-1531.48 43.56,-2724.5 1687.36,-2795.82 1712.65,-74.31 1699.16,1307.69 1699.16,2795.82 0,276.83 -25.18,4337.08 13.11,4498.34l2590.3 1.14c34.44,-187.87 9.85,-3987.29 9.85,-4281.13 0,-1287.17 87.08,-2796.83 -530.34,-3757.58 -601.79,-936.43 -1866.24,-1355.36 -3012.97,-1249.16 -609.51,56.47 -1194.22,267.3 -1641.9,518.9 -333.45,187.4 -641.67,433.21 -882.96,718.18 -61.51,72.66 -159.75,271.47 -252.5,292.53z"/>
   <path class="fil1" d="M4150.22 19297.64l2611.17 0.59 2.39 -8543.19 -2607.24 -2.19 -6.32 8544.79z"/>
   <path class="fil1" d="M6744.59 7010.33l-2578.78 -3.98 -2.16 2218.97 2581.93 1.56 -0.99 -2216.55z"/>
   <path class="fil2" d="M6744.59 7010.33l0.99 2216.55 -2581.93 -1.56 2.16 -2218.97c-3.73,5.77 -9.95,6.94 -11.07,17.39l-20.09 85.44c-2.39,38.84 1.99,104.8 2.14,147.14 1.56,425.4 -23.27,1766.28 8.85,1980.07 129.06,37.3 2515.96,34.04 2623.32,-2.95l9.5 -2099.8c-2.54,-118.41 -8.89,-95.53 -33.87,-123.31z"/>
  </g>
 </g>
</svg>
