<?xml version="1.0" encoding="UTF-8"?>
<!DOCTYPE svg PUBLIC "-//W3C//DTD SVG 1.1//EN" "http://www.w3.org/Graphics/SVG/1.1/DTD/svg11.dtd">
<!-- Creator: CorelDRAW 2019 (64-Bit Evaluation Version) -->
<svg xmlns="http://www.w3.org/2000/svg" xml:space="preserve" width="210mm" height="148mm" version="1.1" style="shape-rendering:geometricPrecision; text-rendering:geometricPrecision; image-rendering:optimizeQuality; fill-rule:evenodd; clip-rule:evenodd"
viewBox="0 0 21000 14800"
 xmlns:xlink="http://www.w3.org/1999/xlink"
 xmlns:xodm="http://www.corel.com/coreldraw/odm/2003">
 <defs>
  <style type="text/css">
   <![CDATA[
    .str0 {stroke:#373435;stroke-width:20;stroke-miterlimit:22.9256}
    .fil0 {fill:#3E2D44}
    .fil3 {fill:#FEFEFE;fill-rule:nonzero}
    .fil1 {fill:#ED3237;fill-rule:nonzero}
    .fil2 {fill:yellow;fill-rule:nonzero}
   ]]>
  </style>
 </defs>
 <g id="Layer_x0020_1">
  <metadata id="CorelCorpID_0Corel-Layer"/>
  <path id="webDesign" class="fil0 str0" d="M238.12 2637.94l18174.32 0 -2097.02 2563.04 -16077.3 0 0 -2563.04z"/>
  <path id="printing" class="fil0 str0" d="M238.12 5332.76l18174.32 0 -2097.02 2563.04 -16077.3 0 0 -2563.04z"/>
  <path id="print" class="fil0 str0" d="M238.12 8027.59l18174.32 0 -2097.02 2563.04 -16077.3 0 0 -2563.04z"/>
  <path id="graphic" class="fil0 str0" d="M238.12 10726.35l18174.32 0 -2097.02 2563.04 -16077.3 0 0 -2563.04z"/>
  <path id="webText" class="fil1" d="M1377.46 4564.58l-364.13 -1548.84 322.31 0 230.38 1063.93 282.66 -1063.93 372.79 0 270.39 1081.95 235.79 -1081.95 314.74 0 -373.15 1548.84 -334.93 0 -305.37 -1158.02 -307.53 1158.02 -343.95 0zm2436.82 -354.76l296.36 49.75c-37.86,108.52 -98.07,191.08 -179.91,248.05 -82.2,56.6 -184.95,85.08 -307.89,85.08 -195.05,0 -339.62,-63.81 -433,-191.44 -73.9,-102.39 -111.04,-231.46 -111.04,-387.57 0,-186.03 48.67,-332.05 145.66,-437.32 96.98,-105.64 219.92,-158.28 368.46,-158.28 166.56,0 298.16,55.17 394.78,165.49 96.26,110.32 142.41,279.41 138.08,507.26l-741.97 0c2.16,87.97 25.96,156.47 71.75,205.51 45.42,49.03 102.39,73.54 170.17,73.54 46.5,0 85.44,-12.61 116.81,-37.85 31.72,-25.24 55.52,-65.98 71.74,-122.22zm17.31 -300.68c-2.16,-86.17 -24.16,-151.79 -66.34,-196.49 -42.18,-45.07 -93.38,-67.42 -153.95,-67.42 -64.53,0 -117.89,23.79 -160.07,71.02 -42.18,47.23 -62.73,111.77 -62.01,192.89l442.37 0zm523.85 655.44l0 -1548.84 296.36 0 0 558.82c91.57,-104.19 199.73,-156.47 325.19,-156.47 136.64,0 249.49,49.4 338.9,148.54 89.41,99.15 134.12,241.56 134.12,427.23 0,191.8 -45.43,339.62 -136.64,443.45 -91.22,103.48 -202.26,155.39 -332.41,155.39 -64.17,0 -127.27,-16.58 -189.64,-49.39 -62.37,-33.17 -116.09,-80.76 -161.16,-143.49l0 164.76 -274.72 0zm292.03 -582.98c0,116.45 18.39,202.98 55.16,258.5 51.56,79.32 119.7,118.98 205.14,118.98 65.62,0 121.5,-28.12 168.01,-84.37 46.15,-56.24 69.22,-144.93 69.22,-265.71 0,-128.71 -23.43,-221.36 -69.94,-278.33 -46.51,-56.96 -106,-85.44 -178.83,-85.44 -71.38,0 -130.51,27.76 -177.74,83.28 -47.23,55.52 -71.02,139.89 -71.02,253.09zm1645.45 -965.86l570.36 0c128.71,0 226.77,9.74 294.19,29.57 90.5,26.68 168.37,74.27 232.91,142.77 64.89,68.14 113.92,151.78 147.81,250.93 33.53,98.78 50.48,221 50.48,365.93 0,127.63 -15.87,237.23 -47.59,329.53 -38.58,112.84 -93.74,204.06 -165.49,273.64 -54.08,53 -127.26,94.1 -219.2,123.66 -68.86,21.99 -160.79,32.81 -276.16,32.81l-587.31 0 0 -1548.84zm313.66 261.75l0 1025.35 232.55 0c86.88,0 149.62,-5.05 188.19,-14.79 50.84,-12.62 92.66,-34.25 125.83,-64.53 33.53,-30.29 60.57,-80.04 81.48,-149.26 21.27,-69.22 31.72,-164.04 31.72,-283.74 0,-119.69 -10.45,-211.27 -31.72,-275.44 -20.91,-64.18 -50.48,-113.93 -88.33,-149.98 -37.86,-35.7 -85.81,-60.21 -144.22,-72.83 -43.26,-9.73 -128.7,-14.78 -255.61,-14.78l-139.89 0zm1895.31 932.33l296.36 49.75c-37.86,108.52 -98.07,191.08 -179.91,248.05 -82.2,56.6 -184.95,85.08 -307.89,85.08 -195.05,0 -339.62,-63.81 -433,-191.44 -73.9,-102.39 -111.04,-231.46 -111.04,-387.57 0,-186.03 48.67,-332.05 145.66,-437.32 96.98,-105.64 219.92,-158.28 368.46,-158.28 166.56,0 298.16,55.17 394.78,165.49 96.26,110.32 142.41,279.41 138.08,507.26l-741.97 0c2.16,87.97 25.96,156.47 71.75,205.51 45.42,49.03 102.39,73.54 170.17,73.54 46.5,0 85.44,-12.61 116.81,-37.85 31.72,-25.24 55.52,-65.98 71.74,-122.22zm17.31 -300.68c-2.16,-86.17 -24.16,-151.79 -66.34,-196.49 -42.18,-45.07 -93.38,-67.42 -153.95,-67.42 -64.53,0 -117.89,23.79 -160.07,71.02 -42.18,47.23 -62.73,111.77 -62.01,192.89l442.37 0zm430.83 339.62l298.52 -45.43c12.62,57.32 38.22,100.95 77.16,130.51 38.57,29.92 93.01,44.71 162.59,44.71 76.8,0 134.48,-14.06 173.42,-42.19 25.96,-19.82 38.94,-46.5 38.94,-79.67 0,-22.36 -7.21,-41.1 -21.27,-55.88 -14.79,-14.07 -47.96,-27.41 -99.15,-39.3 -239.75,-53 -391.54,-101.31 -455.71,-144.94 -89.05,-60.93 -133.4,-145.29 -133.4,-253.09 0,-97.7 38.58,-179.54 115.37,-245.88 76.8,-66.34 195.77,-99.51 356.93,-99.51 153.58,0 267.87,25.24 342.5,75.36 74.63,50.47 126.19,124.74 154.31,223.16l-279.05 51.92c-11.9,-43.98 -34.97,-77.87 -68.5,-101.31 -33.53,-23.43 -81.48,-34.97 -143.85,-34.97 -78.6,0 -134.84,10.82 -169.09,32.81 -22.72,15.5 -33.89,35.69 -33.89,60.21 0,21.27 9.73,39.29 29.56,54.08 27.04,19.82 119.7,47.59 278.33,83.64 158.63,36.05 269.32,80.04 332.05,132.31 62.37,52.64 93.38,126.55 93.38,221.01 0,102.75 -42.91,191.44 -129.07,265.35 -85.81,73.91 -213.08,111.04 -381.81,111.04 -152.86,0 -274,-31 -363.41,-92.65 -89.05,-61.66 -147.46,-145.3 -174.86,-251.29zm1309.09 -958.29l0 -274.73 296.35 0 0 274.73 -296.35 0zm0 1274.11l0 -1122.69 296.35 0 0 1122.69 -296.35 0zm572.88 71.38l339.62 41.11c5.77,40.01 18.74,67.41 38.93,82.56 28.49,21.27 72.83,32.08 133.4,32.08 77.51,0 135.56,-11.53 174.5,-34.97 25.95,-15.5 45.78,-40.38 59.12,-74.99 9.02,-24.51 13.7,-70.3 13.7,-136.28l1.45 -164.04c-89.42,122.22 -201.9,183.15 -337.46,183.15 -150.7,0 -270.4,-63.81 -358.37,-191.08 -69.22,-100.59 -103.83,-226.05 -103.83,-375.67 0,-188.2 45.43,-331.69 135.92,-430.84 90.49,-99.14 203.34,-148.9 338.18,-148.9 138.8,0 253.45,60.93 343.58,182.79l0 -158.99 276.89 0 0 1006.6c0,132.31 -10.82,231.46 -32.81,296.72 -21.63,65.61 -52.28,116.81 -91.93,154.3 -39.3,37.14 -91.94,66.7 -157.92,87.61 -65.97,21.27 -149.26,31.73 -249.84,31.73 -190.36,0 -325.2,-32.81 -404.88,-98.07 -79.68,-65.61 -119.33,-148.17 -119.33,-248.76 0,-9.74 0.36,-21.99 1.08,-36.06zm266.07 -655.44c0,118.98 23.07,205.86 68.86,261.03 46.15,55.16 103.11,82.92 170.53,82.92 72.11,0 133.4,-28.48 183.15,-85.09 50.11,-56.6 74.99,-140.24 74.99,-251.29 0,-116.09 -23.79,-202.25 -71.75,-258.5 -47.59,-56.24 -108.15,-84.36 -181.34,-84.36 -71.03,0 -129.43,27.76 -175.58,82.92 -45.79,55.16 -68.86,139.16 -68.86,252.37zm2104.41 584.06l-296.36 0 0 -572.16c0,-121.14 -6.49,-199.37 -19.1,-234.71 -12.98,-35.69 -33.53,-63.09 -62.38,-82.92 -28.84,-19.83 -63.45,-29.56 -103.83,-29.56 -51.91,0 -98.42,14.06 -139.52,42.18 -41.46,28.12 -69.59,65.62 -84.73,111.76 -15.5,46.51 -23.07,132.32 -23.07,257.78l0 507.63 -296.36 0 0 -1122.69 274.73 0 0 164.76c98.42,-125.82 222.08,-188.56 371.7,-188.56 65.62,0 125.83,11.9 180.27,35.34 54.8,23.79 95.9,53.72 123.66,90.13 28.12,36.77 47.59,78.23 58.41,124.74 11.17,46.51 16.58,112.85 16.58,199.38l0 696.9z"/>
  <path id="dataText" class="fil2" d="M1159.29 5973.18l504.16 0c113.77,0 200.46,8.6 260.05,26.13 79.99,23.58 148.83,65.65 205.87,126.2 57.36,60.23 100.71,134.17 130.66,221.81 29.64,87.32 44.62,195.35 44.62,323.46 0,112.82 -14.02,209.7 -42.07,291.28 -34.1,99.75 -82.86,180.37 -146.27,241.88 -47.81,46.85 -112.5,83.18 -193.77,109.31 -60.86,19.44 -142.13,29 -244.11,29l-519.14 0 0 -1369.07zm277.26 231.36l0 906.34 205.55 0c76.8,0 132.26,-4.46 166.36,-13.06 44.93,-11.16 81.9,-30.28 111.22,-57.05 29.63,-26.77 53.54,-70.74 72.02,-131.93 18.8,-61.19 28.04,-145 28.04,-250.81 0,-105.8 -9.24,-186.75 -28.04,-243.47 -18.48,-56.73 -44.62,-100.71 -78.08,-132.58 -33.46,-31.54 -75.85,-53.22 -127.47,-64.37 -38.24,-8.6 -113.77,-13.07 -225.95,-13.07l-123.65 0zm1296.73 451.26l-237.1 -42.06c26.77,-96.88 72.97,-168.59 138.3,-215.12 65.34,-46.52 162.53,-69.79 291.28,-69.79 116.96,0 204.28,13.71 261.64,41.43 57.05,27.73 97.52,62.78 120.78,105.49 23.27,42.7 35.06,120.78 35.06,234.87l-3.82 305.93c0,87 4.14,151.38 12.42,192.81 8.29,41.43 23.91,85.72 46.85,132.89l-260.05 0c-6.69,-17.21 -15.29,-42.7 -25.17,-76.48 -4.14,-15.62 -7.33,-25.82 -9.24,-30.6 -44.62,43.98 -92.42,76.8 -143.41,98.79 -50.99,21.99 -105.17,33.15 -162.85,33.15 -101.66,0 -181.97,-27.73 -240.61,-83.18 -58.64,-55.13 -87.95,-125.24 -87.95,-210.01 0,-55.77 13.38,-105.81 40.15,-149.78 26.77,-43.66 64.06,-77.45 112.5,-100.71 48.12,-23.26 117.59,-43.66 208.42,-61.19 122.37,-22.94 207.46,-44.61 254.63,-64.37l0 -26.45c0,-50.99 -12.43,-87.32 -37.29,-109.31 -25.18,-21.67 -72.34,-32.51 -141.5,-32.51 -46.84,0 -83.17,9.25 -109.31,28.05 -26.45,18.48 -47.48,51.31 -63.73,98.15zm351.83 212.25c-33.47,11.15 -86.69,24.54 -159.67,40.15 -72.66,15.62 -120.46,30.91 -142.77,45.57 -34.1,24.54 -51.3,55.14 -51.3,92.42 0,36.97 13.7,68.52 41.11,95.29 27.4,26.77 62.14,40.15 104.52,40.15 47.17,0 92.42,-15.61 135.45,-46.53 31.55,-23.9 52.58,-52.58 62.46,-87 6.69,-22.3 10.2,-65.01 10.2,-127.79l0 -52.26zm969.75 -518.19l0 208.42 -179.74 0 0 401.87c0,81.58 1.6,129.06 5.1,142.45 3.51,13.38 11.16,24.54 23.59,33.46 12.11,8.61 26.76,13.07 44.29,13.07 24.54,0 59.6,-8.29 105.81,-25.18l21.99 203.96c-60.87,26.13 -129.71,39.2 -206.83,39.2 -47.17,0 -89.55,-7.97 -127.48,-23.9 -37.92,-15.94 -65.64,-36.65 -83.17,-61.83 -17.85,-25.49 -29.96,-59.59 -36.97,-102.93 -5.42,-30.6 -8.29,-92.42 -8.29,-185.8l0 -434.37 -120.46 0 0 -208.42 120.46 0 0 -196.94 261.96 -154.88 0 351.82 179.74 0zm378.6 305.94l-237.1 -42.06c26.77,-96.88 72.97,-168.59 138.3,-215.12 65.34,-46.52 162.53,-69.79 291.28,-69.79 116.96,0 204.28,13.71 261.64,41.43 57.05,27.73 97.52,62.78 120.78,105.49 23.27,42.7 35.06,120.78 35.06,234.87l-3.82 305.93c0,87 4.14,151.38 12.42,192.81 8.29,41.43 23.91,85.72 46.85,132.89l-260.05 0c-6.69,-17.21 -15.29,-42.7 -25.17,-76.48 -4.14,-15.62 -7.33,-25.82 -9.24,-30.6 -44.62,43.98 -92.42,76.8 -143.41,98.79 -50.99,21.99 -105.17,33.15 -162.85,33.15 -101.66,0 -181.97,-27.73 -240.61,-83.18 -58.64,-55.13 -87.95,-125.24 -87.95,-210.01 0,-55.77 13.38,-105.81 40.15,-149.78 26.77,-43.66 64.06,-77.45 112.5,-100.71 48.12,-23.26 117.59,-43.66 208.42,-61.19 122.37,-22.94 207.46,-44.61 254.63,-64.37l0 -26.45c0,-50.99 -12.43,-87.32 -37.29,-109.31 -25.18,-21.67 -72.34,-32.51 -141.5,-32.51 -46.84,0 -83.17,9.25 -109.31,28.05 -26.45,18.48 -47.48,51.31 -63.73,98.15zm351.83 212.25c-33.47,11.15 -86.69,24.54 -159.67,40.15 -72.66,15.62 -120.46,30.91 -142.77,45.57 -34.1,24.54 -51.3,55.14 -51.3,92.42 0,36.97 13.7,68.52 41.11,95.29 27.4,26.77 62.14,40.15 104.52,40.15 47.17,0 92.42,-15.61 135.45,-46.53 31.55,-23.9 52.58,-52.58 62.46,-87 6.69,-22.3 10.2,-65.01 10.2,-127.79l0 -52.26zm505.11 474.2l0 -1369.07 261.96 0 0 493.96c80.94,-92.1 176.55,-138.31 287.45,-138.31 120.78,0 220.53,43.66 299.57,131.3 79.03,87.64 118.55,213.52 118.55,377.64 0,169.54 -40.16,300.2 -120.78,391.98 -80.63,91.47 -178.79,137.36 -293.83,137.36 -56.73,0 -112.5,-14.66 -167.63,-43.66 -55.13,-29.32 -102.62,-71.39 -142.45,-126.84l0 145.64 -242.84 0zm258.13 -515.31c0,102.93 16.26,179.42 48.76,228.49 45.57,70.11 105.81,105.17 181.33,105.17 58.01,0 107.4,-24.86 148.51,-74.57 40.79,-49.72 61.19,-128.11 61.19,-234.87 0,-113.77 -20.72,-195.68 -61.83,-246.03 -41.11,-50.35 -93.69,-75.53 -158.06,-75.53 -63.1,0 -115.37,24.54 -157.11,73.62 -41.75,49.08 -62.79,123.65 -62.79,223.72zm1116.36 -171.14l-237.1 -42.06c26.77,-96.88 72.97,-168.59 138.3,-215.12 65.34,-46.52 162.53,-69.79 291.28,-69.79 116.96,0 204.28,13.71 261.64,41.43 57.05,27.73 97.52,62.78 120.78,105.49 23.27,42.7 35.06,120.78 35.06,234.87l-3.82 305.93c0,87 4.14,151.38 12.42,192.81 8.29,41.43 23.91,85.72 46.85,132.89l-260.05 0c-6.69,-17.21 -15.29,-42.7 -25.17,-76.48 -4.14,-15.62 -7.33,-25.82 -9.24,-30.6 -44.62,43.98 -92.42,76.8 -143.41,98.79 -50.99,21.99 -105.17,33.15 -162.85,33.15 -101.66,0 -181.97,-27.73 -240.61,-83.18 -58.64,-55.13 -87.95,-125.24 -87.95,-210.01 0,-55.77 13.38,-105.81 40.15,-149.78 26.77,-43.66 64.06,-77.45 112.5,-100.71 48.12,-23.26 117.59,-43.66 208.42,-61.19 122.37,-22.94 207.46,-44.61 254.63,-64.37l0 -26.45c0,-50.99 -12.43,-87.32 -37.29,-109.31 -25.18,-21.67 -72.34,-32.51 -141.5,-32.51 -46.84,0 -83.17,9.25 -109.31,28.05 -26.45,18.48 -47.48,51.31 -63.73,98.15zm351.83 212.25c-33.47,11.15 -86.69,24.54 -159.67,40.15 -72.66,15.62 -120.46,30.91 -142.77,45.57 -34.1,24.54 -51.3,55.14 -51.3,92.42 0,36.97 13.7,68.52 41.11,95.29 27.4,26.77 62.14,40.15 104.52,40.15 47.17,0 92.42,-15.61 135.45,-46.53 31.55,-23.9 52.58,-52.58 62.46,-87 6.69,-22.3 10.2,-65.01 10.2,-127.79l0 -52.26zm422.89 195.03l263.87 -40.15c11.15,50.67 33.78,89.23 68.2,115.36 34.1,26.45 82.22,39.52 143.73,39.52 67.88,0 118.86,-12.43 153.28,-37.29 22.95,-17.53 34.42,-41.11 34.42,-70.43 0,-19.76 -6.37,-36.33 -18.8,-49.39 -13.07,-12.43 -42.39,-24.22 -87.64,-34.74 -211.93,-46.85 -346.09,-89.55 -402.82,-128.11 -78.71,-53.86 -117.91,-128.43 -117.91,-223.72 0,-86.36 34.1,-158.7 101.98,-217.34 67.88,-58.64 173.04,-87.96 315.5,-87.96 135.76,0 236.78,22.31 302.75,66.61 65.96,44.61 111.54,110.26 136.39,197.26l-246.66 45.89c-10.51,-38.88 -30.91,-68.83 -60.55,-89.55 -29.64,-20.71 -72.02,-30.91 -127.15,-30.91 -69.48,0 -119.19,9.56 -149.47,29 -20.07,13.7 -29.95,31.55 -29.95,53.22 0,18.8 8.6,34.74 26.13,47.8 23.9,17.53 105.8,42.07 246.02,73.94 140.22,31.87 238.06,70.75 293.51,116.96 55.13,46.52 82.54,111.85 82.54,195.35 0,90.83 -37.92,169.22 -114.09,234.55 -75.84,65.33 -188.34,98.16 -337.48,98.16 -135.13,0 -242.21,-27.41 -321.24,-81.9 -78.71,-54.5 -130.34,-128.43 -154.56,-222.13zm1730.77 -34.42l261.96 43.98c-33.46,95.93 -86.68,168.91 -159.02,219.26 -72.66,50.03 -163.49,75.21 -272.16,75.21 -172.41,0 -300.2,-56.41 -382.74,-169.22 -65.33,-90.51 -98.15,-204.6 -98.15,-342.59 0,-164.44 43.02,-293.51 128.75,-386.57 85.72,-93.37 194.39,-139.9 325.69,-139.9 147.23,0 263.55,48.76 348.96,146.28 85.09,97.52 125.88,246.98 122.06,448.39l-655.85 0c1.91,77.76 22.94,138.31 63.41,181.65 40.16,43.34 90.51,65.01 150.42,65.01 41.11,0 75.53,-11.15 103.26,-33.46 28.04,-22.31 49.07,-58.32 63.41,-108.04zm15.3 -265.78c-1.91,-76.17 -21.35,-134.17 -58.64,-173.68 -37.28,-39.84 -82.54,-59.6 -136.07,-59.6 -57.05,0 -104.21,21.04 -141.5,62.78 -37.29,41.75 -55.45,98.8 -54.81,170.5l391.02 0zm1007.68 -789.7l504.16 0c113.77,0 200.46,8.6 260.05,26.13 79.99,23.58 148.83,65.65 205.87,126.2 57.36,60.23 100.71,134.17 130.66,221.81 29.64,87.32 44.62,195.35 44.62,323.46 0,112.82 -14.02,209.7 -42.07,291.28 -34.1,99.75 -82.86,180.37 -146.27,241.88 -47.81,46.85 -112.5,83.18 -193.77,109.31 -60.86,19.44 -142.13,29 -244.11,29l-519.14 0 0 -1369.07zm277.26 231.36l0 906.34 205.55 0c76.8,0 132.26,-4.46 166.36,-13.06 44.93,-11.16 81.9,-30.28 111.22,-57.05 29.63,-26.77 53.54,-70.74 72.02,-131.93 18.8,-61.19 28.04,-145 28.04,-250.81 0,-105.8 -9.24,-186.75 -28.04,-243.47 -18.48,-56.73 -44.62,-100.71 -78.08,-132.58 -33.46,-31.54 -75.85,-53.22 -127.47,-64.37 -38.24,-8.6 -113.77,-13.07 -225.95,-13.07l-123.65 0zm1675.32 824.12l261.96 43.98c-33.46,95.93 -86.68,168.91 -159.02,219.26 -72.66,50.03 -163.49,75.21 -272.16,75.21 -172.41,0 -300.2,-56.41 -382.74,-169.22 -65.33,-90.51 -98.15,-204.6 -98.15,-342.59 0,-164.44 43.02,-293.51 128.75,-386.57 85.72,-93.37 194.39,-139.9 325.69,-139.9 147.23,0 263.55,48.76 348.96,146.28 85.09,97.52 125.88,246.98 122.06,448.39l-655.85 0c1.91,77.76 22.94,138.31 63.41,181.65 40.16,43.34 90.51,65.01 150.42,65.01 41.11,0 75.53,-11.15 103.26,-33.46 28.04,-22.31 49.07,-58.32 63.41,-108.04zm15.3 -265.78c-1.91,-76.17 -21.35,-134.17 -58.64,-173.68 -37.28,-39.84 -82.54,-59.6 -136.07,-59.6 -57.05,0 -104.21,21.04 -141.5,62.78 -37.29,41.75 -55.45,98.8 -54.81,170.5l391.02 0zm380.83 300.2l263.87 -40.15c11.15,50.67 33.78,89.23 68.2,115.36 34.1,26.45 82.22,39.52 143.73,39.52 67.88,0 118.86,-12.43 153.28,-37.29 22.95,-17.53 34.42,-41.11 34.42,-70.43 0,-19.76 -6.37,-36.33 -18.8,-49.39 -13.07,-12.43 -42.39,-24.22 -87.64,-34.74 -211.93,-46.85 -346.09,-89.55 -402.82,-128.11 -78.71,-53.86 -117.91,-128.43 -117.91,-223.72 0,-86.36 34.1,-158.7 101.98,-217.34 67.88,-58.64 173.04,-87.96 315.5,-87.96 135.76,0 236.78,22.31 302.75,66.61 65.96,44.61 111.54,110.26 136.39,197.26l-246.66 45.89c-10.51,-38.88 -30.91,-68.83 -60.55,-89.55 -29.64,-20.71 -72.02,-30.91 -127.15,-30.91 -69.48,0 -119.19,9.56 -149.47,29 -20.07,13.7 -29.95,31.55 -29.95,53.22 0,18.8 8.6,34.74 26.13,47.8 23.9,17.53 105.8,42.07 246.02,73.94 140.22,31.87 238.06,70.75 293.51,116.96 55.13,46.52 82.54,111.85 82.54,195.35 0,90.83 -37.92,169.22 -114.09,234.55 -75.84,65.33 -188.34,98.16 -337.48,98.16 -135.13,0 -242.21,-27.41 -321.24,-81.9 -78.71,-54.5 -130.34,-128.43 -154.56,-222.13zm1157.14 -847.06l0 -242.84 261.96 0 0 242.84 -261.96 0zm0 1126.23l0 -992.39 261.96 0 0 992.39 -261.96 0zm506.39 63.1l300.21 36.33c5.09,35.37 16.57,59.59 34.41,72.98 25.18,18.8 64.38,28.36 117.92,28.36 68.51,0 119.82,-10.2 154.24,-30.91 22.95,-13.7 40.47,-35.69 52.27,-66.29 7.96,-21.67 12.11,-62.14 12.11,-120.46l1.27 -145c-79.03,108.03 -178.46,161.89 -298.29,161.89 -133.21,0 -239.01,-56.41 -316.77,-168.9 -61.19,-88.92 -91.78,-199.82 -91.78,-332.07 0,-166.36 40.15,-293.19 120.14,-380.83 79.99,-87.64 179.74,-131.62 298.93,-131.62 122.69,0 224.03,53.86 303.7,161.57l0 -140.54 244.75 0 0 889.77c0,116.96 -9.56,204.6 -29,262.28 -19.12,58 -46.21,103.26 -81.26,136.4 -34.74,32.82 -81.27,58.96 -139.58,77.44 -58.32,18.8 -131.94,28.04 -220.85,28.04 -168.27,0 -287.46,-29 -357.89,-86.68 -70.43,-58 -105.48,-130.98 -105.48,-219.89 0,-8.61 0.32,-19.44 0.95,-31.87zm235.19 -579.37c0,105.17 20.4,181.97 60.87,230.73 40.79,48.76 91.15,73.3 150.74,73.3 63.74,0 117.91,-25.18 161.89,-75.21 44.3,-50.04 66.29,-123.97 66.29,-222.13 0,-102.61 -21.03,-178.78 -63.42,-228.49 -42.07,-49.72 -95.6,-74.58 -160.3,-74.58 -62.78,0 -114.41,24.54 -155.2,73.3 -40.47,48.76 -60.87,123.01 -60.87,223.08zm1860.17 516.27l-261.96 0 0 -505.75c0,-107.08 -5.74,-176.24 -16.89,-207.47 -11.47,-31.55 -29.64,-55.77 -55.13,-73.29 -25.5,-17.53 -56.09,-26.14 -91.79,-26.14 -45.89,0 -87,12.43 -123.33,37.29 -36.65,24.86 -61.5,58 -74.89,98.79 -13.7,41.11 -20.39,116.96 -20.39,227.86l0 448.71 -261.96 0 0 -992.39 242.84 0 0 145.64c87,-111.22 196.31,-166.67 328.56,-166.67 58,0 111.22,10.52 159.34,31.23 48.44,21.04 84.77,47.49 109.31,79.67 24.86,32.51 42.07,69.16 51.63,110.27 9.88,41.11 14.66,99.75 14.66,176.23l0 616.02z"/>
  <path id="printingText" class="fil3" d="M1119.85 9959.57l0 -1369.07 443.29 0c167.95,0 277.26,6.69 328.25,20.4 78.4,20.71 144.05,65.33 196.95,134.16 52.9,68.84 79.35,157.75 79.35,266.74 0,84.13 -15.3,154.56 -45.57,211.93 -30.6,57.36 -69.16,102.29 -116,135.12 -46.85,32.5 -94.65,54.18 -143.09,64.69 -65.97,13.07 -161.26,19.76 -286.18,19.76l-179.74 0 0 516.27 -277.26 0zm277.26 -1137.71l0 390.07 150.74 0c108.67,0 181.01,-7.32 217.66,-21.67 36.65,-14.34 65.33,-36.64 86.04,-67.56 20.72,-30.59 31.24,-65.96 31.24,-106.76 0,-50.03 -14.66,-91.14 -43.66,-123.65 -29.32,-32.5 -65.97,-52.9 -110.91,-61.18 -32.82,-6.06 -98.79,-9.25 -198.22,-9.25l-132.89 0zm1246.7 1137.71l-261.96 0 0 -992.39 242.84 0 0 140.86c41.74,-66.6 79.35,-110.26 112.81,-130.98 33.46,-20.71 71.39,-30.91 113.77,-30.91 59.92,0 117.6,16.57 173.05,49.4l-81.27 228.81c-44.29,-28.68 -85.4,-43.02 -123.33,-43.02 -36.96,0 -68.2,10.2 -93.69,30.28 -25.5,20.39 -45.57,56.72 -60.23,109.62 -14.66,52.91 -21.99,163.81 -21.99,332.39l0 305.94zm493.64 -1126.23l0 -242.84 261.96 0 0 242.84 -261.96 0zm0 1126.23l0 -992.39 261.96 0 0 992.39 -261.96 0zm1433.77 0l-261.96 0 0 -505.75c0,-107.08 -5.74,-176.24 -16.89,-207.47 -11.47,-31.55 -29.64,-55.77 -55.13,-73.29 -25.5,-17.53 -56.09,-26.14 -91.79,-26.14 -45.89,0 -87,12.43 -123.33,37.29 -36.65,24.86 -61.5,58 -74.89,98.79 -13.7,41.11 -20.39,116.96 -20.39,227.86l0 448.71 -261.96 0 0 -992.39 242.84 0 0 145.64c87,-111.22 196.31,-166.67 328.56,-166.67 58,0 111.22,10.52 159.34,31.23 48.44,21.04 84.77,47.49 109.31,79.67 24.86,32.51 42.07,69.16 51.63,110.27 9.88,41.11 14.66,99.75 14.66,176.23l0 616.02zm718.63 -992.39l0 208.42 -179.74 0 0 401.87c0,81.58 1.6,129.06 5.1,142.45 3.51,13.38 11.16,24.54 23.59,33.46 12.11,8.61 26.76,13.07 44.29,13.07 24.54,0 59.6,-8.29 105.81,-25.18l21.99 203.96c-60.87,26.13 -129.71,39.2 -206.83,39.2 -47.17,0 -89.55,-7.97 -127.48,-23.9 -37.92,-15.94 -65.64,-36.65 -83.17,-61.83 -17.85,-25.49 -29.96,-59.59 -36.97,-102.93 -5.42,-30.6 -8.29,-92.42 -8.29,-185.8l0 -434.37 -120.46 0 0 -208.42 120.46 0 0 -196.94 261.96 -154.88 0 351.82 179.74 0zm183.56 -133.84l0 -242.84 261.96 0 0 242.84 -261.96 0zm0 1126.23l0 -992.39 261.96 0 0 992.39 -261.96 0zm1433.77 0l-261.96 0 0 -505.75c0,-107.08 -5.74,-176.24 -16.89,-207.47 -11.47,-31.55 -29.64,-55.77 -55.13,-73.29 -25.5,-17.53 -56.09,-26.14 -91.79,-26.14 -45.89,0 -87,12.43 -123.33,37.29 -36.65,24.86 -61.5,58 -74.89,98.79 -13.7,41.11 -20.39,116.96 -20.39,227.86l0 448.71 -261.96 0 0 -992.39 242.84 0 0 145.64c87,-111.22 196.31,-166.67 328.56,-166.67 58,0 111.22,10.52 159.34,31.23 48.44,21.04 84.77,47.49 109.31,79.67 24.86,32.51 42.07,69.16 51.63,110.27 9.88,41.11 14.66,99.75 14.66,176.23l0 616.02zm240.6 63.1l300.21 36.33c5.09,35.37 16.57,59.59 34.41,72.98 25.18,18.8 64.38,28.36 117.92,28.36 68.51,0 119.82,-10.2 154.24,-30.91 22.95,-13.7 40.47,-35.69 52.27,-66.29 7.96,-21.67 12.11,-62.14 12.11,-120.46l1.27 -145c-79.03,108.03 -178.46,161.89 -298.29,161.89 -133.21,0 -239.01,-56.41 -316.77,-168.9 -61.19,-88.92 -91.78,-199.82 -91.78,-332.07 0,-166.36 40.15,-293.19 120.14,-380.83 79.99,-87.64 179.74,-131.62 298.93,-131.62 122.69,0 224.03,53.86 303.7,161.57l0 -140.54 244.75 0 0 889.77c0,116.96 -9.56,204.6 -29,262.28 -19.12,58 -46.21,103.26 -81.26,136.4 -34.74,32.82 -81.27,58.96 -139.58,77.44 -58.32,18.8 -131.94,28.04 -220.85,28.04 -168.27,0 -287.46,-29 -357.89,-86.68 -70.43,-58 -105.48,-130.98 -105.48,-219.89 0,-8.61 0.32,-19.44 0.95,-31.87zm235.19 -579.37c0,105.17 20.4,181.97 60.87,230.73 40.79,48.76 91.15,73.3 150.74,73.3 63.74,0 117.91,-25.18 161.89,-75.21 44.3,-50.04 66.29,-123.97 66.29,-222.13 0,-102.61 -21.03,-178.78 -63.42,-228.49 -42.07,-49.72 -95.6,-74.58 -160.3,-74.58 -62.78,0 -114.41,24.54 -155.2,73.3 -40.47,48.76 -60.87,123.01 -60.87,223.08zm1418.15 72.66l269.61 -26.77c16.25,90.19 48.76,156.16 98.16,198.54 49.39,42.39 116,63.42 199.81,63.42 88.6,0 155.52,-18.8 200.45,-56.41 44.94,-37.6 67.57,-81.58 67.57,-131.93 0,-32.51 -9.56,-59.92 -28.37,-82.86 -18.8,-22.63 -51.94,-42.39 -99.11,-58.96 -32.19,-11.47 -105.48,-31.23 -220.21,-59.91 -147.55,-36.97 -251.12,-82.22 -310.72,-136.08 -83.81,-75.53 -125.56,-167.63 -125.56,-276.3 0,-69.79 19.76,-135.44 58.96,-196.31 39.51,-60.87 96.24,-107.08 170.49,-138.95 74.26,-31.86 163.49,-47.8 268.66,-47.8 171.13,0 300.2,37.93 386.56,114.09 86.68,76.17 131.94,177.51 136.4,304.66l-277.26 9.56c-11.79,-70.74 -36.97,-121.41 -75.53,-152.33 -38.56,-30.91 -96.56,-46.53 -173.68,-46.53 -79.67,0 -142.13,16.58 -187.07,49.72 -29,21.35 -43.66,49.71 -43.66,85.41 0,32.5 13.71,60.23 41.11,83.17 34.74,29.64 119.19,60.24 253.36,92.1 134.16,31.55 233.27,64.7 297.33,98.48 64.37,34.1 114.73,80.31 151.06,139.26 36.33,58.96 54.49,131.62 54.49,217.98 0,78.4 -21.67,152.02 -65.33,220.53 -43.66,68.52 -105.16,119.51 -184.84,152.65 -79.67,33.47 -179.1,50.04 -297.97,50.04 -173.04,0 -305.93,-39.84 -398.67,-119.83 -92.74,-79.67 -147.87,-195.99 -166.04,-348.64zm1919.76 130.02l261.96 43.98c-33.46,95.93 -86.68,168.91 -159.02,219.26 -72.66,50.03 -163.49,75.21 -272.16,75.21 -172.41,0 -300.2,-56.41 -382.74,-169.22 -65.33,-90.51 -98.15,-204.6 -98.15,-342.59 0,-164.44 43.02,-293.51 128.75,-386.57 85.72,-93.37 194.39,-139.9 325.69,-139.9 147.23,0 263.55,48.76 348.96,146.28 85.09,97.52 125.88,246.98 122.06,448.39l-655.85 0c1.91,77.76 22.94,138.31 63.41,181.65 40.16,43.34 90.51,65.01 150.42,65.01 41.11,0 75.53,-11.15 103.26,-33.46 28.04,-22.31 49.07,-58.32 63.41,-108.04zm15.3 -265.78c-1.91,-76.17 -21.35,-134.17 -58.64,-173.68 -37.28,-39.84 -82.54,-59.6 -136.07,-59.6 -57.05,0 -104.21,21.04 -141.5,62.78 -37.29,41.75 -55.45,98.8 -54.81,170.5l391.02 0zm725.01 579.37l-261.96 0 0 -992.39 242.84 0 0 140.86c41.74,-66.6 79.35,-110.26 112.81,-130.98 33.46,-20.71 71.39,-30.91 113.77,-30.91 59.92,0 117.6,16.57 173.05,49.4l-81.27 228.81c-44.29,-28.68 -85.4,-43.02 -123.33,-43.02 -36.96,0 -68.2,10.2 -93.69,30.28 -25.5,20.39 -45.57,56.72 -60.23,109.62 -14.66,52.91 -21.99,163.81 -21.99,332.39l0 305.94zm766.44 0l-399.95 -992.39 275.34 0 186.75 506.4 54.18 169.22c14.34,-43.03 23.58,-71.39 27.08,-85.09 8.93,-28.05 18.17,-56.09 28.37,-84.13l189.3 -506.4 269.6 0 -394.21 992.39 -236.46 0zm790.65 -1126.23l0 -242.84 261.96 0 0 242.84 -261.96 0zm0 1126.23l0 -992.39 261.96 0 0 992.39 -261.96 0zm1395.53 -697.92l-258.14 45.89c-8.6,-51.31 -28.36,-89.87 -59.27,-116 -30.92,-25.81 -70.75,-38.88 -119.83,-38.88 -65.33,0 -117.59,22.63 -156.47,67.88 -38.88,45.25 -58.32,120.78 -58.32,226.9 0,117.92 19.75,201.09 59.27,249.85 39.52,48.76 92.42,72.98 158.71,72.98 49.71,0 90.5,-14.34 122.05,-42.7 31.87,-28.37 54.18,-77.12 67.25,-146.6l258.13 43.98c-26.77,118.55 -78.08,208.1 -153.92,268.65 -75.85,60.55 -177.51,90.83 -305.3,90.83 -144.69,0 -260.37,-45.89 -346.42,-137.36 -86.36,-91.78 -129.38,-218.61 -129.38,-380.82 0,-164.13 43.34,-291.6 129.7,-383.06 86.37,-91.47 203.32,-137.04 350.88,-137.04 120.46,0 216.38,26.13 287.77,78.08 71.06,51.95 122.05,130.98 153.29,237.42zm772.8 384.33l261.96 43.98c-33.46,95.93 -86.68,168.91 -159.02,219.26 -72.66,50.03 -163.49,75.21 -272.16,75.21 -172.41,0 -300.2,-56.41 -382.74,-169.22 -65.33,-90.51 -98.15,-204.6 -98.15,-342.59 0,-164.44 43.02,-293.51 128.75,-386.57 85.72,-93.37 194.39,-139.9 325.69,-139.9 147.23,0 263.55,48.76 348.96,146.28 85.09,97.52 125.88,246.98 122.06,448.39l-655.85 0c1.91,77.76 22.94,138.31 63.41,181.65 40.16,43.34 90.51,65.01 150.42,65.01 41.11,0 75.53,-11.15 103.26,-33.46 28.04,-22.31 49.07,-58.32 63.41,-108.04zm15.3 -265.78c-1.91,-76.17 -21.35,-134.17 -58.64,-173.68 -37.28,-39.84 -82.54,-59.6 -136.07,-59.6 -57.05,0 -104.21,21.04 -141.5,62.78 -37.29,41.75 -55.45,98.8 -54.81,170.5l391.02 0zm380.83 300.2l263.87 -40.15c11.15,50.67 33.78,89.23 68.2,115.36 34.1,26.45 82.22,39.52 143.73,39.52 67.88,0 118.86,-12.43 153.28,-37.29 22.95,-17.53 34.42,-41.11 34.42,-70.43 0,-19.76 -6.37,-36.33 -18.8,-49.39 -13.07,-12.43 -42.39,-24.22 -87.64,-34.74 -211.93,-46.85 -346.09,-89.55 -402.82,-128.11 -78.71,-53.86 -117.91,-128.43 -117.91,-223.72 0,-86.36 34.1,-158.7 101.98,-217.34 67.88,-58.64 173.04,-87.96 315.5,-87.96 135.76,0 236.78,22.31 302.75,66.61 65.96,44.61 111.54,110.26 136.39,197.26l-246.66 45.89c-10.51,-38.88 -30.91,-68.83 -60.55,-89.55 -29.64,-20.71 -72.02,-30.91 -127.15,-30.91 -69.48,0 -119.19,9.56 -149.47,29 -20.07,13.7 -29.95,31.55 -29.95,53.22 0,18.8 8.6,34.74 26.13,47.8 23.9,17.53 105.8,42.07 246.02,73.94 140.22,31.87 238.06,70.75 293.51,116.96 55.13,46.52 82.54,111.85 82.54,195.35 0,90.83 -37.92,169.22 -114.09,234.55 -75.84,65.33 -188.34,98.16 -337.48,98.16 -135.13,0 -242.21,-27.41 -321.24,-81.9 -78.71,-54.5 -130.34,-128.43 -154.56,-222.13z"/>
  <path id="graphicText" class="fil3" d="M1756.59 12155.45l0 -231.37 594.66 0 0 546.23c-57.68,56.4 -141.49,105.8 -251.44,148.82 -109.63,42.71 -220.85,64.06 -333.66,64.06 -143.09,0 -267.7,-29.96 -374.14,-90.19 -106.12,-60.23 -186.11,-146.6 -239.65,-258.45 -53.54,-111.86 -80.31,-233.92 -80.31,-365.54 0,-142.77 29.96,-269.6 89.55,-380.82 59.91,-110.91 147.23,-196.31 262.28,-255.59 87.96,-45.57 196.95,-68.2 327.61,-68.2 169.86,0 302.75,35.69 398.35,107.08 95.29,71.7 156.8,170.18 184.2,296.38l-275.34 51.62c-19.12,-67.24 -55.45,-120.46 -108.67,-159.66 -52.9,-38.88 -119.19,-58.32 -198.86,-58.32 -120.46,0 -216.39,38.25 -287.45,115.05 -71.07,76.8 -106.76,190.57 -106.76,341.31 0,162.85 36.01,284.9 108.03,366.17 72.34,81.26 166.67,122.06 283.63,122.06 57.68,0 115.68,-11.48 173.68,-34.1 58.32,-22.63 108.04,-50.36 149.78,-82.86l0 -173.68 -315.49 0zm1099.14 502.88l-261.96 0 0 -992.39 242.84 0 0 140.86c41.74,-66.6 79.35,-110.26 112.81,-130.98 33.46,-20.71 71.39,-30.91 113.77,-30.91 59.92,0 117.6,16.57 173.05,49.4l-81.27 228.81c-44.29,-28.68 -85.4,-43.02 -123.33,-43.02 -36.96,0 -68.2,10.2 -93.69,30.28 -25.5,20.39 -45.57,56.72 -60.23,109.62 -14.66,52.91 -21.99,163.81 -21.99,332.39l0 305.94zm688.68 -686.45l-237.1 -42.06c26.77,-96.88 72.97,-168.59 138.3,-215.12 65.34,-46.52 162.53,-69.79 291.28,-69.79 116.96,0 204.28,13.71 261.64,41.43 57.05,27.73 97.52,62.78 120.78,105.49 23.27,42.7 35.06,120.78 35.06,234.87l-3.82 305.93c0,87 4.14,151.38 12.42,192.81 8.29,41.43 23.91,85.72 46.85,132.89l-260.05 0c-6.69,-17.21 -15.29,-42.7 -25.17,-76.48 -4.14,-15.62 -7.33,-25.82 -9.24,-30.6 -44.62,43.98 -92.42,76.8 -143.41,98.79 -50.99,21.99 -105.17,33.15 -162.85,33.15 -101.66,0 -181.97,-27.73 -240.61,-83.18 -58.64,-55.13 -87.95,-125.24 -87.95,-210.01 0,-55.77 13.38,-105.81 40.15,-149.78 26.77,-43.66 64.06,-77.45 112.5,-100.71 48.12,-23.26 117.59,-43.66 208.42,-61.19 122.37,-22.94 207.46,-44.61 254.63,-64.37l0 -26.45c0,-50.99 -12.43,-87.32 -37.29,-109.31 -25.18,-21.67 -72.34,-32.51 -141.5,-32.51 -46.84,0 -83.17,9.25 -109.31,28.05 -26.45,18.48 -47.48,51.31 -63.73,98.15zm351.83 212.25c-33.47,11.15 -86.69,24.54 -159.67,40.15 -72.66,15.62 -120.46,30.91 -142.77,45.57 -34.1,24.54 -51.3,55.14 -51.3,92.42 0,36.97 13.7,68.52 41.11,95.29 27.4,26.77 62.14,40.15 104.52,40.15 47.17,0 92.42,-15.61 135.45,-46.53 31.55,-23.9 52.58,-52.58 62.46,-87 6.69,-22.3 10.2,-65.01 10.2,-127.79l0 -52.26zm508.93 -518.19l244.75 0 0 145.64c31.87,-49.71 74.58,-89.87 128.75,-120.78 54.18,-30.59 114.41,-45.89 180.38,-45.89 115.04,0 212.88,45.25 293.19,135.76 80.31,90.19 120.46,216.39 120.46,377.64 0,166.04 -40.47,294.79 -121.42,386.89 -80.94,92.1 -179.1,137.99 -294.46,137.99 -54.82,0 -104.53,-10.84 -149.15,-32.83 -44.29,-21.67 -91.46,-58.95 -140.54,-111.86l0 496.52 -261.96 0 0 -1369.08zm258.14 480.9c0,111.86 21.99,194.4 66.28,247.94 43.98,53.22 97.84,79.99 160.94,79.99 60.87,0 111.54,-24.54 152.01,-73.62 40.48,-49.08 60.55,-129.38 60.55,-241.24 0,-104.53 -20.71,-181.97 -62.46,-232.64 -41.43,-50.67 -93.05,-75.85 -154.56,-75.85 -64.06,0 -117.28,24.86 -159.34,74.57 -42.39,49.72 -63.42,123.33 -63.42,220.85zm1175.63 -857.58l0 507.35c85.09,-101.03 187.06,-151.7 305.3,-151.7 60.87,0 115.68,11.16 164.44,33.46 48.76,22.63 85.41,50.99 110.26,86.05 24.86,34.74 41.75,73.3 50.67,115.68 9.25,42.39 13.71,108.04 13.71,196.95l0 581.28 -261.96 0 0 -523.28c0,-103.89 -5.1,-169.86 -14.98,-197.9 -10.2,-28.05 -28.04,-50.36 -53.54,-66.61 -25.49,-16.57 -57.36,-24.86 -95.92,-24.86 -43.98,0 -83.18,10.52 -117.92,31.87 -34.73,21.03 -59.91,52.9 -75.84,95.61 -16.26,42.38 -24.22,105.48 -24.22,188.66l0 496.51 -261.96 0 0 -1369.07 261.96 0zm909.84 242.84l0 -242.84 261.96 0 0 242.84 -261.96 0zm0 1126.23l0 -992.39 261.96 0 0 992.39 -261.96 0zm1395.53 -697.92l-258.14 45.89c-8.6,-51.31 -28.36,-89.87 -59.27,-116 -30.92,-25.81 -70.75,-38.88 -119.83,-38.88 -65.33,0 -117.59,22.63 -156.47,67.88 -38.88,45.25 -58.32,120.78 -58.32,226.9 0,117.92 19.75,201.09 59.27,249.85 39.52,48.76 92.42,72.98 158.71,72.98 49.71,0 90.5,-14.34 122.05,-42.7 31.87,-28.37 54.18,-77.12 67.25,-146.6l258.13 43.98c-26.77,118.55 -78.08,208.1 -153.92,268.65 -75.85,60.55 -177.51,90.83 -305.3,90.83 -144.69,0 -260.37,-45.89 -346.42,-137.36 -86.36,-91.78 -129.38,-218.61 -129.38,-380.82 0,-164.13 43.34,-291.6 129.7,-383.06 86.37,-91.47 203.32,-137.04 350.88,-137.04 120.46,0 216.38,26.13 287.77,78.08 71.06,51.95 122.05,130.98 153.29,237.42zm732.33 -671.15l504.16 0c113.77,0 200.46,8.6 260.05,26.13 79.99,23.58 148.83,65.65 205.87,126.2 57.36,60.23 100.71,134.17 130.66,221.81 29.64,87.32 44.62,195.35 44.62,323.46 0,112.82 -14.02,209.7 -42.07,291.28 -34.1,99.75 -82.86,180.37 -146.27,241.88 -47.81,46.85 -112.5,83.18 -193.77,109.31 -60.86,19.44 -142.13,29 -244.11,29l-519.14 0 0 -1369.07zm277.26 231.36l0 906.34 205.55 0c76.8,0 132.26,-4.46 166.36,-13.06 44.93,-11.16 81.9,-30.28 111.22,-57.05 29.63,-26.77 53.54,-70.74 72.02,-131.93 18.8,-61.19 28.04,-145 28.04,-250.81 0,-105.8 -9.24,-186.75 -28.04,-243.47 -18.48,-56.73 -44.62,-100.71 -78.08,-132.58 -33.46,-31.54 -75.85,-53.22 -127.47,-64.37 -38.24,-8.6 -113.77,-13.07 -225.95,-13.07l-123.65 0zm1675.32 824.12l261.96 43.98c-33.46,95.93 -86.68,168.91 -159.02,219.26 -72.66,50.03 -163.49,75.21 -272.16,75.21 -172.41,0 -300.2,-56.41 -382.74,-169.22 -65.33,-90.51 -98.15,-204.6 -98.15,-342.59 0,-164.44 43.02,-293.51 128.75,-386.57 85.72,-93.37 194.39,-139.9 325.69,-139.9 147.23,0 263.55,48.76 348.96,146.28 85.09,97.52 125.88,246.98 122.06,448.39l-655.85 0c1.91,77.76 22.94,138.31 63.41,181.65 40.16,43.34 90.51,65.01 150.42,65.01 41.11,0 75.53,-11.15 103.26,-33.46 28.04,-22.31 49.07,-58.32 63.41,-108.04zm15.3 -265.78c-1.91,-76.17 -21.35,-134.17 -58.64,-173.68 -37.28,-39.84 -82.54,-59.6 -136.07,-59.6 -57.05,0 -104.21,21.04 -141.5,62.78 -37.29,41.75 -55.45,98.8 -54.81,170.5l391.02 0zm380.83 300.2l263.87 -40.15c11.15,50.67 33.78,89.23 68.2,115.36 34.1,26.45 82.22,39.52 143.73,39.52 67.88,0 118.86,-12.43 153.28,-37.29 22.95,-17.53 34.42,-41.11 34.42,-70.43 0,-19.76 -6.37,-36.33 -18.8,-49.39 -13.07,-12.43 -42.39,-24.22 -87.64,-34.74 -211.93,-46.85 -346.09,-89.55 -402.82,-128.11 -78.71,-53.86 -117.91,-128.43 -117.91,-223.72 0,-86.36 34.1,-158.7 101.98,-217.34 67.88,-58.64 173.04,-87.96 315.5,-87.96 135.76,0 236.78,22.31 302.75,66.61 65.96,44.61 111.54,110.26 136.39,197.26l-246.66 45.89c-10.51,-38.88 -30.91,-68.83 -60.55,-89.55 -29.64,-20.71 -72.02,-30.91 -127.15,-30.91 -69.48,0 -119.19,9.56 -149.47,29 -20.07,13.7 -29.95,31.55 -29.95,53.22 0,18.8 8.6,34.74 26.13,47.8 23.9,17.53 105.8,42.07 246.02,73.94 140.22,31.87 238.06,70.75 293.51,116.96 55.13,46.52 82.54,111.85 82.54,195.35 0,90.83 -37.92,169.22 -114.09,234.55 -75.84,65.33 -188.34,98.16 -337.48,98.16 -135.13,0 -242.21,-27.41 -321.24,-81.9 -78.71,-54.5 -130.34,-128.43 -154.56,-222.13zm1157.14 -847.06l0 -242.84 261.96 0 0 242.84 -261.96 0zm0 1126.23l0 -992.39 261.96 0 0 992.39 -261.96 0zm506.39 63.1l300.21 36.33c5.09,35.37 16.57,59.59 34.41,72.98 25.18,18.8 64.38,28.36 117.92,28.36 68.51,0 119.82,-10.2 154.24,-30.91 22.95,-13.7 40.47,-35.69 52.27,-66.29 7.96,-21.67 12.11,-62.14 12.11,-120.46l1.27 -145c-79.03,108.03 -178.46,161.89 -298.29,161.89 -133.21,0 -239.01,-56.41 -316.77,-168.9 -61.19,-88.92 -91.78,-199.82 -91.78,-332.07 0,-166.36 40.15,-293.19 120.14,-380.83 79.99,-87.64 179.74,-131.62 298.93,-131.62 122.69,0 224.03,53.86 303.7,161.57l0 -140.54 244.75 0 0 889.77c0,116.96 -9.56,204.6 -29,262.28 -19.12,58 -46.21,103.26 -81.26,136.4 -34.74,32.82 -81.27,58.96 -139.58,77.44 -58.32,18.8 -131.94,28.04 -220.85,28.04 -168.27,0 -287.46,-29 -357.89,-86.68 -70.43,-58 -105.48,-130.98 -105.48,-219.89 0,-8.61 0.32,-19.44 0.95,-31.87zm235.19 -579.37c0,105.17 20.4,181.97 60.87,230.73 40.79,48.76 91.15,73.3 150.74,73.3 63.74,0 117.91,-25.18 161.89,-75.21 44.3,-50.04 66.29,-123.97 66.29,-222.13 0,-102.61 -21.03,-178.78 -63.42,-228.49 -42.07,-49.72 -95.6,-74.58 -160.3,-74.58 -62.78,0 -114.41,24.54 -155.2,73.3 -40.47,48.76 -60.87,123.01 -60.87,223.08zm1860.17 516.27l-261.96 0 0 -505.75c0,-107.08 -5.74,-176.24 -16.89,-207.47 -11.47,-31.55 -29.64,-55.77 -55.13,-73.29 -25.5,-17.53 -56.09,-26.14 -91.79,-26.14 -45.89,0 -87,12.43 -123.33,37.29 -36.65,24.86 -61.5,58 -74.89,98.79 -13.7,41.11 -20.39,116.96 -20.39,227.86l0 448.71 -261.96 0 0 -992.39 242.84 0 0 145.64c87,-111.22 196.31,-166.67 328.56,-166.67 58,0 111.22,10.52 159.34,31.23 48.44,21.04 84.77,47.49 109.31,79.67 24.86,32.51 42.07,69.16 51.63,110.27 9.88,41.11 14.66,99.75 14.66,176.23l0 616.02z"/>
 </g>
</svg>
