<svg width="210" height="297" viewBox="0 0 210 297" fill="none" xmlns="http://www.w3.org/2000/svg">
<g id="sunflower 1" clip-path="url(#clip0)">
<g id="flBody">
<path id="Vector" d="M57.7317 298.359C101.105 154.762 81.8436 139.863 73.7977 99.5894C69.8134 79.646 61.6725 49.7541 89.4447 57.2692" stroke="black" stroke-width="2.8222" stroke-miterlimit="22.9256"/>
<path id="Vector_2" fill-rule="evenodd" clip-rule="evenodd" d="M79.3602 47.1331C79.853 49.4761 80.9816 51.3487 82.1928 52.0654C82.6488 52.3352 83.2694 50.7714 83.7194 50.6768C84.1632 50.5835 84.3917 51.9742 84.6982 51.5534C85.528 50.4144 85.8122 48.2354 85.3169 45.8804C84.6386 42.6552 82.3708 37.2946 80.7259 37.6405C79.081 37.9864 78.682 43.9079 79.3602 47.1331V47.1331Z" fill="#009933"/>
<path id="Vector_3" fill-rule="evenodd" clip-rule="evenodd" d="M81.9554 61.6264C79.7326 60.1161 77.3619 59.4811 75.8248 59.845C75.2461 59.982 75.9621 61.7293 75.672 62.1563C75.386 62.5773 74.1182 61.6311 74.1981 62.2099C74.4143 63.7768 75.8814 65.7595 78.1157 67.2776C81.1756 69.3567 87.1832 71.9241 88.2436 70.3635C89.3039 68.8029 85.0153 63.7054 81.9554 61.6264Z" fill="#009933"/>
<path id="Vector_4" fill-rule="evenodd" clip-rule="evenodd" d="M81.9554 73.5526C79.7326 72.0423 77.3619 71.4073 75.8248 71.7712C75.2461 71.9081 75.9621 73.6555 75.672 74.0825C75.386 74.5035 74.1182 73.5572 74.1981 74.1361C74.4143 75.703 75.8814 77.6857 78.1157 79.2038C81.1756 81.2828 87.1832 83.8503 88.2436 82.2897C89.3039 80.7291 85.0153 75.6316 81.9554 73.5526V73.5526Z" fill="#009933"/>
<path id="Vector_5" fill-rule="evenodd" clip-rule="evenodd" d="M81.9959 82.8459C79.5044 81.8387 77.0532 81.7183 75.6274 82.3983C75.0906 82.6543 76.1593 84.2112 75.9658 84.6898C75.775 85.1617 74.3361 84.5043 74.5364 85.0532C75.0784 86.5392 76.9308 88.1677 79.4351 89.1801C82.8648 90.5667 89.279 91.8086 89.9861 90.0594C90.6933 88.3102 85.4256 84.2324 81.9959 82.8459Z" fill="#009933"/>
<path id="Vector_6" fill-rule="evenodd" clip-rule="evenodd" d="M84.8706 93.014C82.3792 92.0068 79.9279 91.8864 78.5022 92.5664C77.9653 92.8225 79.034 94.3794 78.8405 94.8579C78.6498 95.3299 77.2109 94.6724 77.4111 95.2213C77.9531 96.7073 79.8055 98.3359 82.3099 99.3483C85.7395 100.735 92.1537 101.977 92.8608 100.228C93.568 98.4783 88.3003 94.4006 84.8706 93.014Z" fill="#009933"/>
<path id="Vector_7" fill-rule="evenodd" clip-rule="evenodd" d="M87.7454 103.182C85.2539 102.175 82.8026 102.055 81.3769 102.735C80.8401 102.991 81.9087 104.548 81.7153 105.026C81.5245 105.498 80.0856 104.841 80.2859 105.39C80.8278 106.876 82.6803 108.504 85.1846 109.516C88.6143 110.903 95.0284 112.145 95.7356 110.396C96.4427 108.647 91.1751 104.569 87.7454 103.182Z" fill="#009933"/>
<path id="Vector_8" fill-rule="evenodd" clip-rule="evenodd" d="M90.6201 113.35C88.1286 112.343 85.6773 112.223 84.2516 112.903C83.7148 113.159 84.7835 114.716 84.59 115.194C84.3992 115.666 82.9603 115.009 83.1606 115.558C83.7026 117.044 85.555 118.672 88.0593 119.685C91.489 121.071 97.9031 122.313 98.6103 120.564C99.3175 118.815 94.0498 114.737 90.6201 113.35Z" fill="#009933"/>
<path id="Vector_9" fill-rule="evenodd" clip-rule="evenodd" d="M93.4948 123.518C91.0034 122.511 88.5521 122.391 87.1264 123.071C86.5895 123.327 87.6582 124.884 87.4647 125.362C87.2739 125.834 85.8351 125.177 86.0353 125.726C86.5773 127.212 88.4297 128.84 90.9341 129.853C94.3637 131.239 100.778 132.481 101.485 130.732C102.192 128.983 96.9245 124.905 93.4948 123.518V123.518Z" fill="#009933"/>
<path id="Vector_10" fill-rule="evenodd" clip-rule="evenodd" d="M94.8693 132.975C92.3779 131.968 89.9266 131.848 88.5009 132.528C87.964 132.784 89.0327 134.341 88.8392 134.819C88.6484 135.291 87.2096 134.634 87.4098 135.183C87.9518 136.669 89.8042 138.297 92.3086 139.31C95.7382 140.696 102.152 141.938 102.859 140.189C103.567 138.44 98.299 134.362 94.8693 132.975V132.975Z" fill="#009933"/>
<path id="Vector_11" fill-rule="evenodd" clip-rule="evenodd" d="M95.6549 142.432C93.1635 141.425 90.7122 141.304 89.2865 141.984C88.7496 142.24 89.8183 143.797 89.6248 144.276C89.434 144.748 87.9951 144.09 88.1954 144.639C88.7374 146.125 90.5898 147.754 93.0941 148.766C96.5238 150.153 102.938 151.395 103.645 149.645C104.352 147.896 99.0846 143.819 95.6549 142.432Z" fill="#009933"/>
<path id="Vector_12" fill-rule="evenodd" clip-rule="evenodd" d="M96.2933 151.889C93.8018 150.881 91.3505 150.761 89.9248 151.441C89.388 151.697 90.4567 153.254 90.2632 153.733C90.0724 154.205 88.6335 153.547 88.8338 154.096C89.3758 155.582 91.2282 157.211 93.7325 158.223C97.1622 159.609 103.576 160.851 104.283 159.102C104.991 157.353 99.723 153.275 96.2933 151.889Z" fill="#009933"/>
<path id="Vector_13" fill-rule="evenodd" clip-rule="evenodd" d="M96.3428 161.346C93.8513 160.338 91.4 160.218 89.9743 160.898C89.4375 161.154 90.5061 162.711 90.3127 163.189C90.1219 163.661 88.683 163.004 88.8833 163.553C89.4252 165.039 91.2777 166.667 93.782 167.68C97.2117 169.066 103.626 170.308 104.333 168.559C105.04 166.81 99.7725 162.732 96.3428 161.346V161.346Z" fill="#009933"/>
<path id="Vector_14" fill-rule="evenodd" clip-rule="evenodd" d="M95.9506 170.802C93.4591 169.795 91.0078 169.675 89.5821 170.355C89.0452 170.611 90.1139 172.168 89.9205 172.646C89.7297 173.118 88.2908 172.461 88.4911 173.01C89.033 174.496 90.8855 176.124 93.3898 177.137C96.8195 178.523 103.234 179.765 103.941 178.016C104.648 176.267 99.3802 172.189 95.9506 170.802Z" fill="#009933"/>
<path id="Vector_15" fill-rule="evenodd" clip-rule="evenodd" d="M95.1167 180.259C92.6252 179.252 90.1739 179.131 88.7482 179.811C88.2114 180.067 89.28 181.624 89.0866 182.103C88.8958 182.575 87.4569 181.917 87.6572 182.466C88.1991 183.952 90.0516 185.581 92.5559 186.593C95.9856 187.98 102.4 189.222 103.107 187.473C103.814 185.723 98.5464 181.646 95.1167 180.259V180.259Z" fill="#009933"/>
<path id="Vector_16" fill-rule="evenodd" clip-rule="evenodd" d="M93.3994 189.716C90.908 188.709 88.4567 188.588 87.031 189.268C86.4941 189.524 87.5628 191.081 87.3693 191.56C87.1785 192.032 85.7397 191.374 85.9399 191.923C86.4819 193.409 88.3343 195.038 90.8387 196.05C94.2683 197.436 100.682 198.678 101.39 196.929C102.097 195.18 96.8291 191.102 93.3994 189.716V189.716Z" fill="#009933"/>
<path id="Vector_17" fill-rule="evenodd" clip-rule="evenodd" d="M91.535 199.172C89.0435 198.165 86.5922 198.045 85.1665 198.725C84.6296 198.981 85.6983 200.538 85.5049 201.016C85.3141 201.488 83.8752 200.831 84.0755 201.38C84.6174 202.866 86.4699 204.494 88.9742 205.507C92.4039 206.893 98.818 208.135 99.5252 206.386C100.232 204.637 94.9646 200.559 91.535 199.172V199.172Z" fill="#009933"/>
<path id="Vector_18" fill-rule="evenodd" clip-rule="evenodd" d="M89.7441 208.629C87.2526 207.622 84.8014 207.502 83.3756 208.182C82.8388 208.438 83.9075 209.995 83.714 210.473C83.5232 210.945 82.0843 210.288 82.2846 210.837C82.8266 212.323 84.679 213.951 87.1833 214.963C90.613 216.35 97.0271 217.592 97.7343 215.843C98.4415 214.093 93.1738 210.016 89.7441 208.629Z" fill="#009933"/>
<path id="Vector_19" fill-rule="evenodd" clip-rule="evenodd" d="M87.4325 48.2082C86.8898 50.4017 87.0805 52.4565 87.8158 53.5626C88.0927 53.9791 89.2618 52.9047 89.6832 53.0089C90.0987 53.1117 89.7222 54.3875 90.1554 54.1557C91.328 53.5281 92.4638 51.7928 93.0093 49.5879C93.7563 46.5684 94.0287 41.0817 92.4887 40.7006C90.9487 40.3196 88.1795 45.1886 87.4325 48.2082V48.2082Z" fill="#009933"/>
<path id="Vector_20" fill-rule="evenodd" clip-rule="evenodd" d="M70.9068 50.043C72.4402 52.0306 74.3597 53.2842 75.8299 53.4087C76.3835 53.4556 76.2566 51.6962 76.6383 51.4016C77.0148 51.1112 77.8646 52.3202 77.9622 51.7831C78.2264 50.3294 77.5013 48.1424 75.96 46.1446C73.8492 43.4085 69.2641 39.3809 67.8687 40.4575C66.4732 41.534 68.796 47.307 70.9068 50.043V50.043Z" fill="#009933"/>
<path id="Vector_21" fill-rule="evenodd" clip-rule="evenodd" d="M63.8798 57.1224C66.2123 58.2892 68.5744 58.5951 70.0061 58.0473C70.5453 57.8411 69.6317 56.2524 69.8558 55.8044C70.0768 55.3626 71.4181 56.1098 71.2667 55.5632C70.8572 54.0838 69.1909 52.3653 66.8464 51.1924C63.6356 49.5861 57.5265 47.8892 56.7073 49.5268C55.888 51.1644 60.669 55.5161 63.8798 57.1224V57.1224Z" fill="#009933"/>
<path id="Vector_22" fill-rule="evenodd" clip-rule="evenodd" d="M59.8245 67.7005C62.5116 67.7382 64.8405 66.9637 65.9236 65.814C66.3315 65.3811 64.772 64.3162 64.7792 63.8001C64.7864 63.2911 66.3657 63.3835 65.9804 62.9442C64.9375 61.7549 62.6214 60.9068 59.9205 60.8688C56.2215 60.8169 49.7925 61.9794 49.766 63.866C49.7395 65.7525 56.1256 67.6485 59.8245 67.7005V67.7005Z" fill="#009933"/>
<path id="Vector_23" fill-rule="evenodd" clip-rule="evenodd" d="M59.8245 79.6267C62.5116 79.6644 64.8405 78.8899 65.9236 77.7402C66.3315 77.3073 64.772 76.2424 64.7792 75.7262C64.7864 75.2173 66.3657 75.3097 65.9804 74.8704C64.9375 73.6811 62.6214 72.8329 59.9205 72.795C56.2215 72.7431 49.7925 73.9056 49.766 75.7922C49.7395 77.6787 56.1256 79.5747 59.8245 79.6267V79.6267Z" fill="#009933"/>
<path id="Vector_24" fill-rule="evenodd" clip-rule="evenodd" d="M61.6451 93.4532C64.2796 92.9231 66.3926 91.6746 67.2088 90.3222C67.5161 89.813 65.767 89.1012 65.6652 88.5951C65.5647 88.0961 67.128 87.8532 66.6586 87.505C65.3883 86.5626 62.9454 86.2223 60.2973 86.7552C56.6706 87.485 50.6317 89.9779 51.0039 91.8276C51.3761 93.6773 58.0184 94.183 61.6451 93.4532Z" fill="#009933"/>
<path id="Vector_25" fill-rule="evenodd" clip-rule="evenodd" d="M64.5198 103.621C67.1544 103.091 69.2673 101.843 70.0835 100.49C70.3908 99.9811 68.6417 99.2693 68.5399 98.7633C68.4395 98.2642 70.0027 98.0213 69.5334 97.6732C68.2631 96.7307 65.8201 96.3905 63.172 96.9233C59.5453 97.6531 53.5064 100.146 53.8786 101.996C54.2508 103.845 60.8932 104.351 64.5198 103.621V103.621Z" fill="#009933"/>
<path id="Vector_26" fill-rule="evenodd" clip-rule="evenodd" d="M67.3946 113.79C70.0291 113.259 72.1421 112.011 72.9582 110.658C73.2656 110.149 71.5164 109.437 71.4146 108.931C71.3142 108.432 72.8774 108.189 72.4081 107.841C71.1378 106.899 68.6949 106.559 66.0467 107.092C62.4201 107.821 56.3812 110.314 56.7534 112.164C57.1256 114.014 63.7679 114.519 67.3946 113.79Z" fill="#009933"/>
<path id="Vector_27" fill-rule="evenodd" clip-rule="evenodd" d="M69.2387 123.958C71.8733 123.428 73.9862 122.179 74.8024 120.827C75.1097 120.317 73.3606 119.606 73.2588 119.1C73.1583 118.601 74.7216 118.358 74.2522 118.01C72.9819 117.067 70.539 116.727 67.8909 117.26C64.2642 117.989 58.2253 120.482 58.5975 122.332C58.9697 124.182 65.612 124.687 69.2387 123.958V123.958Z" fill="#009933"/>
<path id="Vector_28" fill-rule="evenodd" clip-rule="evenodd" d="M72.1134 134.126C74.748 133.596 76.8609 132.347 77.6771 130.995C77.9844 130.486 76.2353 129.774 76.1335 129.268C76.0331 128.769 77.5963 128.526 77.127 128.178C75.8567 127.235 73.4138 126.895 70.7656 127.428C67.139 128.158 61.1 130.651 61.4722 132.5C61.8444 134.35 68.4868 134.856 72.1134 134.126Z" fill="#009933"/>
<path id="Vector_29" fill-rule="evenodd" clip-rule="evenodd" d="M73.4879 143.583C76.1225 143.052 78.2354 141.804 79.0516 140.451C79.3589 139.942 77.6098 139.23 77.508 138.724C77.4076 138.225 78.9708 137.983 78.5015 137.634C77.2312 136.692 74.7883 136.352 72.1401 136.884C68.5135 137.614 62.4745 140.107 62.8467 141.957C63.2189 143.807 69.8613 144.312 73.4879 143.583V143.583Z" fill="#009933"/>
<path id="Vector_30" fill-rule="evenodd" clip-rule="evenodd" d="M74.2735 153.039C76.9081 152.509 79.021 151.261 79.8372 149.908C80.1445 149.399 78.3954 148.687 78.2936 148.181C78.1932 147.682 79.7564 147.439 79.2871 147.091C78.0168 146.149 75.5739 145.808 72.9257 146.341C69.2991 147.071 63.2601 149.564 63.6323 151.414C64.0045 153.263 70.6469 153.769 74.2735 153.039Z" fill="#009933"/>
<path id="Vector_31" fill-rule="evenodd" clip-rule="evenodd" d="M74.9119 162.496C77.5465 161.966 79.6594 160.717 80.4756 159.365C80.7829 158.856 79.0338 158.144 78.932 157.638C78.8315 157.139 80.3948 156.896 79.9254 156.548C78.6551 155.605 76.2122 155.265 73.5641 155.798C69.9374 156.528 63.8985 159.021 64.2707 160.87C64.6429 162.72 71.2852 163.226 74.9119 162.496V162.496Z" fill="#009933"/>
<path id="Vector_32" fill-rule="evenodd" clip-rule="evenodd" d="M74.9614 171.953C77.5959 171.423 79.7089 170.174 80.525 168.822C80.8324 168.313 79.0833 167.601 78.9814 167.095C78.881 166.596 80.4442 166.353 79.9749 166.005C78.7046 165.062 76.2617 164.722 73.6135 165.255C69.9869 165.985 63.948 168.478 64.3202 170.327C64.6924 172.177 71.3347 172.683 74.9614 171.953V171.953Z" fill="#009933"/>
<path id="Vector_33" fill-rule="evenodd" clip-rule="evenodd" d="M74.5692 181.41C77.2037 180.879 79.3167 179.631 80.1328 178.279C80.4402 177.769 78.691 177.058 78.5892 176.552C78.4888 176.053 80.052 175.81 79.5827 175.461C78.3124 174.519 75.8695 174.179 73.2213 174.712C69.5947 175.441 63.5558 177.934 63.928 179.784C64.3002 181.634 70.9425 182.139 74.5692 181.41Z" fill="#009933"/>
<path id="Vector_34" fill-rule="evenodd" clip-rule="evenodd" d="M73.7353 190.866C76.3698 190.336 78.4828 189.088 79.2989 187.735C79.6063 187.226 77.8572 186.514 77.7553 186.008C77.6549 185.509 79.2181 185.266 78.7488 184.918C77.4785 183.976 75.0356 183.635 72.3875 184.168C68.7608 184.898 62.7219 187.391 63.0941 189.241C63.4663 191.09 70.1086 191.596 73.7353 190.866V190.866Z" fill="#009933"/>
<path id="Vector_35" fill-rule="evenodd" clip-rule="evenodd" d="M72.018 200.323C74.6526 199.793 76.7655 198.544 77.5817 197.192C77.889 196.683 76.1399 195.971 76.0381 195.465C75.9377 194.966 77.5009 194.723 77.0316 194.375C75.7613 193.432 73.3184 193.092 70.6702 193.625C67.0436 194.355 61.0046 196.848 61.3768 198.698C61.749 200.547 68.3914 201.053 72.018 200.323V200.323Z" fill="#009933"/>
<path id="Vector_36" fill-rule="evenodd" clip-rule="evenodd" d="M70.1536 209.78C72.7881 209.25 74.9011 208.001 75.7172 206.649C76.0246 206.14 74.2755 205.428 74.1736 204.922C74.0732 204.423 75.6364 204.18 75.1671 203.832C73.8968 202.889 71.4539 202.549 68.8057 203.082C65.1791 203.812 59.1402 206.305 59.5124 208.154C59.8846 210.004 66.5269 210.51 70.1536 209.78V209.78Z" fill="#009933"/>
<g id="flHead">
<path id="Vector_37" fill-rule="evenodd" clip-rule="evenodd" d="M96.2028 50.9645C95.6601 53.1581 95.8509 55.2129 96.5862 56.319C96.863 56.7355 98.0322 55.661 98.4535 55.7653C98.869 55.8681 98.4925 57.1439 98.9257 56.912C100.098 56.2845 101.234 54.5491 101.78 52.3443C102.527 49.3247 102.799 43.838 101.259 43.457C99.719 43.076 96.9499 47.945 96.2028 50.9645V50.9645Z" fill="#FFFF00"/>
<path id="Vector_38" fill-rule="evenodd" clip-rule="evenodd" d="M93.3271 51.5871C93.5325 53.8642 94.3935 55.7664 95.462 56.5814C95.8643 56.8883 96.6277 55.4747 97.0651 55.4352C97.4964 55.3963 97.5576 56.7408 97.8954 56.376C98.8096 55.3886 99.3228 53.3539 99.1164 51.065C98.8337 47.9304 97.2824 42.593 95.6837 42.7372C94.085 42.8813 93.0445 48.4525 93.3271 51.5871Z" fill="#FFFF00"/>
<path id="Vector_39" fill-rule="evenodd" clip-rule="evenodd" d="M90.7833 53.133C91.7316 55.2427 93.183 56.7774 94.4739 57.204C94.9599 57.3647 95.2232 55.7608 95.6284 55.5786C96.028 55.399 96.5305 56.6645 96.733 56.2041C97.2813 54.958 97.1001 52.8429 96.147 50.7223C94.8417 47.8181 91.5959 43.2263 90.1147 43.8921C88.6335 44.5578 89.478 50.2288 90.7833 53.133V53.133Z" fill="#FFFF00"/>
<path id="Vector_40" fill-rule="evenodd" clip-rule="evenodd" d="M88.8624 55.4519C90.4655 57.156 92.36 58.1442 93.7351 58.1259C94.2529 58.119 93.975 56.4986 94.3024 56.1907C94.6251 55.887 95.5234 56.9311 95.565 56.4241C95.6778 55.0516 94.8063 53.089 93.1949 51.3761C90.9881 49.0302 86.3687 45.7115 85.1723 46.837C83.9758 47.9625 86.6556 53.106 88.8624 55.4519V55.4519Z" fill="#FFFF00"/>
<path id="Vector_41" fill-rule="evenodd" clip-rule="evenodd" d="M87.7923 58.3034C89.8874 59.4034 92.0248 59.7228 93.3333 59.2514C93.8261 59.0739 93.0255 57.6165 93.2368 57.214C93.4452 56.8172 94.6486 57.5188 94.521 57.0203C94.1758 55.671 92.6948 54.0824 90.5888 52.9768C87.7047 51.4626 82.193 49.8147 81.4207 51.2856C80.6484 52.7566 84.9082 56.7892 87.7923 58.3034V58.3034Z" fill="#FFFF00"/>
<path id="Vector_42" fill-rule="evenodd" clip-rule="evenodd" d="M87.7118 61.3826C90.0776 61.7425 92.226 61.3424 93.3213 60.4598C93.7337 60.1275 92.4875 58.9986 92.5566 58.5442C92.6248 58.0961 94.0067 58.3696 93.7202 57.9352C92.9449 56.7593 91.0049 55.7296 88.6269 55.3678C85.3702 54.8723 79.5577 55.1163 79.305 56.7773C79.0522 58.4383 84.4551 60.8871 87.7118 61.3826V61.3826Z" fill="#FFFF00"/>
<path id="Vector_43" fill-rule="evenodd" clip-rule="evenodd" d="M88.652 64.3518C91.0319 63.9151 92.9534 62.8236 93.7089 61.6186C93.9934 61.1649 92.4297 60.4972 92.3458 60.0401C92.2631 59.5893 93.6742 59.3946 93.257 59.074C92.1279 58.206 89.9339 57.8621 87.5417 58.3011C84.2655 58.9023 78.7906 61.0537 79.0972 62.7246C79.4038 64.3955 85.3758 64.953 88.652 64.3518V64.3518Z" fill="#FFFF00"/>
<path id="Vector_44" fill-rule="evenodd" clip-rule="evenodd" d="M90.5315 66.8788C92.6618 65.6761 94.1379 63.999 94.4623 62.5982C94.5845 62.0707 92.8698 61.9486 92.6388 61.5394C92.411 61.1359 93.6952 60.4843 93.1908 60.3155C91.8253 59.8586 89.6151 60.2539 87.4738 61.4628C84.5413 63.1184 80.0191 66.981 80.8635 68.4766C81.7078 69.9723 87.599 68.5344 90.5315 66.8788V66.8788Z" fill="#FFFF00"/>
<path id="Vector_45" fill-rule="evenodd" clip-rule="evenodd" d="M93.1619 68.6725C94.8006 66.8204 95.6577 64.7309 95.5056 63.2853C95.4483 62.741 93.7695 63.19 93.4138 62.8752C93.063 62.5648 94.0751 61.5184 93.5374 61.5236C92.0819 61.5375 90.1004 62.6445 88.4532 64.5061C86.1973 67.0557 83.1505 72.2386 84.4508 73.3892C85.7511 74.5397 90.906 71.2221 93.1619 68.6725V68.6725Z" fill="#FFFF00"/>
<path id="Vector_46" fill-rule="evenodd" clip-rule="evenodd" d="M96.267 69.5173C97.2217 67.2071 97.3513 64.928 96.729 63.597C96.4947 63.0958 95.0389 64.0787 94.5952 63.8953C94.1576 63.7144 94.7794 62.3808 94.2674 62.5631C92.8813 63.0566 91.3533 64.7679 90.3936 67.09C89.0794 70.2701 87.8782 76.2272 89.5002 76.8975C91.1221 77.5678 94.9527 72.6974 96.267 69.5173V69.5173Z" fill="#FFFF00"/>
<path id="Vector_47" fill-rule="evenodd" clip-rule="evenodd" d="M99.5123 69.2988C99.6623 66.7769 99.0343 64.5568 98.0008 63.4906C97.6116 63.0891 96.5451 64.5082 96.0607 64.4794C95.583 64.451 95.7371 62.9718 95.3081 63.3149C94.1467 64.2435 93.2515 66.3824 93.1007 68.9173C92.8941 72.3889 93.7116 78.4761 95.4822 78.5814C97.2528 78.6868 99.3057 72.7704 99.5123 69.2988Z" fill="#FFFF00"/>
<path id="Vector_48" fill-rule="evenodd" clip-rule="evenodd" d="M102.54 68.0189C101.852 65.5605 100.52 63.647 99.1806 62.9694C98.6765 62.7142 98.1257 64.4216 97.6535 64.5538C97.1879 64.6842 96.8472 63.2204 96.5506 63.6897C95.7475 64.9597 95.5978 67.2981 96.2898 69.7693C97.2375 73.1535 100.026 78.6984 101.752 78.2151C103.478 77.7317 103.488 71.4032 102.54 68.0189Z" fill="#FFFF00"/>
<path id="Vector_49" fill-rule="evenodd" clip-rule="evenodd" d="M105.009 65.7968C103.541 63.6758 101.637 62.2875 100.135 62.0818C99.5694 62.0044 99.6065 63.8167 99.199 64.0988C98.7973 64.3769 97.9892 63.0911 97.8606 63.6371C97.5124 65.115 98.1407 67.3979 99.6165 69.5299C101.638 72.4496 106.13 76.826 107.619 75.7951C109.108 74.7642 107.03 68.7166 105.009 65.7968Z" fill="#FFFF00"/>
<path id="Vector_50" fill-rule="evenodd" clip-rule="evenodd" d="M106.633 62.8603C104.532 61.3188 102.256 60.6207 100.754 60.9196C100.188 61.0322 100.821 62.7508 100.525 63.1545C100.233 63.5526 99.0371 62.5911 99.0944 63.155C99.2492 64.6812 100.602 66.6542 102.714 68.2036C105.608 70.3255 111.341 73.0237 112.423 71.5481C113.505 70.0726 109.527 64.9822 106.633 62.8603Z" fill="#FFFF00"/>
<path id="Vector_51" fill-rule="evenodd" clip-rule="evenodd" d="M107.215 59.5199C104.7 58.7409 102.297 58.8245 100.961 59.6054C100.458 59.8995 101.629 61.3319 101.479 61.815C101.332 62.2914 99.8728 61.7675 100.113 62.2871C100.765 63.6934 102.707 65.1314 105.235 65.9144C108.697 66.9867 115.061 67.6729 115.608 65.9071C116.155 64.1413 110.678 60.5922 107.215 59.5199V59.5199Z" fill="#FFFF00"/>
<path id="Vector_52" fill-rule="evenodd" clip-rule="evenodd" d="M106.669 56.1388C104.01 56.2243 101.743 57.0964 100.725 58.2825C100.341 58.7291 101.932 59.7107 101.948 60.2213C101.965 60.7248 100.399 60.7056 100.8 61.1223C101.885 62.2505 104.214 62.9832 106.886 62.8973C110.545 62.7797 116.848 61.3367 116.788 59.4703C116.728 57.604 110.328 56.0212 106.669 56.1388V56.1388Z" fill="#FFFF00"/>
<path id="Vector_53" fill-rule="evenodd" clip-rule="evenodd" d="M105.031 53.0914C102.521 54.0493 100.644 55.6293 100.063 57.0974C99.8441 57.6502 101.686 58.063 101.87 58.5451C102.052 59.0205 100.551 59.5182 101.071 59.7839C102.479 60.5032 104.943 60.4351 107.466 59.4723C110.921 58.1537 116.463 54.6982 115.79 52.9362C115.118 51.1741 108.486 51.7728 105.031 53.0914V53.0914Z" fill="#FFFF00"/>
<path id="Vector_54" fill-rule="evenodd" clip-rule="evenodd" d="M102.462 50.7227C100.382 52.4644 99.1112 54.5913 99.0403 56.1844C99.0136 56.7842 100.908 56.5711 101.243 56.9707C101.572 57.3647 100.304 58.3346 100.888 58.4168C102.469 58.6393 104.799 57.7619 106.89 56.0112C109.754 53.6137 113.905 48.4884 112.682 47.0279C111.46 45.5675 105.326 48.3251 102.462 50.7227V50.7227Z" fill="#FFFF00"/>
<path id="Vector_55" fill-rule="evenodd" clip-rule="evenodd" d="M98.7281 49.9357C97.3166 52.2838 96.8044 54.7328 97.2618 56.2768C97.434 56.8582 99.1721 56.0304 99.6231 56.3016C100.068 56.5689 99.1764 57.9129 99.7611 57.7988C101.344 57.4901 103.279 55.8845 104.698 53.5243C106.641 50.292 108.914 44.0315 107.266 43.0405C105.617 42.0495 100.671 46.7034 98.7281 49.9357Z" fill="#FFFF00"/>
<path id="Vector_56" d="M96.9254 66.1603C101.443 66.1603 105.105 63.2984 105.105 59.768C105.105 56.2376 101.443 53.3757 96.9254 53.3757C92.4079 53.3757 88.7457 56.2376 88.7457 59.768C88.7457 63.2984 92.4079 66.1603 96.9254 66.1603Z" fill="#663333" stroke="black" stroke-width="0.2" stroke-miterlimit="22.9256"/>
</g>
</g>
</g>
<defs>
<clipPath id="clip0">
<rect width="210" height="297" fill="white"/>
</clipPath>
</defs>
</svg>
