<?xml version="1.0" encoding="UTF-8"?>
<!DOCTYPE svg PUBLIC "-//W3C//DTD SVG 1.1//EN" "http://www.w3.org/Graphics/SVG/1.1/DTD/svg11.dtd">
<!-- Creator: CorelDRAW 2019 (64-Bit Evaluation Version) -->
<svg xmlns="http://www.w3.org/2000/svg" xml:space="preserve" width="210mm" height="210mm" version="1.1" style="shape-rendering:geometricPrecision; text-rendering:geometricPrecision; image-rendering:optimizeQuality; fill-rule:evenodd; clip-rule:evenodd"
viewBox="0 0 21000 21000"
 xmlns:xlink="http://www.w3.org/1999/xlink"
 xmlns:xodm="http://www.corel.com/coreldraw/odm/2003">
 <defs>
  <style type="text/css">
   <![CDATA[
    .fil0 {fill:#55ACED}
   ]]>
  </style>
 </defs>
 <g id="Layer_x0020_1">
  <metadata id="CorelCorpID_0Corel-Layer"/>
  <path class="fil0" d="M3785.87 8118.61l0 0zm10317.52 -5760.31l770.86 0c142.49,14.05 285.56,35.87 428.76,66.13 1258.07,265.79 1524.94,800.63 2007.11,1123.51 455.4,-106.1 888.55,-225.76 1306.85,-383.67 327.52,-123.63 812.26,-384.75 1135,-555.52 -109.55,470.29 -378.24,901.8 -634.35,1244.01 -143.18,191.33 -260.75,333.18 -448.22,490.95 -160.61,135.17 -372.99,244.09 -482.73,393.86 797.64,-185.83 1415.95,-282.06 2066.21,-626.12 -70.7,303.45 -607.52,891.53 -829.49,1111.48 -320.92,318.03 -649.26,680.64 -1048.88,892.1 0,1345.02 -97.15,2302.11 -388.06,3368.66 -354.35,1299.17 -803.09,2175.81 -1453.65,3242.27 -941.81,1543.91 -2828.45,3220.28 -4490.77,3899.24 -475.14,194.07 -842.34,364.17 -1368.58,509.78 -950.07,262.9 -1967.34,414 -2992.17,438.06l-574.8 0c-1528.4,-35.61 -3048.91,-359.5 -4364.26,-1022.54l-1210.38 -730.61c358.72,0 477.53,64.27 875.93,64.93 690.15,1.11 1741.58,-173.77 2325.73,-369.54 507.15,-169.98 831.19,-301.75 1286.32,-529.44 286.34,-143.27 930.9,-521.59 1084.5,-731.23 -1795.31,0 -3419.13,-1645.09 -3506.27,-2692.33 401.5,33.41 1191.74,174.41 1565.3,-62.61 -1600.34,-372.83 -2942.78,-1840.55 -2942.78,-3819.34 415.34,96.75 703.7,438.28 1565.3,438.28 -217.3,-324.51 -586.58,-574.78 -860.44,-955.3 -520.73,-723.51 -791.16,-1895.54 -618.29,-2840.07 97.2,-531.07 269.9,-884.95 476.94,-1276.21 207.41,138.89 199.98,207.39 360.55,390.79 121.05,138.27 241.93,243.04 375.15,376.21 139.34,139.29 232.54,240.37 374.41,376.95l1269.16 984.87c151.84,101.17 286.94,196.2 449.82,301.51 1065.89,689.16 2518.26,1178.45 3781.29,1415.53 340.35,63.89 938.03,161.32 1278.75,161.32 0,-1004.46 -251,-1384.36 395.66,-2672.34 560.75,-1116.83 1725.25,-1894.57 3034.52,-2023.57z"/>
 </g>
</svg>
