<?xml version="1.0" encoding="UTF-8"?>
<!DOCTYPE svg PUBLIC "-//W3C//DTD SVG 1.1//EN" "http://www.w3.org/Graphics/SVG/1.1/DTD/svg11.dtd">
<!-- Creator: CorelDRAW 2019 (64-Bit Evaluation Version) -->
<svg xmlns="http://www.w3.org/2000/svg" xml:space="preserve" width="200mm" height="30mm" version="1.1" style="shape-rendering:geometricPrecision; text-rendering:geometricPrecision; image-rendering:optimizeQuality; fill-rule:evenodd; clip-rule:evenodd"
viewBox="0 0 20000 3000"
 xmlns:xlink="http://www.w3.org/1999/xlink"
 xmlns:xodm="http://www.corel.com/coreldraw/odm/2003">
 <defs>
  <style type="text/css">
   <![CDATA[
    .str0 {stroke:#373435;stroke-width:20;stroke-miterlimit:22.9256}
    .fil0 {fill:#3E2D44}
    .fil1 {fill:#ED3237;fill-rule:nonzero}
   ]]>
  </style>
 </defs>
 <g id="Layer_x0020_1">
  <metadata id="CorelCorpID_0Corel-Layer"/>
  <path id="webDesign1" class="fil0 str0" d="M992.24 171.33l18174.32 0 -2097.02 2563.04 -16077.3 0 0 -2563.04z"/>
  <path id="webText1" class="fil1" d="M2131.58 2097.97l-364.13 -1548.84 322.31 0 230.38 1063.93 282.66 -1063.93 372.79 0 270.39 1081.95 235.79 -1081.95 314.74 0 -373.15 1548.84 -334.93 0 -305.37 -1158.02 -307.53 1158.02 -343.95 0zm2436.82 -354.76l296.36 49.75c-37.86,108.52 -98.07,191.08 -179.91,248.05 -82.2,56.6 -184.95,85.08 -307.89,85.08 -195.05,0 -339.62,-63.81 -433,-191.44 -73.9,-102.39 -111.04,-231.46 -111.04,-387.57 0,-186.03 48.67,-332.05 145.66,-437.32 96.98,-105.64 219.92,-158.28 368.46,-158.28 166.56,0 298.16,55.17 394.78,165.49 96.26,110.32 142.41,279.41 138.08,507.26l-741.97 0c2.16,87.97 25.96,156.47 71.75,205.51 45.42,49.03 102.39,73.54 170.17,73.54 46.5,0 85.44,-12.61 116.81,-37.85 31.72,-25.24 55.52,-65.98 71.74,-122.22zm17.31 -300.68c-2.16,-86.17 -24.16,-151.79 -66.34,-196.49 -42.18,-45.07 -93.38,-67.42 -153.95,-67.42 -64.53,0 -117.89,23.79 -160.07,71.02 -42.18,47.23 -62.73,111.77 -62.01,192.89l442.37 0zm523.85 655.44l0 -1548.84 296.36 0 0 558.82c91.57,-104.19 199.73,-156.47 325.19,-156.47 136.64,0 249.49,49.4 338.9,148.54 89.41,99.15 134.12,241.56 134.12,427.23 0,191.8 -45.43,339.62 -136.64,443.45 -91.22,103.48 -202.26,155.39 -332.41,155.39 -64.17,0 -127.27,-16.58 -189.64,-49.39 -62.37,-33.17 -116.09,-80.76 -161.16,-143.49l0 164.76 -274.72 0zm292.03 -582.98c0,116.45 18.39,202.98 55.16,258.5 51.56,79.32 119.7,118.98 205.14,118.98 65.62,0 121.5,-28.12 168.01,-84.37 46.15,-56.24 69.22,-144.93 69.22,-265.71 0,-128.71 -23.43,-221.36 -69.94,-278.33 -46.51,-56.96 -106,-85.44 -178.83,-85.44 -71.38,0 -130.51,27.76 -177.74,83.28 -47.23,55.52 -71.02,139.89 -71.02,253.09zm1645.45 -965.86l570.36 0c128.71,0 226.77,9.74 294.19,29.57 90.5,26.68 168.37,74.27 232.91,142.77 64.89,68.14 113.92,151.78 147.81,250.93 33.53,98.78 50.48,221 50.48,365.93 0,127.63 -15.87,237.23 -47.59,329.53 -38.58,112.84 -93.74,204.06 -165.49,273.64 -54.08,53 -127.26,94.1 -219.2,123.66 -68.86,21.99 -160.79,32.81 -276.16,32.81l-587.31 0 0 -1548.84zm313.66 261.75l0 1025.35 232.55 0c86.88,0 149.62,-5.05 188.19,-14.79 50.84,-12.62 92.66,-34.25 125.83,-64.53 33.53,-30.29 60.57,-80.04 81.48,-149.26 21.27,-69.22 31.72,-164.04 31.72,-283.74 0,-119.69 -10.45,-211.27 -31.72,-275.44 -20.91,-64.18 -50.48,-113.93 -88.33,-149.98 -37.86,-35.7 -85.81,-60.21 -144.22,-72.83 -43.26,-9.73 -128.7,-14.78 -255.61,-14.78l-139.89 0zm1895.31 932.33l296.36 49.75c-37.86,108.52 -98.07,191.08 -179.91,248.05 -82.2,56.6 -184.95,85.08 -307.89,85.08 -195.05,0 -339.62,-63.81 -433,-191.44 -73.9,-102.39 -111.04,-231.46 -111.04,-387.57 0,-186.03 48.67,-332.05 145.66,-437.32 96.98,-105.64 219.92,-158.28 368.46,-158.28 166.56,0 298.16,55.17 394.78,165.49 96.26,110.32 142.41,279.41 138.08,507.26l-741.97 0c2.16,87.97 25.96,156.47 71.75,205.51 45.42,49.03 102.39,73.54 170.17,73.54 46.5,0 85.44,-12.61 116.81,-37.85 31.72,-25.24 55.52,-65.98 71.74,-122.22zm17.31 -300.68c-2.16,-86.17 -24.16,-151.79 -66.34,-196.49 -42.18,-45.07 -93.38,-67.42 -153.95,-67.42 -64.53,0 -117.89,23.79 -160.07,71.02 -42.18,47.23 -62.73,111.77 -62.01,192.89l442.37 0zm430.83 339.62l298.52 -45.43c12.62,57.32 38.22,100.95 77.16,130.51 38.57,29.92 93.01,44.71 162.59,44.71 76.8,0 134.48,-14.06 173.42,-42.19 25.96,-19.82 38.94,-46.5 38.94,-79.67 0,-22.36 -7.21,-41.1 -21.27,-55.88 -14.79,-14.07 -47.96,-27.41 -99.15,-39.3 -239.75,-53 -391.54,-101.31 -455.71,-144.94 -89.05,-60.93 -133.4,-145.29 -133.4,-253.09 0,-97.7 38.58,-179.54 115.37,-245.88 76.8,-66.34 195.77,-99.51 356.93,-99.51 153.58,0 267.87,25.24 342.5,75.36 74.63,50.47 126.19,124.74 154.31,223.16l-279.05 51.92c-11.9,-43.98 -34.97,-77.87 -68.5,-101.31 -33.53,-23.43 -81.48,-34.97 -143.85,-34.97 -78.6,0 -134.84,10.82 -169.09,32.81 -22.72,15.5 -33.89,35.69 -33.89,60.21 0,21.27 9.73,39.29 29.56,54.08 27.04,19.82 119.7,47.59 278.33,83.64 158.63,36.05 269.32,80.04 332.05,132.31 62.37,52.64 93.38,126.55 93.38,221.01 0,102.75 -42.91,191.44 -129.07,265.35 -85.81,73.91 -213.08,111.04 -381.81,111.04 -152.86,0 -274,-31 -363.41,-92.65 -89.05,-61.66 -147.46,-145.3 -174.86,-251.29zm1309.09 -958.29l0 -274.73 296.35 0 0 274.73 -296.35 0zm0 1274.11l0 -1122.69 296.35 0 0 1122.69 -296.35 0zm572.88 71.38l339.62 41.11c5.77,40.01 18.74,67.41 38.93,82.56 28.49,21.27 72.83,32.08 133.4,32.08 77.51,0 135.56,-11.53 174.5,-34.97 25.95,-15.5 45.78,-40.38 59.12,-74.99 9.02,-24.51 13.7,-70.3 13.7,-136.28l1.45 -164.04c-89.42,122.22 -201.9,183.15 -337.46,183.15 -150.7,0 -270.4,-63.81 -358.37,-191.08 -69.22,-100.59 -103.83,-226.05 -103.83,-375.67 0,-188.2 45.43,-331.69 135.92,-430.84 90.49,-99.14 203.34,-148.9 338.18,-148.9 138.8,0 253.45,60.93 343.58,182.79l0 -158.99 276.89 0 0 1006.6c0,132.31 -10.82,231.46 -32.81,296.72 -21.63,65.61 -52.28,116.81 -91.93,154.3 -39.3,37.14 -91.94,66.7 -157.92,87.61 -65.97,21.27 -149.26,31.73 -249.84,31.73 -190.36,0 -325.2,-32.81 -404.88,-98.07 -79.68,-65.61 -119.33,-148.17 -119.33,-248.76 0,-9.74 0.36,-21.99 1.08,-36.06zm266.07 -655.44c0,118.98 23.07,205.86 68.86,261.03 46.15,55.16 103.11,82.92 170.53,82.92 72.11,0 133.4,-28.48 183.15,-85.09 50.11,-56.6 74.99,-140.24 74.99,-251.29 0,-116.09 -23.79,-202.25 -71.75,-258.5 -47.59,-56.24 -108.15,-84.36 -181.34,-84.36 -71.03,0 -129.43,27.76 -175.58,82.92 -45.79,55.16 -68.86,139.16 -68.86,252.37zm2104.41 584.06l-296.36 0 0 -572.16c0,-121.14 -6.49,-199.37 -19.1,-234.71 -12.98,-35.69 -33.53,-63.09 -62.38,-82.92 -28.84,-19.83 -63.45,-29.56 -103.83,-29.56 -51.91,0 -98.42,14.06 -139.52,42.18 -41.46,28.12 -69.59,65.62 -84.73,111.76 -15.5,46.51 -23.07,132.32 -23.07,257.78l0 507.63 -296.36 0 0 -1122.69 274.73 0 0 164.76c98.42,-125.82 222.08,-188.56 371.7,-188.56 65.62,0 125.83,11.9 180.27,35.34 54.8,23.79 95.9,53.72 123.66,90.13 28.12,36.77 47.59,78.23 58.41,124.74 11.17,46.51 16.58,112.85 16.58,199.38l0 696.9z"/>
 </g>
</svg>
