<?xml version="1.0" encoding="UTF-8"?>
<!DOCTYPE svg PUBLIC "-//W3C//DTD SVG 1.1//EN" "http://www.w3.org/Graphics/SVG/1.1/DTD/svg11.dtd">
<!-- Creator: CorelDRAW 2019 (64-Bit Evaluation Version) -->
<svg xmlns="http://www.w3.org/2000/svg" xml:space="preserve" width="148mm" height="150mm" version="1.1" style="shape-rendering:geometricPrecision; text-rendering:geometricPrecision; image-rendering:optimizeQuality; fill-rule:evenodd; clip-rule:evenodd"
viewBox="0 0 14800 15000"
 xmlns:xlink="http://www.w3.org/1999/xlink"
 xmlns:xodm="http://www.corel.com/coreldraw/odm/2003">
 <defs>
  <style type="text/css">
   <![CDATA[
    .str0 {stroke:black;stroke-width:20;stroke-miterlimit:22.9256}
    .fil1 {fill:black}
    .fil8 {fill:#010101}
    .fil3 {fill:#3E2D44}
    .fil0 {fill:gray}
    .fil6 {fill:#CCCCCC}
    .fil4 {fill:#ED3237}
    .fil5 {fill:#FFF212}
    .fil7 {fill:white}
    .fil2 {fill:url(#id0)}
   ]]>
  </style>
  <linearGradient id="id0" gradientUnits="userSpaceOnUse" x1="7703.55" y1="2707.29" x2="7750.96" y2="16127.3">
   <stop offset="0" style="stop-opacity:1; stop-color:#99CCCC"/>
   <stop offset="1" style="stop-opacity:1; stop-color:#FEFEFE"/>
  </linearGradient>
 </defs>
 <g id="Layer_x0020_1">
  <metadata id="CorelCorpID_0Corel-Layer"/>
  <g id="_2029159101536">
   <g id="thescreen35">
    <rect class="fil0 str0" x="6528.43" y="11410.94" width="845.62" height="1557.72"/>
    <path class="fil0 str0" d="M2812.15 5758.62l8322.69 0c270.34,0 489.57,219.24 489.57,489.58l0 5118.23c0,270.33 -219.23,489.56 -489.57,489.56l-8322.69 0c-270.34,0 -489.56,-219.23 -489.56,-489.57l-0.01 -5118.22c0.01,-270.34 219.23,-489.58 489.57,-489.58l0 0z"/>
    <path class="fil1" d="M3045.91 5929.88l7855.17 0c255.16,0 462.08,206.92 462.08,462.07l0 4830.72c0,255.14 -206.92,462.06 -462.08,462.06l-7855.17 0.01c-255.14,-0.01 -462.07,-206.93 -462.07,-462.08l0 -4830.71c0,-255.15 206.93,-462.07 462.08,-462.07l-0.01 0z"/>
    <path class="fil2" d="M3045.91 5929.88l7855.17 0c255.16,0 462.08,206.92 462.08,462.07l0 4830.72c0,255.14 -206.92,462.06 -462.08,462.06l-7855.17 0.01c-255.14,-0.01 -462.07,-206.93 -462.07,-462.08l0 -4830.71c0,-255.15 206.93,-462.07 462.08,-462.07l-0.01 0z"/>
    <rect class="fil0 str0" x="2931.71" y="12961.17" width="8189.17" height="489.57"/>
   </g>
   <g id="theLogo12">
    <path class="fil3" d="M4217.33 7509.72l-13.18 11.43 102.68 150.66 14.35 -9.71 -103.85 -152.38z"/>
    <path class="fil3" d="M4961.49 7324.84l8.68 -0.15c18.07,-0.24 41.84,-0.56 41.81,-3.31l-0.15 -18.1c0,-0.46 -3.64,-0.06 -8.72,-1.14 -4.13,-0.88 -8.92,-1.48 -13.74,-1.64 -4.82,-0.16 -9.7,0.1 -14.05,0.91 -6.82,1.27 -12.13,3.78 -12.5,7.98l-1.33 15.45z"/>
    <path class="fil3" d="M5028 7268.72l0 0.03c4.35,4.36 7.01,9.73 6.5,16l-2.29 27.73c-1.67,20.3 -14.84,31.01 -34.55,36.89 -16.56,4.94 -37.79,6.29 -60.48,7.33l-0.96 11.11c-0.64,7.4 5.25,10.58 12.7,11.22 3.92,0.35 8.22,0.08 12.4,-0.63 4.25,-0.7 17.33,1.94 20.97,0.51 9.41,-3.47 9.98,-7.19 2.03,-15.08 5.39,-4.54 10.11,-5.77 17.98,-7.82 5.12,-1.33 11.8,-3.07 21.41,-6.62l8.59 -3.18 -0.19 9.19c-0.43,20.98 -4.11,35.33 -11.74,45.08 -7.95,10.14 -16.03,19 -35.72,19.04l-63.9 0.66c-23.67,-0.05 -52.73,-15.02 -49.17,-39.18l13.05 -88.43c3.41,-23.12 18.55,-33.66 41.48,-33.72l78.94 -0.21c11.32,0.07 17.92,5.06 22.95,10.08z"/>
    <path class="fil3" d="M4847.74 7370.32c0.83,39.96 -20,49.87 -31.52,49.75l-37.53 -0.4c-4.7,-0.75 -11.23,-4.49 -15.7,-15.97 -5.81,8.55 -17.24,16.08 -25,16.41l-20.21 -0.13c-32.41,0.07 -42.73,-27.1 -41.85,-51.1l11.22 -106.2 57.58 -36.58 -17.3 143.28c0.21,2.19 0.65,3.61 1.23,4.43 0.22,0.31 0.55,0.46 0.94,0.49 1.08,0.08 2.47,-0.29 3.95,-0.95 3.8,-1.68 7.55,-4.87 9.65,-7.76l37.46 -58.74 0.44 20.6c0.18,25.62 11.51,43.58 26.51,39.26l-12.83 -107.37 58.62 -0.18 -5.66 111.16z"/>
    <path class="fil3" d="M5158.19 7258.78l-4.71 177.08c-1.49,34.6 -18.73,52.23 -44.03,55.59l-26.12 1.79c-26.58,3 -69.67,-12.78 -70.25,-73.99l60.64 0.01c0.68,36.14 16.38,18.43 15.17,1.76l0.19 -162.12 69.11 -0.12z"/>
    <path class="fil3" d="M5094.91 7174l63.5 -3.1 0 61.96 -71.14 3.48 0 -61.96 7.64 -0.38z"/>
    <path class="fil3" d="M5244.15 7351.36l-3.43 0.75c-4.25,0.92 -9.65,1.97 -16.2,3.17 -5.82,1.07 -10.74,2.15 -14.76,3.24 -3.55,0.96 -6.05,1.85 -7.46,2.65 -1.98,1.23 -3.42,2.55 -4.34,3.94 -0.77,1.16 -1.14,2.48 -1.14,3.93 0,3.38 1.56,6.35 4.68,8.94 1.69,1.41 3.63,2.47 5.83,3.19 2.3,0.75 4.92,1.13 7.86,1.13 3.45,0 6.78,-0.47 9.98,-1.41 3.22,-0.94 6.42,-2.37 9.57,-4.29 2.14,-1.39 3.91,-2.88 5.27,-4.49 1.26,-1.49 2.18,-3.08 2.76,-4.78l0.01 -0.08c0.42,-1.16 0.75,-3.02 0.98,-5.57 0.25,-2.62 0.38,-6.06 0.39,-10.32z"/>
    <path class="fil3" d="M5191.09 7320.98l5.2 -32.42c0,0 0.68,-25.88 38.74,-29.67l57.81 -0.36c33.92,2.9 45.49,32.76 45.49,62.09l-3.27 59.47 18.72 36.76 -143.6 1.21c-17.49,0.29 -32.8,-14.08 -28.9,-35.98l4.26 -23.9c5.39,-30.23 70.73,-35.5 96.53,-43.97 -0.18,-7.82 -2.54,-10.84 -10.42,-12.38l-22.8 -0.18c-8.49,1.86 -8.95,2.82 -11.06,8.01l-46.7 11.32z"/>
    <path class="fil3" d="M5376.86 7300.12c-12.44,-20.68 -11.46,-23.37 -29.58,-40.64l69.82 0.41 4.51 24.5c12.17,-10.26 19.21,-23.31 55.86,-25.92l28.32 -0.22 -23.33 46.27c-44.97,16.42 -49.86,11.45 -48.81,42.91l2.47 73.62 -55.56 0.06 -3.7 -120.99z"/>
    <path class="fil3" d="M4548.75 7093.97l117.82 -0.34 1.57 0.63c26.02,10.64 57,34.6 53.19,80.57l-3.32 40.13c-0.3,28.42 -31.5,45.42 -58.38,45.54l-67 -0.08c-15.52,0.07 -26.91,6.7 -26.81,27.17l0.84 168.48 -76.69 -52.91 -0.77 -138.94c-0.11,-17.51 6,-33.09 16.24,-45.61 10.67,-13.02 25.84,-22.69 43.16,-27.67l105.84 -2.26c8.93,-5.56 8.13,-15.3 -0.33,-20.42l-181.2 0.71 75.84 -75z"/>
    <path class="fil3" d="M3860.65 7367.38l21.17 35.14c285.57,237.23 148.52,216.1 432.28,9.66l23.73 -44.8c19.89,22.32 19.89,58.84 0,81.16l-202.42 227.09c-19.89,22.32 -52.45,22.32 -72.35,0l-202.41 -227.09c-19.9,-22.32 -19.9,-58.84 0,-81.16z"/>
    <path class="fil3" d="M4098.96 7170.04c99.02,0 178.65,100.16 178.65,191.92 0,91.75 -179.29,193.02 -179.29,193.02 0,0 -179.3,-101.27 -179.3,-193.02 0,-91.76 80.91,-191.92 179.94,-191.92z"/>
    <path class="fil3" d="M3981.88 7194.99l-88.18 -129.36 -3.25 -0.73 -11.22 -13.29 -58.92 -29.08 -8.65 -93.56 83.66 42.79 3.03 61.18 11.58 18.81 -1.55 4.66 86.61 127.08 -13.11 11.5z"/>
    <path class="fil4" d="M4126.23 7215.28c37.19,20.42 73.95,53.04 90.4,93.55 -0.07,-2.84 -0.26,-5.61 -0.62,-8.25 -10.29,-78.07 -55.28,-103.72 -63.68,-111.4 78.51,43.13 155.22,140.61 42.65,251.97 -3.69,3.64 -6.34,5.75 -8.18,6.59 -5.35,6.45 -11.29,12.96 -17.92,19.51 -37.27,36.86 28.94,-80.57 21.03,-140.56 -10.29,-78.09 -55.28,-103.73 -63.68,-111.41z"/>
    <path class="fil5" d="M4132.29 7306.13c24.03,13.19 47.8,34.29 58.43,60.47 -0.04,-1.84 -0.17,-3.63 -0.39,-5.33 -6.66,-50.48 -35.75,-67.06 -41.17,-72.02 50.74,27.88 100.34,90.89 27.56,162.89 -2.38,2.35 -4.09,3.72 -5.28,4.25 -3.46,4.18 -7.3,8.38 -11.58,12.62 -24.1,23.84 18.71,-52.08 13.6,-90.86 -6.66,-50.48 -35.75,-67.06 -41.17,-72.02z"/>
    <path class="fil4" d="M4072.96 7233.54c-37.18,20.43 -73.95,53.05 -90.4,93.56 0.07,-2.85 0.27,-5.61 0.62,-8.25 10.29,-78.08 55.28,-103.72 63.68,-111.41 -78.5,43.13 -155.22,140.61 -42.65,251.97 3.69,3.65 6.34,5.76 8.18,6.6 5.35,6.44 11.3,12.95 17.92,19.5 37.27,36.87 -28.95,-80.57 -21.03,-140.56 10.29,-78.09 55.28,-103.72 63.68,-111.41z"/>
    <path class="fil5" d="M4063.36 7318.12c-24.03,13.2 -47.81,34.3 -58.44,60.48 0.05,-1.84 0.17,-3.63 0.4,-5.33 6.66,-50.48 35.74,-67.06 41.17,-72.02 -50.75,27.87 -100.34,90.89 -27.58,162.89 2.38,2.35 4.11,3.72 5.29,4.25 3.46,4.18 7.31,8.38 11.59,12.61 24.09,23.84 -18.71,-52.08 -13.6,-90.86 6.65,-50.47 35.74,-67.06 41.17,-72.02z"/>
    <path class="fil3" d="M4285.48 7062.25c26.27,-8.98 39.2,-10.55 44.32,-10.54 -2.83,-0.94 -7.39,-3.55 -11.57,-10.06 -9.5,-14.78 -49.65,-8.06 -30.12,-15.05 68.65,-24.57 -2.41,-12.48 9.36,-23.52 51.68,-48.46 40.57,-22.86 -5.08,-41.09 51.15,-43.07 -11.2,-10.59 -34.54,-35.35 51.9,-92.93 -49.51,-35.62 -23.37,-76.62 23.9,-37.53 -58.01,13.64 -58.72,-5.09 -0.99,-26.44 40.55,-33.05 16.33,-36.73 -39.77,-6.04 -101.99,73.28 -120.86,99.61 -24.34,33.97 -38.47,20.42 -46.7,62.85 -8.7,44.81 -27.15,43.16 -26.93,65.47 0.14,14.69 -7.51,5.15 -5.7,17.82 19.55,11.32 -4.09,10.97 11.2,13.94 15.58,3.02 -18.05,53.52 53.97,19.46l4.43 -3.54c-0.93,14.25 11.96,43.67 20.82,71.73 5.77,-0.69 11.6,-1.04 17.5,-1.04 49.75,0 94.61,25.28 126.92,62.08 6.12,-8.21 7.42,-18.43 1.6,-30.67 -14.13,-1.61 -45.39,-42.7 -50.23,-50.86 -21.84,-36.8 -67.11,-54.33 -31.05,-45.64 28.03,6.75 133.07,-7.96 140.09,-10.66 65.53,-25.15 -37.48,-4.26 -1.67,-16.5z"/>
   </g>
   <rect class="fil0" x="6365.81" y="6201.61" width="4347.76" height="1732.37"/>
   <rect class="fil6" x="4361.76" y="8239.69" width="6351.81" height="1188.84"/>
   <rect class="fil7" x="3240.86" y="9768.19" width="7370.81" height="1421.78"/>
   <g id="_2028849727536">
    <path class="fil1" d="M6916.81 2845.99c40.03,97.79 -6.78,209.52 -104.56,249.56 -97.77,40.03 -209.47,-6.78 -249.49,-104.58 -40.03,-97.79 6.78,-209.52 104.55,-249.55 97.77,-40.04 209.48,6.78 249.5,104.57zm-526.69 215.67c13.83,33.79 32.01,64.48 53.6,91.73l1462.51 2503.22 -802.22 -2887.26 -14.56 5.96c-79.06,-193.16 -299.7,-285.64 -492.81,-206.56 -193.12,79.08 -285.58,299.76 -206.52,492.91z"/>
    <path class="fil1" d="M6675.8 3803.46l-397.3 -616.81 -721.72 2479.28 1119.02 -1862.47z"/>
    <path class="fil1" d="M6695.67 2123.03l-60.59 6.42c-42.84,4.55 -74.17,43.32 -69.63,86.18l31.99 301.65c71.36,-28.88 146.42,-34.41 216.66,-20.13l-32.28 -304.48c-4.55,-42.85 -43.31,-74.18 -86.15,-69.64z"/>
   </g>
   <path class="fil8" d="M3358.02 5254.71c7.24,-27.19 19.23,-31.8 38.37,-56.89l124.88 -160.88c29.24,-36.71 53.89,-68.34 83.92,-106.6 30.09,-38.34 53.42,-70.14 83.59,-106.91 247.92,-302.22 506.86,-657.96 753.42,-961.18l256.88 -323.32 1.13 1714.89c-36.57,0.03 -48.15,-6.25 -70.09,-6.89l-103.1 7.01c-36.56,0.02 -48.15,-6.26 -70.09,-6.89l-103.09 7.01c-36.57,0.01 -48.16,-6.27 -70.09,-6.9l-103.1 7.01c-36.57,0.03 -48.15,-6.26 -70.08,-6.9l-103.1 7.01c-36.58,0.03 -48.16,-6.26 -70.09,-6.89l-103.1 7c-36.56,0.03 -48.15,-6.25 -70.09,-6.88l-103.09 7c-36.57,0.02 -48.16,-6.26 -70.09,-6.89 -58.33,-1.69 -29.97,12.09 -166.13,0.71 -30.42,-2.55 -35.3,5.49 -66.86,6.38zm1766.77 423.23l-2.24 -3403.81c-39.62,26.57 -273.4,342.48 -335.43,417.96l-2257.46 2877.69c-20.11,24.82 -73.57,83.59 -80.58,109.92l2675.71 -1.76z"/>
   <path class="fil8" d="M9502.08 11209.8c21.94,-27.36 97.33,-242.84 203.12,-391.99 399.38,-563.1 1002.29,-837.14 1671.24,-737.01 515.27,77.12 981.14,406.11 1245.35,920.28 38.87,75.66 56.35,145.14 93.51,205.62 -51.41,20.12 -324.08,14.02 -394.78,13.09l-2217.1 9.31c-72.48,2.26 -132.15,-0.22 -201.63,1.29l-352.54 0.35c-60.88,-10.42 -6.3,-1.04 -47.17,-20.94zm-625.28 599.49c41.97,-16.42 605.26,-10.68 696.46,-10.02l2670.65 -11.45c193.43,-2.04 373.14,0.21 563.97,0.13 86.73,-0.04 515.92,4.39 566.64,-17.36 -22.48,-57.43 -12.13,-208.07 -23.38,-285.56 -83.11,-572.27 -310.17,-1048.31 -761.01,-1437.84 -89.52,-77.34 -160.69,-135.24 -252.5,-193.32 -160.39,-101.46 -345.97,-195.39 -525.85,-249.94l-270.93 -72.47c-50.28,-8.65 -87.35,-12.71 -137.84,-20.72 -58.73,-9.31 -82.98,-6.96 -139.22,-11.64 -104.82,-8.7 -174.94,-7.71 -281.51,-3.18 -965.26,40.99 -1810.5,745.8 -2051.51,1677.05 -28.45,109.94 -62.79,263.84 -65.67,372.69 -1.45,54.75 -6.09,75.57 -7.05,129.84 -0.87,49.38 -10.31,86.48 18.75,133.79z"/>
   <path class="fil8" d="M11924.86 11173.14l-162.36 0 0 37.47 162.36 0 0 -37.47zm62.45 -74.93l-224.81 0 0 37.47 224.81 0 0 -37.47zm-62.45 -62.44l-162.36 0 0 24.97 162.36 0 0 -24.97zm62.45 -74.94l-224.81 0 0 24.98 224.81 0 0 -24.98zm-62.45 -74.93l-162.36 0 0 37.46 162.36 0 0 -37.46zm62.45 -74.94l-224.81 0 0 37.47 224.81 0 0 -37.47zm-62.45 -62.45l-162.36 0 0 24.98 162.36 0 0 -24.98zm62.45 -74.94l-224.81 0 0 24.98 224.81 0 0 -24.98zm-62.45 -74.93l-162.36 0 0 37.47 162.36 0 0 -37.47zm62.45 -74.93l-224.81 0 0 37.46 224.81 0 0 -37.46zm-62.45 -62.45l-162.36 0 0 24.98 162.36 0 0 -24.98zm62.45 -74.93l-224.81 0 0 24.98 224.81 0 0 -24.98zm-62.45 -74.93l-162.36 0 0 37.46 162.36 0 0 -37.46zm62.45 -74.94c-97.12,0 -154.36,16.41 -224.81,0l0 37.47 224.81 0 0 -37.47zm-62.45 -62.44l-162.36 0 0 24.98 162.36 0 0 -24.98zm62.45 -74.94l-224.81 0 0 37.47 224.81 0 0 -37.47zm-224.81 -74.93l0 37.47 162.36 0c-17.28,-64.69 -10.63,-29.6 -62.22,-28.85 -46.8,0.67 -42.93,-8.62 -100.14,-8.62zm224.81 -62.44l-224.81 0 0 24.97 224.81 0 0 -24.97zm-62.45 -74.94l-162.36 0 0 37.47 162.36 0 0 -37.47zm62.45 -74.93l-224.81 0 0 37.47 224.81 0 0 -37.47zm-62.45 -62.45l-162.36 0 0 24.98 162.36 0 0 -24.98zm62.45 -74.94l-224.81 0 0 24.98 224.81 0 0 -24.98zm-62.45 -74.93l-162.36 0 0 37.47 162.36 0 0 -37.47zm62.45 -74.93l-224.81 0 0 37.46 224.81 0 0 -37.46zm-62.45 -62.45l-162.36 0 0 24.98 162.36 0 0 -24.98zm62.45 -74.93l-224.81 0 0 24.98 224.81 0 0 -24.98zm-62.45 -74.94l-162.36 0 0 37.47 162.36 0 0 -37.47zm62.45 -74.93l-224.81 0 0 37.47 224.81 0 0 -37.47zm-62.45 -62.44l-162.36 0 0 24.97 162.36 0 0 -24.97zm62.45 -74.94l-224.81 0 0 24.98 224.81 0 0 -24.98zm-62.45 -74.93l-162.36 0 0 37.47 162.36 0 0 -37.47zm62.45 -74.93l-224.81 0 0 37.46 224.81 0 0 -37.46zm-62.45 -62.45l-162.36 0 0 24.98 162.36 0 0 -24.98zm62.45 -37.46l0 -37.47 -224.81 0 0 37.47c108.2,0 131.42,-9.78 224.81,0zm-62.45 -112.41l-162.36 0 0 37.47 162.36 0 0 -37.47zm62.45 -62.45l-224.81 0 0 24.98 224.81 0 0 -24.98zm-62.45 -74.93l-162.36 0 0 37.46 162.36 0 0 -37.46zm62.45 -74.94l-224.81 0 0 37.47 224.81 0 0 -37.47zm-62.45 -62.44l-162.36 0 0 24.98 162.36 0 0 -24.98zm62.45 -74.94l-224.81 0 0 24.98 224.81 0 0 -24.98zm-62.45 -74.93l-162.36 0 0 37.47 162.36 0 0 -37.47zm62.45 -74.93l-224.81 0 0 37.46 224.81 0 0 -37.46zm-62.45 -62.45l-162.36 0 0 24.98 162.36 0 0 -24.98zm62.45 -74.93l-224.81 0 0 24.98 224.81 0 0 -24.98zm-62.45 -74.94l-162.36 0 0 37.47 162.36 0 0 -37.47zm62.45 -74.93l-224.81 0 0 37.47 224.81 0 0 -37.47zm-62.45 -62.44l-162.36 0 0 24.97 162.36 0 0 -24.97zm62.45 -74.94l-224.81 0 0 24.98 224.81 0 0 -24.98zm-62.45 -74.93l-162.36 0 0 37.47 162.36 0 0 -37.47zm62.45 -74.94l-224.81 0 0 37.47 224.81 0 0 -37.47zm-62.45 -62.44l-162.36 0 0 24.98 162.36 0 0 -24.98zm62.45 -74.94l-224.81 0 0 24.98 224.81 0 0 -24.98zm-62.45 -74.93l-162.36 0 0 37.46 162.36 0 0 -37.46zm62.45 -62.45c-58.04,0 -52.31,-7.87 -100.57,-11.83 -37.81,-3.11 -85.39,-0.66 -124.24,-0.66l0 37.47 224.81 0 0 -24.98zm-62.45 -74.93l-162.36 0 0 24.98 162.36 0 0 -24.98zm62.45 -74.94l-224.81 0 0 37.47 224.81 0 0 -37.47zm487.07 4171.34l-761.84 0 0 -4296.22 761.84 0 0 4296.22z"/>
  </g>
 </g>
</svg>
